<svg width="128" height="128" viewBox="0 0 128 128" fill="none" xmlns="http://www.w3.org/2000/svg">
<path d="M35.0879 80.595L41.4879 87.98C111.343 40.68 120.423 8.5 120.423 8.5C86.0779 28.68 41.5579 73.94 35.0879 80.595ZM81.9879 52.92C70.4529 63.115 58.0979 73.19 45.2379 81.28C70.4929 63.575 93.9729 42.78 112.158 17.735L112.253 17.795C104.238 31.105 93.4979 42.575 81.9829 52.92H81.9879Z" fill="white"/>
<path d="M23.268 103.51C27.353 97.6699 36.293 91.7349 38.323 90.4299L31.888 83.0049L14.543 100.195L14.498 100.3C15.733 101.205 19.553 103.735 23.268 103.51Z" fill="white"/>
<path d="M12.5577 105.615C13.8327 106.535 17.3077 108.775 20.7727 108.775C20.9327 108.17 21.1727 107.48 21.5077 106.7C17.9627 106.6 14.5627 104.415 13.2477 103.46C13.0127 104.225 12.7827 104.945 12.5527 105.615H12.5577Z" fill="white"/>
<path d="M22.1479 113.21C21.8979 113.13 21.9879 113.15 21.9879 113.15C21.9879 113.15 21.1329 112.97 20.7179 111.92C20.4979 111.945 20.2729 111.97 20.0529 111.97C16.3729 112.045 12.7679 109.73 11.3929 108.73C10.6279 110.59 9.92787 111.92 9.33287 112.865C9.34287 112.865 9.34786 112.875 9.34786 112.875C8.94286 113.66 9.49787 114.265 10.2079 114.575C12.1779 115.64 14.4179 116.1 16.6379 116.25C18.9779 116.495 21.4779 115.97 23.0679 114.21C23.2829 113.76 22.5729 113.555 22.1979 113.38L22.2029 113.325C22.2579 113.325 22.0979 113.21 22.1479 113.21Z" fill="white"/>
<path d="M21.7677 106.135C21.8927 105.865 22.0277 105.59 22.1727 105.305C22.3777 104.905 22.6127 104.505 22.8727 104.105C19.1977 104.14 15.6077 101.82 14.2677 100.845L13.5327 102.535C13.4977 102.655 13.4627 102.765 13.4277 102.88C14.5677 103.72 18.1677 106.13 21.7677 106.135Z" fill="white"/>
<path d="M20.5682 111.355C20.4732 110.84 20.4782 110.185 20.6432 109.345C17.1432 109.3 13.7632 107.185 12.3632 106.18C12.1082 106.9 11.8632 107.565 11.6182 108.18C12.9032 109.115 16.8232 111.685 20.5682 111.355Z" fill="white"/>
<path d="M26.103 112.405C24.723 113.3 23.683 113.475 22.993 113.43C23.593 113.665 23.843 114.245 23.148 114.945C21.398 116.575 18.853 116.88 16.618 116.61C14.368 116.405 12.103 115.855 10.148 114.695C9.48797 114.37 8.95297 113.78 9.22297 113.05C8.55297 114.085 8.01797 114.625 7.68297 114.895C7.47297 115.065 7.43797 115.38 7.60797 115.585C10.088 118.56 13.888 119.235 16.858 119.23C19.353 119.225 21.703 118.825 23.633 117.245C23.633 117.245 24.763 116.33 25.263 115.735C25.793 115.105 26.673 114.07 26.843 113.78C27.433 112.775 28.253 111.015 26.113 112.4L26.103 112.405Z" fill="white"/>
<path d="M40.4484 88.685C40.4784 88.665 34.2934 81.415 34.2934 81.415H34.2884L33.6534 80.72C33.3284 80.36 32.7684 80.34 32.4134 80.67L31.4834 81.545L32.3234 82.575L32.2984 82.6L39.8734 91.34L40.8234 90.5C41.2034 90.145 41.2284 89.545 40.8784 89.16L40.4484 88.69V88.685Z" fill="white"/>
</svg>
