<svg width="128" height="128" viewBox="0 0 128 128" fill="none" xmlns="http://www.w3.org/2000/svg">
<path d="M16.12 118.312C15.1523 117.568 14.0317 116.637 12.8866 115.53C12.7838 115.427 12.6789 115.326 12.5786 115.226C11.5656 114.213 10.7255 113.192 10.049 112.279C9.69941 112.187 9.21501 111.925 7.18714 112.534C5.65372 112.993 5.31695 114.286 6.50109 115.74C7.41087 116.856 11.5527 120.998 12.6715 121.91C14.1251 123.094 15.4183 122.757 15.8771 121.224C16.515 119.095 16.1944 118.665 16.12 118.312Z" fill="white"/>
<path d="M109.236 27.0169C109.623 27.5555 109.994 28.1203 110.252 28.7108C110.641 28.3467 111.027 27.9822 111.416 27.6181L109.367 26.8031L109.236 27.0169Z" fill="white"/>
<path d="M90.0922 29.8501L90.1289 29.5667L90.358 29.6821L90.3209 29.9608L92.3671 31.5859L92.923 31.2152C92.4986 30.3233 92.022 29.4424 91.6065 28.5467C91.4268 28.1607 91.2416 27.7649 91.084 27.3672C90.4585 28.0389 89.8356 28.7133 89.2106 29.3897C89.4619 29.5652 89.7099 29.7542 89.9512 29.9449L90.0892 29.8429L90.0922 29.8501Z" fill="white"/>
<path d="M91.6496 27.5113C92.226 28.8837 92.935 30.216 93.5877 31.5636C93.8706 32.1497 94.1492 32.7401 94.4274 33.3257C94.8579 33.7436 95.2716 34.1784 95.712 34.6019C96.7053 35.5573 97.9502 36.3641 99.1868 36.8552C99.8061 37.0997 100.477 37.2313 101.016 36.97C101.548 36.7103 101.834 36.1414 101.925 35.5462C102.069 34.595 101.712 33.5639 101.276 32.5759C100.505 31.9321 99.7221 31.2962 98.9419 30.6675L98.8408 30.7686L98.768 31.2939L98.5389 31.1785L98.6103 30.6392L96.5128 28.9419L95.9156 29.3386L95.7321 29.1467L96.462 28.6636C95.5593 27.9209 94.6514 27.1731 93.783 26.3806C93.5337 26.3882 93.287 26.3984 93.0377 26.406C92.7379 26.4179 92.4355 26.4271 92.1353 26.4343C92.0822 26.436 92.0202 26.4414 91.9493 26.4506C91.7797 26.6305 91.6126 26.813 91.4451 26.9908C91.5086 27.1638 91.5768 27.3373 91.6496 27.5113Z" fill="white"/>
<path d="M107.181 31.1026L107.282 31.4947C107.431 31.3567 107.581 31.2165 107.727 31.0759C107.565 31.032 107.403 30.9834 107.24 30.9349L107.178 31.1L107.181 31.1026Z" fill="white"/>
<path d="M113.373 25.6713C113.267 25.0982 112.905 24.5458 112.539 24.0579C112.536 24.0554 112.534 24.0528 112.531 24.0502C112.429 23.9984 112.324 23.9439 112.221 23.8921C110.748 23.1181 109.341 22.1655 107.969 21.1562C107.388 21.1516 106.812 21.1569 106.237 21.1715C105.548 21.1863 104.861 21.2106 104.177 21.2467C105.232 22.4028 106.33 23.5308 107.368 24.7037C107.757 24.953 108.147 25.2002 108.536 25.4542C108.838 25.6509 109.156 25.8724 109.483 26.0855L109.53 26.0023L109.461 25.706L109.701 25.7391L109.77 26.0353L112.124 26.9409L112.491 26.343L112.667 26.4439C112.907 26.22 113.146 25.996 113.381 25.7716C113.378 25.7389 113.377 25.7087 113.371 25.6734L113.373 25.6713Z" fill="white"/>
<path d="M87.0632 32.1954C87.3996 33.2268 88.034 34.1813 88.7349 35.059C89.4649 35.9744 90.282 36.8336 91.0623 37.7192L91.4087 37.6402L91.5452 37.406L91.7345 37.5869L91.6002 37.819L93.0926 39.9516L93.8158 39.8198L93.9337 40.0515L93.1173 40.1995L92.9987 40.241C93.0625 40.3469 93.1288 40.4553 93.1905 40.5634C93.4989 41.1034 93.7287 41.6449 93.9038 42.1948C94.1666 42.3228 94.4305 42.4394 94.6994 42.5356C94.8771 42.5995 95.0597 42.6432 95.2388 42.6749C95.8458 42.1194 96.4548 41.5617 97.0617 41.0062C96.994 40.4415 96.8114 39.863 96.6202 39.3138C96.3088 38.4169 95.9175 37.5329 95.5111 36.659C95.0138 35.5931 94.4623 34.5404 93.9514 33.4778C93.7497 33.2887 93.5417 33.106 93.3257 32.9363C92.9442 32.639 92.5428 32.3977 92.141 32.1517L91.9652 32.3171L91.895 32.845L91.6659 32.7296L91.7373 32.1902L89.6399 30.4929L89.0426 30.8896L88.8591 30.6977L89.5628 30.2306C89.5278 30.2039 89.4948 30.1752 89.4597 30.1486C89.2746 30.0097 89.0895 29.8709 88.9006 29.741C88.2524 30.4406 87.6047 31.1449 86.9591 31.847C86.9894 31.9658 87.0198 32.0846 87.0595 32.2043L87.0632 32.1954Z" fill="white"/>
<path d="M90.4371 39.8194C91.3323 40.5336 92.29 41.2933 93.2993 41.873C93.1106 41.3726 92.8672 40.8807 92.5618 40.3942L92.4296 40.439L92.1743 40.8743L91.9849 40.6934L92.2462 40.2471L90.7271 38.0331L89.9857 38.1677L89.8677 37.936L90.5455 37.8136C90.4593 37.7147 90.373 37.6158 90.2847 37.5191C88.8577 35.9278 87.2251 34.2489 86.5859 32.2451C85.8402 33.0577 85.0944 33.8703 84.3513 34.6855C84.2822 34.7597 84.2158 34.8364 84.1446 34.9127C84.871 35.3021 85.5688 35.823 86.2219 36.3371C87.6513 37.4633 89.0135 38.6823 90.4345 39.8169L90.4371 39.8194Z" fill="white"/>
<path d="M109.528 28.2872C109.355 27.9875 109.168 27.6957 108.973 27.4077L108.762 27.2895L108.822 27.1936C108.307 26.464 107.735 25.7658 107.133 25.0877C107.067 25.0464 107.002 25.0029 106.937 24.9594C105.07 23.762 103.179 22.6038 101.274 21.4859C100.349 21.5883 99.4309 21.7193 98.5253 21.8793C98.0201 21.968 97.5163 22.0707 97.0207 22.1858C97.1658 22.5036 97.3108 22.8213 97.4559 23.139L97.6379 22.9673L97.791 23.1793L97.5984 23.3616L98.5291 25.48C98.5616 25.5504 98.5941 25.6208 98.6265 25.6911L99.3907 25.7394L99.4565 25.9821L98.7391 25.9385C98.7984 26.0694 98.8603 26.2029 98.9197 26.3338C98.9694 26.4383 99.0145 26.5424 99.0642 26.6469C99.9606 27 100.839 27.4532 101.702 27.8909C102.682 28.3866 103.659 28.8959 104.65 29.3649L104.577 29.0635L104.815 29.0919L104.891 29.3865L107.258 30.2332L107.607 29.6219L107.837 29.7467L107.443 30.4344L107.417 30.5013C107.661 30.5812 107.904 30.647 108.148 30.706C108.73 30.1596 109.313 29.6133 109.897 29.0648C109.795 28.7861 109.669 28.5165 109.541 28.2954L109.528 28.2872Z" fill="white"/>
<path d="M106.938 31.0622L104.5 30.1623L104.144 30.7866L103.913 30.6619L104.385 29.8359L104.39 29.841L104.421 29.7793C103.579 29.3714 102.753 28.9327 101.953 28.5244C101.092 28.0845 100.22 27.625 99.3301 27.2494C99.9129 28.5229 100.496 29.7964 101.078 31.0699C101.271 31.4896 101.476 31.9221 101.672 32.3584C102.492 33.0396 103.318 33.7306 104.091 34.4743C105.104 33.5285 106.119 32.5806 107.129 31.6322L107.082 31.6276L106.935 31.0596L106.938 31.0622Z" fill="white"/>
<path d="M96.3219 21.7643C96.2966 21.7896 96.2712 21.815 96.2459 21.8403C96.2799 21.8321 96.3092 21.8234 96.3406 21.8126C96.332 21.7955 96.3254 21.7763 96.3193 21.7617L96.3219 21.7643Z" fill="white"/>
<path d="M117.219 21.0081L117.206 21.2985L116.972 21.1988L116.985 20.913L114.844 19.4337L114.302 19.8729L114.108 19.6915L114.716 19.1964L114.81 19.0876C113.696 18.1804 112.584 17.2664 111.473 16.3571C110.084 15.2211 108.691 14.0846 107.302 12.9486C106.931 12.6455 106.318 12.1122 105.705 11.7641C105.194 12.3106 104.681 12.8546 104.17 13.4012C104.253 13.5553 104.347 13.7082 104.441 13.8449C104.506 13.9347 104.575 14.0202 104.644 14.1105L104.76 14.0711L104.872 13.8206L105.076 13.9867L104.964 14.2326L106.619 16.2587L107.317 16.0596L107.453 16.2838L106.681 16.5057C107.663 17.6475 108.642 18.7914 109.624 19.9333C109.855 20.2016 110.09 20.4704 110.325 20.7392C112.119 20.832 114.031 20.9874 115.813 21.6531C116.221 21.8049 116.693 22.0116 117.043 22.3358C117.437 21.9674 117.831 21.5991 118.222 21.2283C117.922 21.1636 117.626 21.0485 117.333 20.9037L117.223 21.0038L117.219 21.0081Z" fill="white"/>
<path d="M101.556 18.0103C102.208 18.9828 102.965 19.8916 103.752 20.771C104.93 20.6983 106.117 20.6635 107.309 20.664C106.458 20.0237 105.619 19.3661 104.789 18.7209C103.775 17.9347 102.767 17.1329 101.717 16.3988C101.645 16.3476 101.571 16.2985 101.498 16.2473C101.293 16.4677 101.086 16.6856 100.881 16.906C101.087 17.2807 101.314 17.6506 101.556 18.0103Z" fill="white"/>
<path d="M96.7412 21.5765C96.759 21.6153 96.7793 21.6567 96.7971 21.6955C98.0158 21.4022 99.2767 21.2058 100.547 21.0566C99.7732 20.6115 98.998 20.1732 98.2212 19.7417C97.7043 20.2946 97.1827 20.8471 96.6658 21.3999C96.6926 21.4605 96.7169 21.5185 96.7433 21.5744L96.7412 21.5765Z" fill="white"/>
<path d="M112.485 16.6158C113.352 17.3225 114.206 18.072 115.085 18.7822L115.183 18.6691L115.208 18.1299L115.442 18.2296L115.419 18.7829L117.612 20.3324L118.165 19.8826L118.359 20.064L117.714 20.5856C118.03 20.7166 118.353 20.7997 118.68 20.8021C118.782 20.7057 118.881 20.6114 118.985 20.5175C119.328 20.1951 119.661 19.8624 119.989 19.5245C119.908 18.5094 118.952 17.4557 118.281 16.6759C117.287 15.5212 116.275 14.3787 115.216 13.2778C114.4 12.4326 113.554 11.6029 112.668 10.8226L112.658 11.0901L112.423 10.9904L112.436 10.7046L110.296 9.22526L109.754 9.66451L109.56 9.48314L110.168 8.98796L110.239 8.90701C109.878 8.65581 109.511 8.41562 109.137 8.18852C108.711 8.58841 108.301 9.00374 107.903 9.42724C107.28 10.0922 106.654 10.7593 106.03 11.4242C106.85 11.8994 107.613 12.6282 108.318 13.2031C109.707 14.3391 111.1 15.4755 112.489 16.6115L112.485 16.6158Z" fill="white"/>
<path d="M106.582 19.5406C107.081 19.9213 107.584 20.2978 108.091 20.67C108.629 20.6772 109.165 20.6912 109.707 20.715C109.553 20.5399 109.399 20.3648 109.247 20.1876C108.252 19.0283 107.254 17.8663 106.259 16.707L106.016 16.8217L105.807 17.2872L105.603 17.121L105.817 16.6445L104.133 14.5391L103.422 14.7416L103.286 14.5174L104.166 14.2646C104.045 14.0974 103.934 13.9312 103.836 13.7617C103.164 14.4751 102.492 15.1932 101.82 15.9066C102.289 16.2288 102.746 16.5845 103.192 16.9205C104.329 17.7838 105.447 18.6706 106.585 19.5385L106.582 19.5406Z" fill="white"/>
<path d="M110.626 8.45692L110.651 7.91764L110.886 8.01736L110.862 8.57068L113.056 10.1202L113.608 9.67038L113.802 9.85174L113.07 10.4457L113.064 10.4405L112.979 10.5154C114.933 12.2332 116.697 14.1659 118.395 16.1291C119.172 17.0284 120.057 17.9892 120.379 19.1071C120.741 18.7194 121.088 18.321 121.425 17.9122C122.715 16.3388 122.788 14.4359 121.317 12.4976C120.563 11.5034 116.91 7.85007 115.913 7.0934C113.975 5.62259 112.074 5.69287 110.498 6.98557C110.149 7.27271 109.811 7.57013 109.475 7.87479C109.831 8.09536 110.183 8.32948 110.528 8.56993L110.626 8.45692Z" fill="white"/>
<path d="M116.675 22.6167C116.443 22.4316 116.173 22.3006 115.91 22.1934C115.102 21.8606 114.259 21.6957 113.435 21.5629C112.546 21.4188 111.656 21.3211 110.768 21.2582C111.465 22.0523 112.16 22.8531 112.805 23.6789C113.163 23.8511 113.523 24.0097 113.891 24.1411C114.193 24.2499 114.517 24.3423 114.838 24.3974C115.458 23.8131 116.081 23.2314 116.703 22.645C116.693 22.6347 116.683 22.6244 116.672 22.6141L116.675 22.6167Z" fill="white"/>
<path d="M113.786 25.3925C114.004 25.1896 114.217 24.9863 114.436 24.7834C114.068 24.6936 113.694 24.5638 113.327 24.4115C113.52 24.7271 113.685 25.0607 113.788 25.3951L113.786 25.3925Z" fill="white"/>
<path d="M93.2699 25.2786C93.4688 25.486 93.6761 25.6849 93.8923 25.88C95.0221 25.8558 96.1591 25.8809 97.3149 26.1185L97.3098 26.1134L97.6823 25.7614L96.6556 23.3533L95.8706 23.3053L95.8047 23.0626L96.8461 23.1268L96.8486 23.1294L96.9511 23.1349C96.8238 22.856 96.6939 22.5745 96.5666 22.2956C96.2258 22.3844 95.8855 22.4779 95.5534 22.5838C94.7541 23.4397 93.9501 24.2951 93.1533 25.1536C93.1944 25.1947 93.236 25.2405 93.2699 25.2786Z" fill="white"/>
<path d="M92.8376 25.4949C92.7037 25.6391 92.5678 25.7853 92.4339 25.9294C92.7087 25.922 92.9809 25.9121 93.2532 25.9021C93.1157 25.7773 92.9701 25.6401 92.8376 25.4949Z" fill="white"/>
<path d="M101.29 20.9753C101.503 20.9525 101.714 20.9318 101.93 20.9116C102.35 20.8723 102.771 20.8424 103.191 20.8125C102.207 19.6935 101.28 18.5178 100.559 17.249C99.8863 17.9624 99.2187 18.6763 98.5465 19.3897C98.9217 19.6007 99.2957 19.8231 99.6663 20.0336C100.208 20.3399 100.749 20.6576 101.288 20.9728L101.29 20.9753Z" fill="white"/>
<path d="M97.5156 36.5154C96.569 35.9605 95.765 35.2786 94.9916 34.5094C95.1383 34.8204 95.2849 35.1313 95.4384 35.4406C96.238 37.0783 97.0836 38.7831 97.4608 40.5039C97.4692 40.5417 97.475 40.5771 97.4834 40.6149C98.5758 39.6099 99.6678 38.6002 100.755 37.5901C99.6945 37.7508 98.5087 37.0958 97.5156 36.5154Z" fill="white"/>
<path d="M111.834 23.1634C111.294 22.5054 110.723 21.8629 110.155 21.2229C109.696 21.1981 109.238 21.178 108.783 21.1699C109.312 21.5466 109.841 21.9165 110.381 22.2665C110.857 22.5777 111.34 22.8805 111.837 23.166L111.834 23.1634Z" fill="white"/>
<path d="M102.03 33.2204C102.271 33.8742 102.445 34.5328 102.449 35.1816C102.449 35.5104 102.406 35.8371 102.313 36.1404C102.801 35.6888 103.286 35.2346 103.771 34.7805C103.724 34.7342 103.676 34.69 103.628 34.6458C103.107 34.1588 102.571 33.6864 102.03 33.2204Z" fill="white"/>
<path d="M109.261 26.4777L109.266 26.4828L109.272 26.4765C109.216 26.4408 109.159 26.405 109.104 26.3672C108.864 26.2113 108.621 26.0529 108.381 25.897C108.619 26.1892 108.85 26.4877 109.072 26.79L109.264 26.4803L109.261 26.4777Z" fill="white"/>
<path d="M84.1563 46.3327C84.1004 46.3063 84.0424 46.2821 83.9865 46.2557C85.0367 47.7354 85.8534 49.5924 85.7655 51.2229C86.6357 50.4505 87.5138 49.6649 88.4003 48.871C88.0204 48.6132 87.6518 48.3289 87.2855 48.0678C86.3083 47.3687 85.2133 46.8338 84.1542 46.3348L84.1563 46.3327Z" fill="white"/>
<path d="M94.2396 43.5456C94.2396 43.5456 94.2445 43.5716 94.248 43.5835C94.4347 43.4122 94.6235 43.2388 94.8102 43.0675C94.5666 42.9924 94.3211 42.8985 94.0784 42.7864C94.1426 43.0359 94.1932 43.2886 94.2396 43.5456Z" fill="white"/>
<path d="M87.4831 43.0308C87.4093 42.9864 87.3375 42.9399 87.2636 42.8955C87.531 43.2555 87.7941 43.6197 88.0525 43.9835C88.6743 44.858 89.294 45.7346 89.8101 46.6634C89.9201 46.8619 90.0409 47.0753 90.1507 47.2946C90.8606 46.6568 91.5763 46.0079 92.3026 45.3485C91.914 45.1663 91.5378 45.0386 91.1197 44.8859C89.8605 44.4226 88.652 43.749 87.4785 43.0304L87.4831 43.0308Z" fill="white"/>
<path d="M93.0379 31.4602L92.4904 31.8225C92.7317 31.9669 92.9709 32.1134 93.2025 32.2777C93.3098 32.3555 93.4124 32.4329 93.5155 32.5149C93.4497 32.3648 93.3744 32.2138 93.3107 32.0616C93.2257 31.8586 93.1292 31.6569 93.0353 31.4577L93.0379 31.4602Z" fill="white"/>
<path d="M83.4032 40.0299C83.9192 40.3058 84.4277 40.5994 84.9282 40.9062L83.9826 39.8259L83.4011 40.032L83.4032 40.0299Z" fill="white"/>
<path d="M75.3905 44.7826C75.4718 44.9945 75.5049 45.1876 75.5284 45.4006C75.6643 46.5348 76.5176 47.5018 77.4395 48.251C78.0089 48.7151 78.6249 49.1121 79.2521 49.4824L79.3925 49.3111L79.3985 48.7653L79.6346 48.8583L79.6275 49.4155L81.857 50.9037L82.3916 50.4359L82.5919 50.611L82.0957 51.0455C82.912 51.4787 83.7338 51.8961 84.5568 52.3021C84.7566 52.1228 84.9568 51.9483 85.1567 51.769C85.3463 50.9984 85.2743 50.1345 85.0128 49.275C84.6302 48.0122 83.9351 46.9128 83.1186 45.873C82.1631 45.4608 81.1914 45.0956 80.2154 44.7809C79.0674 44.412 77.8593 44.021 76.7064 43.9758C76.5275 43.9696 76.2712 43.9534 76.0198 43.9631C75.7968 44.2118 75.5785 44.461 75.3576 44.7076C75.3693 44.7319 75.3788 44.7583 75.3905 44.7826Z" fill="white"/>
<path d="M83.189 39.9157L83.1455 39.8512L84.0582 39.5298C83.577 38.9518 83.087 38.3774 82.5885 37.8116C82.4242 37.6262 82.2419 37.4228 82.0654 37.2085C81.5647 37.7607 81.0728 38.3091 80.5851 38.8533C81.1779 39.0165 81.7631 39.2437 82.3375 39.5022C82.6237 39.6326 82.9087 39.7744 83.1869 39.9178L83.189 39.9157Z" fill="white"/>
<path d="M98.4525 26.4213C98.3789 26.2635 98.3079 26.1082 98.2364 25.9483L97.825 25.9792L97.6156 26.1783C97.777 26.2175 97.9383 26.2567 98.1006 26.3053C98.2198 26.3403 98.337 26.3774 98.4546 26.4192L98.4525 26.4213Z" fill="white"/>
<path d="M79.3751 40.4694C79.4741 40.7201 79.6087 40.9557 79.7611 41.1839L79.8813 41.1357L79.9785 40.8791L80.1884 41.0342L80.0933 41.2887L81.8391 43.2451L82.5167 43.0046L82.6635 43.2229L81.9007 43.492L81.7667 43.5644C82.3295 44.1945 82.8876 44.8242 83.4115 45.4829C83.736 45.6264 84.0584 45.7719 84.3817 45.9267C85.4076 46.4177 86.4749 46.929 87.4216 47.602C87.8478 47.906 88.2884 48.2624 88.7464 48.5603C89.0971 48.2456 89.4478 47.9309 89.8006 47.614C89.4547 46.8596 89.0024 46.1292 88.5278 45.4315C87.7925 44.3465 87.0174 43.2808 86.2182 42.2289C86.1293 42.1738 86.0452 42.1191 85.9589 42.0665L85.794 42.5039L85.5841 42.3488L85.742 41.9338C85.1021 41.5298 84.4628 41.1305 83.8054 40.7595C83.1795 40.4033 82.545 40.0762 81.8901 39.8004C81.3802 39.5853 80.7927 39.3347 80.2434 39.2361C79.9308 39.5847 79.6203 39.9312 79.3119 40.2756C79.3324 40.3425 79.355 40.4073 79.3798 40.4699L79.3751 40.4694Z" fill="white"/>
<path d="M83.6591 38.3605C83.9419 38.6896 84.2204 39.0229 84.4969 39.3583L84.5769 39.3246L84.6741 39.068L84.884 39.2232L84.7889 39.4777L86.5347 41.4341L87.2123 41.1935L87.3591 41.4118L86.5963 41.681L86.423 41.7772C86.4522 41.8148 86.4814 41.8525 86.5106 41.8901C87.4964 42.5137 88.4865 43.1331 89.5144 43.6683C90.5518 44.2044 91.6425 44.4865 92.6705 45.0217C93.0208 44.7023 93.3731 44.3808 93.7302 44.0598C93.7618 44.0282 93.7938 44.0013 93.828 43.9722C93.7989 43.7957 93.7676 43.6213 93.7389 43.4494C93.6814 43.1265 93.6039 42.8131 93.5129 42.5031C93.2043 42.3335 92.9083 42.1512 92.6315 41.9755C91.0788 40.983 89.6469 39.7617 88.2292 38.5672C86.8672 37.42 85.4634 36.1088 83.8998 35.2865C83.8802 35.2753 83.8584 35.2662 83.8388 35.255C83.3443 35.8008 82.8536 36.3378 82.3718 36.871C82.7747 37.3834 83.2393 37.8649 83.6638 38.3609L83.6591 38.3605Z" fill="white"/>
<path d="M98.7183 27.0082C98.5718 26.9543 98.4277 26.9029 98.2795 26.8557C97.1076 26.4799 95.9295 26.3674 94.7782 26.3617C94.6622 26.3594 94.5472 26.3665 94.4291 26.3663C95.2159 27.0604 96.019 27.733 96.8238 28.3988L96.9534 28.3052L96.9901 28.0218L97.2192 28.1372L97.1821 28.4159L99.2283 30.041L99.8125 29.6523L99.996 29.8442L99.34 30.279L99.2473 30.3717C99.7838 30.8071 100.325 31.2429 100.86 31.6851C100.798 31.5562 100.739 31.43 100.683 31.3016C100.028 29.8682 99.3717 28.4323 98.7153 27.001L98.7183 27.0082Z" fill="white"/>
<path d="M104.585 22.3451C104.259 21.9931 103.934 21.639 103.609 21.2802C103.082 21.3135 102.556 21.3561 102.033 21.406C103.352 22.1854 104.658 22.9821 105.957 23.8013C105.496 23.3109 105.034 22.8273 104.585 22.3451Z" fill="white"/>
<path d="M80.4398 44.3564C81.129 44.5824 81.816 44.8313 82.4963 45.1073C82.1191 44.6669 81.7309 44.2324 81.3402 43.7953L81.2653 43.8342L81.0838 44.3139L80.8739 44.1588L81.0613 43.668L79.2799 41.634L78.5888 41.8778L78.442 41.6595L79.3234 41.3489C79.1869 41.1408 79.057 40.9057 78.9521 40.666C78.1102 41.6056 77.2835 42.5352 76.4631 43.4585C76.6607 43.4665 76.8452 43.4826 76.9855 43.4965C78.118 43.593 79.3151 43.9898 80.4372 44.3538L80.4398 44.3564Z" fill="white"/>
<path d="M109.141 30.8598C108.815 30.8366 108.475 30.7751 108.136 30.6927C107.998 30.8203 107.863 30.9504 107.725 31.0779C108.191 31.203 108.659 31.2958 109.125 31.3491C110.157 31.4633 110.719 30.8038 110.572 29.7889C110.519 29.4202 110.405 29.0615 110.252 28.7106C110.131 28.8259 110.008 28.9387 109.888 29.0541C110.21 29.9451 110.256 30.9429 109.144 30.8624L109.141 30.8598Z" fill="white"/>
<path d="M112.547 27.0265C112.482 27.0454 112.414 27.0572 112.35 27.0694L112.717 26.4714L112.665 26.4408C112.248 26.8323 111.829 27.2259 111.411 27.6173L111.783 27.7654L111.913 28.3341L112.153 28.3671L112.026 27.8104L112.119 27.5835C112.857 27.5805 113.533 27.3004 113.792 26.62C113.941 26.2296 113.908 25.8096 113.781 25.3918C113.645 25.5172 113.514 25.6431 113.379 25.7685C113.45 26.3915 113.105 26.8643 112.543 27.026L112.547 27.0265Z" fill="white"/>
<path d="M119.985 19.8409C119.91 20.4864 119.346 20.8031 118.71 20.8023C118.7 20.8014 118.689 20.8026 118.679 20.8016C118.525 20.946 118.372 21.0883 118.218 21.2327C118.535 21.3012 118.856 21.324 119.178 21.2702C120.194 21.112 120.685 20.2255 120.398 19.1597C120.395 19.1431 120.386 19.126 120.379 19.1069C120.25 19.2468 120.117 19.3841 119.985 19.5215C119.993 19.6265 119.995 19.7331 119.982 19.8384L119.985 19.8409Z" fill="white"/>
<path d="M93.8813 44.9988C93.8596 45.2004 93.8183 45.4371 93.5847 45.4393C93.3693 45.4387 93.0865 45.2485 92.8927 45.1389C92.8193 45.0992 92.7438 45.0616 92.6703 45.0219C92.5494 45.1326 92.4305 45.2412 92.307 45.3493C92.4332 45.4081 92.5599 45.4717 92.6902 45.5471C93.0436 45.749 93.4916 46.0158 93.8672 45.9281C94.6893 45.7436 94.3737 44.2698 94.2476 43.5835C94.1077 43.7131 93.9677 43.8428 93.8252 43.9698C93.8809 44.3204 93.9179 44.669 93.8813 44.9988Z" fill="white"/>
<path d="M116.986 23.0204C117.03 23.1661 117.008 23.3422 116.928 23.5101C116.805 23.7665 116.608 23.9993 116.384 24.1622C115.965 24.4678 115.407 24.4957 114.845 24.4004C114.707 24.5279 114.571 24.658 114.434 24.7856C115.561 25.0621 116.631 24.9693 117.272 23.9935C117.517 23.6197 117.621 23.1206 117.303 22.6468C117.229 22.5352 117.138 22.4359 117.039 22.345C116.931 22.4477 116.818 22.55 116.711 22.6527C116.829 22.7548 116.945 22.896 116.986 23.0251L116.986 23.0204Z" fill="white"/>
<path d="M97.0947 41.4769C97.0796 42.5358 96.1828 42.831 95.2431 42.6704C95.0989 42.8042 94.9522 42.9355 94.8102 43.0672C95.3431 43.2337 95.8725 43.2956 96.3629 43.1754C97.549 42.8789 97.7189 41.7937 97.4836 40.6149C97.3437 40.7446 97.2059 40.8721 97.066 41.0017C97.0864 41.1612 97.0976 41.3198 97.0968 41.4748L97.0947 41.4769Z" fill="white"/>
<path d="M92.8166 24.6988C92.7806 24.5702 92.8257 24.3246 92.9088 24.1592C93.0232 23.9367 93.2027 23.7624 93.4018 23.5993C93.9785 23.1357 94.7216 22.8554 95.4388 22.6165C95.4769 22.604 95.5129 22.5937 95.551 22.5813C95.7834 22.3335 96.0158 22.0857 96.2481 21.838C95.8692 21.9392 95.4955 22.0456 95.1257 22.1686C94.3861 22.4145 93.6542 22.7145 93.0545 23.1804C92.657 23.4905 92.2836 23.9257 92.309 24.5071C92.3256 24.8606 92.5553 25.1914 92.8348 25.4878C92.9418 25.3757 93.044 25.2632 93.1484 25.1485C92.9983 24.99 92.8464 24.8129 92.8135 24.6915L92.8166 24.6988Z" fill="white"/>
<path d="M100.824 37.583C101.604 37.4406 102.093 36.8594 102.313 36.1404C101.794 36.6236 101.274 37.1068 100.755 37.59C100.778 37.5877 100.801 37.59 100.824 37.583Z" fill="white"/>
<path d="M96.3228 19.6599C96.5147 18.9126 97.3777 19.2786 97.9509 19.5949C98.0414 19.6433 98.1298 19.6937 98.2181 19.7442C98.3293 19.6279 98.4378 19.509 98.549 19.3927C98.2523 19.2266 97.9514 19.0647 97.6461 18.9279C97.1493 18.7048 96.6047 18.6067 96.206 18.8819C95.3898 19.4513 95.9159 20.8535 96.3235 21.7622C96.4367 21.6439 96.5495 21.5208 96.6628 21.4024C96.4196 20.8434 96.1875 20.1859 96.3228 19.6599Z" fill="white"/>
<path d="M75.2798 44.1792C75.4242 44.0245 75.7203 43.9752 76.0222 43.9613C76.1699 43.793 76.3201 43.6274 76.4657 43.4613C75.7725 43.4294 74.8698 43.4785 74.7299 44.0504C74.6457 44.3916 74.9145 44.7656 75.0024 45.1147C75.1211 44.9807 75.2418 44.8445 75.3605 44.7104C75.2773 44.5262 75.1544 44.3149 75.2824 44.1817L75.2798 44.1792Z" fill="white"/>
<path d="M82.2348 36.7048C81.8363 36.1674 81.5729 35.4744 82.1208 35.1167C82.6037 34.8035 83.2635 34.9664 83.834 35.2547C83.9383 35.14 84.0427 35.0254 84.1471 34.9107C84.0592 34.8649 83.9703 34.8098 83.8803 34.7661C82.9832 34.3366 81.7813 34.2633 81.39 35.1482C81.09 35.8338 81.545 36.5667 82.0645 37.2041C82.1646 37.0937 82.2648 36.9833 82.367 36.8707C82.3219 36.813 82.2773 36.7599 82.2322 36.7022L82.2348 36.7048Z" fill="white"/>
<path d="M79.899 39.1952C80.0082 39.1991 80.1235 39.2175 80.2366 39.238C80.3511 39.1082 80.4681 38.9809 80.5825 38.8511C80.5301 38.8366 80.4799 38.82 80.4301 38.8081C79.9025 38.6723 79.3341 38.6135 78.9735 38.9689C78.565 39.3774 78.6736 40.0504 78.9508 40.673C79.0673 40.541 79.1864 40.4117 79.303 40.2797C79.1337 39.7188 79.2063 39.168 79.8969 39.1973L79.899 39.1952Z" fill="white"/>
<path d="M84.8931 52.4654C84.7788 52.4101 84.6666 52.3526 84.5569 52.2977C84.4334 52.4058 84.3124 52.5165 84.191 52.6225C84.4589 52.7556 84.7247 52.8909 84.9922 53.0194C85.1039 53.0722 85.2108 53.0064 85.2586 52.9278C85.58 52.411 85.733 51.8312 85.7651 51.2232C85.5632 51.4045 85.3587 51.5833 85.1589 51.7625C85.0999 52.0067 85.0123 52.2434 84.8952 52.4633L84.8931 52.4654Z" fill="white"/>
<path d="M91.3374 26.682C91.3164 26.6104 91.3075 26.5215 91.2844 26.4521C91.4523 26.5105 91.729 26.4755 91.9488 26.451C92.1121 26.2774 92.2708 26.1033 92.4341 25.9297C92.074 25.9402 91.7138 25.9507 91.3528 25.9518C91.1004 25.9522 90.8439 25.9105 90.7834 26.187C90.7483 26.3455 90.8078 26.5483 90.8542 26.7126C90.9156 26.9341 90.9978 27.1552 91.0868 27.3748C91.2059 27.2454 91.3255 27.1207 91.4446 26.9913C91.4067 26.8903 91.3684 26.7846 91.3374 26.682Z" fill="white"/>
<path d="M100.59 16.3492C100.532 16.2324 100.481 16.1138 100.43 15.9953C100.388 15.8985 100.338 15.6597 100.261 15.5826C100.275 15.584 100.292 15.588 100.304 15.5915C100.426 15.6291 100.546 15.6781 100.661 15.7381C100.949 15.8825 101.228 16.0655 101.499 16.2522C101.606 16.1401 101.711 16.0254 101.818 15.9134C101.482 15.6832 101.137 15.4682 100.783 15.2919C100.547 15.1734 100.261 15.0431 100.02 15.0886C99.4105 15.1993 99.9325 16.0246 100.125 16.4281C100.257 16.7075 100.405 16.9815 100.562 17.2517C100.671 17.1375 100.777 17.0208 100.886 16.9066C100.784 16.7205 100.685 16.537 100.595 16.3497L100.59 16.3492Z" fill="white"/>
<path d="M107.324 31.6588L107.282 31.4949C107.234 31.5433 107.183 31.5892 107.132 31.6351L107.324 31.6588Z" fill="white"/>
<path d="M108.165 7.12375C107.862 6.96864 107.657 7.37426 107.962 7.53194C108.36 7.73588 108.75 7.95759 109.132 8.18772C109.244 8.08079 109.361 7.979 109.476 7.87463C109.049 7.60757 108.611 7.35572 108.163 7.12586L108.165 7.12375Z" fill="white"/>
<path d="M104.037 11.7606C104.409 11.2349 105.059 11.4016 105.705 11.769C105.812 11.657 105.918 11.5402 106.025 11.4281C105.733 11.2578 105.432 11.1214 105.123 11.0351C104.027 10.7317 103.263 11.429 103.377 12.5077C103.423 12.9405 103.596 13.3583 103.831 13.7614C103.944 13.643 104.055 13.522 104.166 13.4057C103.87 12.8484 103.71 12.2166 104.03 11.7623L104.037 11.7606Z" fill="white"/>
<path d="M104.44 34.8146C104.327 34.7015 104.21 34.5926 104.092 34.479C103.984 34.5817 103.876 34.6798 103.768 34.7825C104.036 35.0337 104.305 35.2943 104.535 35.5788C104.593 35.6494 104.683 35.795 104.716 35.8399C104.721 35.8451 104.721 35.8451 104.726 35.8502C104.601 36.0369 104.853 36.3861 105.071 36.2457C105.58 35.9213 104.747 35.1253 104.44 34.8146Z" fill="white"/>
<path d="M89.8292 47.6938C90.0406 48.1663 90.5242 49.3743 89.6121 49.0266C89.3138 48.9136 89.0244 48.7505 88.7399 48.5671C88.6273 48.6694 88.5122 48.7691 88.3997 48.8713C88.7522 49.1101 89.1164 49.3269 89.4975 49.4806C90.0956 49.7207 90.6368 49.5754 90.6533 48.9264C90.6662 48.4044 90.4306 47.8277 90.1554 47.2956C90.0344 47.4062 89.913 47.5122 89.7942 47.6208C89.8058 47.6451 89.8175 47.6694 89.8318 47.6963L89.8292 47.6938Z" fill="white"/>
<path d="M86.8034 30.5928C86.8049 30.1183 86.8332 29.2158 87.3365 29.0621C87.6221 28.9771 88.0135 29.1873 88.2884 29.3443C88.4993 29.4625 88.7022 29.5939 88.9014 29.7341C89.0036 29.6215 89.1106 29.5094 89.2128 29.3969C88.9192 29.1917 88.6223 29.0001 88.31 28.8394C87.6879 28.5206 87.0437 28.3986 86.6748 28.9269C86.1138 29.7347 86.2358 31.0781 86.5481 32.1233C86.5591 32.1637 86.5748 32.2046 86.5904 32.2456C86.7158 32.1098 86.8366 31.9737 86.962 31.838C86.8582 31.4225 86.8048 31.0027 86.8034 30.5928Z" fill="white"/>
<path d="M40.2124 83.5039C41.7172 84.9455 43.6989 86.5735 45.7173 87.4294C52.4889 80.9972 59.1317 74.8994 64.6399 69.9414C71.6783 63.6075 77.7753 58.3075 84.1859 52.6219C83.3629 52.2159 82.5433 51.7964 81.7294 51.3658L81.4863 51.5987L81.4829 51.89L81.2468 51.7971L81.2507 51.5104L79.0766 50.0902L78.5551 50.55L78.3548 50.375L78.9446 49.8571L78.9614 49.8403C78.5032 49.5632 78.0556 49.2756 77.6233 48.9571C76.7517 48.317 75.891 47.5322 75.4035 46.5646C75.1645 46.0939 75.0993 45.6707 75.0165 45.1878C75.0117 45.1619 75.0046 45.138 74.9976 45.1142C69.6088 51.2023 64.5072 57.0598 58.467 63.7685C53.3107 69.4955 46.9247 76.4523 40.2098 83.5014L40.2124 83.5039Z" fill="white"/>
<path d="M26.3429 106.593C26.6406 106.28 26.945 105.965 27.2473 105.653C25.7483 103.943 24.63 101.801 23.8841 100.074C22.932 101 21.9874 101.909 21.0503 102.8C22.5083 104.19 24.4031 105.736 26.3429 106.593Z" fill="white"/>
<path d="M36.7818 96.0567C37.5223 95.3316 38.265 94.6043 39.0102 93.8797C38.2397 93.3492 37.5121 92.7143 36.8436 92.0458C35.9592 91.1614 35.1826 90.2206 34.5557 89.3872C33.8921 90.0714 33.2254 90.7483 32.5614 91.4278C33.6058 92.9903 35.0832 94.8552 36.7843 96.0593L36.7818 96.0567Z" fill="white"/>
<path d="M30.9225 101.895C29.4471 100.213 28.3297 98.1267 27.5765 96.4427C26.4199 97.5942 25.2682 98.7253 24.1308 99.8369C24.8665 101.554 25.9808 103.725 27.4637 105.436C28.5929 104.265 29.7467 103.086 30.9225 101.895Z" fill="white"/>
<path d="M39.2328 93.6611C39.9338 92.9806 40.6369 92.2981 41.3426 91.6181C39.7044 89.9294 38.404 87.8413 37.5566 86.2822C36.6312 87.2437 35.7011 88.2046 34.7705 89.1609C35.8744 90.6228 37.4543 92.447 39.2349 93.659L39.2328 93.6611Z" fill="white"/>
<path d="M32.333 91.6553C31.5194 92.4843 30.7054 93.3086 29.8951 94.124C31.2395 95.4432 33.0206 96.9632 34.8811 97.9308C35.4329 97.379 35.9939 96.8282 36.5529 96.2795C35.9921 95.8788 35.455 95.4132 34.9537 94.9119C33.9227 93.8809 33.0349 92.7068 32.3309 91.6574L32.333 91.6553Z" fill="white"/>
<path d="M27.8174 96.2026C28.5604 97.8764 29.6737 99.9921 31.1356 101.677C32.2908 100.512 33.4637 99.3387 34.6503 98.1625C32.7734 97.1701 31.0094 95.6588 29.6774 94.3478C29.054 94.9711 28.4349 95.5903 27.8179 96.2073L27.8174 96.2026Z" fill="white"/>
<path d="M18.4319 115.172C19.2366 114.254 20.0744 113.318 20.9472 112.363C19.1539 110.372 17.8082 107.969 17.0829 106.519C15.8227 107.677 14.5927 108.789 13.3962 109.841C14.462 111.362 16.2986 113.695 18.4319 115.172Z" fill="white"/>
<path d="M23.7423 109.337C24.5147 108.513 25.3091 107.678 26.1145 106.836C24.1548 105.942 22.2766 104.401 20.8284 103.016C20.2828 103.536 19.7388 104.049 19.2011 104.556C20.3246 106.214 21.9167 108.185 23.7423 109.337Z" fill="white"/>
<path d="M18.2264 115.408C17.4751 114.884 16.7603 114.262 16.1073 113.609C14.8835 112.385 13.8665 111.053 13.1646 110.047C12.8707 110.305 12.5768 110.563 12.2893 110.815C11.3069 111.669 10.8801 111.987 10.6027 112.085C11.3152 113.033 12.2028 114.089 13.2784 115.127C14.3592 116.17 15.4148 117.053 16.3407 117.772C16.4543 117.494 16.784 117.062 17.5984 116.124C17.8041 115.887 18.0161 115.644 18.2286 115.406L18.2264 115.408Z" fill="white"/>
<path d="M37.7837 86.0411C38.6202 87.5852 39.9312 89.7091 41.5652 91.402C42.8687 90.1448 44.1731 88.8969 45.4764 87.6605C43.4423 86.7636 41.4859 85.1567 39.9986 83.7284C39.2627 84.5003 38.5268 85.2722 37.7862 86.0437L37.7837 86.0411Z" fill="white"/>
<path d="M21.1541 112.131C21.9247 111.289 22.7168 110.43 23.5287 109.561C22.8192 109.109 22.1475 108.546 21.5253 107.924C20.5277 106.927 19.6598 105.789 18.9654 104.766C18.4104 105.285 17.8638 105.796 17.3163 106.297C18.0157 107.696 19.3667 110.129 21.1516 112.129L21.1541 112.131Z" fill="white"/>
</svg>
