<svg width="128" height="128" viewBox="0 0 128 128" fill="none" xmlns="http://www.w3.org/2000/svg">
<g clip-path="url(#clip0_268_11782)">
<path d="M23.8863 103.381C22.5817 107.469 20.9768 111.161 18.5555 114.464C17.8008 115.493 17.0685 115.642 16.036 114.542C15.0484 113.493 14.0636 112.407 12.9779 111.467C11.7153 110.373 12.3578 109.613 13.2023 108.931C14.6781 107.736 16.3166 106.759 18.0084 105.887C19.8209 104.95 21.6306 103.993 23.8863 103.381Z" fill="white"/>
<path d="M22.4611 79.4487C22.203 81.7999 22.6996 84.0191 23.8639 86.0813C25.2219 88.4886 39.1184 102.385 41.5256 103.743C43.5878 104.907 45.8099 105.401 48.1583 105.146C51.0397 104.829 53.2141 102.621 53.5339 99.759C53.6462 98.777 53.5816 97.809 52.5014 97.3349C51.2866 96.8046 50.1868 97.0627 49.2833 98.0111C48.4613 98.8724 48.8092 99.7141 49.3366 100.606C49.7435 101.294 50.8349 101.959 50.4421 102.643C49.9483 103.507 48.6941 103.488 47.6897 103.572C44.6315 103.824 42.2691 102.511 40.2911 100.292C39.2783 99.0435 38.2458 97.809 37.247 96.5521C38.1701 95.528 38.9697 94.2458 38.8266 93.6931C38.3468 91.8217 36.1219 89.855 36.6887 90.4161C37.2554 90.9772 35.7151 89.1451 33.911 88.5756C33.2489 88.3679 32.6878 88.6373 32.2108 89.0638C31.7759 89.4537 31.3495 89.8521 30.9286 90.2562C29.7138 89.2882 28.5213 88.2922 27.3149 87.3158C25.0928 85.335 23.7826 82.9754 24.0351 79.9173C24.1164 78.9156 24.0996 77.6587 24.9637 77.1649C25.6511 76.7749 26.3189 77.8635 27.0007 78.2703C27.8901 78.8006 28.7346 79.1457 29.5959 78.3236C30.5414 77.4174 30.8024 76.3204 30.2721 75.1055C29.8007 74.0225 28.8328 73.9636 27.848 74.073C24.9862 74.3929 22.7781 76.5673 22.4611 79.4487Z" fill="white"/>
<path d="M5.03741 117.998C4.47347 119.572 4.16485 121.239 3.71875 122.858C3.58407 123.346 3.58968 123.66 3.80011 123.786C3.92636 123.997 4.2406 124.003 4.72879 123.868C6.34766 123.422 8.01143 123.116 9.58822 122.549C12.5342 121.494 13.1009 121.971 10.7694 119.067C10.3738 118.571 9.01586 117.213 8.52206 116.82C5.61819 114.488 6.09796 115.052 5.04022 118.001L5.03741 117.998Z" fill="white"/>
<path d="M25.926 96.3695C25.825 98.3222 25.3929 100.224 24.9188 102.292C24.9076 102.343 24.8907 102.382 24.9805 102.354C27.0511 101.877 28.9505 101.448 30.9033 101.347C31.832 101.299 32.264 100.536 32.5923 99.8822C32.8953 99.2762 32.539 99.1275 31.8965 98.4625C31.4728 98.022 30.9117 97.4721 30.3562 96.9222C29.8063 96.3667 29.2592 95.8083 28.8159 95.3819C28.1509 94.7394 27.9966 94.3831 27.3962 94.6861C26.7397 95.0171 25.9793 95.4464 25.9316 96.3751L25.926 96.3695Z" fill="white"/>
<path d="M20.8983 112.491C22.13 109.671 23.4879 106.916 24.3661 103.962C24.4811 103.572 24.6775 103.252 25.1152 103.134C26.8884 102.651 28.6616 102.18 30.8584 102.121C27.7469 106.057 24.4839 109.399 20.8927 112.491L20.8983 112.491Z" fill="white"/>
<path d="M14.8206 106.414C17.6403 105.182 20.3955 103.825 23.3499 102.946C23.7399 102.831 24.0597 102.635 24.1776 102.197C24.6601 100.424 25.1315 98.6509 25.1904 96.454C21.2541 99.5655 17.9125 102.829 14.8206 106.42L14.8206 106.414Z" fill="white"/>
<path d="M10.0035 113.88C9.32458 113.369 9.00473 112.904 9.69492 112.309C10.3627 111.736 10.7779 110.126 11.9984 111.116C13.6313 112.441 15.1183 113.978 16.4819 115.583C17.3376 116.59 16.1901 117.171 15.5307 117.684C14.9359 118.145 14.2626 118.689 13.6621 117.55C13.3563 116.975 12.798 116.534 12.3519 116.032C12.3266 116.057 10.8424 114.511 10.0035 113.88Z" fill="white"/>
<path d="M6.97583 115.207C7.9999 115.833 8.98469 116.531 9.85725 117.365C9.92179 117.429 9.98351 117.491 10.048 117.555C10.1126 117.62 10.1743 117.682 10.2388 117.746C11.0749 118.622 11.7707 119.604 12.3964 120.628C12.9323 121.506 13.3279 121.172 13.7964 120.658C14.5063 119.887 14.279 119.115 13.7712 118.355C12.9182 117.087 10.511 114.68 9.24281 113.827C8.48809 113.319 7.71372 113.094 6.93935 113.801C6.42872 114.273 6.09204 114.666 6.97022 115.201L6.97583 115.207Z" fill="white"/>
<path d="M31.7699 95.7161C32.4011 96.3473 33.01 97.0067 33.6749 97.5987C34.0593 97.9438 34.2894 98.2131 33.919 98.7069C33.4841 99.2877 33.1643 98.9173 32.8472 98.6003C31.4584 97.2227 30.0752 95.8451 28.7005 94.4535C28.4002 94.1533 27.9513 93.811 28.5349 93.3733C28.9558 93.0591 29.2924 93.1264 29.6684 93.5585C30.3277 94.3132 31.0741 94.9922 31.7839 95.702C31.7783 95.7076 31.7755 95.7104 31.7699 95.7161Z" fill="white"/>
<path d="M112.756 10.2917C106.047 16.7924 34.3961 87.3832 33.8153 87.9415C35.5604 87.7507 39.8082 91.3813 39.2611 93.7465C39.8924 93.0984 109.597 22.3505 117.206 14.7415C124.815 7.13248 124.13 4.1809 123.653 3.70956C123.274 3.3364 119.52 3.72919 112.753 10.2889L112.756 10.2917ZM77.1069 50.6934L40.6808 87.1419L40.2599 86.7211C61.454 65.7346 92.1285 34.4317 113.345 14.0569C103.158 24.8615 87.7235 40.0038 77.1069 50.6934Z" fill="white"/>
</g>
<defs>
<clipPath id="clip0_268_11782">
<rect width="128" height="128" fill="white"/>
</clipPath>
</defs>
</svg>
