<svg width="128" height="128" viewBox="0 0 128 128" fill="none" xmlns="http://www.w3.org/2000/svg">
<path d="M117.33 23.1799C118.26 19.3949 113.735 14.6799 113.735 14.6799C113.735 14.6799 108.86 10.2949 105.115 11.7199C112.36 15.7249 115.755 20.1649 117.33 23.1799Z" fill="white"/>
<path d="M116.075 25.2299L116.575 24.7199C116.755 24.4899 116.905 24.2499 117.03 23.9999C115.59 21.0399 112.2 16.2549 104.45 12.0449C104.265 12.1549 104.085 12.2799 103.91 12.4249L103.28 13.0849C111.17 17.3649 114.61 22.1749 116.08 25.2249L116.075 25.2299Z" fill="white"/>
<path d="M24.8903 115.035L24.0053 114.175L17.2403 107.605L17.2353 107.61L16.3503 106.75C15.5153 105.94 14.1853 105.96 13.3803 106.79L12.9053 107.28C11.9203 108.295 11.9403 109.925 12.9603 110.91L17.1003 114.93L20.8403 118.555C21.8553 119.54 23.4753 119.52 24.4653 118.5L24.9403 118.01C25.7503 117.175 25.7303 115.845 24.8953 115.035H24.8903Z" fill="white"/>
<path d="M115.6 25.71C114.2 22.75 110.805 17.84 102.84 13.54L73.005 44.665C73.005 44.665 70.48 47.155 68.65 52.135C66.82 57.11 63.555 60.7 63.555 60.7L58.915 65.995L51.775 73.72C51.775 73.72 51.645 73.88 51.375 74.2L56.385 79.065C56.695 78.785 56.85 78.65 56.85 78.65L65 70.635L69.52 66.49C69.52 66.49 73.005 63.115 77.935 61.14C82.855 59.16 85.265 56.57 85.265 56.57L115.605 25.715L115.6 25.71Z" fill="white"/>
<path d="M40.4756 85.865L45.0456 90.3C45.4156 89.91 45.5656 89.75 45.9156 89.385L41.3606 84.96C41.0056 85.325 40.8506 85.48 40.4756 85.86V85.865Z" fill="white"/>
<path d="M25.6052 100.295C24.1752 101.635 22.6802 103.02 21.1152 104.465L27.0302 110.21C28.4252 108.6 29.7702 107.065 31.0652 105.6L25.6052 100.3V100.295Z" fill="white"/>
<path d="M32.6999 103.75L27.3999 98.605C26.9549 99.025 26.5049 99.45 26.0449 99.88L31.4649 105.14C31.8799 104.67 32.2949 104.205 32.6999 103.745V103.75Z" fill="white"/>
<path d="M37.3705 98.5552L32.4555 93.7852C31.9355 94.2902 31.4005 94.8001 30.8555 95.3251L35.8805 100.205C36.3855 99.6452 36.8855 99.0951 37.3705 98.5602V98.5552Z" fill="white"/>
<path d="M44.0353 82.21C43.4003 82.875 42.5053 83.795 41.7803 84.535L46.3353 88.955C47.0553 88.21 47.9503 87.29 48.5953 86.635L44.0353 82.21Z" fill="white"/>
<path d="M48.9702 76.9551C48.3052 77.6851 46.6802 79.4001 45.7852 80.3551L50.3952 84.8301C51.3202 83.9051 52.9852 82.2351 53.6952 81.5451L48.9702 76.9551Z" fill="white"/>
<path d="M33.1 103.3C33.91 102.39 34.705 101.5 35.47 100.65L30.415 95.7402C29.585 96.5302 28.72 97.3552 27.835 98.1902L33.095 103.3H33.1Z" fill="white"/>
<path d="M45.3752 80.7949C44.9552 81.2399 44.9252 81.2849 44.4502 81.7749L49.0152 86.2049C49.4952 85.7199 49.5352 85.6899 49.9702 85.2549L45.3752 80.7949Z" fill="white"/>
<path d="M55.9349 79.4702L50.9799 74.6602C50.5199 75.1902 50.2749 75.5202 49.3799 76.5102L54.1349 81.1252C55.0999 80.2002 55.4199 79.9452 55.9349 79.4702Z" fill="white"/>
<path d="M40.0505 86.2949C38.8755 87.4799 40.4355 85.8299 39.0605 87.1849L43.7655 91.7549C45.0805 90.3399 43.4755 91.9499 44.6255 90.7399L40.0455 86.2949H40.0505Z" fill="white"/>
<path d="M20.6703 104.875C20.6703 104.875 20.2003 104.5 19.5153 105.205C19.0553 105.68 18.1753 106.605 17.6553 107.16L24.4353 113.74C24.9703 113.205 25.8753 112.295 26.3403 111.82C27.0253 111.115 26.6403 110.665 26.6403 110.665L20.6753 104.875H20.6703Z" fill="white"/>
<path d="M32.8848 93.365L37.7748 98.11C38.7298 97.065 42.4748 93.145 43.3598 92.195L38.6348 87.605C37.7098 88.515 33.9098 92.38 32.8898 93.365H32.8848Z" fill="white"/>
</svg>
