<svg width="128" height="128" viewBox="0 0 128 128" fill="none" xmlns="http://www.w3.org/2000/svg">
<path fill-rule="evenodd" clip-rule="evenodd" d="M37.2872 84.4351L38.2672 85.4501V85.4551L47.0372 94.5051C46.7072 96.3651 41.7022 97.2851 41.7022 97.2851C33.3386 99.4317 27.2244 111.285 26.1085 113.448L26.1082 113.449C26.0728 113.518 26.0425 113.577 26.0172 113.625C24.6572 116.23 18.8272 120.61 14.6222 116.27C9.84722 111.34 14.6222 107.025 14.6222 107.025L37.2872 84.4351ZM44.8422 95.4001L44.8822 95.3601C44.8758 95.3568 44.8714 95.3515 44.8664 95.3455C44.8637 95.3421 44.8608 95.3386 44.8572 95.3351C42.7222 93.0851 38.4272 88.6551 36.2672 86.4651C37.0124 87.9596 38.2822 89.3336 39.4737 90.6229L39.4738 90.623C39.6974 90.8649 39.9182 91.1039 40.1322 91.3401C41.1672 92.4201 42.4022 93.5251 43.5672 94.4801C43.7137 94.5847 43.8594 94.6936 44.0058 94.803C44.2442 94.9813 44.4844 95.1609 44.7322 95.3251C44.7522 95.3376 44.7697 95.3501 44.7872 95.3626C44.8047 95.3751 44.8222 95.3876 44.8422 95.4001ZM19.2622 113.745C20.5049 113.745 21.5122 112.738 21.5122 111.495C21.5122 110.252 20.5049 109.245 19.2622 109.245C18.0196 109.245 17.0122 110.252 17.0122 111.495C17.0122 112.738 18.0196 113.745 19.2622 113.745Z" fill="white"/>
<path d="M113.617 10.005C113.617 10.005 102.802 13.395 96.2521 20.35C90.4071 26.56 93.8071 22.835 85.3971 34.91C81.6071 40.355 74.6721 48.585 64.9421 58.765C54.7721 69.4 42.4271 81.42 39.1221 84.62L46.4171 92.15L46.9871 91.585C47.4121 91.16 48.1021 91.165 48.5221 91.6L48.6871 91.77L85.2871 56.625C85.2871 56.625 104.217 39.485 105.852 37.77C107.482 36.055 121.167 26.265 113.622 10L113.617 10.005ZM103.562 35.9C101.297 38.105 97.7071 41.315 95.3671 43.5C82.6821 55.235 66.8871 69.615 54.4121 81.475C63.9471 72.255 77.1121 59.435 86.6521 50.53C92.0921 45.445 97.2121 39.86 102.762 34.91C106.762 30.495 112.137 25.745 112.657 19.11C112.632 18.19 112.507 17.25 112.137 16.405L112.202 16.37C112.592 17.23 112.727 18.175 112.767 19.105C112.737 25.81 107.972 31.31 103.557 35.895L103.562 35.9Z" fill="white"/>
</svg>
