<svg width="128" height="128" viewBox="0 0 128 128" fill="none" xmlns="http://www.w3.org/2000/svg">
<path d="M100.09 53.7849C98.5989 55.2913 95.1154 58.206 95.1154 58.206C95.1154 58.206 93.0912 59.7477 91.8595 59.7908C91.8595 59.7908 90.004 57.1115 94.6094 53.1337C95.3587 52.7336 96.0805 52.2511 96.7591 51.6862C102.188 47.171 102.93 39.0821 98.4146 33.6529C93.8994 28.2237 85.8105 27.4823 80.3812 31.9975C78.157 33.8451 76.7369 36.2969 76.125 38.9174C71.4803 35.3083 64.784 35.2652 60.0805 39.1802C56.0322 42.5499 54.5925 47.9085 55.9968 52.6669C51.5719 50.4191 46.0446 50.8585 41.9923 54.2282C37.1162 58.2844 36.0374 65.2161 39.1365 70.5198C36.1159 70.4256 33.0521 71.375 30.5533 73.4541C25.1241 77.9693 24.3827 86.0582 28.8979 91.4874C33.413 96.9166 41.5019 97.658 46.9312 93.1428C47.5117 92.6603 48.0256 92.1307 48.5003 91.5737H48.5081C48.5081 91.5737 53.2509 86.2151 56.4637 89.5063C56.4637 89.5063 55.6242 92.2602 49.6379 96.3988C46.4957 98.572 49.9321 98.8898 53.8746 98.2543C57.4365 97.6815 61.4025 96.2458 61.4025 96.2458C61.4025 96.2458 70.6487 93.0761 82.1936 83.5201C91.9026 75.4861 92.6244 73.5874 95.9902 68.9624C99.1795 64.5845 100.87 60.3086 101.714 57.0056C102.53 53.8163 101.482 52.3806 100.09 53.7849ZM94.9938 36.497C97.9438 40.0432 97.4613 45.3116 93.915 48.2655C90.3688 51.2155 85.1004 50.733 82.1465 47.1867C79.1965 43.6405 79.6791 38.3721 83.2253 35.4182C86.7716 32.4682 92.0399 32.9507 94.9938 36.497ZM84.2531 31.5189C86.3989 30.8245 88.7369 30.8363 90.8356 31.5032C88.6781 31.0834 86.4303 31.26 84.4178 32.0014C78.1766 34.3041 75.2541 42.5578 79.5418 47.9438C74.3558 42.7304 77.5646 33.6333 84.2492 31.5228L84.2531 31.5189ZM74.6931 43.6797C77.6431 47.2259 77.1606 52.4943 73.6143 55.4482C70.0681 58.3982 64.7997 57.9157 61.8458 54.3694C58.8958 50.8232 59.3783 45.5548 62.9246 42.6009C66.4708 39.6509 71.7392 40.1334 74.6931 43.6797ZM64.3054 38.1367C66.4512 37.4424 68.7892 37.4541 70.888 38.121C68.7304 37.7013 66.4826 37.8778 64.4702 38.6192C58.2289 40.9219 55.3064 49.1756 59.5941 54.5617C54.4081 49.3482 57.617 40.2511 64.3015 38.1406L64.3054 38.1367ZM46.433 53.5221C48.5788 52.8278 50.9168 52.8395 53.0155 53.5064C50.8579 53.0867 48.6101 53.2632 46.5977 54.0046C40.3565 56.3073 37.434 64.561 41.7216 69.947C36.5356 64.7336 39.7445 55.6365 46.429 53.526L46.433 53.5221ZM34.8488 72.6263C36.9946 71.932 39.3326 71.9438 41.4313 72.6107C39.2738 72.1909 37.026 72.3674 35.0136 73.1089C28.7723 75.4116 25.8498 83.6652 30.1375 89.0513C24.9515 83.8378 28.1604 74.7408 34.8449 72.6303L34.8488 72.6263ZM44.0871 89.7221C40.5408 92.6721 35.2725 92.1896 32.3186 88.6433C29.3686 85.0971 29.8511 79.8287 33.3974 76.8748C36.9436 73.9248 42.212 74.4073 45.1659 77.9536C48.1159 81.4998 47.6333 86.7682 44.0871 89.7221ZM43.7615 69.4135C40.8115 65.8673 41.294 60.5989 44.8403 57.645C48.3865 54.695 53.6549 55.1775 56.6088 58.7238C59.5588 62.27 59.0763 67.5384 55.53 70.4923C51.9838 73.4423 46.7154 72.9598 43.7615 69.4135ZM63.6974 92.4563C62.5245 93.0173 60.767 92.7819 60.2178 91.6051C59.1704 89.3651 61.2731 87.4821 62.2028 88.7688C64.1721 91.4913 73.4182 85.8463 73.4182 85.8463C73.4182 85.8463 67.5222 90.6204 63.6974 92.4563ZM75.8464 78.2321C63.8621 86.725 57.6758 86.2621 54.1492 80.3308C54.1492 80.3308 52.7252 78.2752 56.5657 75.1566C57.1933 74.7957 57.8014 74.3916 58.378 73.913C62.4264 70.5433 63.8661 65.1847 62.4617 60.4263C66.8867 62.6741 72.4139 62.2347 76.4662 58.865C76.9488 58.4649 77.3763 58.0294 77.7843 57.5744C79.5339 56.1112 83.1704 53.6947 84.9906 57.0644C87.4424 61.5953 87.8307 69.7391 75.8504 78.2321H75.8464ZM93.2403 67.8758C90.7611 71.2847 85.0416 76.1726 85.0416 76.1726C85.0416 76.1726 92.2086 68.1661 89.8902 65.73C88.7957 64.5806 91.0082 62.8702 93.0206 64.3099C94.0759 65.067 93.9974 66.8323 93.2403 67.8758Z" fill="white"/>
</svg>
