<svg width="128" height="128" viewBox="0 0 128 128" fill="none" xmlns="http://www.w3.org/2000/svg">
<path d="M37.7997 78.5103C37.7147 78.6003 37.6297 78.6953 37.5447 78.7903C37.5447 78.7903 20.5997 99.5702 9.58967 107.74C9.00967 108.17 8.83967 108.95 9.16967 109.59C10.1497 111.465 12.4597 115.09 16.2097 116.425C16.6547 116.585 17.1497 116.44 17.4347 116.065C19.2347 113.69 26.8547 104.2 45.8197 86.8802C43.9597 81.7702 39.8747 79.4153 37.8047 78.5153L37.7997 78.5103ZM18.3947 109.32C18.1147 109.59 17.7497 109.735 17.3597 109.735C17.3497 109.735 17.3397 109.735 17.3297 109.735C16.9297 109.725 16.5597 109.565 16.2797 109.275C16.0047 108.985 15.8547 108.61 15.8647 108.21C15.8747 107.81 16.0347 107.44 16.3247 107.16C16.6147 106.885 17.0147 106.74 17.3897 106.745C17.7897 106.755 18.1597 106.915 18.4397 107.205C18.7147 107.495 18.8647 107.87 18.8547 108.27C18.8447 108.67 18.6847 109.04 18.3947 109.32ZM29.2497 98.0602C28.9697 98.3302 28.6047 98.4752 28.2147 98.4752C28.2047 98.4752 28.1947 98.4752 28.1847 98.4752C27.7847 98.4652 27.4147 98.3052 27.1347 98.0152C26.8597 97.7252 26.7097 97.3502 26.7197 96.9502C26.7297 96.5502 26.8897 96.1803 27.1797 95.9003C27.7747 95.3303 28.7247 95.3453 29.2947 95.9403C29.8647 96.5353 29.8447 97.4853 29.2547 98.0553L29.2497 98.0602ZM39.6497 87.1653C39.3697 87.4353 39.0047 87.5803 38.6147 87.5803C38.6047 87.5803 38.5947 87.5803 38.5847 87.5803C38.1847 87.5703 37.8147 87.4103 37.5347 87.1203C37.2597 86.8303 37.1097 86.4553 37.1197 86.0553C37.1297 85.6553 37.2897 85.2852 37.5797 85.0052C37.8597 84.7352 38.2247 84.5902 38.6147 84.5902C38.6247 84.5902 38.6347 84.5902 38.6447 84.5902C39.0447 84.6002 39.4147 84.7603 39.6947 85.0503C39.9697 85.3403 40.1197 85.7152 40.1097 86.1152C40.0997 86.5152 39.9397 86.8853 39.6497 87.1653Z" fill="white"/>
<path d="M117.449 27.3451L117.459 27.3351L112.049 22.5101L112.024 22.5401L101.824 13.4801C100.289 12.1201 97.9545 12.2101 96.5345 13.6851L93.6045 16.7301C93.0045 17.3551 93.5645 18.6001 94.4245 18.6901L97.0795 18.4251C97.7445 18.4951 98.5045 18.9451 98.6295 19.4801C98.7545 20.0301 98.2245 20.6751 97.6095 20.9751L92.5995 23.7851C92.5995 23.7851 82.9145 30.7751 71.5095 41.6901C61.0845 51.6651 49.5445 65.7701 38.4795 77.7701C40.6995 78.7951 44.5145 81.1701 46.4845 85.9551C48.8745 84.2951 61.9295 75.4201 78.1495 68.0051C96.1195 59.7851 118.999 28.7351 118.999 28.7351L117.449 27.3451ZM79.5595 60.5451C73.5395 63.8301 67.9345 67.2301 61.8945 70.4801C58.8945 72.1101 55.7845 73.6101 53.0495 75.6651C55.7645 73.5851 58.8645 72.0501 61.8495 70.3951C67.8395 67.0951 72.7795 63.6751 78.7395 60.3501C81.6795 58.6151 85.6895 55.4951 88.3545 53.3601C97.3295 46.0501 104.289 37.8701 110.959 28.7101L111.484 29.1551C102.489 41.2101 92.4795 52.7351 79.5595 60.5451Z" fill="white"/>
</svg>
