<svg width="128" height="128" viewBox="0 0 128 128" fill="none" xmlns="http://www.w3.org/2000/svg">
<g clip-path="url(#clip0_268_11775)">
<path d="M89.9462 33.6517C78.0549 58.5099 58.6084 76.0218 38.321 92.6716C39.5337 94.3634 40.8431 96.0558 42.1378 97.7776C61.3276 84.5936 70.4381 78.5492 92.0956 54.974C114.746 30.3174 122.155 10.2878 123.981 4C114.865 14.9127 102.781 25.4028 89.9462 33.6517ZM90.4456 34.523C92.4637 33.5187 94.4863 32.5203 96.4817 31.4736C102.479 28.3847 108.017 24.3988 112.577 19.4111L113.493 18.4287C110.952 26.1617 106.474 33.0816 101.543 39.4899C96.9079 45.5791 91.6921 51.1884 86.5056 56.7756C81.3338 62.3885 76.0446 67.9429 70.1237 72.7851C64.2313 77.6471 58.0505 82.1255 51.9027 86.6478C57.9265 81.9667 64.0111 77.3543 69.8375 72.4411C78.5322 65.027 86.036 56.3036 93.6999 47.854C96.1686 45.0166 98.6927 42.0274 100.986 39.0605C105.366 33.4062 109.382 27.3969 112.039 20.7505C109.154 23.6309 105.973 26.2289 102.506 28.3781C98.6548 30.7608 94.5509 32.6551 90.4507 34.5237L90.4456 34.523Z" fill="white"/>
<path d="M34.9496 82.6103C35.6387 83.4352 35.5253 84.6619 34.7004 85.351C34.1872 85.7782 33.5191 85.8955 32.9203 85.727C33.1429 87.3153 34.1376 88.7539 35.124 90.0474C35.8544 91.0247 36.625 91.9946 37.4125 92.9564C38.0811 93.7967 41.2013 97.9459 41.8209 98.8185C42.5263 99.842 43.2443 100.852 43.9804 101.824C44.9523 103.129 46.0575 104.489 47.5195 105.141C47.5238 104.519 47.822 103.909 48.3747 103.535C49.2657 102.934 50.4757 103.165 51.077 104.056C51.6783 104.947 51.4468 106.157 50.5558 106.758C50.0668 107.089 49.4836 107.161 48.9522 107.015C48.3851 107.029 47.7834 106.991 47.1868 106.844C45.1337 106.339 43.5871 104.806 42.1923 103.33C41.4475 102.528 40.7034 101.667 39.9703 100.802C38.7916 101.624 36.769 100.848 35.4126 99.0444C34.0561 97.2406 33.8775 95.0829 34.9894 94.178C34.3617 93.2336 33.7406 92.2796 33.1773 91.3417C32.1456 89.5918 31.0997 87.6829 31.1871 85.568C31.2113 84.954 31.3439 84.3684 31.5124 83.8244C31.522 83.2763 31.7477 82.7353 32.2044 82.3551C33.0294 81.666 34.2561 81.7795 34.9452 82.6044L34.9496 82.6103Z" fill="white"/>
<path d="M28.3468 111.99L28.3146 112.014C27.9076 112.321 27.3522 112.307 26.9788 111.988C25.7237 110.91 24.4632 109.63 23.3424 108.139C22.2216 106.649 21.3344 105.061 20.6503 103.554C20.4467 103.106 20.5882 102.569 20.9952 102.263L21.0274 102.239C21.572 101.829 22.3336 102.013 22.6179 102.61C23.2777 103.994 24.101 105.424 25.1293 106.791C26.1576 108.159 27.2912 109.337 28.4341 110.357C28.9264 110.798 28.8893 111.578 28.3446 111.987L28.3468 111.99Z" fill="white"/>
<path d="M25.7147 106.356C24.856 105.214 24.0864 103.94 23.4091 102.57C27.5619 100.016 33.7562 97.4571 33.7562 97.4571C33.7562 97.4571 34.0094 98.4035 34.8286 99.4928C35.6477 100.582 36.4866 101.088 36.4866 101.088C36.4866 101.088 32.3035 106.333 28.6968 109.614C27.5736 108.584 26.5669 107.489 25.7169 106.359L25.7147 106.356Z" fill="white"/>
<path d="M16.2498 118.506L16.2263 118.524C15.916 118.757 15.51 118.778 15.254 118.572C14.3944 117.88 13.5382 117.052 12.7961 116.066C12.0541 115.079 11.4878 114.015 11.0644 112.995C10.9372 112.691 11.0701 112.307 11.3805 112.074L11.4039 112.056C11.8197 111.744 12.3672 111.832 12.5458 112.234C12.9551 113.168 13.4839 114.127 14.1643 115.032C14.8447 115.937 15.61 116.705 16.3912 117.359C16.7279 117.642 16.6604 118.193 16.2446 118.506L16.2498 118.506Z" fill="white"/>
<path d="M14.7553 114.592C14.2533 113.925 13.8068 113.179 13.4159 112.372C14.688 110.705 17.6311 107.011 20.4053 104.714C21.0944 106.112 21.8786 107.411 22.7572 108.579C23.6358 109.748 24.6572 110.85 25.8038 111.899C22.8249 113.924 18.4593 115.726 16.5075 116.484C15.8466 115.885 15.2559 115.252 14.7582 114.59L14.7553 114.592Z" fill="white"/>
<path d="M7.06403 113.454C8.12297 112.979 9.42342 112.849 10.3823 113.173C10.397 113.235 10.4117 113.297 10.4375 113.356C10.9189 114.52 11.5145 115.581 12.2125 116.509C12.9106 117.437 13.7521 118.294 14.7343 119.082C14.7886 119.124 14.8436 119.16 14.9022 119.189C14.9475 120.237 14.4223 121.508 13.6211 122.399C13.3321 122.722 12.8515 122.808 12.4629 122.615C10.5522 121.659 9.21934 122.257 8.3939 122.544C8.08848 122.649 8.3939 122.544 8.08848 122.649C7.81157 122.129 6.41456 122.386 5.6857 121.417C4.95684 120.448 5.59197 119.177 5.16865 118.767L5.35516 118.503C5.84301 117.81 6.90213 116.335 6.50571 114.626C6.39519 114.15 6.62391 113.661 7.07136 113.458L7.06403 113.454Z" fill="white"/>
</g>
<defs>
<clipPath id="clip0_268_11775">
<rect width="128" height="128" fill="white"/>
</clipPath>
</defs>
</svg>
