<svg width="128" height="128" viewBox="0 0 128 128" fill="none" xmlns="http://www.w3.org/2000/svg">
<g clip-path="url(#clip0_268_11821)">
<path d="M10.6574 118.052L13.0278 120.423C13.0278 120.423 11.8778 122.026 10.2134 122.106C7.33506 122.192 5.78249 120.352 6.1882 117.506C6.39585 116.219 7.68647 115.081 7.68647 115.081L10.6574 118.052Z" fill="white"/>
<path d="M23.0492 100.83L27.3044 105.085C26.378 105.628 25.5602 106.044 24.589 105.073C23.998 104.482 23.1674 104.124 22.3113 103.964C21.7906 103.865 21.6117 103.693 21.9663 103.204C22.4646 102.52 22.717 101.705 23.046 100.833L23.0492 100.83Z" fill="white"/>
<path d="M19.7687 105.843C20.2127 105.303 20.5641 104.907 20.8772 104.485C21.0433 104.262 21.2126 104.143 21.4937 104.175C22.7428 104.306 23.7715 104.9 24.7139 105.683C24.8225 105.773 24.9056 105.881 24.8449 106.044C24.7107 106.389 23.2731 107.047 22.9441 106.865C22.0049 106.348 20.989 106.06 19.7687 105.843Z" fill="white"/>
<path d="M22.8254 107.494C22.4867 108.012 21.95 108.312 21.5124 108.718C21.3175 108.9 21.1258 108.964 20.8511 108.823C20.0045 108.392 19.1005 108.107 18.1325 107.951C19.2506 106.053 20.8096 105.925 22.8317 107.494L22.8254 107.494Z" fill="white"/>
<path d="M16.4305 109.711C17.341 108.322 19.2449 108.117 20.5164 109.21C20.6953 109.363 20.7368 109.468 20.5803 109.612C20.0372 110.104 19.6666 110.89 18.6475 110.369C17.9767 110.024 17.1812 109.925 16.4273 109.714L16.4305 109.711Z" fill="white"/>
<path d="M14.8486 111.331C15.8133 109.951 16.8548 109.893 18.9696 111.063C18.8514 111.456 18.4584 111.618 18.2284 111.912C17.8099 112.452 17.3915 112.494 16.7845 112.117C16.2063 111.756 15.5066 111.587 14.8486 111.331Z" fill="white"/>
<path d="M12.8872 113.407C14.2833 111.685 14.5676 111.586 16.1553 112.312C16.462 112.452 17.168 112.532 16.9156 112.963C16.6217 113.462 16.1968 114.231 15.3854 113.963C14.6155 113.704 13.8584 113.458 12.8872 113.407Z" fill="white"/>
<path d="M15.1585 114.497C14.1938 116.842 12.6795 115.474 11.2963 115.069C12.178 113.676 13.6028 113.478 15.1585 114.497Z" fill="white"/>
<path d="M13.3755 116.535C11.9347 118.532 11.8644 118.308 10.0978 116.573C9.97963 116.423 9.85824 116.295 10.0084 116.126C10.2512 115.858 10.5227 115.657 10.9188 115.65C11.4907 115.641 12.5002 115.986 13.3723 116.538L13.3755 116.535Z" fill="white"/>
<path d="M6.74071 121.292C6.92919 121.48 7.12726 121.665 7.30935 121.86C7.4531 122.017 7.84284 122.049 7.51061 122.464C7.29337 122.739 7.00586 122.905 6.73752 122.815C6.02512 122.576 5.53635 122.093 5.32231 121.362C5.23925 121.081 5.42773 120.809 5.69608 120.598C6.05068 120.32 6.11457 120.614 6.24874 120.761C6.41167 120.937 6.5682 121.125 6.72474 121.308C6.73113 121.301 6.73432 121.298 6.74071 121.292Z" fill="white"/>
<path d="M6.99279 97.4568C1.35115 103.558 6.38262 115.605 6.38262 115.605L7.67324 114.289L9.23539 115.851C9.23539 115.851 6.64778 106.37 11.1106 101.958C14.8866 98.2267 19.0939 97.1501 19.0939 97.1501L15.5575 93.6137C15.5575 93.6137 11.6122 92.4605 6.99279 97.4568ZM11.8837 95.8691C8.11729 98.4216 5.52967 102.83 5.89705 107.453C4.79811 102.099 8.57731 96.639 13.5641 94.8404C12.9763 95.1407 12.414 95.4858 11.8837 95.8691Z" fill="white"/>
<path d="M16.1045 93.0674L35.0676 112.03C35.0676 112.03 43.5588 101.91 34.8887 93.2463C25.4039 83.7615 16.1045 93.0674 16.1045 93.0674ZM32.8346 94.2909C29.3525 91.0708 23.813 90.1699 19.724 92.7575C24.3018 89.1061 31.2724 90.9526 34.2817 95.7317C33.8377 95.211 33.3521 94.7254 32.8346 94.2845V94.2909Z" fill="white"/>
<path d="M37.0157 94.505C37.0157 94.505 36.3001 93.4827 35.4695 92.6585C34.6389 91.8343 33.623 91.1123 33.623 91.1123C33.623 91.1123 123.337 2.90649 124.279 3.8489C125.222 4.7913 37.0157 94.505 37.0157 94.505Z" fill="white"/>
</g>
<defs>
<clipPath id="clip0_268_11821">
<rect width="128" height="128" fill="white"/>
</clipPath>
</defs>
</svg>
