<svg width="128" height="128" viewBox="0 0 128 128" fill="none" xmlns="http://www.w3.org/2000/svg">
<path d="M32.1797 95.3101C33.2297 97.3601 34.7497 98.3801 35.8497 98.8701C58.9697 74.1651 114.33 12.0151 114.33 12.0151C114.33 12.0151 55.5597 70.7951 32.1797 95.3101Z" fill="white"/>
<path d="M15.9551 113.935C15.2001 114.7 13.7101 116.385 13.6701 117.895C13.6601 118.32 14.0251 118.665 14.4501 118.625C15.9901 118.485 17.6101 116.81 18.2901 116.025C17.8701 115.32 17.1551 114.51 15.9551 113.93V113.935Z" fill="white"/>
<path d="M24.3456 99.1352C27.5256 102.09 32.0406 106.405 35.2956 109.24C35.6706 109.565 36.0456 109.895 36.4356 110.205C38.5956 104.745 35.6056 100.415 35.1356 99.7902C33.9456 99.2152 32.4556 98.1452 31.3506 96.1852C31.3506 96.1852 26.5456 92.7402 20.7656 95.4252C21.8306 96.7702 23.1256 97.9252 24.3456 99.1302V99.1352Z" fill="white"/>
<path d="M37.92 111.825C36.995 111.145 36.57 110.575 36.44 110.39C36.41 110.37 36.375 110.35 36.345 110.325C31.865 107.16 27.89 103.335 24.05 99.435C22.88 98.165 21.615 96.93 20.685 95.47C20.685 95.47 19.99 95.12 19.1 94.04C18.59 93.42 18.775 92.34 17.935 92.18C16.265 91.87 15.81 93.37 15.85 93.86C15.875 94.215 20.305 98.37 22.815 100.695L22.825 100.68L24.1 101.885C24.35 102.115 24.5 102.25 24.5 102.25C24.5 102.25 24.5 102.25 24.5 102.26L29.42 106.9C29.42 106.9 29.465 106.945 29.54 107.02L30.245 107.685L30.235 107.695C32.355 109.745 37.885 115.055 38.285 115.06C38.775 115.07 40.24 114.525 39.84 112.875C39.64 112.05 38.57 112.3 37.925 111.825H37.92Z" fill="white"/>
<path d="M18.4552 111.28C18.2402 111.225 16.0302 110.73 16.3852 113.515C17.5352 114.11 18.2602 114.91 18.7102 115.63C21.2752 115.76 20.8402 113.825 20.7402 113.47C20.3502 112.75 19.6552 111.9 18.4502 111.28H18.4552Z" fill="white"/>
<path d="M21.1355 113.01C25.4705 108.785 27.7655 107.48 28.7655 107.08L24.3405 102.905C23.9955 103.93 22.8205 106.29 18.8555 110.85C19.9905 111.47 20.7005 112.28 21.1355 113.01Z" fill="white"/>
</svg>
