<svg width="128" height="128" viewBox="0 0 128 128" fill="none" xmlns="http://www.w3.org/2000/svg">
<g clip-path="url(#clip0_268_11780)">
<path d="M83.5653 46.5072L7.66765 123.109C6.82834 123.956 5.45885 123.96 4.61594 123.117C3.77303 122.274 3.77662 120.904 4.62312 120.065L81.2253 44.1672L83.5653 46.5072Z" fill="white"/>
<path d="M108.236 21.4768C108.236 21.4768 126.2 3.70027 125.35 2.85017C124.618 2.11869 106.355 19.5951 106.355 19.5951L107.823 19.9851L108.235 21.475L108.236 21.4768Z" fill="white"/>
<path d="M81.5509 43.5682C81.1449 43.1622 81.1445 42.5044 81.55 42.0989C81.9555 41.6934 82.6133 41.6939 83.0193 42.0998L85.6324 44.713C86.0384 45.119 86.0388 45.7768 85.6333 46.1823C85.2279 46.5877 84.5701 46.5873 84.1641 46.1814L81.5509 43.5682Z" fill="white"/>
<path d="M86.3488 44.3339L107.732 21.9797L107.321 20.4898L105.851 20.098L83.3205 41.3055L86.3488 44.3339Z" fill="white"/>
<path d="M101.7 35.0942C100.803 34.715 100.082 35.45 100.222 36.55C100.276 36.9741 99.5431 35.0798 98.3641 35.3782C97.1923 35.6765 97.4691 37.0927 97.4691 37.0927L93.9357 37.1431L106.987 23.6709C106.987 23.6709 106.867 30.2794 107.451 33.5989C108.876 41.7242 104.135 46.9219 104.124 46.6882C103.849 40.6764 102.009 36.5715 102.009 36.5715C102.009 36.5715 102.733 35.5273 101.7 35.0906L101.7 35.0942ZM101.107 33.5953C101.349 33.3527 101.349 32.9573 101.107 32.7146C100.864 32.472 100.469 32.472 100.226 32.7146C99.9834 32.9573 99.9834 33.3527 100.226 33.5953C100.469 33.8379 100.864 33.8379 101.107 33.5953Z" fill="white"/>
<path d="M97.6826 4.37402C101.139 10.0875 100.452 13.3764 100.452 13.3764C100.452 13.3764 99.3505 13.4214 99.2139 14.6147C99.0647 15.9034 100.269 16.3131 100.269 16.3131C100.269 16.3131 97.7006 17.5982 99.0072 19.6848C100.316 21.7732 102.289 20.1664 102.289 20.1664L104.131 20.9087L91.4695 32.7939C91.4695 32.7939 91.3653 31.5538 90.4541 31.3004C89.3506 30.9948 88.7539 31.9581 88.7539 31.9581L80.7993 32.296C80.7993 32.296 93.8671 21.4748 97.6826 4.37402ZM98.0115 16.5108C98.1571 16.3652 98.1571 16.128 98.0115 15.9824C97.8659 15.8369 97.6287 15.8369 97.4831 15.9824C97.3375 16.128 97.3375 16.3652 97.4831 16.5108C97.6287 16.6564 97.8659 16.6564 98.0115 16.5108ZM100.4 22.6125C100.643 22.3698 100.643 21.9744 100.4 21.7318C100.157 21.4892 99.762 21.4892 99.5194 21.7318C99.2768 21.9744 99.2768 22.3698 99.5194 22.6125C99.762 22.8551 100.157 22.8551 100.4 22.6125ZM97.3609 21.1226C97.6035 20.8799 97.6035 20.4845 97.3609 20.2419C97.1183 19.9993 96.7229 19.9993 96.4803 20.2419C96.2376 20.4845 96.2376 20.8799 96.4803 21.1226C96.7229 21.3652 97.1183 21.3652 97.3609 21.1226ZM88.8384 30.7558C88.9911 30.603 88.9929 30.3532 88.8402 30.2004C88.6874 30.0477 88.4376 30.0459 88.283 30.2004C88.1285 30.355 88.1303 30.6012 88.2848 30.7558C88.4394 30.9104 88.6856 30.9086 88.8384 30.7558Z" fill="white"/>
</g>
<defs>
<clipPath id="clip0_268_11780">
<rect width="128" height="128" fill="white"/>
</clipPath>
</defs>
</svg>
