<svg width="128" height="128" viewBox="0 0 128 128" fill="none" xmlns="http://www.w3.org/2000/svg">
<g clip-path="url(#clip0_268_11776)">
<path d="M43.0089 79.3425L41.9341 78.5153C40.9405 77.7516 40.0671 76.8519 39.3334 75.8359L38.5386 74.7369L75.1966 39.1552C75.1966 39.1552 75.784 40.2937 77.1852 41.6973C78.5864 43.1009 79.667 43.7607 79.667 43.7607L43.0089 79.3425Z" fill="white"/>
<path d="M81.6348 43.7278L81.4037 43.5897C80.2219 42.8922 79.1241 42.0613 78.1632 41.0847C78.0533 40.9714 77.94 40.8547 77.8301 40.7414C76.889 39.7519 76.0879 38.6332 75.4227 37.4278L75.2916 37.1926L95.1369 17.9299C95.1369 17.9299 97.5602 18.4061 99.3199 20.219C101.08 22.032 101.483 24.4684 101.483 24.4684L81.6381 43.7311L81.6348 43.7278Z" fill="white"/>
<path d="M17.0366 94.5076L14.1506 97.3088C14.7223 98.3979 15.4771 99.5422 16.4604 100.555C17.4438 101.568 18.5748 102.367 19.6531 102.964L22.5391 100.163C21.4675 99.5592 20.3461 98.7707 19.3531 97.7476C18.36 96.7245 17.6115 95.6 17.0366 94.5076Z" fill="white"/>
<path d="M20.2632 91.3762L17.3772 94.1775C17.9489 95.2665 18.7036 96.4109 19.687 97.424C20.6703 98.4371 21.8014 99.2356 22.8796 99.833L25.7656 97.0317C24.6941 96.4279 23.5727 95.6394 22.5797 94.6163C21.5866 93.5932 20.8381 92.4686 20.2632 91.3762Z" fill="white"/>
<path d="M10.5418 100.812L7.6158 103.652C8.15954 104.632 8.85403 105.634 9.73063 106.538C10.8401 107.681 12.1052 108.524 13.2882 109.143L16.1309 106.383C15.0004 105.765 13.8105 104.946 12.7592 103.863C11.8309 102.907 11.1078 101.842 10.5418 100.812Z" fill="white"/>
<path d="M13.811 97.6384L10.8817 100.482C11.4411 101.518 12.1642 102.583 13.0925 103.54C14.1438 104.623 15.3402 105.442 16.4708 106.053L19.3135 103.294C18.2419 102.69 17.1206 101.902 16.1275 100.878C15.1345 99.8554 14.386 98.7308 13.811 97.6384Z" fill="white"/>
<path d="M9.40027 106.858C8.52367 105.955 7.82908 104.959 7.27878 103.979L5.23926 105.958C4.74604 106.437 4.56542 107.098 4.81861 107.519L4.97241 107.777C5.9594 109.427 7.28887 110.797 8.90905 111.833L9.16282 111.994C9.57598 112.26 10.2418 112.099 10.735 111.62L12.9512 109.469C11.7683 108.844 10.5066 107.991 9.40361 106.855L9.40027 106.858Z" fill="white"/>
<path d="M23.4917 88.2419L20.6057 91.0432C21.1774 92.1323 21.9322 93.2766 22.9155 94.2897C23.8989 95.3028 25.0299 96.1013 26.1082 96.6987L28.9941 93.8975C27.9226 93.2936 26.8012 92.5051 25.8082 91.482C24.8151 90.4589 24.0666 89.3343 23.4917 88.2419Z" fill="white"/>
<path d="M26.8179 85.0134L23.9319 87.8147C24.5036 88.9037 25.2583 90.0481 26.2417 91.0612C27.225 92.0743 28.3561 92.8728 29.4343 93.4702L32.3203 90.6689C31.2488 90.0651 30.1274 89.2766 29.1343 88.2535C28.1413 87.2304 27.3928 86.1058 26.8179 85.0134Z" fill="white"/>
<path d="M30.144 81.7854L27.2581 84.5866C27.8297 85.6757 28.5845 86.8201 29.5679 87.8332C30.5512 88.8463 31.6823 89.6448 32.7605 90.2422L35.6465 87.4409C34.5749 86.8371 33.4536 86.0485 32.4605 85.0254C31.4675 84.0023 30.719 82.8778 30.144 81.7854Z" fill="white"/>
<path d="M33.4663 78.5603L30.5803 81.3615C31.152 82.4506 31.9068 83.595 32.8901 84.6081C33.8735 85.6212 35.0045 86.4197 36.0828 87.0171L38.9688 84.2158C37.8972 83.612 36.7758 82.8234 35.7828 81.8003C34.7897 80.7772 34.0412 79.6527 33.4663 78.5603Z" fill="white"/>
<path d="M36.2193 81.3831C37.2123 82.4062 38.3337 83.1947 39.4119 83.7921L41.6647 81.6054C42.2546 81.0329 42.3782 80.2268 41.9239 79.8587L40.7005 78.8651C40.0191 78.3097 39.4109 77.6832 38.8761 76.9855L37.9193 75.7331C37.5682 75.2713 36.7556 75.3676 36.1657 75.9401L33.9096 78.13C34.4812 79.2191 35.236 80.3634 36.2194 81.3765L36.2193 81.3831Z" fill="white"/>
<path d="M100.512 20.1956L105.182 19.5591L111.945 8.04964L100.236 14.4636L99.4534 19.1322L100.508 20.1989L100.512 20.1956ZM101.082 14.9886L101.115 14.9562C101.78 15.5081 102.402 16.1019 103.017 16.7089C103.951 15.7112 105.33 14.464 106.28 13.5355C107.435 12.4853 108.61 11.1956 109.773 10.2802C107.615 12.5438 105.417 14.994 103.177 17.1809L103.001 17.3458C102.339 16.5772 101.677 15.8153 101.078 14.9918L101.082 14.9886Z" fill="white"/>
<path d="M86.4285 25.1013L88.6042 23.0153L88.4041 19.4751L77.621 13.7803L82.992 24.7282L86.4285 25.1013ZM83.8903 20.6526C82.7794 19.3814 80.3976 16.9943 79.5379 15.8419C81.037 17.2863 82.688 18.9005 84.1835 20.3679C84.6465 20.8182 85.1094 21.2685 85.5492 21.7349C85.8489 21.4569 86.2052 21.1305 86.4814 20.8883C86.8574 20.5621 87.2366 20.2394 87.6386 19.9333L87.6709 19.9667C87.0244 20.8142 86.2735 21.6143 85.5557 22.3951C84.9761 21.838 84.4332 21.2453 83.8935 20.6559L83.8903 20.6526Z" fill="white"/>
<path d="M125.593 35.8039C119.894 35.6073 110.582 36.3422 100.287 27.2094L89.2828 37.8904C89.2828 37.8904 96.223 52.4154 90.5094 64.2394C105.018 62.163 120.304 49.3124 125.593 35.8039ZM117.788 36.7451C114.501 46.6149 104.015 55.4086 93.5793 56.3665C103.816 53.9901 113.153 46.112 117.788 36.7451Z" fill="white"/>
</g>
<defs>
<clipPath id="clip0_268_11776">
<rect width="128" height="128" fill="white"/>
</clipPath>
</defs>
</svg>
