<svg width="128" height="128" viewBox="0 0 128 128" fill="none" xmlns="http://www.w3.org/2000/svg">
<path d="M56.8449 41.835C40.5199 59.68 34.5899 69.665 32.9199 72.825C36.2649 75.23 39.1299 78.295 41.1749 81.865C41.2299 81.96 41.2849 82.06 41.3399 82.155C41.3649 82.2 41.3899 82.245 41.4149 82.285C41.4049 82.275 41.3999 82.265 41.3899 82.25C41.4049 82.275 41.4099 82.295 41.4149 82.32C41.4249 82.335 41.4399 82.35 41.4499 82.37C41.4649 82.385 41.4699 82.4 41.4799 82.415C41.4799 82.415 46.0549 86.645 46.3999 86.88C46.5749 87 47.0349 86.53 47.3449 86.22C47.6949 85.865 47.7499 85.315 47.4949 84.89L42.2199 76.225L43.9699 74.22C44.5549 72.565 44.6999 71.12 45.6249 69.73C49.9149 63.29 55.6399 58.615 59.0399 56.185C60.6799 55.01 62.4649 54.065 64.3499 53.35L75.6599 49.04C75.6599 49.04 90.2099 44.23 100.635 35.255C111.06 26.28 119.525 12 119.525 12C119.525 12 77.0149 19.795 56.8499 41.84L56.8449 41.835ZM43.8199 67.36C42.4549 69.39 40.4799 71.48 40.3949 74.035C41.0149 73.73 41.5699 73.25 41.9149 72.645C42.2949 72.015 42.3999 71.265 42.3399 70.54L42.4049 70.535C42.9799 72.345 41.7499 74.205 40.0249 74.835L39.8649 74.28C39.2649 70.985 45.0249 65.04 47.2549 62.66C47.7099 62.2 48.1749 61.745 48.6599 61.31L48.7099 61.355C46.9949 63.285 45.3699 65.295 43.8299 67.365L43.8199 67.36ZM86.8599 40.43C80.8499 43.845 74.3249 46.22 67.8699 48.605L67.8299 48.505C74.1949 45.92 80.5999 43.345 86.5049 39.825C96.2899 33.82 104.245 25.415 112.45 17.485L112.53 17.56C104.935 26.155 96.9599 34.75 86.8599 40.43Z" fill="white"/>
<path d="M21.4147 113.49C20.7347 113.54 20.0197 113.575 19.3597 113.525C19.0847 113.525 18.7197 113.495 18.4497 113.445L17.5447 113.31L16.6547 113.075C16.0697 112.92 15.4697 112.68 14.9297 112.42C12.7097 111.34 10.9347 109.53 9.87972 107.265C9.42472 107.56 9.00972 107.775 8.66472 107.93C8.06972 108.19 7.82472 108.91 8.13472 109.475C12.0197 116.49 19.5447 116.125 21.4047 115.92C21.6347 115.895 21.7847 115.67 21.7397 115.445C21.5947 114.74 21.4847 114.095 21.4097 113.495L21.4147 113.49Z" fill="white"/>
<path d="M41.4147 82.5898C40.2597 80.8598 38.9097 79.2698 37.3797 77.8648C35.8947 76.4798 32.4247 74.3248 32.4247 74.3248C31.9747 74.0948 30.8297 74.4298 30.8297 74.4298C30.8297 77.1298 28.4047 79.6548 28.4047 79.6548C18.1497 91.4248 18.5197 93.2598 15.2697 100.44C13.7297 103.84 10.8197 106.755 10.8197 106.755C11.9697 110.035 15.0747 112.575 18.5047 113.18C18.7597 113.245 19.1247 113.305 19.3897 113.325C20.0397 113.42 20.7397 113.44 21.4197 113.44C20.7597 108.285 22.3747 106.86 22.3747 106.86C22.3747 106.86 30.0247 98.5598 32.0947 91.6398C34.1597 84.7248 37.5197 84.0248 37.5197 84.0248C39.5897 83.6748 41.3747 82.5448 41.4147 82.5848V82.5898ZM19.3247 106.39C18.8197 106.945 17.9597 106.985 17.4047 106.48C16.8497 105.975 16.8097 105.115 17.3147 104.56C17.8197 104.005 18.6797 103.965 19.2347 104.47C19.7897 104.975 19.8297 105.835 19.3247 106.39Z" fill="white"/>
</svg>
