<svg width="128" height="128" viewBox="0 0 128 128" fill="none" xmlns="http://www.w3.org/2000/svg">
<path d="M17.0449 114.385C17.0549 114.67 17.2499 114.95 17.7099 115.21C17.3949 114.995 17.1349 114.72 17.0449 114.385Z" fill="white"/>
<path d="M114.624 13.66C114.184 13.435 113.389 13.18 112.314 14.295C112.289 14.995 112.164 15.645 112.034 16.155C112.089 16.06 112.124 16.005 112.129 16C112.129 16 112.454 15.35 113.264 14.795C113.709 14.495 114.224 14.57 114.644 14.735C114.494 14.35 114.409 13.92 114.619 13.66H114.624Z" fill="white"/>
<path d="M111.635 17.5001L111.645 17.4301C111.65 17.3901 111.655 17.3601 111.66 17.3301C111.605 17.5551 111.555 17.7751 111.505 17.9851C111.56 17.8901 111.6 17.7351 111.635 17.5001Z" fill="white"/>
<path d="M69.6949 83.3151C69.4149 83.3151 69.1599 83.3851 69.0299 83.4251C68.9149 83.4601 68.7899 83.4801 68.6699 83.4801C68.4999 83.4801 68.3349 83.4401 68.1799 83.3701C44.8499 102.99 21.0099 111.895 21.0099 111.895H20.9849C19.1749 112.705 17.4949 113.69 17.5099 114.14C17.5299 114.735 18.6599 115.17 19.2849 115.345C19.9399 115.165 20.7649 114.73 21.1999 113.705C21.1999 113.705 46.1649 102.175 52.2449 98.8601C56.2349 96.6851 63.5599 91.3451 71.0099 85.0551C70.7899 83.3151 70.0249 83.3101 69.6999 83.3101L69.6949 83.3151Z" fill="white"/>
<path d="M116.1 10.3451C115.045 9.80508 113.95 10.8801 113.95 10.8801C113.95 10.8801 112.685 12.0851 112.385 13.5601C113.67 12.5401 114.665 13.1051 115.03 13.3151C115.03 13.3151 115.035 13.3151 115.04 13.3201C115.51 12.9101 115.795 12.4701 115.795 12.4701C115.795 12.4701 117.155 10.8801 116.1 10.3451Z" fill="white"/>
<path d="M115.055 15.5202C114.79 15.3352 114.04 14.8752 113.555 15.2102C112.855 15.6902 112.57 16.2502 112.565 16.2552C112.545 16.2902 112.35 16.5752 112.21 17.0302C112.185 17.1102 112.185 17.1352 112.18 17.2052C112.175 17.2702 112.17 17.3552 112.145 17.5052L112.135 17.5702C112.09 17.8802 111.98 18.5702 111.36 18.6152C110.055 24.1652 109.79 25.7102 106.675 32.1002C101.475 42.7602 92.7348 56.8902 84.6348 66.9602C85.5998 67.2452 86.9648 67.8002 87.6048 68.7752C97.1698 56.9002 108.345 37.9252 110.875 28.1152C113.36 18.4752 113.395 17.9302 113.395 17.9302C113.395 17.9302 116.14 16.1352 115.06 15.5202H115.055Z" fill="white"/>
<path d="M15.7695 115.185C15.6195 114.855 15.5845 114.525 15.5945 114.235C14.8595 114.755 13.8895 115.61 13.8645 116.475C13.8245 117.875 14.7695 117.805 14.7695 117.805C14.7695 117.805 15.7845 117.42 16.0045 116.56C16.0795 116.275 16.2145 116.075 16.3645 115.925C16.0995 115.72 15.8995 115.475 15.7695 115.185Z" fill="white"/>
<path d="M73.8945 76.9601C74.1545 77.2551 74.4145 77.6151 74.6395 78.0451C75.3595 78.1051 76.1695 78.2651 77.0645 78.5601C77.0145 77.5401 76.7645 76.7301 76.4395 76.1001C75.1595 76.2351 74.3145 76.6751 73.8945 76.9551V76.9601Z" fill="white"/>
<path d="M76.1797 74.8751C76.3497 75.0751 76.5197 75.3001 76.6747 75.5551C77.3497 75.5151 78.1197 75.5551 78.9947 75.7301C78.8747 75.0501 78.6597 74.4851 78.3997 74.0151C77.2647 74.2001 76.5297 74.6251 76.1797 74.8701V74.8751Z" fill="white"/>
<path d="M71.9395 78.83C72.3145 79.255 72.6845 79.81 72.9545 80.525C73.5295 80.605 74.1645 80.74 74.8545 80.94C74.8345 79.97 74.6395 79.18 74.3595 78.55C73.3695 78.5 72.5645 78.635 71.9445 78.83H71.9395Z" fill="white"/>
<path d="M76.0447 81.8801C75.8047 81.7851 75.5647 81.7001 75.3347 81.6201C75.3147 81.9601 75.2797 82.3101 75.2197 82.6851C75.4747 82.4401 75.7447 82.1751 76.0397 81.8801H76.0447Z" fill="white"/>
<path d="M81.1447 74.0798C80.3047 73.9248 79.5647 73.8998 78.9297 73.9548C79.1947 74.4798 79.4097 75.1098 79.5247 75.8548C80.0497 75.9898 80.6097 76.1748 81.1997 76.4148C81.3047 75.5148 81.2697 74.7448 81.1447 74.0848V74.0798Z" fill="white"/>
<path d="M80.7295 71.7898C81.0595 72.2798 81.3545 72.8848 81.5395 73.6348C82.0795 73.7548 82.6545 73.9248 83.2695 74.1598C83.3145 73.3498 83.2395 72.6498 83.0945 72.0548C82.1995 71.8398 81.4095 71.7648 80.7295 71.7898Z" fill="white"/>
<path d="M81.0149 73.5301C80.8099 72.8201 80.5049 72.2601 80.1749 71.8301C79.3949 71.9151 78.7749 72.1151 78.3199 72.3251C78.2149 72.4301 78.1099 72.5351 78.0049 72.6401C78.2199 72.8651 78.4399 73.1351 78.6449 73.4551C79.3199 73.3751 80.1099 73.3801 81.0149 73.5351V73.5301Z" fill="white"/>
<path d="M72.6097 80.9951C71.9697 80.9251 71.4097 80.9251 70.9297 80.9701C71.2297 81.6051 71.4497 82.3901 71.5097 83.3351C71.5397 83.3851 71.5697 83.4401 71.5947 83.4951C71.9747 83.4001 72.4047 83.3301 72.8847 83.3001C72.9197 82.3901 72.8097 81.6301 72.6097 80.9951Z" fill="white"/>
<path d="M83.2192 74.6799C82.6692 74.4649 82.1492 74.3049 81.6592 74.1899C81.7542 74.7649 81.7792 75.4099 81.7242 76.1349C82.2742 75.5949 82.7792 75.1049 83.2192 74.6799Z" fill="white"/>
<path d="M70.1597 80.56C70.0897 80.45 70.0147 80.345 69.9397 80.25C69.7947 80.41 69.6496 80.565 69.5146 80.72C69.7046 80.66 69.9247 80.605 70.1597 80.56Z" fill="white"/>
<path d="M75.3447 81.0951C75.6897 81.2101 76.0497 81.3401 76.4247 81.4951C76.5547 81.3601 76.6897 81.2201 76.8297 81.0801C76.9897 80.3551 77.0646 79.6951 77.0746 79.1051C76.2746 78.8351 75.5446 78.6751 74.8896 78.6001C75.1596 79.2801 75.3397 80.1051 75.3447 81.1001V81.0951Z" fill="white"/>
<path d="M81.9998 69.215C82.8448 69.19 83.8548 69.36 84.9748 69.93C84.5498 68.795 83.8598 68.11 83.3498 67.73C83.1298 67.79 82.5948 68.02 81.6348 68.895C81.7498 68.985 81.8748 69.095 82.0048 69.215H81.9998Z" fill="white"/>
<path d="M85.749 70.9899C85.804 71.3299 85.839 71.6999 85.844 72.0899C86.004 71.8999 86.169 71.6799 86.329 71.4399C86.134 71.2749 85.939 71.1249 85.749 70.9849V70.9899Z" fill="white"/>
<path d="M76.9541 76.0698C77.2891 76.7698 77.5341 77.6498 77.5641 78.7398C77.9191 78.8698 78.2841 79.0248 78.6591 79.1998C78.7341 79.1198 78.8091 79.0448 78.8841 78.9698C79.0991 77.9348 79.1391 77.0448 79.0691 76.2798C78.2791 76.1098 77.5691 76.0548 76.9541 76.0748V76.0698Z" fill="white"/>
<path d="M72.4144 80.4649C72.1444 79.8399 71.7944 79.3599 71.4544 79.0049C71.2294 79.0999 71.0444 79.1949 70.8844 79.2849C70.6844 79.4799 70.4794 79.6849 70.2744 79.8999C70.4094 80.0749 70.5444 80.2699 70.6744 80.4849C71.1744 80.4249 71.7544 80.4099 72.4144 80.4699V80.4649Z" fill="white"/>
<path d="M85.209 72.7802C84.649 72.5352 84.124 72.3452 83.624 72.2002C83.744 72.7702 83.799 73.4202 83.769 74.1502C84.544 73.4052 85.059 72.9252 85.209 72.7852V72.7802Z" fill="white"/>
<path d="M79.579 76.3999C79.624 76.9849 79.604 77.6299 79.499 78.3449C80.014 77.8249 80.514 77.3299 80.979 76.8649C80.489 76.6699 80.019 76.5149 79.579 76.3999Z" fill="white"/>
<path d="M73.9643 83.8348C73.7493 83.8198 73.5443 83.8098 73.3443 83.8148C73.3293 83.9998 73.3043 84.1948 73.2793 84.3948C73.4793 84.2448 73.7043 84.0648 73.9643 83.8398V83.8348Z" fill="white"/>
<path d="M72.8439 83.8301C72.4589 83.8551 72.1089 83.9151 71.7939 83.9851C71.8839 84.2651 71.9589 84.5901 72.0039 84.9701C72.0039 84.9701 72.0889 85.1501 72.7089 84.7801C72.7739 84.4451 72.8189 84.1301 72.8489 83.8301H72.8439Z" fill="white"/>
<path d="M74.4948 83.3649C74.5298 83.3349 74.5648 83.2999 74.5998 83.2699C74.7448 82.6099 74.8198 82.0099 74.8448 81.4649C74.2248 81.2749 73.6548 81.1499 73.1348 81.0649C73.3098 81.6949 73.4048 82.4349 73.3798 83.2849C73.7298 83.2849 74.0998 83.3149 74.4998 83.3649H74.4948Z" fill="white"/>
<path d="M85.5948 70.2848C85.9198 70.4898 86.2548 70.7298 86.5898 71.0098C86.9048 70.4298 87.0698 69.8098 86.7748 69.3448C86.2998 68.5998 85.0748 68.1398 84.2598 67.9048C84.7698 68.4398 85.2898 69.2098 85.5948 70.2848Z" fill="white"/>
<path d="M70.9494 82.7048C70.8494 82.0448 70.6594 81.4948 70.4294 81.0298C69.6794 81.1498 69.1644 81.3698 68.8744 81.5248C68.5544 81.9798 68.3844 82.3598 68.4944 82.5548C68.4944 82.5548 69.8994 81.9248 70.9494 82.6998V82.7048Z" fill="white"/>
<path d="M77.459 80.4299C77.739 80.1399 78.019 79.8549 78.289 79.5749C78.044 79.4649 77.799 79.3649 77.564 79.2749C77.554 79.6399 77.519 80.0199 77.459 80.4299Z" fill="white"/>
<path d="M80.3443 71.2852C81.0793 71.2302 81.9393 71.2752 82.9243 71.4902C82.6393 70.7052 82.2293 70.1302 81.8293 69.7202C81.3143 69.7502 80.8793 69.8602 80.5443 69.9752C80.4493 70.0752 80.3543 70.1752 80.2543 70.2852C80.1143 70.4402 79.9693 70.6002 79.8193 70.7552C79.9893 70.9052 80.1643 71.0752 80.3393 71.2802L80.3443 71.2852Z" fill="white"/>
<path d="M81.329 69.275C81.329 69.275 81.289 69.245 81.274 69.23C81.254 69.25 81.229 69.27 81.209 69.295C81.249 69.29 81.289 69.28 81.329 69.275Z" fill="white"/>
<path d="M74.0793 78.0149C73.8443 77.6149 73.5743 77.2949 73.3193 77.0449C72.7243 77.5799 72.3593 77.8999 72.3593 77.8999C72.3593 77.8999 72.1993 78.0449 71.9443 78.2799C72.5243 78.1099 73.2343 77.9999 74.0793 78.0149Z" fill="white"/>
<path d="M83.4797 71.6252C84.0647 71.7852 84.6897 72.0002 85.3547 72.2902C85.3597 71.6602 85.2947 71.1052 85.1797 70.6152C84.1747 70.0152 83.2547 69.7702 82.4697 69.7202C82.8597 70.2002 83.2297 70.8252 83.4797 71.6252Z" fill="white"/>
<path d="M76.144 75.6048C75.969 75.3498 75.789 75.1298 75.609 74.9448C75.154 75.3698 74.724 75.7698 74.334 76.1248C74.794 75.9098 75.394 75.7048 76.149 75.5998L76.144 75.6048Z" fill="white"/>
<path d="M78.0992 73.5349C77.9492 73.3249 77.7992 73.1449 77.6492 72.9849C77.2742 73.3549 76.8992 73.7149 76.5342 74.0649C76.9292 73.8649 77.4492 73.6599 78.1042 73.5299L78.0992 73.5349Z" fill="white"/>
<path d="M79.7597 71.3549C79.6697 71.2649 79.5847 71.1849 79.4947 71.1099C79.3797 71.2349 79.2596 71.3599 79.1396 71.4799C79.3346 71.4299 79.5397 71.3849 79.7597 71.3499V71.3549Z" fill="white"/>
<path d="M114.774 13.7501C113.834 13.1101 112.904 13.7051 112.439 14.1701C111.974 14.6351 111.929 14.8351 111.339 15.7551C111.004 16.2851 110.359 16.9551 109.839 17.4601C109.539 17.4001 109.254 17.4851 109.129 17.7001C109.054 17.8301 109.049 17.9901 109.104 18.1451C109.074 18.1701 109.054 18.1901 109.054 18.1901L22.0194 108.595C22.1094 108.245 22.1494 107.825 22.0894 107.315L21.5944 107.37C21.7394 108.65 21.1994 109.255 20.9894 109.44C20.5744 109.53 20.2744 109.78 20.2744 110.07C20.2744 110.16 20.3044 110.245 20.3544 110.325L20.3294 110.35C20.3294 110.35 19.1594 110.83 19.3194 111.37C19.3194 111.37 16.9644 111.93 16.3794 113.22C15.7994 114.51 16.3044 115.185 16.3044 115.185C16.3044 115.185 17.3844 116.56 18.1594 115.46L17.5044 114.99C17.5044 114.99 16.7694 114.55 17.2044 113.68C17.6394 112.81 19.4994 112.07 19.4994 112.07L20.4344 111.625C20.4344 111.625 20.8744 111.565 20.8844 110.97C20.8844 110.97 21.0544 110.875 21.2594 110.735C21.2844 110.735 21.3094 110.735 21.3344 110.735C21.9244 110.735 22.3994 110.435 22.3994 110.065C22.3994 109.925 22.3294 109.795 22.2144 109.685L109.159 19.4851C109.144 19.8201 109.229 20.1451 109.529 20.3651L109.824 19.9601C109.529 19.7401 109.669 19.2051 109.849 18.7901C110.174 18.8701 110.484 18.7901 110.619 18.5601C110.709 18.4051 110.699 18.2151 110.614 18.0301C110.774 17.9951 111.204 17.9051 111.514 17.9251C111.584 17.6901 111.974 16.4351 112.094 16.1901C112.064 15.7001 113.014 14.7251 113.684 14.6101C114.449 14.4801 115.144 14.9651 115.144 14.9651C115.144 14.9651 115.714 14.3801 114.774 13.7401V13.7501Z" fill="white"/>
</svg>
