<svg width="128" height="128" viewBox="0 0 128 128" fill="none" xmlns="http://www.w3.org/2000/svg">
<path d="M34.705 89.355C34.245 89.845 32.21 92.025 32.18 92.155C32.15 92.305 14.285 110.3 11.19 113.43C9.64503 114.995 8.40003 115.8 7.54503 116.215C6.80003 116.575 6.38003 117.39 6.56003 118.2L6.60003 118.39C6.75003 119.075 7.13503 119.69 7.68503 120.13L9.45003 121.535C9.99503 121.97 10.65 122.24 11.34 122.315L11.555 122.34C13.21 122.52 14.835 121.79 15.8 120.43L16.15 119.075C16.4 118.72 18.21 117.105 18.53 116.81C20.345 115.125 26.88 108.985 29.26 105.82C35.175 97.95 36 98.455 36 98.455L38.21 99.285C38.98 99.575 39.85 99.39 40.44 98.815L42.4 96.905L34.7 89.355H34.705ZM13.47 118.33C13.005 118.785 12.255 118.775 11.8 118.31C11.345 117.845 11.355 117.095 11.82 116.64C12.285 116.185 13.035 116.195 13.49 116.66C13.945 117.125 13.935 117.875 13.47 118.33ZM20.155 111.81C19.69 112.265 18.94 112.255 18.485 111.79C18.03 111.325 18.04 110.575 18.505 110.12C18.97 109.665 19.72 109.675 20.175 110.14C20.63 110.605 20.62 111.355 20.155 111.81ZM26.555 105.025C26.095 105.475 25.355 105.465 24.91 105.005C24.46 104.545 24.47 103.805 24.93 103.36C25.39 102.91 26.13 102.92 26.575 103.38C27.025 103.84 27.015 104.58 26.555 105.025ZM32.34 98.41C31.86 98.88 31.095 98.87 30.625 98.39C30.155 97.91 30.165 97.145 30.645 96.675C31.125 96.205 31.89 96.215 32.36 96.695C32.83 97.175 32.82 97.94 32.34 98.41Z" fill="white"/>
<path d="M116.35 5.66504C114.97 12.575 98.5651 29.04 98.5651 29.04L35.7451 88.975L41.4601 94.58L41.3401 94.355C41.3401 94.355 59.4501 77.275 78.2151 60.6C93.4751 47.035 109.585 34.115 113.375 27.82C121.825 13.78 116.355 5.67004 116.355 5.67004L116.35 5.66504ZM115.22 17.715C113.945 22.5 110.975 26.645 107.535 30.125C101.41 36.445 94.7951 42.26 88.1751 48.035C79.3951 55.78 70.4001 63.3 61.8851 71.33C59.4951 73.74 57.0251 76.16 55.2901 79.1C55.0751 79.52 54.8301 79.985 54.8201 80.435L54.7201 80.455C55.5401 75.985 66.5301 66.54 70.1951 63.065C75.9751 57.855 90.7101 44.57 96.2651 39.505C99.1551 36.885 102.16 33.665 105 31C109.25 26.75 113.24 23.28 114.93 17.63C115.47 15.78 115.82 13.82 115.62 11.895L115.72 11.875C116 13.83 115.72 15.815 115.225 17.715H115.22Z" fill="white"/>
</svg>
