<svg width="128" height="128" viewBox="0 0 128 128" fill="none" xmlns="http://www.w3.org/2000/svg">
<g clip-path="url(#clip0_268_11774)">
<path d="M35.025 93.6738L36.0508 95.1912C36.9962 96.592 38.1089 97.8755 39.3614 99.0101L40.718 100.241L103.711 45.6318L101.746 43.8739C100.999 43.2038 100.337 42.4474 99.7674 41.6237L98.014 39.0682L35.021 93.6772L35.025 93.6738Z" fill="white"/>
<path d="M107.05 30.7178C107.645 30.7122 108.161 30.3759 108.448 29.8719L111.166 30.9706C111.135 31.5077 111.247 32.0513 111.505 32.5314C112.569 34.4984 115.252 34.6897 116.584 32.8935C117.254 31.9883 117.347 30.7353 116.808 29.7476C116.218 28.6528 115.122 28.113 114.045 28.1507C114.023 28.1418 114.002 28.1255 113.981 28.1166L110.466 26.6951C110.686 26.5113 110.916 26.3393 111.167 26.1836C113.33 24.853 116.191 25.1455 118.059 26.8633C120.645 29.2491 120.528 33.2743 117.945 35.5133C117.063 36.2778 116.011 36.7274 114.937 36.8724C114.191 36.9744 113.597 37.5378 113.507 38.2849L113.407 39.1162C113.352 39.5704 113.13 39.9904 112.788 40.2873L107.162 45.1646C106.394 45.8302 105.233 45.7474 104.567 44.9796L102.599 43.2104C101.825 42.5162 101.142 41.7288 100.565 40.8639L99.0926 38.6646C98.4271 37.8969 98.5099 36.7355 99.2776 36.07L104.931 31.1688C105.262 30.8821 105.683 30.7238 106.123 30.7219L107.054 30.7144L107.05 30.7178Z" fill="white"/>
<path d="M29.206 112.806L25.7965 115.762C24.2657 114.593 22.6464 113.162 21.1651 111.454C19.6839 109.745 18.4806 107.919 17.555 106.239L20.9645 103.283C21.9048 104.965 23.0944 106.774 24.5825 108.491C26.0706 110.208 27.6718 111.633 29.206 112.806Z" fill="white"/>
<path d="M33.0175 109.502L29.608 112.458C28.0772 111.289 26.4579 109.858 24.9766 108.15C23.4954 106.441 22.2921 104.616 21.3665 102.935L24.776 99.9797C25.7163 101.661 26.9059 103.471 28.394 105.187C29.8821 106.904 31.4833 108.329 33.0175 109.502Z" fill="white"/>
<path d="M21.5333 119.458L18.0766 122.455C16.6988 121.367 15.2735 120.065 13.9561 118.545C12.2939 116.628 11.0058 114.593 10.0359 112.758L13.3942 109.847C14.3581 111.611 15.5992 113.528 17.176 115.347C18.5685 116.953 20.0852 118.321 21.5333 119.458Z" fill="white"/>
<path d="M25.3954 116.11L21.9348 119.11C20.4822 117.984 18.9655 116.616 17.5696 115.006C15.9893 113.183 14.7522 111.263 13.7956 109.499L17.154 106.588C18.0942 108.269 19.2838 110.079 20.7719 111.795C22.26 113.512 23.8612 114.937 25.3954 116.11Z" fill="white"/>
<path d="M13.5664 118.883C14.8804 120.399 16.3018 121.704 17.679 122.8L15.2696 124.888C14.6869 125.393 13.8217 125.406 13.2254 124.909L12.8626 124.61C10.5329 122.678 8.53629 120.375 6.95121 117.791L6.7065 117.389C6.30269 116.732 6.43409 115.874 7.01678 115.369L9.63492 113.099C10.6156 114.938 11.9082 116.962 13.5669 118.875L13.5664 118.883Z" fill="white"/>
<path d="M36.832 106.195L33.4225 109.151C31.8917 107.982 30.2724 106.551 28.7911 104.843C27.3098 103.134 26.1065 101.308 25.181 99.6283L28.5905 96.6726C29.5307 98.3538 30.7204 100.164 32.2085 101.88C33.6966 103.597 35.2978 105.022 36.832 106.195Z" fill="white"/>
<path d="M32.6021 101.539C31.1106 99.8183 29.9176 98.0046 28.992 96.3244L31.6535 94.0172C32.3504 93.4131 33.4169 93.5298 33.962 94.2778L35.4393 96.3002C36.264 97.4265 37.1787 98.4816 38.1766 99.4577L39.9689 101.207C40.6321 101.853 40.5963 102.925 39.8994 103.529L37.2341 105.84C35.7032 104.671 34.0839 103.24 32.6027 101.531L32.6021 101.539Z" fill="white"/>
<path d="M100.188 25.3263L100.186 25.3312C99.9685 26.032 99.2239 26.4236 98.5231 26.2059L91.3429 23.9753C90.6421 23.7576 90.2505 23.013 90.4682 22.3123L90.4697 22.3073C90.6874 21.6065 91.432 21.2149 92.1328 21.4326L99.313 23.6632C100.014 23.8809 100.405 24.6255 100.188 25.3263Z" fill="white"/>
<path d="M114.489 30.3219L114.487 30.3267C114.212 31.0071 113.438 31.3357 112.757 31.0607L104.603 27.7648C103.923 27.4898 103.594 26.7154 103.869 26.035L103.871 26.0302C104.146 25.3499 104.92 25.0212 105.601 25.2962L113.755 28.5921C114.435 28.8671 114.764 29.6416 114.489 30.3219Z" fill="white"/>
<path d="M87.8967 21.3311L87.8952 21.3361C87.6775 22.0369 86.9329 22.4285 86.2321 22.2108L79.0519 19.9802C78.3511 19.7625 77.9595 19.0179 78.1772 18.3171L78.1787 18.3122C78.3964 17.6114 79.141 17.2198 79.8418 17.4375L87.022 19.6681C87.7228 19.8858 88.1144 20.6304 87.8967 21.3311Z" fill="white"/>
<path d="M105.825 24.8207C105.517 24.6953 105.19 24.6683 104.884 24.713L100.554 23.3701C100.298 23.289 100.037 23.2667 99.7769 23.2925C99.6879 23.2455 99.5945 23.2093 99.4971 23.1765L97.0649 22.4232C98.0966 21.3701 99.6732 20.9137 101.176 21.3828L105.559 22.748C106.597 23.0695 107.444 23.7763 107.951 24.7433C108.14 25.0966 108.269 25.4677 108.342 25.846L105.828 24.832L105.825 24.8207Z" fill="white"/>
<path d="M98.3927 26.7065C98.4866 26.7354 98.5743 26.749 98.6693 26.7632C98.8675 26.9362 99.1017 27.0711 99.3729 27.1532L103.756 28.5184C104.182 28.6522 104.616 28.6277 105.011 28.4859L107.305 29.4141C106.27 30.5039 104.674 30.9847 103.141 30.5135L98.7579 29.1483C98.01 28.914 97.3757 28.4846 96.8979 27.9334C96.42 27.3822 96.0929 26.6866 95.9678 25.9537L98.4 26.7071L98.3927 26.7065Z" fill="white"/>
<path d="M92.3179 20.9398C92.2528 20.9203 92.1905 20.9122 92.1323 20.9007C92.1254 20.8928 92.1186 20.8849 92.1118 20.8771C91.8763 20.6054 91.5699 20.3952 91.2048 20.2842L86.8216 18.919C86.594 18.8474 86.3627 18.8272 86.1294 18.8364L83.3286 17.9682C84.3604 16.9151 85.9369 16.4587 87.44 16.9278L91.8232 18.293C93.3915 18.7816 94.4474 20.1349 94.6487 21.6637L92.3179 20.9398Z" fill="white"/>
<path d="M85.0021 22.3721C85.1906 22.5259 85.4077 22.6411 85.6427 22.7132L90.0258 24.0784C90.2246 24.1406 90.4225 24.1621 90.6186 24.1576C90.7968 24.2996 90.9958 24.4099 91.2161 24.481L93.3878 25.1566C92.355 26.1209 90.8454 26.5193 89.4074 26.0696L85.0242 24.7044C84.2763 24.4701 83.642 24.0407 83.1642 23.4895C82.6864 22.9384 82.3592 22.2428 82.2302 21.5133L85.0055 22.376L85.0021 22.3721Z" fill="white"/>
<path d="M60.2488 12.13C61.3998 9.66342 63.484 7.62901 66.2454 6.61433C66.9888 6.34227 67.7366 6.16288 68.49 6.06145L70.4084 2.36412L72.2645 6.22343C75.1477 6.86853 77.7063 8.69834 79.2257 11.3738L83.1029 11.8054L80.4292 14.6473C81.0683 17.9618 80.0902 21.3199 77.9257 23.7549L78.8491 27.6918L75.0526 26.0249C74.5991 26.2733 74.1324 26.4985 73.6355 26.681C71.534 27.4547 69.3534 27.5245 67.3323 27.0148L64.3284 29.7223L63.9503 25.4919C62.1604 24.2784 60.7117 22.5277 59.9071 20.3427C59.27 18.6056 59.1062 16.8098 59.3611 15.0993L56.8135 12.8049L60.2488 12.13ZM74.8691 19.8949C72.0134 20.5225 75.7286 20.5842 76.6508 20.4467C76.3257 19.5149 75.9667 18.5917 75.3051 17.8206C75.2902 18.4955 75.4108 19.1357 75.5951 19.762C75.3529 19.7928 75.1061 19.8343 74.8657 19.891L74.8691 19.8949ZM63.156 20.1052C64.1131 20.3582 65.0807 20.5675 66.0827 20.4505C65.5306 20.0603 64.9318 19.8071 64.3068 19.6111C64.4146 19.3934 64.5196 19.1645 64.6059 18.938C65.6718 16.2141 63.552 19.2654 63.1521 20.1086L63.156 20.1052ZM68.3172 11.6452C68.8046 11.1812 69.1718 10.6423 69.4862 10.0663C69.6786 10.2167 69.8789 10.3603 70.0911 10.4936C72.5533 12.069 69.9736 9.39555 69.2227 8.83967C68.7937 9.72882 68.3964 10.6387 68.3172 11.6452Z" fill="white"/>
</g>
<defs>
<clipPath id="clip0_268_11774">
<rect width="128" height="128" fill="white"/>
</clipPath>
</defs>
</svg>
