<svg width="128" height="128" viewBox="0 0 128 128" fill="none" xmlns="http://www.w3.org/2000/svg">
<path d="M114.936 19.42C114.936 19.42 113.111 14.865 105.776 7.5C105.776 7.5 105.101 20.04 78.9607 44.27L39.0957 84.1L47.3257 93.12L102.341 47.725C102.341 47.725 121.911 34.71 114.941 19.42H114.936ZM109.741 34.06C107.166 39.315 102.896 43.535 98.3407 47.095C84.4307 58.195 67.6757 72.08 53.8407 83.47C67.0507 71.68 83.8852 57.425 97.5002 46C106.415 38.99 114.686 28.895 110.166 17.22C113.041 22.365 112.351 28.92 109.736 34.055L109.741 34.06Z" fill="white"/>
<path d="M38.3255 84.87L38.1855 85.01C38.1855 85.01 37.3955 84.6 36.9405 85.095C33.9305 88.375 22.2105 100.39 12.9605 108.57C12.9605 108.57 9.09547 113.995 13.9405 118.625C18.7805 123.255 22.9505 116.28 22.9505 116.28C22.9505 116.28 30.9805 100.235 40.1555 99.56L46.5105 93.835L38.3305 84.865L38.3255 84.87ZM17.8205 115.945C17.4555 116.275 16.8955 116.245 16.5655 115.88C16.2355 115.515 16.2655 114.955 16.6305 114.625C16.9955 114.295 17.5555 114.325 17.8855 114.69C18.2155 115.055 18.1855 115.615 17.8205 115.945ZM20.0705 110.84C19.7055 111.17 19.1455 111.14 18.8155 110.775C18.4855 110.41 18.5155 109.85 18.8805 109.52C19.2455 109.19 19.8055 109.22 20.1355 109.585C20.4655 109.95 20.4355 110.51 20.0705 110.84ZM23.0255 106.54C22.7955 106.745 22.4405 106.73 22.2355 106.5C22.0305 106.27 22.0455 105.915 22.2755 105.71C22.5055 105.505 22.8605 105.52 23.0655 105.75C23.2705 105.98 23.2555 106.335 23.0255 106.54ZM37.2155 95.88C36.4755 96.55 35.3305 96.49 34.6655 95.745C33.9955 95.005 34.0555 93.86 34.8005 93.195C35.5405 92.525 36.6855 92.585 37.3505 93.33C38.0155 94.075 37.9605 95.215 37.2155 95.88Z" fill="white"/>
</svg>
