<svg width="128" height="128" viewBox="0 0 128 128" fill="none" xmlns="http://www.w3.org/2000/svg">
<path d="M38.86 84.2656C35.045 86.5406 24.845 93.0456 19.25 100.696C12.275 110.226 8.5 113.376 8.5 113.376C15.835 118.046 21.89 114.686 21.89 114.686C21.92 112.216 21.35 111.051 22.62 108.626C22.94 108.021 24.255 106.646 24.64 106.031C25.035 105.401 25.49 104.056 25.93 103.441C26.3 102.921 27.33 102.266 27.73 101.761C28.265 101.081 28.295 100.371 28.865 99.7206C29.35 99.1656 30.165 98.8406 30.665 98.3056C31.255 97.6756 31.525 96.7406 32.12 96.1506C32.66 95.6206 33.53 95.4306 34.06 94.9356C37.405 91.8206 40.51 89.4656 41.975 88.3956L38.86 84.2656ZM17.295 112.731C16.925 113.101 16.33 113.106 15.955 112.736C15.585 112.366 15.58 111.771 15.95 111.396C16.32 111.026 16.915 111.021 17.29 111.391C17.66 111.761 17.665 112.356 17.295 112.731ZM22.095 104.406C21.725 104.776 21.13 104.781 20.755 104.411C20.385 104.041 20.38 103.446 20.75 103.071C21.12 102.696 21.715 102.696 22.09 103.066C22.46 103.436 22.465 104.031 22.095 104.406ZM28.33 97.1056C27.96 97.4756 27.365 97.4806 26.99 97.1106C26.62 96.7406 26.615 96.1456 26.985 95.7706C27.355 95.4006 27.95 95.3956 28.325 95.7656C28.695 96.1356 28.7 96.7306 28.33 97.1056ZM34.63 91.2056C34.26 90.8356 34.255 90.2406 34.625 89.8656C34.995 89.4906 35.59 89.4906 35.965 89.8606C36.335 90.2306 36.34 90.8256 35.97 91.2006C35.6 91.5706 35.005 91.5756 34.63 91.2056Z" fill="white"/>
<path d="M105.705 16.9259C89.9204 43.2709 63.2604 65.9209 55.2904 72.4759C54.0354 73.5109 49.9704 76.7509 48.1604 77.9559L40.3653 83.4009C40.3653 83.4009 40.1404 83.5259 39.7354 83.7609L42.7953 87.8159C42.8403 87.7859 43.3954 88.4159 43.3954 88.4159L48.1203 84.6259L70.8853 67.4159C106.95 40.8459 119.36 13.6209 119.36 13.6209C109.29 9.81087 105.72 16.9359 105.72 16.9359L105.705 16.9259ZM84.8053 53.6459C74.6453 63.0009 62.4354 71.5909 51.4804 80.0209L49.0603 81.8559C48.5453 82.3509 47.6154 82.6309 47.6104 83.4459C47.6104 83.6959 47.7553 83.9109 47.8503 84.1459C47.8703 84.1759 47.8154 84.2009 47.8004 84.1709C47.0204 82.9209 48.1754 82.4809 49.0054 81.7909L51.4053 79.9359C65.6304 68.9059 80.5454 57.6259 92.9254 44.5109C101.31 35.7959 109.46 26.7409 114.88 15.8459C114.255 17.5659 113.125 19.5459 112.195 21.2959C105.125 33.6409 95.2654 44.1209 84.8004 53.6509L84.8053 53.6459Z" fill="white"/>
</svg>
