<svg width="128" height="128" viewBox="0 0 128 128" fill="none" xmlns="http://www.w3.org/2000/svg">
<path d="M34.4254 93.7203L33.9604 94.1953L33.4004 95.7453C33.7504 96.2703 34.5404 97.5703 34.7654 98.9203L35.2154 98.2753L37.3954 96.8453C36.5204 95.4653 35.2704 94.3653 34.4204 93.7153L34.4254 93.7203Z" fill="white"/>
<path d="M29.1406 100.365L26.4306 101.93L25.1406 104.225C25.4906 104.77 26.0806 105.805 26.3406 106.92L26.3906 106.83L28.7356 105.53L30.1456 103.245C30.1756 102.185 29.6456 101.015 29.2106 100.235L29.1456 100.365H29.1406Z" fill="white"/>
<path d="M21.0205 108.495L18.9255 109.64L18.1705 110.42L17.8555 110.74C18.5655 111.225 19.7355 112.155 20.3605 113.31L21.6605 112.49L22.2605 111.445C22.2205 110.275 21.5705 109.01 21.1355 108.3L21.0155 108.49L21.0205 108.495Z" fill="white"/>
<path d="M17.4305 111.055C15.8605 111.185 15.0655 111.14 13.8005 112.515C12.3105 114.135 12.6755 115.6 12.9755 116.38C13.2655 117.165 14.1355 118.04 14.9155 118.355C15.6905 118.67 17.0755 118.925 18.4155 117.77C19.9355 116.46 20.1005 115.83 20.1405 114.015C19.6605 112.67 18.1555 111.54 17.4355 111.06L17.4305 111.055Z" fill="white"/>
<path d="M22.7404 105.725L21.4404 107.83C21.8104 108.405 22.4554 109.535 22.6854 110.725L22.8754 110.395L25.0104 109.2L25.9554 107.585C25.8354 106.47 25.2254 105.31 24.8254 104.655L22.7404 105.725Z" fill="white"/>
<path d="M33.1405 96.465L30.4655 97.785L29.4805 99.7C29.8905 100.38 30.4605 101.505 30.6105 102.64L33.2605 101.07L34.3255 99.545C34.3005 98.355 33.6205 97.05 33.1855 96.335L33.1405 96.46V96.465Z" fill="white"/>
<path d="M38.8405 85.8652C38.3905 85.9352 37.6955 86.0852 36.8205 86.2052C35.5255 86.3802 33.1105 88.6852 33.1105 88.6852C28.7755 87.3252 25.5605 88.9152 25.5605 88.9152L29.6255 90.3202C31.9905 91.4052 33.3105 92.2702 34.0155 92.8102C34.6855 93.2552 36.5905 94.6352 37.8205 96.5802L37.8705 96.5502C37.8705 96.5502 40.0505 98.9702 40.7255 104.21C40.7255 104.21 41.6005 106.24 42.7405 104.265C42.7405 104.265 43.3305 103.215 42.0405 98.8502L43.5855 97.4502C43.5855 97.4502 45.4205 95.7302 45.6605 93.5702C45.1205 86.8502 40.4305 85.9752 38.8505 85.8752L38.8405 85.8652Z" fill="white"/>
<path d="M114.96 17.405C111.65 14.675 108.165 15.92 108.165 15.92L40.0703 85.055C42.1553 85.51 45.4453 87 46.4203 91.825L116.34 24.125C116.34 24.125 117.645 20.76 114.96 17.405ZM46.1003 82.695L59.2803 68.655C60.0853 67.845 61.2653 67.65 62.2553 68.06L61.8603 68.455C61.6503 68.39 61.4353 68.35 61.2153 68.35C60.6453 68.35 60.0753 68.565 59.6403 69L46.4603 83.04C46.0653 83.435 45.5703 84.075 45.6003 84.765L45.1753 85.19C44.9603 84.41 45.2653 83.53 46.1003 82.695ZM63.1403 72.485L49.1703 85.84C48.5353 86.475 47.8653 86.8 47.2253 86.8C46.9903 86.8 46.7603 86.75 46.5403 86.665L46.9403 86.265C47.7503 86.43 48.4853 85.825 48.8253 85.49L62.7953 72.135C63.4103 71.52 63.5753 70.625 63.3053 69.85L63.6903 69.465C64.1353 70.46 63.9603 71.675 63.1453 72.495L63.1403 72.485ZM66.6553 65.875C81.0603 50.265 95.9853 35.125 111.37 20.485C96.9553 36.09 82.0503 51.235 66.6553 65.875Z" fill="white"/>
</svg>
