<svg width="128" height="128" viewBox="0 0 128 128" fill="none" xmlns="http://www.w3.org/2000/svg">
<path d="M114.456 14.1001L35.0557 89.1051C35.5707 89.9151 36.1257 90.7451 36.6057 91.3501C37.3157 92.2901 38.1607 93.0351 39.0907 93.7401L108.981 27.7201C108.981 27.7201 114.671 22.0551 114.456 14.1001Z" fill="white"/>
<path d="M16.595 106.57C16.195 107.475 15.825 108.58 15.665 109.805C17.625 110.745 19.825 111.145 21.935 110.485C21.935 110.485 22.02 110.78 22.07 110.96C22.12 110.515 22.215 110.095 22.38 109.72C22.38 109.72 22.38 109.72 22.38 109.715C20.71 109.425 19.08 108.835 17.765 107.75C17.335 107.39 16.945 107 16.585 106.57H16.595Z" fill="white"/>
<path d="M15.6453 109.995C15.5253 111.1 15.5803 112.295 15.9353 113.525C18.0553 113.74 20.1953 113.04 22.0353 111.915C22.0303 111.64 22.0353 111.365 22.0553 111.1C19.8303 111.62 17.5953 111.08 15.6453 109.995Z" fill="white"/>
<path d="M22.4507 109.6C22.6007 109.325 22.8707 108.95 23.2457 108.495C21.0557 107.585 19.5007 105.73 18.5357 103.61L18.0557 104.065C18.0557 104.065 17.4807 104.785 16.8857 105.965C18.1407 107.905 20.2257 109.055 22.4507 109.6Z" fill="white"/>
<path d="M16.1055 114.045C16.4155 114.915 16.8855 115.795 17.5555 116.67C19.5405 116.025 21.3155 114.84 22.3005 112.945C22.1855 112.715 22.0855 112.61 22.0805 112.605L22.0905 112.595C22.0905 112.595 22.0805 112.595 22.0755 112.59C22.0555 112.39 22.0455 112.19 22.0355 111.99C20.4405 113.115 18.5955 113.965 16.6305 114.04C16.4555 114.045 16.2805 114.045 16.1055 114.04V114.045Z" fill="white"/>
<path d="M31.5251 91.3403L29.5701 93.1853C30.6551 95.1303 32.2701 96.7753 34.4301 97.4503C34.9851 96.9353 35.3351 96.6203 35.3851 96.5753C32.9351 95.9803 31.8401 94.0403 31.4801 91.3903C32.1401 92.5503 32.4851 93.8553 33.3001 94.7903C34.0901 95.6953 35.2351 96.2503 36.3701 96.6853C36.2151 95.7953 36.3501 95.1103 36.7801 94.6353C37.2401 94.1253 37.9251 94.0003 38.4051 93.9803C36.5401 93.2453 35.1251 91.5253 34.4801 89.5953L32.9601 89.4103C32.9601 89.4103 30.2301 87.2353 32.2901 85.1953C32.2901 85.1953 34.6151 85.8303 34.4701 83.1353C34.3251 80.4403 31.3451 81.9603 31.3451 81.9603C31.3451 81.9603 30.3851 82.7703 30.5701 83.9853C30.5701 83.9853 28.2801 85.4253 29.6451 88.6503C29.6451 88.6503 29.9751 90.1153 31.5201 91.3453L31.5251 91.3403Z" fill="white"/>
<path d="M21.4155 103.86C20.9155 103.33 20.4855 102.76 20.1155 102.115L18.6455 103.505C19.7405 105.56 21.4105 107.305 23.6755 107.995C24.1405 107.46 24.7055 106.855 25.3355 106.205C23.8755 105.72 22.4905 104.975 21.4205 103.86H21.4155Z" fill="white"/>
<path d="M36.3852 96.7353C36.3852 96.7353 36.3852 96.7303 36.3852 96.7253C36.2952 96.7153 36.2002 96.7103 36.1152 96.6953C36.2002 96.7103 36.2952 96.7203 36.3902 96.7353H36.3852Z" fill="white"/>
<path d="M22.5603 113.695C21.3953 115.345 19.6203 116.345 17.6953 116.85C17.8253 117.01 17.9503 117.17 18.0953 117.33C18.0953 117.33 19.4253 119.265 22.5803 116.18C22.7453 115.07 22.6903 114.26 22.5653 113.7L22.5603 113.695Z" fill="white"/>
<path d="M38.7452 94.5104C38.4252 94.4904 37.6202 94.4854 37.1652 94.9854C36.8252 95.3604 36.7552 95.9704 36.9352 96.7804C36.9652 96.7804 36.9952 96.7804 37.0252 96.7804C37.7952 97.3154 39.6502 98.9154 40.0802 102.215C40.3752 104.47 39.0852 107.63 36.2202 109.735C33.7652 111.535 30.2302 112.845 27.6402 112.985C25.1352 113.115 23.6752 112.98 22.8252 112.8C23.0802 113.35 23.3352 114.32 23.1552 115.88C23.8052 115.86 24.8452 115.845 26.4952 115.84C32.4952 115.815 38.5752 112.665 40.3902 110.46C42.8552 107.47 43.0752 105.205 42.7652 102.07C42.5102 99.5204 39.7602 95.8004 38.7452 94.5054V94.5104Z" fill="white"/>
<path d="M22.3 100.055L20.585 101.675C21.5 103.79 23.35 105.225 25.445 106.09C25.88 105.64 26.345 105.17 26.825 104.695C24.755 103.805 23.255 102.065 22.3 100.06V100.055Z" fill="white"/>
<path d="M32.2449 99.4803C32.8749 98.8903 33.4449 98.3603 33.9249 97.9153C31.8799 97.0203 30.3949 95.2903 29.4449 93.3003L28.2949 94.3903C28.8399 96.5753 30.3749 98.2803 32.2449 99.4753V99.4803Z" fill="white"/>
<path d="M25.0999 99.8905C24.7549 99.3655 24.4599 98.8205 24.2249 98.2305L22.4199 99.9355C23.5099 101.89 25.1349 103.54 27.3049 104.21C27.7399 103.78 28.1799 103.35 28.6249 102.92C27.2399 102.185 25.9749 101.205 25.0999 99.8955V99.8905Z" fill="white"/>
<path d="M28.7207 96.6305C28.3507 96.0705 28.0457 95.4855 27.8057 94.8555L26.0557 96.5105C27.1507 98.4455 28.7657 100.07 30.9207 100.73C31.3357 100.335 31.7407 99.9555 32.1257 99.5955C30.7857 98.8655 29.5757 97.9055 28.7207 96.6355V96.6305Z" fill="white"/>
<path d="M28.7351 102.81C29.3001 102.265 29.8651 101.72 30.4151 101.2C28.3651 100.32 26.8801 98.6054 25.9201 96.6304L24.7051 97.7754C25.2901 99.9454 26.8451 101.63 28.7301 102.81H28.7351Z" fill="white"/>
</svg>
