<svg width="128" height="128" viewBox="0 0 128 128" fill="none" xmlns="http://www.w3.org/2000/svg">
<path d="M98.0849 27.5852C86.1999 38.7452 68.0549 58.5352 37.1299 89.5052C37.3749 89.8902 38.6999 91.8552 40.6149 93.2252C40.7099 93.2952 40.8099 93.3552 40.9049 93.4152C48.4499 86.0102 113.545 21.9402 116.725 13.0352C116.725 13.0352 111.665 14.8402 98.0849 27.5852Z" fill="white"/>
<path d="M20.12 107.625C19.71 108.35 18.475 107.345 17.695 107.315C16.98 107.29 14.18 108.195 15.55 111.6C16.92 115.005 19.66 114.99 19.66 114.99C19.66 114.99 21.66 114.285 22.08 112.135C22.2 111.505 22.295 111.125 22.395 110.905C21.215 110.12 20.505 108.94 20.125 107.625H20.12Z" fill="white"/>
<path d="M24.31 102.645C23.94 102.94 23.2 103.055 22.645 103.135C21.95 103.235 20.11 103.015 20.135 105.34C20.27 106.34 20.475 107.355 20.875 108.285C21.245 109.15 21.89 110.03 22.69 110.64C22.91 110.635 23.23 110.845 23.79 110.955C24.265 111.05 26.72 110.535 26.815 107.26C26.82 107.04 26.855 106.865 26.905 106.725C25.655 105.685 24.765 104.22 24.31 102.645Z" fill="white"/>
<path d="M29.6105 88.9747C29.5605 91.8597 31.1905 94.4648 32.9505 96.6198C35.2205 99.2248 38.2705 101.09 41.6305 101.905C41.8055 101.61 43.5105 98.4398 40.2055 94.1498C40.1505 94.1098 40.0905 94.0798 40.0355 94.0398C38.1705 92.7098 36.8655 90.9098 36.4105 90.2298C36.4005 90.2398 36.3905 90.2498 36.3805 90.2598C36.3805 90.2598 32.9005 87.6098 30.1005 88.0698H29.6505C29.6255 88.3698 29.6055 88.6747 29.6105 88.9747Z" fill="white"/>
<path d="M28.2753 98.1602C27.2753 98.4252 25.9153 98.4852 24.9953 99.5102C24.1553 100.445 24.4603 101.36 24.5253 102C24.5503 102.075 24.5653 102.15 24.5903 102.22C25.1253 103.76 25.9653 105.235 27.1203 106.395C27.4203 106.145 27.8853 106.235 28.2953 106.275C28.9453 106.345 31.1853 105.125 30.9603 102.825C29.7853 101.375 28.8953 99.6352 28.2753 98.1602Z" fill="white"/>
<path d="M44.4647 103.005C43.8497 102.54 43.0497 102.26 42.4547 102.105C37.7047 101.64 33.2347 98.7148 30.9197 94.5398C29.6447 92.6648 29.1347 90.2898 29.4697 88.0598H29.4597C29.4597 88.0598 27.0047 83.8348 24.2297 86.5698C21.4547 89.3048 25.2247 92.3098 25.8797 91.5898C26.8447 90.5298 27.7997 91.1248 27.7997 91.1248C27.7997 91.1248 28.0847 92.8098 28.7497 94.5848C29.7247 96.2048 31.9097 99.5748 34.2247 101.485C35.5697 102.205 38.8097 103.9 39.9947 104.22C39.9947 104.22 41.8397 105.27 40.9797 106.165C40.3397 106.83 42.4447 107.78 43.4997 107.505C46.4447 106.73 45.7447 103.985 44.4547 103.005H44.4647Z" fill="white"/>
<path d="M31.2298 102.345C31.7098 101.92 32.7098 101.5 33.2548 101.295C31.5748 99.7251 30.0498 97.5751 29.0348 95.9951C29.0848 96.6551 29.0548 97.4551 28.7148 97.8801C29.3048 99.2851 30.1448 100.95 31.2298 102.345Z" fill="white"/>
</svg>
