<svg width="128" height="128" viewBox="0 0 128 128" fill="none" xmlns="http://www.w3.org/2000/svg">
<path d="M21.5451 104.415C21.4701 104.425 21.4001 104.445 21.3301 104.47C20.8851 104.655 19.2151 105.4 20.1601 105.92C20.1601 105.92 22.8801 105.69 25.0701 106.53C25.3001 106.62 25.5501 106.62 25.7701 106.5C26.0151 106.37 26.3401 106.12 26.6601 105.66C26.9801 105.2 26.7401 104.515 26.1851 104.37C25.4401 104.175 24.0701 104.085 21.5501 104.41L21.5451 104.415Z" fill="white"/>
<path d="M24.1549 102.145C24.0849 102.16 24.0199 102.18 23.9549 102.21C23.5299 102.405 21.8999 103.21 22.7649 103.645C22.7649 103.645 25.3099 103.27 27.3099 103.915C27.5399 103.99 27.7849 103.98 27.9949 103.86C28.2049 103.74 28.4849 103.525 28.7749 103.16C29.1899 102.64 28.8699 101.86 28.2099 101.785C27.4699 101.7 26.2299 101.75 24.1549 102.15V102.145Z" fill="white"/>
<path d="M26.5807 99.6554C26.5107 99.6704 26.4457 99.6904 26.3807 99.7204C25.9557 99.9154 24.3257 100.72 25.1907 101.155C25.1907 101.155 27.7357 100.78 29.7357 101.425C29.9657 101.5 30.2157 101.49 30.4207 101.37C30.6257 101.25 30.9107 101.035 31.2007 100.67C31.6157 100.15 31.2957 99.3704 30.6357 99.2954C29.8957 99.2104 28.6557 99.2604 26.5807 99.6604V99.6554Z" fill="white"/>
<path d="M28.9303 97.1906C28.8603 97.2056 28.7953 97.2255 28.7303 97.2555C28.3053 97.4506 26.6753 98.2556 27.5403 98.6906C27.5403 98.6906 30.0853 98.3156 32.0853 98.9606C32.3153 99.0356 32.5603 99.0256 32.7703 98.9056C32.9803 98.7856 33.2603 98.5706 33.5503 98.2056C33.9653 97.6856 33.6453 96.9056 32.9853 96.8306C32.2453 96.7456 31.0053 96.7956 28.9303 97.1956V97.1906Z" fill="white"/>
<path d="M31.36 94.5201C31.29 94.5351 31.225 94.5551 31.16 94.5851C30.735 94.7801 29.105 95.5851 29.97 96.0201C29.97 96.0201 32.515 95.6451 34.515 96.2901C34.745 96.3651 34.995 96.3551 35.2 96.2351C35.405 96.1151 35.69 95.9001 35.98 95.5351C36.395 95.0151 36.075 94.2351 35.415 94.1601C34.675 94.0751 33.435 94.1251 31.36 94.5251V94.5201Z" fill="white"/>
<path d="M35.4002 91.7803C35.0402 91.8353 34.6502 91.9003 34.2252 91.9853C34.1552 92.0003 34.0902 92.0203 34.0252 92.0503C33.6002 92.2453 31.9702 93.0503 32.8352 93.4853C32.8352 93.4853 35.6402 93.0703 37.6752 93.8603C37.6752 93.8603 37.7702 93.8403 37.9252 93.7703L36.1202 92.0203C35.9302 91.8353 35.6602 91.7503 35.4002 91.7903V91.7803Z" fill="white"/>
<path d="M23.465 108.985C23.81 108.78 24.28 108.355 24.685 107.475C24.685 107.475 24.595 106.575 21.165 106.755L23.46 108.985H23.465Z" fill="white"/>
<path d="M47.2864 97.8012C45.5764 96.6562 44.4714 96.6162 44.4714 96.6162L41.2714 93.3612L41.6164 93.0062C40.7964 91.4462 41.7214 88.1012 42.1964 86.6212C39.3014 88.2762 36.4214 87.7862 35.5964 87.5962L35.4064 87.7862L32.2464 84.5962C32.2464 84.5962 32.0964 84.0512 32.0014 83.7562C31.8414 83.2512 31.7064 82.7212 30.9664 81.6562C29.7864 79.9812 28.3714 80.1012 27.7614 80.4512C26.9664 80.9062 26.9164 81.6312 26.9064 82.2062C26.8964 82.7862 27.3064 83.7012 28.0614 84.3612C29.5614 85.6762 30.8214 85.7462 30.8214 85.7462L33.6464 88.6662H33.6514L40.8064 95.6112L43.2664 97.8862C43.2664 97.8862 43.6764 99.3862 45.0664 100.821C46.4514 102.246 47.5614 102.036 48.0664 101.796C48.5914 101.566 48.8864 101.046 48.9314 100.511C48.9764 99.9762 48.9964 98.9412 47.2914 97.7912L47.2864 97.8012ZM30.5064 84.1212C30.1164 84.4362 29.1814 84.1712 28.6064 83.4562C28.0314 82.7412 28.0364 81.8462 28.4264 81.5362C28.8164 81.2212 29.5964 81.5462 30.1714 82.2612C30.7464 82.9762 30.8964 83.8062 30.5064 84.1212ZM39.8514 90.3662C39.2914 90.9262 38.5814 91.1162 38.2614 90.7962C37.9414 90.4762 38.1314 89.7612 38.6914 89.2062C39.2514 88.6462 39.9614 88.4562 40.2814 88.7762C40.6014 89.0962 40.4114 89.8112 39.8514 90.3662ZM47.7414 100.666C47.4114 101.041 46.5864 100.846 45.9014 100.236C45.2164 99.6262 44.9314 98.8312 45.2614 98.4562C45.5914 98.0812 46.4164 98.2762 47.1014 98.8862C47.7864 99.4962 48.0714 100.291 47.7414 100.666Z" fill="white"/>
<path d="M18.7105 105.426L23.6355 110.351L26.6405 110.861C26.7605 110.861 26.7905 111.031 26.6755 111.071L22.7555 112.391L16.9805 106.616L17.7555 102.316C17.8105 102.176 18.0155 102.201 18.0305 102.351L18.7055 105.431L18.7105 105.426Z" fill="white"/>
<path d="M16.6902 107.16L22.0952 112.56C22.0952 112.56 19.2802 113.11 18.7302 114.775C18.1602 116.5 13.8452 111.67 14.2752 110.955C14.7052 110.24 16.0102 110.955 16.6902 107.16Z" fill="white"/>
<path d="M108.581 16.2401L36.5605 86.5501C37.6855 86.7451 40.4505 86.9751 43.0455 85.2101L43.6855 84.7751L43.4205 85.5051C42.9155 86.8951 41.8905 90.4751 42.5155 92.0051L112.266 19.7401C116.576 14.9651 116.991 11.4051 116.991 11.4051C114.756 11.0151 108.581 16.2351 108.581 16.2351V16.2401ZM47.0055 85.1951C46.5255 84.2251 46.1005 83.4201 46.4955 81.9801C45.0405 82.3201 44.6905 82.4651 43.2705 81.8451C44.6555 82.0151 44.8255 82.0901 46.3305 81.4051L108.481 19.9151L47.1155 82.0901C46.8605 82.5651 46.5305 83.3351 47.0105 85.1951H47.0055Z" fill="white"/>
</svg>
