<svg width="128" height="128" viewBox="0 0 128 128" fill="none" xmlns="http://www.w3.org/2000/svg">
<path d="M31.0999 99.6297C30.5299 98.7997 30.3399 97.6797 30.5149 96.3047C30.1549 96.5397 29.7799 96.7847 29.3999 97.0497C29.1949 98.3847 29.3549 99.4497 29.8749 100.215C30.3049 100.85 30.9049 101.14 31.3149 101.27C31.6149 101.065 31.9249 100.86 32.2499 100.65C31.8599 100.445 31.4349 100.13 31.0949 99.6297H31.0999Z" fill="white"/>
<path d="M24.9747 104.755C24.2897 104.165 23.8397 103.28 23.6247 102.115C23.2197 102.585 22.8347 103.075 22.4697 103.58C22.7997 104.615 23.2997 105.36 23.9647 105.8C24.5897 106.215 25.2397 106.26 25.6747 106.225C25.8747 105.985 26.0997 105.725 26.3547 105.445C25.9247 105.35 25.4347 105.15 24.9747 104.755Z" fill="white"/>
<path d="M33.8701 94.3496C33.5501 94.5146 33.1651 94.7246 32.7201 94.9746C32.4701 96.3996 32.6151 97.5296 33.1601 98.3296C33.5401 98.8896 34.0551 99.1796 34.4551 99.3346C34.7301 99.1796 35.0101 99.0246 35.3001 98.8696L33.8701 94.3496Z" fill="white"/>
<path d="M25.3045 104.375C25.8045 104.805 26.3545 104.96 26.7745 105.005C27.0795 104.69 27.4195 104.36 27.7995 104.015C27.3745 103.86 26.8995 103.59 26.4895 103.11C25.8745 102.395 25.5695 101.39 25.5545 100.125C25.0445 100.6 24.5395 101.105 24.0645 101.63C24.2295 102.875 24.6445 103.8 25.3095 104.375H25.3045Z" fill="white"/>
<path d="M32.7501 98.6147C32.1801 97.7847 31.9901 96.6647 32.1651 95.2847C31.8251 95.4847 31.4551 95.7047 31.0751 95.9447C30.8201 97.3897 30.9601 98.5297 31.5101 99.3347C31.8801 99.8797 32.3701 100.17 32.7651 100.325C33.1301 100.095 33.5151 99.8697 33.9151 99.6347C33.5251 99.4297 33.0951 99.1147 32.7501 98.6097V98.6147Z" fill="white"/>
<path d="M29.4705 100.5C28.9355 99.7197 28.7405 98.6897 28.8605 97.4297C28.4855 97.6997 28.1055 97.9847 27.7205 98.2797C27.5055 99.6397 27.6605 100.715 28.1905 101.49C28.6055 102.095 29.1705 102.385 29.5805 102.525C29.9705 102.225 30.3805 101.92 30.8255 101.605C30.3855 101.41 29.8755 101.075 29.4755 100.49L29.4705 100.5Z" fill="white"/>
<path d="M31.685 86.93C32.355 87.21 32.955 87.28 33.465 87.12C33.56 87.09 33.645 87.055 33.725 87.015C33.725 87.005 33.725 87 33.725 87C33.725 87 34.19 86.93 34.37 85.755C34.465 85.125 33.985 84.04 34.32 83.075C34.575 82.34 35.505 81.725 36.38 81.15C36.38 81.15 33.66 80.28 30.945 84.765C30.945 84.765 30 85.86 31.69 86.93H31.685Z" fill="white"/>
<path d="M36.1147 91.0452C35.8847 90.8402 35.1947 90.2002 34.7047 89.4252C34.3297 88.8252 34.0297 88.0102 33.8647 87.4902C33.7847 87.5252 33.7047 87.5602 33.6197 87.5902C33.3847 87.6652 33.1397 87.7002 32.8797 87.7002C32.5797 87.7002 32.2597 87.6502 31.9297 87.5502C32.4147 88.9202 33.6697 92.1702 34.2647 93.7052H34.2797L34.3497 93.9152C34.4997 94.3002 34.5897 94.5352 34.5897 94.5352C34.5897 94.5352 34.5747 94.5402 34.5497 94.5552L36.4047 100.41C36.6997 101.255 37.1247 102.425 37.6547 103.725C37.7597 103.615 37.8797 103.505 38.0297 103.405C38.3947 103.165 38.8297 103.025 39.3297 102.99C39.0447 102.125 38.2097 99.3102 38.8647 97.9802C39.5497 95.6352 41.0647 93.5902 42.8297 91.9002C40.5697 92.8402 37.6947 93.0952 36.1197 91.0502L36.1147 91.0452Z" fill="white"/>
<path d="M27.7801 101.785C27.2501 101.005 27.0501 99.9796 27.1701 98.7246C26.7951 99.0296 26.4251 99.3446 26.0551 99.6746C25.9951 101.035 26.2651 102.075 26.8651 102.785C27.2951 103.29 27.8251 103.53 28.2351 103.64C28.5151 103.4 28.8101 103.15 29.1201 102.895C28.6851 102.7 28.1801 102.365 27.7801 101.785Z" fill="white"/>
<path d="M23.7002 106.22C23.0152 105.77 22.4902 105.05 22.1202 104.075C21.6052 104.845 21.1552 105.65 20.7852 106.49C22.3402 107.21 23.7502 107.575 24.5752 107.745C24.7252 107.5 24.9502 107.15 25.2702 106.725C24.8102 106.7 24.2502 106.575 23.7002 106.215V106.22Z" fill="white"/>
<path d="M41.1042 106.89C41.9192 105.45 40.4142 104.03 39.7292 103.485C39.1642 103.47 38.6842 103.57 38.3092 103.815C38.1092 103.945 37.9642 104.105 37.8542 104.255C37.7092 104.54 35.6992 108.725 43.0542 110.525C43.0542 110.525 40.0642 108.715 41.0992 106.885L41.1042 106.89Z" fill="white"/>
<path d="M20.44 106.885C20.17 106.97 19.675 107.17 19.295 107.56C18.28 108.595 17.58 110.37 15.905 107.895C15.905 107.895 15.37 110.205 16.005 111.58C16.83 113.36 18.42 114.275 20.1 114.11C22.075 113.91 25.03 112.82 24.335 108.22C23.445 108.03 22.015 107.645 20.435 106.89L20.44 106.885ZM21.89 111.615C21.315 112.1 20.465 112.03 19.985 111.465C19.51 110.9 19.585 110.05 20.16 109.565C20.735 109.08 21.585 109.15 22.06 109.715C22.535 110.28 22.46 111.13 21.885 111.615H21.89Z" fill="white"/>
<path d="M91.9949 46.5064C91.9949 46.5064 95.6499 47.8214 92.0899 52.0614C89.1649 55.5364 72.7399 70.8564 58.6849 79.5164C45.3799 87.7164 38.0099 90.3564 37.3799 90.5764C39.3449 92.4564 42.4599 91.6714 44.6649 90.4864C44.7649 90.4314 44.8749 90.3914 44.9999 90.4414C45.2549 90.5414 45.2749 90.8864 45.0749 91.0314C45.0449 91.0614 44.9499 91.1414 44.9199 91.1664C42.9949 92.8414 41.2599 94.8264 40.1799 97.1614C40.2449 97.0864 40.3099 97.0164 40.3899 96.9614C42.3249 95.6314 54.6399 89.6564 59.4999 86.7664C62.7699 84.8264 78.1249 75.0264 91.3449 61.4764C97.7899 54.8714 102.94 47.0714 107.61 39.2914C112.77 30.6914 115.095 13.6914 115.095 13.6914C115.095 13.6914 101.775 39.9864 91.9899 46.5064H91.9949ZM49.2599 89.4314C48.8199 89.8014 48.1749 89.7464 47.8099 89.3164C47.4449 88.8864 47.5049 88.2364 47.9449 87.8664C48.3849 87.4964 49.0299 87.5514 49.3949 87.9814C49.7599 88.4114 49.6999 89.0614 49.2599 89.4314ZM53.8899 87.1664C53.5099 87.4864 52.9449 87.4414 52.6249 87.0664C52.3099 86.6914 52.3599 86.1264 52.7399 85.8064C53.1199 85.4864 53.6849 85.5314 54.0049 85.9064C54.3249 86.2814 54.2699 86.8464 53.8899 87.1664ZM98.9549 45.6714C98.9549 45.6714 98.2299 46.3964 97.9699 46.6514C98.0899 47.2164 97.9749 47.7814 97.8249 48.2764C96.4749 52.0014 93.6799 54.9464 91.0449 57.8114C88.0249 61.0764 84.8299 64.1814 81.5249 67.1564C74.7849 72.9814 67.3399 77.8614 59.8899 82.7114C63.5299 80.1714 67.1499 77.6064 70.7199 74.9714C77.9899 69.8464 84.4699 63.8164 90.5199 57.3214C92.8049 54.9514 95.0299 52.4664 96.6499 49.5814C97.0849 48.7364 97.6449 47.7064 97.4949 46.7564C96.5799 46.5564 95.6349 46.3864 94.6949 46.4914C95.6199 46.1714 96.6349 46.1914 97.6049 46.3114L98.6249 45.3364C104 40.0264 107.94 33.3064 110.48 26.2164C108.08 33.3964 104.25 40.2214 98.9599 45.6714H98.9549Z" fill="white"/>
</svg>
