<svg width="128" height="128" viewBox="0 0 128 128" fill="none" xmlns="http://www.w3.org/2000/svg">
<g clip-path="url(#clip0_268_11783)">
<path d="M24.1376 110.156C23.9973 111.095 23.6262 111.454 23.28 111.837C20.3391 115.146 17.4544 118.511 13.9396 121.246C12.9853 121.988 11.9936 122.693 11.0268 123.423C10.5091 123.816 10.0101 123.828 9.13066 122.874C7.77093 121.402 6.31452 120.008 4.8737 118.605C4.21255 117.962 4.14705 117.579 4.40902 117.073C7.86761 110.477 15.343 109.62 24.1376 110.156Z" fill="white"/>
<path d="M13.5341 106.844C14.844 105.753 16.1476 104.655 17.4699 103.576C18.2495 102.94 19.0791 102.359 19.8525 101.723C20.2798 101.371 20.6977 101.283 21.4711 102.082C22.9151 103.569 24.4026 105.013 25.8622 106.485C26.174 106.797 26.6418 107.159 26.4641 107.511C26.3237 107.789 26.2146 108.179 25.6563 107.957C23.3766 107.05 21.2216 106.585 19.1695 106.504C17.211 106.429 15.4895 106.791 13.5341 106.838L13.5341 106.844Z" fill="white"/>
<path d="M9.6703 110.864C12.8794 107.424 17.5075 106.271 23.8664 107.945C24.3654 108.076 25.2355 108.036 25.4008 108.843C25.5162 109.414 25.0577 109.854 24.2219 109.692C21.0846 109.08 18.256 109.158 15.5739 109.539C13.5156 109.832 11.6039 110.372 9.6703 110.864Z" fill="white"/>
<path d="M27.4701 105.591L79.6519 53.4096C79.9126 53.1489 79.9285 52.742 79.6874 52.5009L75.1466 47.9601C74.9055 47.719 74.4987 47.7349 74.2379 47.9957L22.0561 100.177C21.7954 100.438 21.7795 100.845 22.0206 101.086L26.5614 105.627C26.8025 105.868 27.2094 105.852 27.4701 105.591Z" fill="white"/>
<path d="M96.2875 24.0804L76.247 44.1209L75.3676 46.5222C75.2865 46.7406 75.3395 46.9869 75.5048 47.1522L80.3886 52.036C80.5477 52.1951 80.7847 52.2512 80.9999 52.1795L83.4854 51.3593L103.526 31.3188C104.786 30.0589 104.786 28.0193 103.526 26.7593L100.844 24.0773C99.5839 22.8173 97.5443 22.8173 96.2844 24.0773L96.2875 24.0804Z" fill="white"/>
<path d="M103.92 25.9861L109.602 23.485C110.135 23.3259 110.572 22.9704 110.831 22.487L116.762 11.422C116.952 11.0634 116.535 10.6517 116.182 10.842L105.158 16.8204C104.681 17.0793 104.325 17.5159 104.166 18.0429L101.655 23.7407L103.92 25.9861ZM105.834 18.3454L105.863 18.3174C106.499 18.8351 107.094 19.3933 107.687 19.9609C108.498 19.0627 111.177 16.4711 112.003 15.6384C113.014 14.6966 114.03 13.5365 115.056 12.7163C113.182 14.7527 109.808 18.4328 107.855 20.3975L107.703 20.5441C107.063 19.8237 106.418 19.1157 105.831 18.3486L105.834 18.3454Z" fill="white"/>
<path d="M109.133 56.4116C109.214 56.3305 109.529 56.0155 109.61 55.9344C125.531 40.3256 124.536 29.0579 124.536 29.0579L118.486 30.3303C118.486 30.3303 114.781 36.1559 109.688 37.3753C104.037 38.7288 99.6963 36.5395 99.6963 36.5395L89.7447 46.4911C89.7447 46.4911 92.7167 50.6171 90.2343 55.8752C87.7674 61.1052 82.9086 63.625 82.9086 63.625L81.633 70.1025C81.633 70.1025 93.5245 72.3323 109.133 56.4116ZM105.531 51.5309C109.33 47.8384 112.804 43.8153 115.486 39.2434C116.447 37.7652 117.279 36.2089 118.04 34.6122C117.445 36.2807 116.705 37.8993 115.867 39.4679C113.172 44.0648 109.651 48.1472 105.849 51.8428C100.872 56.8077 95.0557 61.4513 88.1042 63.176C94.7376 60.7278 100.613 56.58 105.534 51.534L105.531 51.5309Z" fill="white"/>
<path d="M57.5447 46.0142L64.0222 44.7386C64.0222 44.7386 66.5452 39.8829 71.772 37.4129C77.0301 34.9305 81.1561 37.9025 81.1561 37.9025L91.1077 27.9509C91.1077 27.9509 88.9184 23.6097 90.2719 17.9587C91.4913 12.866 97.3169 9.16101 97.3169 9.16101L98.5893 3.11082C98.5893 3.11082 87.3216 2.11597 71.7159 18.0398C71.6348 18.1209 71.3198 18.4359 71.2387 18.517C55.3149 34.1227 57.5447 46.0142 57.5447 46.0142ZM64.4806 39.5461C66.2021 32.5977 70.8458 26.7814 75.8138 21.8009C79.5094 17.9993 83.5917 14.4721 88.1886 11.7838C89.7573 10.9449 91.3759 10.2058 93.0444 9.6101C91.4445 10.3679 89.8883 11.2068 88.4132 12.1643C83.8412 14.8463 79.8181 18.3205 76.1257 22.119C71.0766 27.0371 66.9287 32.9127 64.4837 39.5492L64.4806 39.5461Z" fill="white"/>
</g>
<defs>
<clipPath id="clip0_268_11783">
<rect width="128" height="128" fill="white"/>
</clipPath>
</defs>
</svg>
