<svg width="128" height="128" viewBox="0 0 128 128" fill="none" xmlns="http://www.w3.org/2000/svg">
<g clip-path="url(#clip0_268_11779)">
<g clip-path="url(#clip1_268_11779)">
<path d="M40.5041 80.5725C40.5041 80.5725 41.1987 82.168 43.4841 84.4534C45.7695 86.7388 47.7467 87.7656 47.7467 87.7656L56.2562 78.0508C56.6643 77.5778 57.1975 77.23 57.7875 77.0479L62.9046 75.4632C64.0219 75.1155 64.89 74.1918 65.1617 73.0578L67.2143 64.4688C67.4854 63.3541 68.3294 62.4359 69.4232 62.0746L76.2612 59.8351C77.3161 59.4942 78.1439 58.6293 78.4422 57.5614L80.4766 50.2609C80.8021 49.0917 81.7657 48.1744 82.9476 47.9011C84.491 47.5538 86.6995 47.0697 88.5258 46.7083C89.6919 46.4786 90.6632 45.6186 91.0404 44.4812C91.6885 42.5258 92.4146 40.2327 92.9064 38.6655C93.2644 37.5287 94.2267 36.6498 95.3885 36.4059L100.913 35.2388C102.109 34.989 103.096 34.0661 103.427 32.8824L105.047 27.137C105.166 26.7022 105.386 26.2881 105.675 25.9339C105.675 25.9339 115.189 16.6985 116.785 12.6726C109.5 17.7705 103.072 20.4992 103.072 20.4992C102.36 20.8767 101.799 21.5031 101.511 22.2546L99.0421 28.6358C98.6344 29.6833 97.7132 30.4747 96.6238 30.7018L90.9834 31.8919C89.7734 32.147 88.7804 33.0843 88.4635 34.282L86.8565 40.228C86.5241 41.4597 85.4925 42.4079 84.2451 42.6355L78.7789 43.6236C77.5123 43.8518 76.4652 44.834 76.1514 46.0842L74.357 53.2189C74.0547 54.4113 73.0948 55.3619 71.898 55.6501L64.5834 57.3833C63.4785 57.6445 62.5657 58.4739 62.2 59.5535L59.5253 67.4016C59.1602 68.462 58.2715 69.2859 57.1901 69.5607L51.5561 70.9947C51.0348 71.1267 50.5473 71.3916 50.1427 71.7591L40.5091 80.5676L40.5041 80.5725Z" fill="white"/>
<path d="M26.6866 108.765C27.3226 108.427 28.017 108.018 28.7438 107.552L23.8049 95.6937C23.1736 96.3746 22.6031 97.0567 22.0922 97.7289L26.6866 108.765Z" fill="white"/>
<path d="M21.5787 98.4282C18.9073 102.129 17.9971 105.186 17.9971 105.186L23.1701 110.359C23.1701 110.359 24.3251 109.973 26.0293 109.112L21.5787 98.4282Z" fill="white"/>
<path d="M35.0018 88.1808C35.0018 88.1808 29.7162 89.7447 24.6362 94.8248C24.5417 94.9192 24.4523 95.0087 24.3628 95.0981L29.3698 107.124C30.7152 106.212 32.1478 105.09 33.5246 103.713C38.3462 98.8917 40.1686 93.3476 40.1686 93.3476C40.1686 93.3476 38.7082 92.265 37.3932 90.95C36.0782 89.635 34.9956 88.1746 34.9956 88.1746L35.0018 88.1808Z" fill="white"/>
<path d="M21.1381 117.055L13.3283 117.297C12.1462 117.338 11.0049 116.197 11.0395 115.009L11.2808 107.237C11.3089 106.341 12.027 105.747 12.9569 105.871L17.1495 106.157L22.2854 111.293L22.5028 115.417C22.6026 116.322 22.0172 117.019 21.1319 117.049L21.1381 117.055Z" fill="white"/>
<path d="M42.7631 85.5436C30.6369 73.4173 31.0358 58.4669 30.3411 57.7722C26.4892 53.9203 22.2939 74.1806 38.21 90.0967C54.1261 106.013 74.6035 102.035 70.5345 97.9656C69.3622 96.7933 54.8894 97.6699 42.7631 85.5436Z" fill="white"/>
</g>
</g>
<defs>
<clipPath id="clip0_268_11779">
<rect width="128" height="128" fill="white"/>
</clipPath>
<clipPath id="clip1_268_11779">
<rect width="148.057" height="59.614" fill="white" transform="translate(-9.34082 95.543) rotate(-45)"/>
</clipPath>
</defs>
</svg>
