<svg width="128" height="128" viewBox="0 0 128 128" fill="none" xmlns="http://www.w3.org/2000/svg">
<path d="M118.07 12.4399C110.525 12.6249 102.555 22.0249 102.555 22.0249L46.0347 78.1699C40.4747 75.7599 42.1797 81.3799 42.1797 81.3799C42.1797 81.3799 42.0347 82.1049 40.0447 83.5599C38.0597 85.0149 35.2047 81.5749 35.2047 81.5749C35.6597 81.8299 36.1247 81.4099 36.4647 80.9599C36.8147 80.4949 36.9097 79.4299 36.6847 78.8949C36.2347 77.8449 34.0697 75.1449 31.6147 77.0599C28.6347 79.3899 31.8897 84.8699 33.8747 87.6749C33.9547 87.7649 34.0447 87.8799 34.1447 88.0049C34.9197 88.9999 37.0497 91.7199 40.7447 94.9799C40.7697 94.9599 40.7847 94.9499 40.7847 94.9499C45.2197 99.2799 48.8997 99.6249 50.6547 99.2549C51.4797 99.0799 52.2447 98.6699 52.7597 97.9999C53.3547 97.2299 53.6197 95.3499 52.0497 94.0199C48.7997 91.2699 47.6897 94.5549 47.6897 94.5549C45.8997 92.8949 45.8397 92.5899 45.8997 91.0999C45.9597 89.6099 48.5947 87.8799 48.5947 87.8799C53.7597 88.5099 51.4497 83.7799 51.4497 83.7799C51.4497 83.7799 98.9897 36.3699 108.99 27.1899C118.99 18.0099 118.06 12.4399 118.06 12.4399H118.07ZM43.4147 87.9149C42.4497 88.8399 40.7697 88.6549 40.7697 88.6549C40.7697 88.6549 40.6497 86.9699 41.6097 86.0399C42.5747 85.1149 44.2547 85.2999 44.2547 85.2999C44.2547 85.2999 44.3747 86.9849 43.4147 87.9149ZM45.1697 82.0249C44.5597 82.0649 43.6947 81.4949 43.4697 80.6699C43.0397 79.1049 44.9097 78.4749 45.3247 79.4549C46.1997 81.5299 48.9697 80.2299 48.9697 80.2299C48.9697 80.2299 47.1597 81.8949 45.1747 82.0249H45.1697ZM48.8547 86.2699C48.0397 86.0099 47.5047 85.1199 47.5697 84.5149C47.7747 82.5349 49.5097 80.7949 49.5097 80.7949C49.5097 80.7949 48.1047 83.5099 50.1447 84.4649C51.1097 84.9149 50.4047 86.7649 48.8547 86.2699ZM53.0897 76.6049C52.9647 76.7149 52.8447 76.8299 52.7197 76.9449C51.5347 78.1249 50.3947 79.3699 49.5097 80.7949C50.1747 79.7049 50.9847 78.7149 51.8497 77.7749C50.9347 78.6599 50.0097 79.5449 48.9647 80.2249C50.4597 79.1849 51.6947 77.7799 53.0197 76.5349C72.0797 57.5849 92.0497 36.6699 111.63 18.5349C93.0447 37.9299 72.2997 57.7599 53.0847 76.6049H53.0897Z" fill="white"/>
<path d="M17.5547 109.085L20.6647 112.32C21.3947 111.66 22.1097 111.025 22.7947 110.41L19.5547 107.04C18.6397 107.98 17.9397 108.695 17.5547 109.09V109.085Z" fill="white"/>
<path d="M17.0649 109.295C16.1649 108.52 15.1199 108.31 14.3399 108.19C11.8999 107.81 10.3449 109.755 10.3449 109.755C10.3449 109.755 9.13989 111.11 10.7199 113.525C12.2999 115.94 14.1349 114.68 14.1349 114.68L14.7449 115.315C13.4599 117.43 15.8049 118.825 16.7499 119.145C17.3049 119.335 18.0249 119.6 18.8549 119.305C19.4399 119.095 20.0849 118.55 20.7149 117.755C22.1149 115.995 20.6099 113.185 20.3449 112.715L17.0599 109.3L17.0649 109.295ZM13.5999 113.29C12.9099 113.345 11.9299 112.715 11.6899 111.785C11.2299 110.015 13.3749 109.26 13.8249 110.365C14.7749 112.705 17.9549 111.17 17.9549 111.17C17.9549 111.17 15.8599 113.1 13.5999 113.29ZM17.7049 118.04C16.7849 117.765 16.1899 116.765 16.2749 116.075C16.5499 113.82 18.5599 111.805 18.5599 111.805C18.5599 111.805 16.9049 114.92 19.2049 115.965C20.2899 116.455 19.4549 118.57 17.6999 118.045L17.7049 118.04Z" fill="white"/>
<path d="M23.1703 110.07C32.8703 101.41 38.0703 97.13 39.9603 95.615C37.5453 93.47 35.8053 91.57 34.6703 90.23C32.0803 93.96 24.1253 102.325 19.9053 106.675L23.1703 110.07Z" fill="white"/>
</svg>
