<svg width="128" height="128" viewBox="0 0 128 128" fill="none" xmlns="http://www.w3.org/2000/svg">
<path d="M43.3695 85.0398C43.3695 85.0398 46.1195 87.4898 45.1095 88.8898L43.7945 90.2348C43.7945 90.2348 43.1045 90.6348 42.6845 90.3748C42.6845 90.3748 44.2595 89.2798 41.5795 86.8648C39.1095 84.2298 38.4345 86.1348 38.4345 86.1348C38.1695 85.7198 38.2995 84.8398 38.2995 84.8398L39.6145 83.4948C40.9945 82.4598 43.3745 85.0348 43.3745 85.0348L43.3695 85.0398Z" fill="white"/>
<path d="M30.9346 94.4096C32.1996 94.7596 33.4246 95.0596 34.7096 94.7696C35.0546 94.7046 35.3946 94.7096 35.7296 94.7546L35.2096 94.2446C34.0846 94.2896 32.7496 93.9246 31.9946 93.3296L30.9396 94.4046L30.9346 94.4096Z" fill="white"/>
<path d="M33.415 96.2646C32.3 96.5196 30.73 96.2096 29.77 95.5996L28.75 96.6396C29.835 96.9196 30.895 97.1096 32.005 96.8596C33.215 96.6396 34.415 97.1646 35.285 97.9946L36.29 96.9696C35.425 96.4296 34.42 96.0696 33.415 96.2646Z" fill="white"/>
<path d="M34.8102 95.2598C33.6052 95.5398 31.8352 95.1448 30.9202 94.4248L29.8652 95.4998C31.0202 95.8098 32.1402 96.0348 33.3152 95.7748C34.4652 95.5648 35.6102 96.0298 36.4702 96.7898L37.1202 96.1248L36.3302 95.3498C35.8352 95.2098 35.3252 95.1648 34.8102 95.2648V95.2598Z" fill="white"/>
<path d="M34.7399 93.7895L33.1099 92.1895L32.0049 93.3145C32.9249 93.5695 33.8249 93.7945 34.7399 93.7895Z" fill="white"/>
<path d="M28.615 96.7798L27.54 97.8748C28.405 98.0598 29.265 98.1448 30.155 97.9448C31.555 97.6848 32.945 98.4348 33.825 99.4898L35.135 98.1548C34.235 97.5598 33.18 97.1448 32.11 97.3498C31.055 97.5898 29.585 97.3248 28.615 96.7798Z" fill="white"/>
<path d="M30.2547 98.4346C29.3797 98.6346 28.2297 98.4846 27.3047 98.1196L26.4597 98.9796C27.1847 99.1046 27.9097 99.1396 28.6597 98.9696C30.1597 98.6946 31.6547 99.5646 32.5147 100.74L32.4797 100.775C31.4597 99.9296 30.1147 99.1946 28.7597 99.4546C27.9997 99.6296 27.0197 99.5396 26.1697 99.2696L26.1597 99.2796C26.1597 99.2796 25.8947 99.5346 25.3997 100.06C25.9797 100.125 26.5647 100.125 27.1647 99.9896C28.6647 99.7146 30.1597 100.585 31.0197 101.76L30.9847 101.795C29.9647 100.95 28.6197 100.215 27.2647 100.475C26.6247 100.625 25.8297 100.58 25.0847 100.4C24.8647 100.64 24.6097 100.925 24.3297 101.25C24.6647 101.25 25.0047 101.215 25.3447 101.135C26.8447 100.86 28.3397 101.73 29.1997 102.905L29.1647 102.94C28.1447 102.095 26.7997 101.36 25.4447 101.62C24.9997 101.72 24.4847 101.73 23.9647 101.67C23.7647 101.905 23.5497 102.16 23.3247 102.435C23.3797 102.425 23.4297 102.42 23.4847 102.41C24.9847 102.135 26.4797 103.005 27.3397 104.18L27.3047 104.215C26.2847 103.37 24.9397 102.635 23.5847 102.895C23.3647 102.945 23.1247 102.965 22.8797 102.975C22.7597 103.125 22.6347 103.28 22.5047 103.44C23.6897 103.555 24.7947 104.29 25.4847 105.235L25.4497 105.27C24.5297 104.51 23.3447 103.845 22.1247 103.91C21.9647 104.115 21.7947 104.33 21.6247 104.55C22.4197 104.865 23.1297 105.43 23.6247 106.11L23.5897 106.145C22.9497 105.615 22.1747 105.125 21.3547 104.905C21.2297 105.065 21.1097 105.225 20.9847 105.395C20.9147 105.49 20.8447 105.57 20.7747 105.66C21.2847 105.98 21.7397 106.4 22.0847 106.87L22.0497 106.905C21.6047 106.535 21.0947 106.195 20.5497 105.94C20.3247 106.22 20.1097 106.485 19.8997 106.73C20.2447 107 20.5597 107.315 20.8097 107.66L20.7747 107.695C20.4497 107.425 20.0847 107.17 19.6997 106.95C19.4447 107.235 19.1997 107.495 18.9697 107.725L21.8547 110.555C22.4247 109.955 23.1647 109.27 24.1497 108.5C28.3447 105.2 30.1697 103.195 30.1697 103.195L33.7397 99.5496C32.7547 98.7896 31.5097 98.1696 30.2497 98.4096L30.2547 98.4346Z" fill="white"/>
<path d="M21.5199 110.945L18.6099 108.095C16.9099 109.655 15.9949 109.65 15.9949 109.65L14.9499 109.67L14.3999 110.235L12.8799 114.745L14.9949 116.815L19.4749 115.2L20.0249 114.635V113.59C20.0249 113.59 19.9999 112.675 21.5249 110.945H21.5199ZM15.5149 115.425L14.3499 114.28L15.5949 111.175L18.6249 114.145L15.5149 115.425ZM19.3049 113.45C18.5149 112.705 16.9499 111.175 16.1899 110.4L16.2249 110.365C17.2949 110.76 18.1199 111.525 18.7899 112.415C19.0049 112.715 19.1999 113.035 19.3349 113.415L19.2999 113.45H19.3049Z" fill="white"/>
<path d="M27.3398 83.1147L27.3598 84.3197L28.5948 84.3097L28.5748 82.9897L27.3398 83.1147Z" fill="white"/>
<path d="M44.6748 100.1L44.6948 101.305L45.9298 101.3L45.9098 99.9746L44.6748 100.1Z" fill="white"/>
<path d="M47.5895 99.2148L48.0595 98.7398L47.2045 97.9048L46.7145 98.4048L44.3195 98.1848L42.1295 96.8048C42.3245 96.8248 46.9695 97.3298 46.8195 92.2998C46.8195 92.2998 46.6145 90.8848 45.5145 89.1948L45.4945 89.2198L45.4695 89.2448L44.1545 90.5898L44.0945 90.6548C44.5095 91.3798 45.3095 93.1698 43.7695 94.2498C41.8045 95.6348 39.8645 93.7448 39.3895 93.3048C38.9145 92.8648 38.0845 91.2148 38.9245 89.7098C37.4395 90.5798 35.8495 89.8348 35.3245 89.3198C34.7995 88.8048 32.9495 86.9548 34.2945 84.9598C35.3445 83.3948 37.1545 84.1598 37.8845 84.5598L37.9445 84.4948L39.2595 83.1498L39.2845 83.1248L39.3095 83.1048C37.5995 82.0398 36.1795 81.8648 36.1795 81.8648C31.1545 81.8148 31.7445 86.4448 31.7695 86.6448L30.3495 84.4848L30.0795 82.0948L30.5695 81.5948L29.7145 80.7598L29.2445 81.2348L26.5645 81.5098L25.9195 80.8748L25.1045 81.7048L25.7495 82.3398L25.7745 84.9348L25.2245 85.4998L26.0795 86.3348L26.5095 85.8948L28.1795 86.1898L42.6545 100.375L42.9795 102.04L42.5495 102.48L43.4045 103.315L43.9545 102.75L46.5495 102.725L47.1945 103.36L48.0095 102.53L47.3645 101.895L47.5845 99.2098L47.5895 99.2148ZM26.8695 84.8198L26.8395 82.6598L29.0695 82.4298L29.1045 84.8048L26.8695 84.8148V84.8198ZM44.2045 101.81L44.1745 99.6498L46.4045 99.4198L46.4395 101.795L44.2045 101.805V101.81Z" fill="white"/>
<path d="M42.6402 90.0446L42.6102 89.7746C42.6102 89.7746 42.5852 89.5446 42.5652 89.2696C42.5452 89.0446 42.5352 88.3996 41.2502 87.2446L41.2352 87.2296L41.2202 87.2146C40.2102 86.1396 39.6352 85.9746 39.3802 85.9746C39.0602 85.9746 38.5952 86.0696 38.5752 86.1196L38.0652 86.4846L35.9902 88.5446C36.1002 88.6646 36.2302 88.7896 36.3702 88.8796C36.6802 89.0896 38.2452 89.2596 40.0902 88.5846C39.0352 90.3096 39.5302 91.8646 40.0202 92.4796C40.1352 92.6196 40.2802 92.7496 40.4152 92.8596L42.6802 90.4046C42.7052 90.3196 42.6452 90.0396 42.6452 90.0396L42.6402 90.0446Z" fill="white"/>
<path d="M105.06 19.9698L41.5303 83.0448C42.6053 83.5298 43.5353 84.4898 43.7203 84.6898C43.9903 84.9348 45.3403 86.1998 45.7303 87.5148L109.315 23.5248C109.315 23.5248 114.055 18.0498 115.535 12.8848C110.4 14.4598 105.065 19.9748 105.065 19.9748L105.06 19.9698ZM46.0803 82.9198C64.1753 64.6498 89.1353 38.5998 107.51 21.1398L107.565 21.1948C90.2903 39.4848 64.1553 65.1198 46.0803 82.9198Z" fill="white"/>
</svg>
