<svg width="128" height="128" viewBox="0 0 128 128" fill="none" xmlns="http://www.w3.org/2000/svg">
<path d="M20.3418 75.5404C21.1318 76.4304 22.1318 77.3404 23.3918 78.2104L29.7818 71.6003C28.9368 70.5553 27.8768 69.6354 26.7968 68.8604L20.3418 75.5404Z" fill="white"/>
<path d="M34.0121 86.02L38.4071 81.475C37.3771 80.92 36.2221 80.215 35.1421 79.375L31.4521 83.195C32.5671 84.18 33.4021 85.155 34.0121 86.02Z" fill="white"/>
<path d="M34.7477 79.0603C33.7727 78.2603 32.8777 77.3503 32.2177 76.3403L27.9727 80.7353C29.1827 81.4203 30.2077 82.1403 31.0727 82.8653L34.7527 79.0603H34.7477Z" fill="white"/>
<path d="M26.387 68.5701C24.687 67.4101 23.002 66.6051 22.097 66.2051L17.627 70.8301C17.897 71.7351 18.542 73.3751 20.017 75.1551L26.387 68.5651V68.5701Z" fill="white"/>
<path d="M27.5164 80.485L31.9464 75.9C31.6764 75.425 31.4564 74.93 31.3114 74.415C31.0614 73.55 30.6314 72.745 30.0914 72L23.8164 78.49C24.5614 78.97 25.3814 79.435 26.3064 79.87C26.7314 80.07 27.1314 80.275 27.5164 80.485Z" fill="white"/>
<path d="M63.6365 71.675H63.6415L59.6715 67.755C57.6265 66.005 53.1515 71.035 53.1515 71.035L41.6165 82.965C41.6165 82.965 40.4365 82.53 38.8665 81.715L34.2965 86.44C35.3565 88.06 35.6315 89.225 35.6315 89.225L34.0265 90.885C33.2415 91.7 33.2615 92.995 34.0765 93.78L34.2065 93.905L34.1865 93.925L38.3665 97.815L38.3765 97.805L38.5515 97.975C39.2865 98.685 40.4565 98.665 41.1665 97.93L60.3265 78.11C65.3465 72.915 63.6265 71.68 63.6265 71.68L63.6365 71.675Z" fill="white"/>
<path d="M15.732 71.8702L17.447 70.0952C17.447 70.0952 17.457 70.1552 17.477 70.2602L21.602 65.9952C21.482 65.9452 21.417 65.9202 21.417 65.9202L23.067 64.2152L22.882 64.0352C20.872 62.0902 17.667 62.1452 15.722 64.1552L15.442 64.4452C13.472 66.4802 13.527 69.7302 15.567 71.6952L15.742 71.8652L15.732 71.8702Z" fill="white"/>
<path d="M115.397 14.4004L115.212 14.2204C114.192 13.2354 112.572 13.2654 111.587 14.2804L60.4824 67.1454L64.3424 70.9504L115.467 18.0254C116.452 17.0054 116.422 15.3854 115.407 14.4004H115.397Z" fill="white"/>
<path d="M33.4919 94.6455L18.5319 110.121C17.5519 111.136 17.5769 112.756 18.5919 113.736L19.0619 114.191C20.0569 115.151 21.6369 115.126 22.5969 114.131L37.6719 98.5355L33.4919 94.6455Z" fill="white"/>
</svg>
