<svg width="128" height="128" viewBox="0 0 128 128" fill="none" xmlns="http://www.w3.org/2000/svg">
<path d="M52.998 91.6144L43.3593 98.7745L30.7715 110.723C30.0168 111.441 29.3962 112.29 28.953 113.236C27.8512 115.584 25.419 120.141 23.2046 119.749C16.2398 118.518 15.1583 110.897 15.1583 110.897L43.4604 81.4386L43.6714 81.5522L52.9985 91.6095L52.998 91.6144ZM21.6936 110.77C21.0242 111.43 21.0211 112.508 21.6808 113.178C22.3405 113.847 23.4193 113.85 24.0887 113.191C24.7581 112.531 24.7612 111.452 24.1015 110.783C23.4418 110.113 22.363 110.11 21.6936 110.77ZM31.7101 98.8999C30.6976 99.5801 30.6867 101.04 31.6955 101.734C32.2544 102.119 33.0217 102.125 33.5864 101.747C34.5989 101.067 34.6098 99.6078 33.601 98.9131C33.0421 98.5285 32.2748 98.5223 31.7101 98.8999ZM41.5158 91.0868C42.1959 92.0993 43.6554 92.1102 44.3501 91.1014C44.7347 90.5425 44.7409 89.7752 44.3633 89.2105C43.6831 88.198 42.2236 88.1871 41.5289 89.1959C41.1443 89.7548 41.1381 90.5221 41.5158 91.0868Z" fill="white"/>
<path d="M114.642 27.275C113.087 14.02 97.0216 10.5 97.0216 10.5C101.372 16.185 100.682 21.88 99.3516 25.63C98.5216 27.97 97.0816 30.05 95.2416 31.72L80.8566 44.825L48.5216 75.095C48.0366 75.545 46.6816 77.125 46.2916 77.66L45.2516 79.25C44.9416 79.675 44.7716 80.19 44.7716 80.72V80.85L44.7666 80.855L53.8666 90.885C59.9966 85.77 105.612 47.69 108.047 44.935C110.662 41.985 115.832 37.45 114.637 27.265L114.642 27.275ZM105.782 42.055C104.132 44.165 102.217 46.025 100.017 47.595C100.162 47.355 59.5416 81.68 59.6416 81.22C59.6616 81.21 99.4316 46.78 99.4616 46.775C101.512 45.275 103.377 43.42 104.982 41.42C108.212 37.43 110.222 32.335 109.587 27.15C109.327 24.56 108.282 22.04 107.217 19.705C108.702 21.81 109.702 24.46 110.162 27.07C111.092 32.405 109.102 37.895 105.787 42.05L105.782 42.055Z" fill="white"/>
</svg>
