<svg width="128" height="128" viewBox="0 0 128 128" fill="none" xmlns="http://www.w3.org/2000/svg">
<path d="M30.0695 101.32L28.2845 102.675C28.3895 103.49 28.4445 104.885 28.0195 106.6C28.3695 106.715 28.7345 106.85 29.1045 107.005L30.3195 106.085C30.8045 103.86 30.4145 102.21 30.0695 101.315V101.32Z" fill="white"/>
<path d="M27.5399 106.46C27.8849 105.025 27.8899 103.825 27.8199 103.035L23.8799 106.035C24.8349 105.985 26.0949 106.06 27.5449 106.46H27.5399Z" fill="white"/>
<path d="M32.1846 104.68L36.2196 101.625C36.0546 99.6697 35.3646 98.3547 34.8746 97.6597L32.4296 99.5197C32.6646 100.245 33.0746 102.135 32.1846 104.68Z" fill="white"/>
<path d="M27.4102 106.945C25.5802 106.44 24.0552 106.485 23.1152 106.61L19.8702 109.08C19.9302 109.435 19.8302 109.915 19.3102 110.41C19.5602 110.465 19.6752 110.6 19.7302 110.71C19.8352 110.915 19.8002 111.185 19.6302 111.53C19.5402 111.71 19.3752 111.9 19.1702 112.085C19.2552 112.12 19.3302 112.175 19.3852 112.255C19.7002 112.685 19.6452 112.86 19.3252 113.155C19.2652 113.21 19.1902 113.28 19.1052 113.365C18.9602 113.52 18.8752 113.64 18.8252 113.73C19.0102 113.82 19.2502 113.99 19.4652 114.3L26.6752 108.845C26.9902 108.185 27.2352 107.55 27.4052 106.945H27.4102Z" fill="white"/>
<path d="M27.8951 107.09C27.7901 107.455 27.6501 107.835 27.4951 108.225L28.6401 107.36C28.3851 107.26 28.1351 107.17 27.8901 107.09H27.8951Z" fill="white"/>
<path d="M31.4252 105.255C32.5452 102.69 32.2352 100.695 32.0052 99.8447L30.4902 100.995C30.8502 101.855 31.2752 103.45 30.9152 105.635L31.4202 105.25L31.4252 105.255Z" fill="white"/>
<path d="M37.5448 95.5698C37.5448 95.5698 36.8998 93.8948 37.4298 92.1048C37.8998 90.5198 36.1198 91.1898 35.4098 92.1448C34.6998 93.0948 33.9698 95.0398 35.2548 97.3198C35.7648 98.0248 36.5898 99.2198 36.7998 101.2C36.8648 102.135 36.8648 102.62 36.8248 103.695C36.7798 104.835 37.4998 104.68 37.4998 104.68C37.4998 104.68 39.1798 104.35 39.5498 101.62C39.9198 98.8898 37.5498 95.5698 37.5498 95.5698H37.5448Z" fill="white"/>
<path d="M18.475 114.125L18.28 114.09L18.27 113.89C18.27 113.805 18.295 113.5 18.755 113.02C18.85 112.92 18.93 112.845 18.995 112.785C19.03 112.755 19.065 112.72 19.09 112.695C19.075 112.67 19.045 112.625 18.99 112.55C18.94 112.525 18.62 112.55 17.885 113.02L17.685 113.15L17.515 112.975L17.38 112.78L17.58 112.625C17.605 112.605 17.665 112.565 17.75 112.51C18.055 112.315 18.985 111.72 19.195 111.31C19.335 111.025 19.295 110.94 19.295 110.94C19.29 110.93 19.255 110.91 19.19 110.9C19.05 110.905 18.53 111.165 17.985 111.515C17.58 111.81 17.285 111.995 17.26 112.01L16.98 111.595C17.16 111.465 17.43 111.275 17.725 111.085C18.095 110.815 18.555 110.46 18.965 110.075C19.405 109.66 19.43 109.33 19.38 109.13C19.215 109.1 18.88 109.205 18.21 109.715C16.81 110.78 13.64 113.195 13.64 113.195C13.64 113.195 12.73 113.81 13.39 114.885C13.39 114.885 12.9 115.385 12.285 116.04C12.015 116.325 11.445 116.25 11.24 116.585C11.01 116.955 10.965 117.62 11.165 118.01C11.375 118.425 11.84 118.095 12.155 118.135C12.335 118.16 12.58 118.325 12.795 118.39C13.035 118.465 13.515 118.38 13.515 118.38C13.515 118.38 13.035 118.07 13.025 117.755C13.02 117.505 13.355 116.895 13.355 116.895L14.25 116.115L15.3 115.355L16.07 115.065L16.685 114.44L15.97 115.395L15.225 116.07C15.225 116.07 15.005 116.84 14.59 117.095C14.175 117.35 13.685 116.965 13.685 116.965C13.685 116.965 13.645 118.92 14.98 118.065L16.05 117.31L17.06 115.77L17.505 114.58L17.535 115.37C17.535 115.37 18.52 115.55 18.88 115.26C19.04 115.135 19.14 114.96 19.205 114.81C18.915 114.235 18.515 114.145 18.5 114.145L18.475 114.125ZM15.35 113.705C15.145 113.955 14.865 114.12 14.585 114.265C14.51 114.47 14.415 114.67 14.265 114.86C14.175 114.56 14.18 114.285 14.195 114.005C14.435 113.79 14.715 113.605 14.995 113.46C15 113.46 15.005 113.455 14.995 113.46C15.09 113.31 15.21 113.065 15.36 112.91C15.41 113.195 15.435 113.435 15.345 113.705H15.35Z" fill="white"/>
<path d="M115.855 14.215C113.13 18.985 110.32 23.885 106.96 28.485C86.7197 56.205 57.8696 79.295 57.8696 79.295L47.5597 87.855L38.3896 94.9C38.6096 95.335 39.3346 96.805 40.1096 98.585L46.0396 94.16C58.0746 85.065 67.0146 77.35 77.7546 67.37C86.5596 59.195 97.2297 47.93 103.94 39.815C108.08 34.805 112.11 28.87 114.06 25.93C119.325 17.995 115.85 14.21 115.85 14.21L115.855 14.215Z" fill="white"/>
</svg>
