<svg width="128" height="128" viewBox="0 0 128 128" fill="none" xmlns="http://www.w3.org/2000/svg">
<path d="M12.3503 109.92C8.2903 114.46 12.0303 117.705 12.0303 117.705C12.0303 117.705 15.2703 121.44 19.8153 117.385L26.4753 110.725L19.0153 103.265L12.3553 109.925L12.3503 109.92Z" fill="white"/>
<path d="M115.885 25.3701C115.885 25.3701 113.125 21.5501 110.455 19.2851C108.19 16.6101 104.365 13.8501 104.365 13.8501C97.28 9.44506 92.855 15.2551 92.855 15.2551C92.855 15.2551 92.365 15.7451 91.52 16.5901L90.215 15.2851L85.695 19.8051L87 21.1101C85.71 22.4001 84.285 23.8251 82.805 25.3051L81.5 24.0001L76.98 28.5201L78.285 29.8251C76.84 31.2701 75.415 32.6951 74.09 34.0201L72.785 32.7151L68.265 37.2351L69.57 38.5401C68.035 40.0751 66.975 41.1351 66.695 41.4201C65.67 42.4451 64.665 45.9351 64.08 48.3101C63.605 50.2201 62.9 52.0551 61.975 53.7951C59.785 57.9151 57 62.1151 53.96 66.2001L52.705 67.8551C51.845 68.9701 50.97 70.0801 50.085 71.1751L41.07 81.5051C37.035 85.8101 39.175 83.4901 37.585 85.2101L44.365 91.9601C46.025 90.3401 50.14 86.9101 51.095 86.0551L53.84 83.6251C59.76 78.4901 66.36 73.3651 72.89 69.4901C75.975 67.6601 79.295 66.2601 82.755 65.3201C84.95 64.7251 87.475 63.8951 88.32 63.0451C88.59 62.7751 89.58 61.7901 91.015 60.3501L91.66 60.9951L96.18 56.4751L95.535 55.8301C96.86 54.5051 98.28 53.0851 99.73 51.6351L100.375 52.2801L104.895 47.7601L104.25 47.1151C105.855 45.5101 107.4 43.9651 108.78 42.5851L109.425 43.2301L113.945 38.7101L113.3 38.0651C114.05 37.3151 114.485 36.8801 114.485 36.8801C114.485 36.8801 120.295 32.4651 115.885 25.3701ZM104.795 35.9701C105.25 36.1501 105.695 36.3501 106.14 36.5601C105.95 35.2101 105.81 33.8551 105.815 32.4851C106.375 34.1801 106.695 35.9351 106.99 37.6951C105.575 37.0901 100.36 34.2051 104.795 35.9701ZM97.46 41.5651C98.025 43.2601 98.345 45.0151 98.635 46.7701C97.22 46.1651 92.01 43.2801 96.44 45.0501C96.895 45.2301 97.345 45.4301 97.79 45.6351C97.6 44.2851 97.455 42.9351 97.46 41.5651ZM97.555 24.0901C96.44 24.3401 95.31 24.4401 94.175 24.4901C94.285 24.8351 94.385 25.1801 94.465 25.5351C95.245 28.9001 93.57 24.9651 93.27 23.8551C94.705 23.8301 96.135 23.8401 97.555 24.0901ZM76.145 42.4301C76.925 45.8001 75.255 41.8651 74.955 40.7501C76.385 40.7301 77.82 40.7401 79.24 40.9901C78.12 41.2401 76.99 41.3351 75.855 41.3901C75.965 41.7351 76.065 42.0801 76.145 42.4301ZM83.98 32.3451C85.415 32.3201 86.845 32.3301 88.265 32.5801C87.145 32.8301 86.02 32.9301 84.885 32.9851C84.99 33.3251 85.09 33.6751 85.175 34.0251C85.95 37.3951 84.28 33.4601 83.98 32.3451ZM87.365 53.4001C87.82 53.5801 88.265 53.7801 88.71 53.9901C88.52 52.6401 88.38 51.2851 88.38 49.9151C88.945 51.6101 89.265 53.3651 89.56 55.1251C88.14 54.5201 82.93 51.6301 87.365 53.4001Z" fill="white"/>
<path d="M89.1255 15.3999L83.2705 12.6299L85.8405 18.6849L89.1255 15.3999Z" fill="white"/>
<path d="M80.3959 24.13L74.5459 21.355L77.1159 27.41L80.3959 24.13Z" fill="white"/>
<path d="M71.7056 32.8248L65.8506 30.0498L68.4206 36.1048L71.7056 32.8248Z" fill="white"/>
<path d="M113.765 40.0347L116.54 45.8847L110.48 43.3147L113.765 40.0347Z" fill="white"/>
<path d="M105.036 48.7598L107.811 54.6148L101.756 52.0448L105.036 48.7598Z" fill="white"/>
<path d="M96.3405 57.4551L99.1155 63.3101L93.0605 60.7351L96.3405 57.4551Z" fill="white"/>
<path d="M29.5551 100.02C27.8651 98.785 26.3551 97.51 25.2151 96.48C24.9701 96.715 24.7301 96.945 24.4951 97.17C25.9901 98.5 28.0551 100.21 30.3051 101.685C30.0401 101.13 29.7901 100.57 29.5551 100.02Z" fill="white"/>
<path d="M30.725 102.55C28.165 100.955 25.79 99.0001 24.13 97.5151C23.96 97.6801 23.79 97.8351 23.625 97.9901C25.16 99.9001 28.165 103.385 31.51 105.915C31.735 105.665 31.965 105.415 32.2 105.155C31.67 104.325 31.18 103.445 30.725 102.55Z" fill="white"/>
<path d="M31.5449 103.04C31.8649 103.635 32.1999 104.215 32.5499 104.77C32.7899 104.505 33.0349 104.24 33.2899 103.97C32.7049 103.685 32.1249 103.375 31.5449 103.04Z" fill="white"/>
<path d="M25.5752 96.135C26.5502 97.01 27.7902 98.07 29.1852 99.125C28.4302 97.25 27.8552 95.515 27.4752 94.27C26.8252 94.915 26.1902 95.54 25.5752 96.135Z" fill="white"/>
<path d="M30.3447 100.585C30.5847 101.12 30.8397 101.66 31.1097 102.195C31.9397 102.71 32.7947 103.18 33.6447 103.585C33.8447 103.37 34.0447 103.16 34.2497 102.945C32.9147 102.275 31.5947 101.45 30.3497 100.585H30.3447Z" fill="white"/>
<path d="M21.5249 99.9049C21.0999 100.275 20.7699 100.545 20.5449 100.705C22.4199 102.81 25.7499 106.24 29.2599 108.45C29.3099 108.39 29.3649 108.33 29.4149 108.27C26.1649 105.765 23.2149 102.165 21.5199 99.8999L21.5249 99.9049Z" fill="white"/>
<path d="M42.6852 95.0849C42.8702 94.9499 43.0502 94.8249 43.2252 94.7099C44.5802 93.8099 44.2352 93.3049 44.0752 93.0299L36.4802 85.3899C36.4802 85.3899 35.9152 85.1099 35.5202 85.6049C35.2702 85.9199 34.9952 86.2549 34.7002 86.5999C36.3052 88.7449 39.3302 92.4949 42.6802 95.0849H42.6852Z" fill="white"/>
<path d="M35.4355 90.8649C36.7055 92.8249 38.3705 95.1249 40.2355 97.0699C40.4805 96.8549 40.7255 96.6449 40.9655 96.4399C38.8905 94.7549 36.9605 92.6799 35.4405 90.8599L35.4355 90.8649Z" fill="white"/>
<path d="M22.0054 99.48C21.9704 99.51 21.9354 99.545 21.9004 99.575C23.5804 101.815 26.5204 105.42 29.7504 107.9C30.0454 107.565 30.3654 107.205 30.7104 106.815C27.1954 104.66 23.8804 101.445 22.0054 99.48Z" fill="white"/>
<path d="M23.26 98.335C22.945 98.625 22.65 98.9 22.375 99.15C24.24 101.11 27.555 104.315 31.045 106.44C31.085 106.39 31.13 106.345 31.175 106.295C27.82 103.745 24.815 100.265 23.26 98.335Z" fill="white"/>
<path d="M34.3703 86.9849C34.1403 87.2499 33.9003 87.5249 33.6553 87.7999C35.1753 89.8449 38.0853 93.4849 41.3503 96.1149C41.6653 95.8599 41.9703 95.6149 42.2703 95.3899C38.9653 92.7999 35.9903 89.1399 34.3703 86.9849Z" fill="white"/>
<path d="M33.2505 88.25C33.1905 88.32 33.1255 88.39 33.0605 88.46C34.1505 91.11 36.1105 95.35 38.6355 98.53C39.0455 98.14 39.4555 97.765 39.8555 97.405C36.9055 94.32 34.4605 90.365 33.2505 88.255V88.25Z" fill="white"/>
<path d="M20.1101 100.97C19.1951 101.525 19.2501 102.04 19.2501 102.04C19.2501 102.04 19.1201 102.125 19.9851 102.89C20.8451 103.655 27.2951 110.19 27.2951 110.19C27.2951 110.19 27.5801 110.38 27.8351 110.105C27.8851 110.05 28.2851 109.585 28.9301 108.84C25.3551 106.57 21.9851 103.08 20.1101 100.975V100.97Z" fill="white"/>
<path d="M32.69 88.8649C32.32 89.2699 31.935 89.6849 31.54 90.0999C32.175 91.6949 33.22 94.1249 34.585 96.5699C35.59 97.5649 36.67 98.5249 37.775 99.3499C37.94 99.1899 38.105 99.0299 38.27 98.8699C35.77 95.7249 33.81 91.5599 32.69 88.8599V88.8649Z" fill="white"/>
<path d="M28.465 93.2749C28.265 93.4749 28.07 93.6699 27.875 93.8699C28.295 95.2749 29 97.4199 29.96 99.6999C31.42 100.76 33.005 101.78 34.605 102.57C34.72 102.45 34.835 102.33 34.945 102.21C32.095 99.2299 29.71 95.4299 28.465 93.2749Z" fill="white"/>
<path d="M35.84 101.29C32.985 98.2797 30.605 94.4697 29.385 92.3447C29.2 92.5297 29.02 92.7197 28.835 92.9047C30.045 95.0097 32.435 98.8497 35.3 101.85C35.48 101.665 35.66 101.475 35.845 101.29H35.84Z" fill="white"/>
<path d="M34.1851 96.8749C32.4551 95.1549 30.9351 93.3349 29.8151 91.8999C29.7901 91.9249 29.7701 91.9499 29.7451 91.9699C30.9301 94.0399 33.3151 97.8999 36.1901 100.93C36.3101 100.81 36.4301 100.685 36.5501 100.565C35.6851 99.4049 34.8951 98.1399 34.1851 96.8749Z" fill="white"/>
<path d="M35.4902 98.1147C35.9352 98.8347 36.4102 99.5397 36.9052 100.21C37.0752 100.04 37.2452 99.8748 37.4152 99.7048C36.7602 99.2148 36.1202 98.6747 35.4952 98.1147H35.4902Z" fill="white"/>
<path d="M30.165 91.54C31.01 92.625 32.095 93.945 33.325 95.27C32.4 93.46 31.665 91.76 31.16 90.5C30.835 90.845 30.5 91.19 30.165 91.54Z" fill="white"/>
</svg>
