<svg width="128" height="128" viewBox="0 0 128 128" fill="none" xmlns="http://www.w3.org/2000/svg">
<path d="M37.4152 86.4248C37.0552 87.2548 36.8752 87.9348 36.9402 88.4148C37.4902 92.3698 33.3452 93.0298 33.3452 93.0298C33.3452 93.0298 30.3302 93.4298 30.6702 96.6748C31.0052 99.9198 26.9252 100.765 26.9252 100.765C26.9252 100.765 25.2002 101.305 24.4202 102.23C24.0202 102.705 23.6252 103.74 23.9752 104.685C25.2352 108.09 21.9602 110.065 21.9602 110.065C21.9602 110.065 19.1852 111.655 18.5602 115.285C17.9352 118.915 16.2152 118.38 16.2152 118.38C8.68516 117.7 8.97016 113.4 8.97016 113.4C13.4302 99.6998 27.6802 82.1398 28.2652 81.4248L37.4052 86.4248H37.4152ZM12.3352 111.505C11.5852 112.265 11.5902 113.495 12.3552 114.245C13.1152 114.995 14.3452 114.985 15.0952 114.225C15.8452 113.465 15.8352 112.235 15.0752 111.485C14.3152 110.735 13.0852 110.745 12.3352 111.505Z" fill="white"/>
<path d="M114.985 23.9701C110.405 19.4601 103.035 19.5201 98.5248 24.1001C94.0148 28.6801 94.0748 36.0501 98.6548 40.5601C103.235 45.0701 110.605 45.0101 115.115 40.4301C119.625 35.8501 119.565 28.4801 114.985 23.9701ZM112.305 25.7651C115.22 28.0601 116.14 31.5151 115.22 34.6051L114.42 34.1551C115.12 31.2801 114.285 28.2551 112.305 25.7651ZM114.115 35.1551L114.87 35.5751C114.635 36.1101 114.345 36.6301 113.995 37.1251L113.325 36.7501C113.65 36.2301 113.91 35.6951 114.115 35.1551ZM110.225 40.3101C111.145 39.4701 112.025 38.5951 112.75 37.6001L113.35 37.9351C112.965 38.3651 112.535 38.7751 112.05 39.1501C111.47 39.5901 110.87 39.9851 110.225 40.3101Z" fill="white"/>
<path d="M118.975 25.385C119.315 26.135 117.795 26.58 117.795 26.58C117.745 26.505 117.69 26.435 117.635 26.36C114.83 20.87 107.69 18.355 101.95 20.87C95.6098 23.4 92.6948 31.46 95.6598 37.52C95.6848 37.63 95.7098 37.74 95.7348 37.85C96.0998 39.615 95.0798 39.715 94.3648 39.59C93.9848 39.525 93.2348 38.685 92.9948 38.385C91.1348 36.08 88.0648 36.275 88.0648 36.275C83.0998 35.355 52.5198 66.405 52.5198 66.405C52.5198 66.405 41.2298 79.04 37.8648 85.485L28.9248 80.595C65.8598 33.575 81.8998 23.645 81.8998 23.645C81.8998 23.645 93.2848 14.375 102.045 12.585C110.8 10.795 118.635 24.63 118.975 25.385Z" fill="white"/>
</svg>
