<svg width="128" height="128" viewBox="0 0 128 128" fill="none" xmlns="http://www.w3.org/2000/svg">
<path d="M47.1602 73.2549L54.9552 81.2649C61.5902 75.4199 110.515 31.9099 114.74 15.3149C98.0352 19.0849 53.1852 66.7849 47.1602 73.2549ZM78.8052 51.4249C73.5002 56.3899 62.7952 66.9399 57.4752 71.6399C71.0702 58.2899 85.4302 43.3099 99.6002 30.6649L99.6602 30.7249C92.9602 37.8799 85.9302 44.6999 78.8052 51.4249Z" fill="white"/>
<path d="M24.2702 97.7348C23.9202 98.1548 23.5802 98.5598 23.2552 98.9548C22.9752 99.2948 23.2052 99.8098 23.6452 99.8298L32.7702 100.255C33.4502 100.285 34.1152 100.07 34.6402 99.6448C35.1652 99.2198 35.7402 98.7498 36.2952 98.2948C36.6752 97.9848 36.4702 97.3648 35.9802 97.3448L26.1952 96.8898C25.4552 96.8548 24.7452 97.1698 24.2702 97.7398V97.7348Z" fill="white"/>
<path d="M21.2 102.805L29.315 103.185C29.86 103.21 30.4 103.04 30.83 102.7C31.26 102.36 31.685 102.02 32.125 101.67C32.51 101.36 32.31 100.735 31.815 100.71L23.295 100.315C22.59 100.28 21.905 100.585 21.455 101.135C21.225 101.415 21.005 101.685 20.8 101.935C20.52 102.275 20.755 102.785 21.195 102.81L21.2 102.805Z" fill="white"/>
<path d="M27.1397 94.3247C26.7947 94.7297 26.4597 95.1297 26.1247 95.5197C25.8397 95.8597 26.0647 96.3797 26.5097 96.3997L36.6097 96.8697C37.4647 96.9097 38.3047 96.6297 38.9597 96.0797C39.4047 95.7047 39.8497 95.3297 40.2897 94.9597C40.6597 94.6447 40.4497 94.0397 39.9647 94.0147L29.0247 93.5047C28.3047 93.4697 27.6097 93.7747 27.1397 94.3247Z" fill="white"/>
<path d="M19.5749 103.45C19.5499 103.48 19.5299 103.505 19.5049 103.535C19.3349 103.745 19.3499 104.05 19.5399 104.245L21.1699 105.92C21.2649 106.02 21.3949 106.075 21.5299 106.08L26.0299 106.29C26.1549 106.295 26.2799 106.26 26.3799 106.18C26.9949 105.7 27.6849 105.17 28.4249 104.59C28.8149 104.285 28.6149 103.655 28.1199 103.63L20.0149 103.255C19.8449 103.245 19.6799 103.32 19.5699 103.455L19.5749 103.45Z" fill="white"/>
<path d="M45.3204 79.0398L43.6054 77.2798C43.3254 77.4648 43.0304 77.6798 42.7154 77.9198C42.3004 78.2398 42.5054 78.9098 43.0304 78.9348L45.3204 79.0398Z" fill="white"/>
<path d="M24.1503 106.7L23.1853 106.655C22.7003 106.63 22.4353 107.215 22.7753 107.565L23.2103 108.015C23.4003 108.21 23.7053 108.235 23.9203 108.07C24.0753 107.95 24.2503 107.815 24.4503 107.665C24.8503 107.36 24.6503 106.725 24.1503 106.7Z" fill="white"/>
<path d="M29.9049 91.1098C29.6049 91.4548 29.3099 91.7948 29.0149 92.1348C28.7199 92.4748 28.9499 92.9998 29.3999 93.0198L40.6249 93.5398C41.4299 93.5748 42.2149 93.2998 42.8199 92.7698C43.2099 92.4248 43.5949 92.0848 43.9699 91.7498C44.3449 91.4148 44.1149 90.8348 43.6349 90.8148L31.8799 90.2698C31.1299 90.2348 30.3999 90.5448 29.9049 91.1148V91.1098Z" fill="white"/>
<path d="M32.9554 87.655C32.5904 88.065 32.2203 88.475 31.8553 88.89C31.5553 89.225 31.7803 89.76 32.2303 89.78L44.2653 90.34C45.0303 90.375 45.7754 90.095 46.3304 89.57C46.8354 89.09 47.3153 88.625 47.7603 88.175C48.0903 87.845 47.8654 87.285 47.4004 87.26L35.2404 86.695C34.3754 86.655 33.5304 87.005 32.9504 87.65L32.9554 87.655Z" fill="white"/>
<path d="M58.6799 87.0499L54.2249 81.9498L46.4599 73.9648L41.4849 69.3698C42.0649 67.9498 41.8499 66.3248 40.7799 65.2248C39.3049 63.7048 36.7899 63.7598 35.1599 65.3498C33.5299 66.9348 33.4049 69.4498 34.8799 70.9648C35.9449 72.0598 37.5399 72.3198 38.9599 71.7948L42.1099 75.0298L42.1199 75.0198L52.9999 86.2048L52.9899 86.2148L56.1849 89.4998C55.6249 90.9098 55.8449 92.5149 56.9099 93.6049C58.3849 95.1249 60.8999 95.0699 62.5299 93.4799C64.1599 91.8949 64.2849 89.3798 62.8099 87.8648C61.7349 86.7598 60.1199 86.4998 58.6849 87.0448L58.6799 87.0499Z" fill="white"/>
<path d="M23.1401 108.66L18.8951 104.295L18.8901 104.305C17.7751 103.585 14.3501 105.845 14.0301 107.61C13.6901 109.525 12.2451 115.01 12.2451 115.01C12.2451 115.01 17.7701 113.72 19.6951 113.43C21.4701 113.16 23.8251 109.8 23.1301 108.665C23.1301 108.665 23.1351 108.665 23.1401 108.66ZM14.7551 112.68L14.3801 112.74C14.7551 111.245 15.1601 109.76 15.7351 108.315C15.5951 109.61 15.3351 110.88 15.0401 112.135C15.6351 112.045 16.2301 111.965 16.8301 111.905C17.5551 111.83 18.2751 111.775 19.0051 111.76C17.6151 112.18 16.1851 112.45 14.7551 112.68Z" fill="white"/>
<path d="M50.5354 84.3999L49.7954 83.6399C49.7054 83.5499 49.5854 83.4949 49.4604 83.4899L38.5004 82.9799C37.7604 82.9449 37.0504 83.2349 36.5404 83.7699C36.0304 84.3049 35.5454 84.8249 35.0404 85.3699C34.7504 85.6799 34.9604 86.1899 35.3854 86.2099L47.9304 86.7949C48.6604 86.8299 49.3654 86.5199 49.8404 85.9649C50.1154 85.6449 50.3604 85.3399 50.5754 85.0549C50.7254 84.8549 50.7104 84.5799 50.5354 84.3999Z" fill="white"/>
<path d="M40.8448 79.5097C40.2048 80.0897 39.5248 80.7447 38.8098 81.4497C38.4248 81.8297 38.6798 82.4897 39.2198 82.5147L47.5798 82.9047C48.1448 82.9297 48.4498 82.2547 48.0548 81.8497L46.0048 79.7447C45.8948 79.6297 45.7448 79.5647 45.5898 79.5547L41.2948 79.3547C41.1298 79.3447 40.9698 79.3997 40.8498 79.5147L40.8448 79.5097Z" fill="white"/>
</svg>
