<svg width="128" height="128" viewBox="0 0 128 128" fill="none" xmlns="http://www.w3.org/2000/svg">
<path d="M115.905 13.54C114.65 13.8 111.75 18.02 111.075 19.02C110.82 18.98 110.595 19.02 110.465 19.15C109.5 18.995 108.27 18.885 107.785 19.23C107.58 19.375 107.52 19.555 107.505 19.685C107.4 20.53 107.505 21.135 107.505 21.16L108.245 21.035C108.245 21.035 108.16 20.53 108.245 19.83C108.47 19.705 109.305 19.735 110.285 19.89L22.1598 107.63C22.1598 107.63 21.7048 108.24 20.6148 109.215C20.8048 108.805 20.9398 108.23 20.8548 107.455L20.3598 107.51C20.5348 109.06 19.7048 109.625 19.6698 109.65L19.6848 109.675C19.3198 109.88 19.0948 110.19 19.0948 110.465C18.5148 110.905 17.8498 111.38 17.0698 111.88C13.9948 113.865 14.8548 115.98 14.8548 115.98C15.1048 116.765 16.0348 115.775 16.0348 115.775C16.0348 115.775 15.8548 115.875 15.7498 115.47C15.3598 114.015 18.0848 112.41 18.0848 112.41L18.1998 112.79L19.1098 112.805L19.1798 112.245L19.8798 110.95L19.8848 110.945C20.0398 110.93 20.2048 110.89 20.3698 110.82C20.8298 110.62 21.1248 110.25 21.1098 109.935C24.3998 106.83 108.615 23.16 108.615 23.16L111.41 20.465C111.77 20.555 112.095 20.495 112.22 20.28C112.31 20.13 112.28 19.93 112.17 19.735L112.53 19.385L113.2 17.875C115.055 14.98 115.865 15.2 115.865 15.2L116.24 15.54C116.24 15.54 117.325 13.235 115.905 13.53V13.54Z" fill="white"/>
<path d="M82.0598 78.4353C82.3848 78.1103 82.7198 77.7803 83.0598 77.4453C83.2848 76.4553 83.3548 75.5003 83.3148 74.6053C82.8398 74.3353 82.3598 74.1103 81.8848 73.9253C82.1998 75.2553 82.3248 76.7853 82.0598 78.4353Z" fill="white"/>
<path d="M80.0352 69.635C80.5452 70.415 81.2602 71.7 81.7302 73.335C82.2402 73.515 82.7602 73.74 83.2752 74.01C83.0302 71.495 81.9752 69.485 81.2852 68.415C80.8852 68.805 80.4652 69.21 80.0352 69.635Z" fill="white"/>
<path d="M83.8043 74.3102C84.2743 74.5901 84.7343 74.9202 85.1893 75.2952C88.2893 72.1202 91.6893 68.3452 94.9243 64.1602C94.9243 64.1602 85.3143 69.8702 85.3343 64.5652C85.3343 64.5652 83.8093 65.9802 81.6543 68.0602C82.4043 69.2052 83.6143 71.4651 83.8043 74.3102Z" fill="white"/>
<path d="M83.8246 74.915C83.8346 75.525 83.7896 76.16 83.6846 76.815C83.8696 76.63 84.0496 76.445 84.2396 76.26C84.4346 76.065 84.6346 75.855 84.8346 75.655C84.5046 75.38 84.1646 75.135 83.8246 74.915Z" fill="white"/>
<path d="M81.4298 79.0552C81.8898 77.0752 81.7248 75.2502 81.3198 73.7202C79.4648 73.1102 77.7098 73.0602 76.4898 73.1402C74.7048 74.9002 72.8848 76.6702 71.0198 78.6702C71.0198 78.6702 79.5448 74.0852 70.2598 89.4652C70.2598 89.4652 74.6198 85.7452 81.4248 79.0552H81.4298Z" fill="white"/>
<path d="M81.1545 73.1453C80.7195 71.7753 80.1195 70.6854 79.6695 69.9854C79.1295 70.5154 78.5795 71.0653 78.0095 71.6303C77.6795 71.9603 77.3495 72.2853 77.0195 72.6153C78.1595 72.5853 79.6145 72.6853 81.1495 73.1453H81.1545Z" fill="white"/>
<path d="M115.084 23.2851C115.084 23.2851 114.924 23.0851 115.099 22.9201C115.494 22.5401 116.314 21.9601 117.389 22.5901C117.464 22.6351 117.599 22.7201 117.604 22.8401C117.604 22.8401 118.124 22.3551 117.704 21.8901C117.284 21.4251 115.919 21.4051 114.739 22.3551C113.884 23.0401 115.089 23.2851 115.089 23.2851H115.084Z" fill="white"/>
<path d="M115.015 22.0649C115.015 22.0649 114.855 21.8649 115.03 21.6999C115.425 21.3199 116.245 20.7399 117.32 21.3699C117.395 21.4149 117.53 21.4999 117.535 21.6199C117.535 21.6199 118.055 21.1349 117.635 20.6699C117.215 20.2049 115.85 20.1849 114.67 21.1349C113.815 21.8199 115.02 22.0649 115.02 22.0649H115.015Z" fill="white"/>
<path d="M22.8366 113.37C22.8366 113.37 22.6166 113.245 22.4816 113.44C22.1716 113.89 21.7316 114.795 22.5266 115.755C22.5816 115.82 22.6916 115.94 22.8066 115.925C22.8066 115.925 22.4116 116.52 21.8866 116.175C21.3616 115.83 21.1166 114.495 21.8616 113.175C22.3966 112.225 22.8366 113.37 22.8366 113.37Z" fill="white"/>
<path d="M23.985 113.31C23.985 113.31 23.765 113.185 23.63 113.38C23.32 113.83 22.88 114.735 23.675 115.695C23.73 115.76 23.84 115.88 23.955 115.865C23.955 115.865 23.56 116.46 23.035 116.115C22.51 115.77 22.265 114.435 23.01 113.115C23.545 112.165 23.985 113.31 23.985 113.31Z" fill="white"/>
<path d="M26.36 113.5C26.36 113.5 26.14 113.375 26.005 113.57C25.695 114.02 25.255 114.925 26.05 115.885C26.105 115.95 26.215 116.07 26.33 116.055C26.33 116.055 25.935 116.65 25.41 116.305C24.885 115.96 24.64 114.625 25.385 113.305C25.92 112.355 26.36 113.5 26.36 113.5Z" fill="white"/>
<path d="M113.349 11.135C113.759 11.03 114.124 11.02 114.414 11.04C114.039 9.97002 113.419 8.67002 112.724 9.27002C112.414 9.54002 112.419 10.39 112.589 11.475C112.754 11.36 112.994 11.225 113.344 11.135H113.349Z" fill="white"/>
<path d="M25.0097 113.445L24.1747 113.41C23.9597 113.625 23.4997 114.195 23.6697 114.965C23.7597 115.38 24.0397 115.62 24.2747 115.78C24.2897 115.79 24.3047 115.8 24.3197 115.81C24.4247 115.815 24.5247 115.82 24.6197 115.83C24.7047 115.835 24.7997 115.845 24.9047 115.85C24.7697 115.675 24.6547 115.465 24.5947 115.195C24.4247 114.425 24.7297 113.815 25.0097 113.445Z" fill="white"/>
<path d="M113.845 14.6351C114.39 14.0401 114.87 13.6601 115.095 13.5001C115.04 13.2801 114.99 13.0901 114.95 12.9301C114.775 12.7901 114.39 12.5451 113.885 12.5701C113.595 12.5851 113.41 12.7101 113.285 12.8151C113.19 12.8951 113.055 13.0951 112.96 13.2551C113.11 13.8751 113.28 14.5051 113.455 15.1101C113.555 14.9751 113.685 14.8201 113.85 14.6351H113.845Z" fill="white"/>
<path d="M113.474 11.6201C113.114 11.7101 112.904 11.8601 112.779 11.9601C112.749 11.9801 112.724 12.0151 112.694 12.0501C112.729 12.2251 112.764 12.4101 112.804 12.5901C112.854 12.5251 112.909 12.4701 112.964 12.4251C113.134 12.2851 113.414 12.0901 113.854 12.0651C114.214 12.0451 114.524 12.1251 114.774 12.2401C114.759 12.1751 114.694 11.9101 114.589 11.5651C114.324 11.5251 113.934 11.5051 113.479 11.6201H113.474Z" fill="white"/>
<path d="M14.2996 114.855C14.3396 114.6 14.5946 113.965 14.8546 113.56C14.9596 113.395 15.0896 113.235 15.2146 113.085C12.9996 113.1 10.4046 113.28 9.72957 114C8.49957 115.315 11.6596 115.505 11.6596 115.505C11.6596 115.505 12.7646 115.515 14.3396 115.54C14.3046 115.345 14.2646 115.065 14.2996 114.855Z" fill="white"/>
<path d="M118.625 12.6298C118.435 12.1148 117.485 12.4548 117.485 12.4548C117.485 12.4548 117.48 15.1048 117.2 15.5898C116.915 16.0748 115.705 15.8398 115.7 15.7648C115.7 15.7598 115.7 15.7548 115.7 15.7448C115.475 15.8948 115.21 16.0898 114.935 16.3498C114.61 16.6598 114.445 16.8998 114.35 17.0598C114.28 17.1748 114.22 17.3398 114.185 17.4648C114.415 18.1748 114.58 18.6348 114.58 18.6348L114.785 20.4798C114.84 20.4448 114.895 20.4048 114.945 20.3748C115.16 20.2398 115.51 20.0548 116.075 19.9848C116.615 19.9148 117.055 19.9698 117.385 20.0448C117.37 19.8648 117.355 19.6998 117.34 19.5498C117.29 19.1298 118.155 18.5598 118.315 17.5498C118.415 16.9298 118.95 13.4298 118.645 12.6248L118.625 12.6298Z" fill="white"/>
<path d="M21.4708 113.296L18.6194 113.18C18.6194 113.18 18.3144 113.16 17.8244 113.14C17.6544 113.255 17.1894 113.585 16.8694 113.945C16.5694 114.285 16.2744 114.805 16.2244 114.96C16.1794 115.1 16.1794 115.375 16.1894 115.57C16.2144 115.57 16.2344 115.57 16.2594 115.57C16.3394 115.57 16.3694 116.36 15.7944 116.715C15.2194 117.07 13.4794 117.29 13.4794 117.29C13.4794 117.29 13.1444 117.955 13.6744 118.12C14.5194 118.38 16.4644 118.17 17.1594 118.005C18.2994 117.735 19.6244 115.735 20.0844 115.745C20.8344 115.765 20.646 115.74 21.241 115.745C21.081 115.56 21.0542 115.379 21.0542 114.862C21.0542 114.345 21.175 113.707 21.4708 113.296Z" fill="white"/>
<path d="M112.824 12.865C112.824 12.865 112.699 12.705 112.834 12.57C113.154 12.265 113.814 11.8 114.679 12.305C114.739 12.34 114.849 12.41 114.854 12.505C114.854 12.505 115.274 12.115 114.934 11.74C114.594 11.365 113.499 11.35 112.549 12.11C111.864 12.66 112.829 12.86 112.829 12.86L112.824 12.865Z" fill="white"/>
<path d="M73.5044 79.1851C72.7044 78.5251 71.0244 79.5951 69.9044 80.5051C67.7844 82.9151 65.9944 85.1901 65.3444 86.6451C63.3494 91.1151 59.4394 96.9851 59.4394 96.9851C47.5544 113.695 26.8394 113.53 26.8394 113.53L26.6594 113.52C26.4544 113.72 25.9594 114.3 26.1344 115.095C26.2194 115.475 26.4544 115.7 26.6694 115.86C28.2544 115.825 30.4994 115.715 33.1244 115.55C35.9194 115.375 39.1444 114.84 42.4994 113.94C45.5794 113.115 52.3694 110.125 55.2694 107.82C60.1795 103.92 64.2644 99.1701 69.1794 90.5501C69.2094 90.4951 69.2444 90.4451 69.2744 90.3901L69.2594 90.3801C72.0145 85.5551 74.3794 79.9051 73.5094 79.1901L73.5044 79.1851ZM47.3144 110.61C47.0794 110.61 46.8894 110.42 46.8894 110.185C46.8894 109.95 47.0794 109.76 47.3144 109.76C47.5494 109.76 47.7395 109.95 47.7395 110.185C47.7395 110.42 47.5494 110.61 47.3144 110.61ZM52.3645 108C52.0394 108 51.7745 107.735 51.7745 107.41C51.7745 107.085 52.0394 106.82 52.3645 106.82C52.6895 106.82 52.9545 107.085 52.9545 107.41C52.9545 107.735 52.6895 108 52.3645 108ZM57.0144 104.15C56.6044 104.15 56.2694 103.815 56.2694 103.405C56.2694 102.995 56.6044 102.66 57.0144 102.66C57.4244 102.66 57.7594 102.995 57.7594 103.405C57.7594 103.815 57.4244 104.15 57.0144 104.15Z" fill="white"/>
<path d="M117.56 23.145C117.32 22.975 116.745 22.655 116 22.865C115.58 22.985 115.355 23.25 115.21 23.465C115.185 23.505 115.155 23.55 115.125 23.595L115.4 26.055C115.4 26.055 117.28 41.62 103.125 51.695C103.125 51.695 97.5796 55.64 93.9546 57.905C92.2796 58.955 89.1096 61.685 86.2296 64.275C86.1746 64.8 86.2496 65.575 87.0946 65.84C88.3346 66.23 92.7696 64.33 95.3446 63.005C96.1196 62.375 96.8946 61.765 97.6596 61.19C104.365 56.135 108.065 53.985 111.27 49.97C113.16 47.6 115.99 42.275 116.71 39.585C117.49 36.66 117.87 32.92 117.815 30.37C117.765 28.095 117.675 25.38 117.57 23.14L117.56 23.145ZM107.625 51.53C107.215 51.565 106.855 51.265 106.815 50.855C106.78 50.445 107.08 50.085 107.49 50.045C107.9 50.01 108.26 50.31 108.3 50.72C108.335 51.13 108.035 51.49 107.625 51.53ZM111.72 46.615C111.395 46.645 111.11 46.405 111.08 46.08C111.05 45.755 111.29 45.47 111.615 45.44C111.94 45.41 112.225 45.65 112.255 45.975C112.285 46.3 112.045 46.585 111.72 46.615ZM113.965 41.78C113.73 41.8 113.525 41.63 113.505 41.395C113.485 41.16 113.655 40.955 113.89 40.935C114.125 40.915 114.33 41.085 114.35 41.32C114.37 41.555 114.2 41.76 113.965 41.78Z" fill="white"/>
</svg>
