<svg width="128" height="128" viewBox="0 0 128 128" fill="none" xmlns="http://www.w3.org/2000/svg">
<path d="M113.625 12.88L43.0654 80.24C44.2604 81.395 47.2754 84.475 50.3954 88.965C58.9204 80.865 97.2454 44.415 105.835 35.475C115.52 25.405 113.625 12.875 113.625 12.875V12.88ZM107.345 25.01C104.985 30.44 100.775 34.805 96.8504 39.135C87.4604 48.92 63.1554 71.245 52.9854 80.615C63.2104 70.73 86.7754 48.515 96.3104 38.62C100.3 34.395 104.52 30.165 107.155 24.93C107.5 24.175 107.795 23.39 107.94 22.565L108.015 22.575C107.91 23.415 107.655 24.225 107.345 25.01Z" fill="white"/>
<path d="M30.17 94.5153C25.55 99.2003 20.595 104.31 19.165 106.085C20.5 108.82 22.645 110.18 23.6 110.67C25.5 109.095 32.76 103.05 38.535 97.8903C36.72 97.8053 33.61 97.1903 30.17 94.5103V94.5153Z" fill="white"/>
<path d="M32.6903 91.9648C31.9903 92.6698 31.2653 93.4048 30.5303 94.1498C34.2053 96.9698 37.5003 97.3848 39.0953 97.3898C39.6103 96.9298 40.1103 96.4749 40.5903 96.0349C38.5403 95.6699 35.7053 94.6448 32.6903 91.9648Z" fill="white"/>
<path d="M33.0449 91.6052C36.1549 94.3452 39.0899 95.2852 41.0849 95.5802C42.2849 94.4702 43.3449 93.4602 44.1849 92.6102L38.4449 86.2002C37.4499 87.1952 35.4299 89.2102 33.0499 91.6102L33.0449 91.6052Z" fill="white"/>
<path d="M42.3454 80.9301L42.3304 80.9451C40.6404 79.3351 39.0054 78.1501 37.7504 78.0151C33.6004 77.5651 35.9604 82.2051 35.9604 82.2051C35.9604 82.2051 37.1154 83.7751 38.8054 85.8451L44.5404 92.2501C46.9654 94.8701 48.0054 96.3851 47.9954 98.7001C47.9854 101.47 45.9554 109.055 37.2104 112.165C30.6854 114.485 25.9704 112.78 23.4954 111.325C23.7354 112.085 23.7004 112.71 23.3904 113.19C23.1754 113.515 22.8604 113.73 22.5254 113.87C29.7904 118.695 36.9404 116.5 36.9404 116.5C36.9404 116.5 41.1704 116.6 48.6504 108.695C55.1004 101.885 52.6204 94.7901 51.3804 92.2751C47.7104 86.3101 43.7054 82.2301 42.3554 80.9301H42.3454Z" fill="white"/>
<path d="M21.6553 113.5C21.7503 113.495 21.8353 113.48 21.9153 113.46C21.9403 113.48 21.9703 113.495 21.9953 113.515C22.3703 113.415 22.7453 113.24 22.9603 112.91C23.2753 112.43 23.1853 111.7 22.7053 110.745C21.6003 110.065 19.9753 108.755 18.8303 106.535C18.8303 106.54 18.8203 106.55 18.8153 106.555C18.8153 106.555 17.4053 105.075 16.2703 106.92C15.1353 108.765 17.4653 111.565 17.7753 111.89C18.0853 112.215 19.7103 113.625 21.6503 113.495L21.6553 113.5Z" fill="white"/>
</svg>
