<svg width="128" height="128" viewBox="0 0 128 128" fill="none" xmlns="http://www.w3.org/2000/svg">
<path d="M30.9714 97.3347C30.1764 96.4097 28.7764 96.2997 27.8514 97.0947C27.1514 97.6947 27.0014 98.8797 27.2664 99.7097C27.3714 99.6797 27.4764 99.5897 27.5714 99.5297C27.6814 99.4697 28.0964 99.1097 28.2064 98.9247C28.1364 98.5497 28.2614 98.2046 28.5714 97.9346C28.8114 97.7297 29.1164 97.6447 29.4064 97.6747C29.6814 97.7047 29.9414 97.8297 30.1314 98.0547C30.5314 98.5197 30.4764 99.2197 30.0114 99.6197C29.8164 99.7847 29.6064 99.8846 29.3664 99.8946C29.3664 99.9196 29.1764 100.22 29.0464 100.33C28.8264 100.52 28.6364 100.63 28.5514 100.66C28.5064 100.675 28.3514 100.76 28.3064 100.775C28.5264 100.88 28.8214 100.955 29.0564 100.98C29.6414 101.04 30.2464 100.87 30.7264 100.46C31.6514 99.6647 31.7614 98.2646 30.9664 97.3396L30.9714 97.3347Z" fill="white"/>
<path d="M39.3867 105.32C38.4867 104.495 37.0867 104.555 36.2617 105.455C35.8617 105.89 35.6567 106.455 35.6817 107.045C35.7067 107.625 35.9567 108.16 36.3817 108.56C36.4467 108.475 36.5117 108.385 36.5767 108.3C36.6667 108.175 37.0067 107.63 37.0567 107.56C36.9517 107.4 36.7917 107.195 36.7817 107C36.7667 106.705 36.8717 106.42 37.0717 106.205C37.2867 105.97 37.5767 105.85 37.8717 105.845C38.1467 105.845 38.4217 105.935 38.6367 106.135C38.8567 106.335 38.9817 106.61 38.9967 106.905C39.0117 107.2 38.9067 107.485 38.7067 107.7C38.5467 107.875 38.3417 107.985 38.1167 108.035C38.1167 108.055 37.8267 108.655 37.7717 108.735C37.6867 108.865 37.6117 109 37.5467 109.135C37.6717 109.155 37.7967 109.165 37.9217 109.165C37.9417 109.165 37.9617 109.165 37.9817 109.165C38.5717 109.14 39.1167 108.885 39.5167 108.45C39.9167 108.015 40.1217 107.45 40.0967 106.86C40.0717 106.27 39.8167 105.725 39.3817 105.325L39.3867 105.32Z" fill="white"/>
<path d="M38.2013 107.68C38.1663 107.31 37.8613 107.335 37.8163 107.32C37.8113 107.32 37.5063 107.255 37.3413 107.445C36.5213 108.59 33.6063 112.84 30.3513 114.465C22.8363 118.21 18.8463 112.405 18.8463 112.405C18.8463 112.405 15.4163 107.65 19.2263 103.35C19.9413 102.545 22.4963 102.215 23.7113 102.15C24.2663 102.12 24.8063 102.02 25.3363 101.845C26.8213 101.365 29.5863 100.35 29.3113 99.5648C28.9363 98.4948 28.2513 99.0898 28.2513 99.0898C28.2513 99.0898 27.6763 99.8798 26.3363 100.34C24.9963 100.795 20.0113 101.64 20.0113 101.64C20.0113 101.64 16.4763 102.045 16.0263 107.665C15.5813 113.285 20.9213 115.845 20.9213 115.845C20.9213 115.845 26.6663 119.27 32.9013 114.415C35.5563 112.345 38.2313 107.885 38.2113 107.685L38.2013 107.68Z" fill="white"/>
<path d="M52.9811 91.7395L55.4111 89.0396C51.3861 87.9646 47.7311 84.6996 45.0561 81.6646L42.5361 84.1896C45.1961 87.2746 48.9111 90.6895 52.9811 91.7395Z" fill="white"/>
<path d="M53.9305 72.7744L53.1855 73.5194C54.7355 77.2144 57.1105 81.2894 60.5055 83.3794L63.6955 79.8344C59.9205 78.6394 56.4905 75.6094 53.9305 72.7744Z" fill="white"/>
<path d="M50.3906 94.6194L52.6156 92.1494C48.5356 90.9944 44.8406 87.6094 42.1856 84.5444L39.7656 86.9694C42.4556 90.1044 46.2406 93.5994 50.3906 94.6244V94.6194Z" fill="white"/>
<path d="M48.2107 97.0448L50.0207 95.0348C45.8607 93.8998 42.1007 90.4348 39.4157 87.3198L38.8057 87.9348C41.0107 91.5248 44.2257 95.5348 48.2107 97.0498V97.0448Z" fill="white"/>
<path d="M55.7861 88.6248L57.0411 87.2298C53.3861 85.4698 50.6161 81.6198 48.7061 78.0098L45.4111 81.3148C48.0911 84.3698 51.7761 87.6598 55.7911 88.6248H55.7861Z" fill="white"/>
<path d="M58.2015 68.4946L56.0215 70.6796C58.8415 73.5746 62.4915 76.3696 66.3665 76.8646L66.9115 76.2596C63.2315 75.1596 60.3315 71.9096 58.2015 68.4946Z" fill="white"/>
<path d="M51.1055 75.6045L49.0605 77.6495C50.9555 81.2745 53.7205 85.1695 57.3755 86.8545L59.1905 84.8345C55.6455 82.9745 52.9605 79.1545 51.1005 75.6045H51.1055Z" fill="white"/>
<path d="M38.451 88.2847L31.066 95.6847L32.206 96.7647C26.696 102.075 31.391 105.275 31.391 105.275C31.391 105.275 34.836 109.785 39.846 104.005L40.981 105.08L47.861 97.4347C43.876 95.8347 40.666 91.8597 38.451 88.2847Z" fill="white"/>
<path d="M52.8108 73.8945L51.4658 75.2395C53.3058 78.7995 55.9908 82.6595 59.5358 84.4545L60.1758 83.7445C56.7808 81.6095 54.3908 77.5795 52.8108 73.8945Z" fill="white"/>
<path d="M64.0515 79.4344L65.9665 77.3044C62.0865 76.6744 58.4765 73.8894 55.6715 71.0244L54.2715 72.4294C56.8315 75.2844 60.2865 78.3344 64.0465 79.4394L64.0515 79.4344Z" fill="white"/>
<path d="M78.2668 60.3598L73.7168 56.0498L73.6868 56.0798L72.0918 54.5698L58.5518 68.1398C60.6718 71.5798 63.5818 74.8598 67.2718 75.8548L79.8218 61.9048L78.2268 60.3948L78.2568 60.3648L78.2668 60.3598Z" fill="white"/>
<path d="M48.2653 26.9349L44.0303 24.0249L45.1403 29.5449L48.2653 26.9349Z" fill="white" stroke="white" stroke-width="1.5" stroke-miterlimit="10"/>
<path d="M56.7355 27.97L56.8105 22.085L52.9805 26.74L56.7355 27.97Z" fill="white" stroke="white" stroke-width="1.5" stroke-miterlimit="10"/>
<path d="M62.2806 34.9452L65.7606 31.2752L59.6006 30.5552L62.2806 34.9452Z" fill="white" stroke="white" stroke-width="1.5" stroke-miterlimit="10"/>
<path d="M41.7855 32.8701L36.9805 35.1501L42.7155 36.9601L41.7855 32.8701Z" fill="white" stroke="white" stroke-width="1.5" stroke-miterlimit="10"/>
<path d="M44.3155 39.5098L42.4355 43.9498L47.6305 41.6148L44.3155 39.5098Z" fill="white" stroke="white" stroke-width="1.5" stroke-miterlimit="10"/>
<path d="M50.1006 44.6052L52.2656 50.3202L54.4256 44.5552L50.1006 44.6052Z" fill="white" stroke="white" stroke-width="1.5" stroke-miterlimit="10"/>
<path d="M58.1553 43.5599L62.9053 44.6949L60.6753 39.7349L58.1553 43.5599Z" fill="white" stroke="white" stroke-width="1.5" stroke-miterlimit="10"/>
<path d="M103.851 17.425C103.476 17.425 103.156 17.14 103.121 16.76C103.081 16.355 103.376 15.995 103.781 15.955L107.996 15.55C108.401 15.51 108.761 15.805 108.801 16.21C108.841 16.615 108.546 16.975 108.141 17.015L103.926 17.42C103.926 17.42 103.881 17.42 103.856 17.42L103.851 17.425Z" fill="white"/>
<path d="M96.2307 19.4098C95.9257 19.4098 95.6407 19.2198 95.5357 18.9148C95.4007 18.5298 95.6057 18.1098 95.9907 17.9798L99.9907 16.5948C100.376 16.4648 100.796 16.6648 100.926 17.0498C101.061 17.4348 100.856 17.8548 100.471 17.9848L96.4707 19.3698C96.3907 19.3948 96.3107 19.4098 96.2307 19.4098Z" fill="white"/>
<path d="M88.2559 21.0398C87.9109 21.0398 87.606 20.7998 87.536 20.4498C87.456 20.0498 87.716 19.6648 88.111 19.5848L92.261 18.7498C92.661 18.6698 93.046 18.9298 93.126 19.3248C93.206 19.7248 92.946 20.1098 92.551 20.1898L88.401 21.0248C88.351 21.0348 88.3009 21.0398 88.2559 21.0398Z" fill="white"/>
<path d="M81.3458 24.0951C81.0958 24.0951 80.8558 23.9701 80.7158 23.7401C80.5058 23.3901 80.6158 22.9401 80.9658 22.7301L84.5858 20.5351C84.9358 20.3251 85.3858 20.4351 85.5958 20.7851C85.8058 21.1351 85.6958 21.5851 85.3458 21.7951L81.7258 23.9901C81.6058 24.0601 81.4758 24.0951 81.3458 24.0951Z" fill="white"/>
<path d="M77.8305 30.725C77.7155 30.725 77.6005 30.7 77.4955 30.645C77.1355 30.46 76.9905 30.015 77.1805 29.655L79.1205 25.89C79.3055 25.53 79.7505 25.385 80.1105 25.575C80.4705 25.76 80.6155 26.205 80.4255 26.565L78.4855 30.33C78.3555 30.585 78.0955 30.73 77.8305 30.73V30.725Z" fill="white"/>
<path d="M71.5902 35.7847C71.3552 35.7847 71.1202 35.6697 70.9802 35.4597C70.7502 35.1247 70.8402 34.6647 71.1752 34.4347L74.6852 32.0647C75.0252 31.8347 75.4802 31.9247 75.7102 32.2597C75.9402 32.5947 75.8502 33.0547 75.5152 33.2847L72.0052 35.6547C71.8802 35.7397 71.7352 35.7797 71.5952 35.7797L71.5902 35.7847Z" fill="white"/>
<path d="M64.3656 38.2951C64.0456 38.2951 63.7506 38.0851 63.6556 37.7651C63.5406 37.3751 63.7707 36.9651 64.1607 36.8551L68.2307 35.6801C68.6207 35.5701 69.0306 35.7901 69.1406 36.1851C69.2556 36.5751 69.0257 36.9851 68.6357 37.0951L64.5656 38.2701C64.4956 38.2901 64.4306 38.3001 64.3606 38.3001L64.3656 38.2951Z" fill="white"/>
<path d="M104.03 17.6202C104 17.6202 103.97 17.6202 103.94 17.6202C103.86 17.6202 103.78 17.6052 103.705 17.5852C103.52 17.8202 103.26 17.9802 102.96 18.0302L101.14 18.3452C100.475 18.4602 99.8404 18.0152 99.7254 17.3502C99.6104 16.6852 100.055 16.0502 100.72 15.9352L102.54 15.6202C102.61 15.6102 102.68 15.6002 102.75 15.6002C103 15.6002 103.245 15.6752 103.45 15.8252C103.465 15.8352 103.475 15.8502 103.49 15.8602C103.6 15.8002 103.72 15.7652 103.85 15.7502L105.15 15.6252C104.955 15.2302 104.675 14.8852 104.305 14.6252C103.715 14.2102 103 14.0502 102.295 14.1702L100.475 14.4852C99.0104 14.7402 98.0254 16.1352 98.2804 17.6002C98.5054 18.9102 99.6504 19.8352 100.935 19.8352C101.085 19.8352 101.24 19.8202 101.395 19.7952L103.215 19.4802C103.925 19.3602 104.545 18.9652 104.96 18.3802C105.155 18.1052 105.285 17.8052 105.365 17.4902L104.035 17.6202H104.03Z" fill="white"/>
<path d="M110.87 14.1999C109.81 13.1949 108.125 13.2399 107.12 14.2999C106.795 14.6449 106.59 15.0599 106.485 15.4899L107.7 15.3749C107.76 15.2649 107.835 15.1549 107.925 15.0599C108.23 14.7399 108.64 14.5749 109.05 14.5749C109.435 14.5749 109.815 14.7149 110.115 14.9999C110.735 15.5899 110.76 16.5699 110.175 17.1899C109.59 17.8099 108.605 17.8349 107.985 17.2499C107.98 17.2449 107.975 17.2349 107.97 17.2299L106.71 17.3499C106.84 17.6049 107.005 17.8399 107.225 18.0499C107.735 18.5349 108.395 18.7749 109.05 18.7749C109.755 18.7749 110.455 18.4949 110.975 17.9499C111.98 16.8899 111.935 15.2049 110.875 14.1999H110.87Z" fill="white"/>
<path d="M48.2653 26.9349L44.0303 24.0249L45.1403 29.5449L48.2653 26.9349Z" fill="white" stroke="white" stroke-width="1.5" stroke-miterlimit="10"/>
<path d="M56.7355 27.97L56.8105 22.085L52.9805 26.74L56.7355 27.97Z" fill="white" stroke="white" stroke-width="1.5" stroke-miterlimit="10"/>
<path d="M62.2806 34.9447L65.7606 31.2747L59.6006 30.5547L62.2806 34.9447Z" fill="white" stroke="white" stroke-width="1.5" stroke-miterlimit="10"/>
<path d="M41.7855 32.8701L36.9805 35.1501L42.7155 36.9601L41.7855 32.8701Z" fill="white" stroke="white" stroke-width="1.5" stroke-miterlimit="10"/>
<path d="M44.3155 39.5098L42.4355 43.9498L47.6305 41.6148L44.3155 39.5098Z" fill="white" stroke="white" stroke-width="1.5" stroke-miterlimit="10"/>
<path d="M50.1006 44.6047L52.2656 50.3197L54.4256 44.5547L50.1006 44.6047Z" fill="white" stroke="white" stroke-width="1.5" stroke-miterlimit="10"/>
<path d="M58.1553 43.5599L62.9053 44.6949L60.6753 39.7349L58.1553 43.5599Z" fill="white" stroke="white" stroke-width="1.5" stroke-miterlimit="10"/>
<path d="M58.9701 28.2098C54.7851 24.2448 48.1801 24.4248 44.2201 28.6048C40.2551 32.7898 40.4351 39.3948 44.6151 43.3548C48.8001 47.3198 55.4051 47.1398 59.3651 42.9598C63.3301 38.7748 63.1501 32.1698 58.9701 28.2098ZM45.7301 33.3998C45.9251 33.7998 46.1051 34.2098 46.2401 34.6498C45.5301 33.9148 44.9951 33.0598 44.4901 32.1848C45.5401 31.9648 46.5951 31.7698 47.6751 31.7548C46.8901 32.0948 46.0801 32.3248 45.2551 32.5198C45.4201 32.8098 45.5801 33.0998 45.7301 33.3998ZM53.5601 42.5198C52.8451 41.8048 52.1501 41.0698 51.6251 40.1998C52.0151 40.4398 52.3651 40.7198 52.7001 41.0098C52.9551 41.2298 53.1901 41.4648 53.4251 41.6998C53.8251 40.9498 54.2601 40.2248 54.7901 39.5498C54.5001 40.5898 54.0401 41.5598 53.5601 42.5198ZM56.6551 33.4448C56.5101 32.6048 56.4801 31.7598 56.4851 30.9148C55.7351 31.1348 54.9751 31.3098 54.1851 31.3648C54.9651 30.9098 55.8051 30.6098 56.6651 30.3498L57.0001 30.2498C56.9651 31.3248 56.9001 32.3948 56.6601 33.4448H56.6551Z" fill="white"/>
<path d="M112.135 14.9551L102.775 24.5551L108.275 29.7701L108.41 29.9001L117.5 20.0401L112.135 14.9551Z" fill="white"/>
<path d="M103.851 17.425C103.476 17.425 103.156 17.14 103.121 16.76C103.081 16.355 103.376 15.995 103.781 15.955L107.996 15.55C108.401 15.51 108.761 15.805 108.801 16.21C108.841 16.615 108.546 16.975 108.141 17.015L103.926 17.42C103.926 17.42 103.881 17.42 103.856 17.42L103.851 17.425Z" fill="white"/>
<path d="M110.87 14.1999C109.81 13.1949 108.125 13.2399 107.12 14.2999C106.795 14.6449 106.59 15.0599 106.485 15.4899L107.7 15.3749C107.76 15.2649 107.835 15.1549 107.925 15.0599C108.23 14.7399 108.64 14.5749 109.05 14.5749C109.435 14.5749 109.815 14.7149 110.115 14.9999C110.735 15.5899 110.76 16.5699 110.175 17.1899C109.59 17.8099 108.605 17.8349 107.985 17.2499C107.98 17.2449 107.975 17.2349 107.97 17.2299L106.71 17.3499C106.84 17.6049 107.005 17.8399 107.225 18.0499C107.735 18.5349 108.395 18.7749 109.05 18.7749C109.755 18.7749 110.455 18.4949 110.975 17.9499C111.98 16.8899 111.935 15.2049 110.875 14.1999H110.87Z" fill="white"/>
<path d="M99.9251 16.4051C99.9251 16.4051 99.9551 16.4001 99.9701 16.3951C100.15 16.1651 100.41 15.9951 100.72 15.9401L102.54 15.6251C102.61 15.6151 102.68 15.6051 102.75 15.6051C103 15.6051 103.245 15.6801 103.45 15.8301C103.465 15.8401 103.475 15.8551 103.49 15.8651C103.6 15.8051 103.72 15.7701 103.85 15.7551L105.15 15.6301C104.955 15.2351 104.675 14.8901 104.305 14.6301C103.715 14.2151 103 14.0551 102.295 14.1751L100.475 14.4901C99.2201 14.7051 98.3201 15.7651 98.2451 16.9851L99.9301 16.4051H99.9251Z" fill="white"/>
<path d="M104.03 17.6199C104 17.6199 103.97 17.6199 103.94 17.6199C103.86 17.6199 103.78 17.6049 103.705 17.5849C103.52 17.8199 103.26 17.9799 102.96 18.0299L101.14 18.3449C100.87 18.3899 100.61 18.3449 100.38 18.2249L98.7949 18.7699C99.2949 19.4199 100.075 19.8299 100.925 19.8299C101.075 19.8299 101.23 19.8149 101.385 19.7899L103.205 19.4749C103.915 19.3549 104.535 18.9599 104.95 18.3749C105.145 18.0999 105.275 17.7999 105.355 17.4849L104.025 17.6149L104.03 17.6199Z" fill="white"/>
<path d="M92.2205 18.5548C92.3055 18.5398 92.3905 18.5348 92.4755 18.5448C92.6505 18.3498 92.8855 18.2098 93.1655 18.1598L94.9855 17.8448C95.0555 17.8348 95.1255 17.8248 95.1955 17.8248C95.3655 17.8248 95.5255 17.8648 95.6755 17.9248C95.7505 17.8698 95.8305 17.8198 95.9255 17.7848L97.2655 17.3198C96.6655 16.6048 95.7155 16.2148 94.7405 16.3848L92.9155 16.6998C91.7805 16.8948 90.9405 17.7798 90.7305 18.8448L92.2205 18.5448V18.5548Z" fill="white"/>
<path d="M96.5352 19.5597C96.4502 19.5897 96.3652 19.5997 96.2752 19.6047C96.1052 19.9347 95.7952 20.1847 95.4002 20.2547L93.5802 20.5697C93.2452 20.6297 92.9202 20.5497 92.6702 20.3697C92.6452 20.3797 92.6202 20.3897 92.5902 20.3947L91.0352 20.7047C91.5102 21.5297 92.3952 22.0597 93.3702 22.0597C93.5202 22.0597 93.6752 22.0447 93.8302 22.0197L95.6502 21.7047C96.3602 21.5797 96.9802 21.1897 97.3952 20.5997C97.7102 20.1497 97.8752 19.6297 97.8852 19.0947L96.5352 19.5597Z" fill="white"/>
<path d="M88.6003 21.19C88.4253 21.485 88.1303 21.705 87.7653 21.77L85.9453 22.085C85.7353 22.125 85.5253 22.1 85.3403 22.03L83.9453 22.875C84.4303 23.31 85.0653 23.57 85.7403 23.57C85.8903 23.57 86.0453 23.555 86.2003 23.53L88.0203 23.215C89.2303 23.005 90.1103 22.02 90.2403 20.855L88.6053 21.185L88.6003 21.19Z" fill="white"/>
<path d="M84.4805 20.3601C84.5455 20.3201 84.6155 20.2951 84.6805 20.2701C84.8555 19.9651 85.1555 19.7401 85.5255 19.6751L87.3455 19.3601C87.4155 19.3501 87.4855 19.3401 87.5555 19.3401C87.7005 19.3401 87.8405 19.3651 87.9705 19.4151C88.0055 19.4051 88.0355 19.3901 88.0705 19.3851L89.7755 19.0451C89.1955 18.2051 88.1655 17.7251 87.0955 17.9101L85.2755 18.2251C83.8505 18.4701 82.8855 19.8001 83.0655 21.2201L84.4805 20.3651V20.3601Z" fill="white"/>
<path d="M83.4557 23.3796C83.4407 23.3196 83.4157 23.2646 83.4007 23.2046L82.0357 24.0296C82.0207 24.2346 81.9607 24.4296 81.8507 24.6046L80.8457 26.1596C80.8007 26.2296 80.7507 26.2946 80.6907 26.3496C80.6757 26.4546 80.6457 26.5546 80.5957 26.6546L79.8057 28.1896C79.8057 28.1896 79.8057 28.1896 79.8107 28.1896C80.6957 28.1896 81.5657 27.7546 82.0807 26.9596L83.0857 25.4046C83.4757 24.7996 83.6057 24.0796 83.4557 23.3746V23.3796Z" fill="white"/>
<path d="M78.0504 27.5147L78.7704 26.1147C78.5454 25.7297 78.5304 25.2347 78.7904 24.8347L79.7954 23.2797C79.9704 23.0047 80.2454 22.8197 80.5654 22.7497C80.5904 22.7447 80.6154 22.7497 80.6404 22.7397C80.7004 22.6697 80.7704 22.6047 80.8554 22.5547L82.2904 21.6847C82.2904 21.6847 82.2904 21.6847 82.2854 21.6797C81.6804 21.2897 80.9604 21.1597 80.2554 21.3097C79.5504 21.4597 78.9504 21.8747 78.5604 22.4797L77.5554 24.0347C76.8204 25.1697 77.0604 26.6497 78.0504 27.5147Z" fill="white"/>
<path d="M74.5102 31.945C74.5252 31.655 74.6352 31.385 74.8352 31.175L76.1052 29.835C76.3452 29.58 76.6702 29.455 76.9952 29.455C77.0152 29.455 77.0302 29.455 77.0502 29.455L77.7502 28.095C76.8102 27.82 75.7602 28.06 75.0402 28.815L73.7702 30.155C73.2752 30.68 73.0153 31.36 73.0353 32.08C73.0403 32.345 73.1002 32.595 73.1802 32.84L74.5152 31.935L74.5102 31.945Z" fill="white"/>
<path d="M79.2707 29.2402L78.6657 30.4202C78.5657 30.6152 78.4007 30.7552 78.2107 30.8402C78.1757 31.0902 78.0707 31.3252 77.8907 31.5152L76.6207 32.8602C76.4157 33.0802 76.1407 33.2002 75.8607 33.2302C75.8007 33.3152 75.7207 33.3952 75.6307 33.4602L74.3457 34.3302C74.7707 34.5852 75.2507 34.7202 75.7307 34.7202C76.4457 34.7202 77.1557 34.4402 77.6857 33.8802L78.9557 32.5352C79.4507 32.0152 79.7107 31.3302 79.6957 30.6102C79.6807 30.1202 79.5307 29.6552 79.2757 29.2502L79.2707 29.2402Z" fill="white"/>
<path d="M64.83 38.3999C64.83 38.3999 64.795 38.4449 64.775 38.4699C64.355 38.9099 63.65 38.9349 63.21 38.5099C62.765 38.0899 62.75 37.3849 63.17 36.9399C63.385 36.7099 63.68 36.5949 63.975 36.5949C64.055 36.5949 64.135 36.6049 64.215 36.6249L65.605 36.2249C65.565 36.1849 65.535 36.1349 65.495 36.0999C64.61 35.2599 63.205 35.2999 62.365 36.1849C61.525 37.0699 61.565 38.4749 62.45 39.3149C62.875 39.7199 63.425 39.9199 63.97 39.9199C64.555 39.9199 65.145 39.6899 65.575 39.2299C65.905 38.8849 66.095 38.4599 66.155 38.0199L64.825 38.4049L64.83 38.3999Z" fill="white"/>
<path d="M68.0955 35.5749C68.2205 35.3449 68.4155 35.1599 68.6605 35.0499L70.3455 34.2949C70.5055 34.2199 70.6755 34.1899 70.8455 34.1899C70.9605 34.1899 71.0755 34.2049 71.1805 34.2399L72.5405 33.3199C71.7755 32.7049 70.7005 32.5249 69.7455 32.9549L68.0605 33.7099C67.4055 34.0049 66.9005 34.5349 66.6455 35.2099C66.5405 35.4799 66.4955 35.7649 66.4805 36.0449L68.0955 35.5799V35.5749Z" fill="white"/>
<path d="M73.5008 34.9297L72.0408 35.9147C72.0058 35.9397 71.9658 35.9497 71.9308 35.9697C71.8058 36.2047 71.6158 36.4047 71.3508 36.5247L69.6658 37.2797C69.3758 37.4097 69.0608 37.4197 68.7608 37.3147C68.7158 37.3347 68.6658 37.3597 68.6158 37.3747L67.0508 37.8247C67.3508 38.2047 67.7408 38.5047 68.2058 38.6847C68.5158 38.8047 68.8408 38.8647 69.1658 38.8647C69.5408 38.8647 69.9158 38.7847 70.2658 38.6247L71.9508 37.8697C73.1008 37.3547 73.7108 36.1247 73.4958 34.9347L73.5008 34.9297Z" fill="white"/>
<path d="M102.987 26.5L74.0723 55.695L78.6023 59.99L106.202 29.55L102.987 26.5Z" fill="white"/>
</svg>
