<svg width="128" height="128" viewBox="0 0 128 128" fill="none" xmlns="http://www.w3.org/2000/svg">
<path d="M112.241 9C112.241 9 99.8963 33.09 57.9913 65.025L37.7363 78.86C39.6763 79.925 42.2363 81.985 42.7163 85.555L43.1663 85.87L52.4313 79.575L69.1513 68.21C69.1513 68.21 115.056 36.27 117.381 24.645C119.711 13.025 112.241 9 112.241 9ZM113.856 22.055C110.206 37.6 79.5713 56.615 66.6113 66.605C61.8113 70.135 56.9563 73.615 52.4113 77.475C51.2913 78.45 50.1863 79.455 49.2463 80.61C48.9713 80.98 48.6113 81.405 48.5663 81.855L48.4763 81.89C48.4563 81.58 48.6063 81.38 48.7213 81.155C49.1113 80.51 49.6113 79.945 50.1263 79.4C52.1913 77.235 54.5413 75.37 56.8613 73.495C66.1963 66.06 75.9663 59.175 85.3713 51.845C94.0713 44.76 109.506 32.61 113.411 21.95C113.921 20.065 113.946 18.025 113.276 16.155L113.366 16.12C114.191 17.955 114.266 20.08 113.856 22.055Z" fill="white"/>
<path fill-rule="evenodd" clip-rule="evenodd" d="M31.5351 82.6806C29.9961 83.6864 28.238 84.8953 26.4073 86.2695C28.4542 87.2732 29.666 89.0419 30.3719 90.6106C30.7838 91.526 31.0306 92.3878 31.1747 93.0203C31.1846 93.0638 31.194 93.1062 31.203 93.1476C33.2116 91.732 34.8562 90.5891 36.2026 89.6671L36.1957 89.6204L36.1897 89.5819C36.1639 89.4181 36.1213 89.1796 36.0547 88.8873C35.9213 88.3015 35.6931 87.5061 35.315 86.6659C34.629 85.1415 33.473 83.5165 31.5351 82.6806ZM20.3506 91.304C22.031 89.7399 23.7858 88.2822 25.4989 86.9607C27.5463 87.7714 28.7529 89.4496 29.46 91.0209C29.838 91.8611 30.0662 92.6565 30.1997 93.2423C30.2473 93.4513 30.2826 93.6328 30.3084 93.7792L30.201 93.8551C28.5675 95.2627 27.2029 96.5612 26.0644 97.7544C26.0428 97.6769 26.0186 97.5937 25.9916 97.5055C25.8247 96.9612 25.5475 96.2192 25.1045 95.4247C24.2601 93.9103 22.8017 92.1873 20.3506 91.304ZM19.7623 91.859C18.1129 93.4363 16.5502 95.115 15.1879 96.8657C17.0794 97.3304 18.7536 98.4998 20.0477 99.675C21.0153 100.554 21.8001 101.462 22.3424 102.149C22.3718 102.186 22.4004 102.223 22.4283 102.259C23.1241 101.176 24.0589 99.9479 25.3078 98.568C25.2324 98.5803 25.2325 98.5804 25.2325 98.5805L25.2323 98.5798L25.231 98.572C25.2296 98.5644 25.2274 98.5519 25.2241 98.5349C25.2176 98.5009 25.207 98.4488 25.1916 98.3807C25.1609 98.2444 25.1109 98.0447 25.0355 97.7986C24.8844 97.3056 24.6325 96.6316 24.2311 95.9117C23.4291 94.4732 22.0427 92.8709 19.677 92.1324L19.7623 91.859ZM11.071 104.2C11.8007 101.989 13.012 99.8224 14.5233 97.7479C16.3362 98.0662 18.0113 99.1765 19.3754 100.415C20.291 101.247 21.0384 102.111 21.5574 102.769C21.6747 102.917 21.7801 103.055 21.873 103.179C21.1625 104.442 20.7995 105.475 20.6315 106.292C20.5475 106.226 20.4532 106.154 20.3484 106.08C19.8279 105.711 19.048 105.264 17.9922 104.932C16.2991 104.4 13.9281 104.173 10.8222 104.995C10.8992 104.734 10.982 104.47 11.071 104.2ZM10.519 106.119C9.70486 109.47 9.92604 111.978 10.6472 113.851C11.4583 112.227 12.4546 111.082 13.543 110.302C14.9647 109.282 16.5051 108.911 17.91 108.865C19.1616 108.823 20.3131 109.039 21.1981 109.286C21.0576 109.096 20.9071 108.902 20.746 108.705C20.746 108.705 20.4856 108.263 20.5073 107.332C20.4013 107.426 20.4015 107.426 20.4016 107.427L20.3984 107.423C20.3939 107.418 20.3859 107.41 20.3742 107.398C20.3509 107.374 20.3132 107.337 20.2608 107.289C20.1561 107.192 19.9931 107.054 19.7698 106.896C19.3234 106.579 18.6364 106.183 17.6923 105.886C16.0998 105.385 13.7398 105.156 10.519 106.119ZM14.316 118.11C13.2382 117.479 12.0596 116.506 11.2068 115.026C12.0143 113.119 13.0425 111.891 14.1257 111.115C15.3538 110.234 16.6912 109.906 17.9432 109.864C19.1992 109.823 20.3597 110.07 21.209 110.332C21.5489 110.436 21.8363 110.542 22.0568 110.631C23.2421 112.846 22.9802 114.561 22.1414 115.854C22.1645 115.53 22.1121 115.205 21.9607 114.897C21.6134 114.19 20.8767 113.841 20.0984 113.76C19.3121 113.679 18.4023 113.855 17.5396 114.279C16.6768 114.703 15.982 115.316 15.5665 115.988C15.1552 116.654 14.9815 117.451 15.3288 118.157C15.4277 118.358 15.5582 118.53 15.7123 118.676C15.228 118.558 14.7573 118.369 14.316 118.11ZM32.5182 82.0462C34.411 83.0678 35.551 84.7533 36.2269 86.2555C36.6389 87.171 36.8857 88.0327 37.0297 88.6652C37.0614 88.8042 37.0881 88.9324 37.1106 89.048C39.8935 87.1594 41.1781 86.3762 41.766 86.0651C41.451 82.3201 38.646 80.3601 36.811 79.4751H36.806C36.2948 79.7581 34.6954 80.659 32.5182 82.0462ZM30.866 86.3201C31.4072 86.3201 31.846 85.8813 31.846 85.3401C31.846 84.7989 31.4072 84.3601 30.866 84.3601C30.3247 84.3601 29.886 84.7989 29.886 85.3401C29.886 85.8813 30.3247 86.3201 30.866 86.3201ZM20.2659 95.0801C20.2659 95.6213 19.8272 96.0601 19.2859 96.0601C18.7447 96.0601 18.3059 95.6213 18.3059 95.0801C18.3059 94.5389 18.7447 94.1001 19.2859 94.1001C19.8272 94.1001 20.2659 94.5389 20.2659 95.0801ZM13.4159 108.845C13.9572 108.845 14.3959 108.406 14.3959 107.865C14.3959 107.324 13.9572 106.885 13.4159 106.885C12.8747 106.885 12.4359 107.324 12.4359 107.865C12.4359 108.406 12.8747 108.845 13.4159 108.845ZM16.2262 117.716C16.085 117.429 16.1109 117.01 16.4172 116.514C16.7193 116.025 17.26 115.531 17.9808 115.176C18.7016 114.822 19.4234 114.696 19.9951 114.755C20.5746 114.815 20.9221 115.051 21.0633 115.338C21.2045 115.625 21.1786 116.044 20.8723 116.54C20.5703 117.029 20.0295 117.523 19.3088 117.877C18.588 118.232 17.8661 118.358 17.2945 118.299C16.7149 118.238 16.3674 118.003 16.2262 117.716Z" fill="white"/>
</svg>
