<svg width="128" height="128" viewBox="0 0 128 128" fill="none" xmlns="http://www.w3.org/2000/svg">
<path d="M22.0155 111.72C21.9605 111.72 21.9055 111.72 21.8505 111.715C20.9605 111.655 20.1805 111.16 19.7655 110.395C19.3805 109.69 19.3605 108.84 19.6805 107.955C18.8505 107.53 16.9755 106.81 15.1955 107.76C13.2105 108.82 12.1855 110.96 12.1855 110.96C12.1855 110.96 14.4005 109.455 17.7355 111.455C17.7355 111.455 19.3905 113.775 18.2255 118.15C19.9655 117.15 23.0105 114.875 22.4655 111.675C22.3205 111.7 22.1655 111.72 22.0105 111.72H22.0155Z" fill="white"/>
<path d="M41.7209 96.5603C41.7209 96.5603 41.7259 96.5703 41.7309 96.5753C43.1159 95.9353 43.6359 95.1304 43.8209 94.6354C43.7909 94.6054 43.7609 94.5754 43.7309 94.5354C43.3909 94.0904 43.3859 93.5253 43.3859 93.4753C42.6359 90.9353 40.8359 89.4954 40.0009 88.9454L39.9809 88.9704C39.9809 88.9704 38.8209 88.9004 38.3559 88.2354C38.0959 88.8304 37.4859 89.6603 36.0759 90.3103C36.1909 90.6003 36.0959 91.0253 36.2259 91.4353C36.3659 91.8703 36.9909 92.8854 37.1709 93.1904C37.1709 93.1904 35.2309 94.1303 33.0009 95.9753C30.0809 98.3953 26.5009 102.055 24.5009 104.04C23.5059 105.025 22.8909 106.86 22.8909 106.86L22.7559 106.98C23.2659 107.63 23.7209 108.1 24.0909 108.435L24.2809 108.275C24.2809 108.275 25.3959 108.705 27.3909 107.095C29.2359 105.61 33.7809 101.92 36.6459 98.9653C38.4709 97.0803 39.3109 95.2604 39.3109 95.2604L40.9459 96.1003C40.9459 96.1003 41.4259 96.1804 41.7159 96.5654L41.7209 96.5603ZM26.3359 107.315C25.9459 106.24 25.7809 105.3 24.5709 104.765C26.0709 104.185 27.0809 106.115 26.3359 107.315ZM28.2409 105.68C27.8509 104.535 27.6559 103.515 26.3759 102.975C27.9409 102.4 28.9909 104.42 28.2409 105.68ZM29.8459 104.23C29.3609 103.11 29.1409 102.045 27.9409 101.395C29.4709 100.97 30.4759 102.99 29.8459 104.23ZM31.6809 102.62C31.1959 101.5 30.9759 100.435 29.7759 99.7854C31.3059 99.3604 32.3109 101.38 31.6809 102.62ZM33.4709 100.89C32.9859 99.7704 32.7659 98.7054 31.5659 98.0554C33.0959 97.6304 34.1009 99.6504 33.4709 100.89ZM35.2009 99.3704C34.7159 98.2504 34.4959 97.1854 33.2959 96.5354C34.8259 96.1104 35.8309 98.1304 35.2009 99.3704ZM36.9159 97.3004C36.7709 97.7954 36.7509 97.8103 36.5709 97.3253C36.2159 96.4553 35.9759 95.7954 35.0759 95.2454C35.6709 94.9954 36.4009 95.3804 36.7159 95.9454C36.9609 96.3654 36.9959 96.8404 36.9159 97.3004Z" fill="white"/>
<path d="M42.8659 97.8854C44.3309 97.2104 44.8259 96.3654 44.9909 95.8754C44.8909 95.6104 44.9459 95.3004 44.7859 95.1404C44.5859 94.9454 44.4259 94.9004 44.2709 94.8604C44.0259 95.4704 43.4159 96.3653 41.8809 97.0603C41.9209 97.2503 41.9659 97.4453 42.0959 97.5753C42.2759 97.7603 42.6809 97.6254 42.8359 97.8304C42.8459 97.8454 42.8559 97.8704 42.8659 97.8854Z" fill="white"/>
<path d="M20.1211 108.205C19.8811 108.92 19.9061 109.6 20.2061 110.155C20.5411 110.77 21.1661 111.165 21.8861 111.215C22.0511 111.225 22.2111 111.21 22.3661 111.18C22.3661 111.17 22.3661 111.16 22.3611 111.15C22.3611 111.15 23.0661 111.16 23.6361 110.35C24.1661 109.6 23.6761 108.785 23.6761 108.785L23.7111 108.755C23.3311 108.405 22.8811 107.94 22.3861 107.3L22.2961 107.38C22.2961 107.38 21.5411 107.065 20.8911 107.525C20.2411 107.99 20.1261 108.195 20.1261 108.195L20.1211 108.205Z" fill="white"/>
<path d="M34.6603 89.13C34.7203 89.345 34.7703 89.575 34.8653 89.715C35.0303 89.955 35.3303 89.92 35.6103 89.975C37.9803 88.985 38.0503 87.525 38.0503 87.46H38.1253C38.0953 87.245 38.0653 87.045 37.9603 86.945C37.7953 86.79 37.5553 86.765 37.3153 86.625C37.1303 87.24 36.5403 88.335 34.6553 89.125L34.6603 89.13Z" fill="white"/>
<path d="M32.1349 84.7202C32.2699 85.1852 32.1049 85.9452 32.2349 86.5452C32.2899 86.7952 32.4549 87.2052 32.9649 87.7602C33.2999 88.1252 33.975 88.2052 34.435 88.6802C36.575 87.7952 36.86 86.5352 36.895 86.2252C36.465 85.6402 36.3549 84.9452 35.6899 84.3602C35.0999 83.8402 33.5699 83.8352 33.1199 83.4602C32.8799 83.2602 32.8149 83.0652 32.6049 82.9052C32.3399 82.7002 31.7449 82.5752 31.7449 82.5752L31.1799 83.0202C31.1799 83.0202 31.1599 83.6552 31.4699 84.0552C31.6649 84.3102 31.9999 84.2752 32.1299 84.7152L32.1349 84.7202Z" fill="white"/>
<path d="M48.2707 100.29C48.0207 99.79 48.2207 99.23 47.9857 98.64C47.7057 97.925 46.9757 97.2 46.4907 96.93C46.1257 96.73 45.6807 96.535 45.3557 96.29C45.0857 96.885 44.4707 97.685 43.0957 98.325C43.2257 98.645 43.3207 98.985 43.4307 99.215C43.7957 99.985 44.5157 100.875 45.4357 101.205C46.1557 101.465 46.4257 101.26 46.9807 101.555C47.6707 101.92 47.1457 102.675 48.0807 102.945C48.8307 103.165 49.7207 102.365 49.5307 101.67C49.3407 100.975 48.7707 101.285 48.2757 100.285L48.2707 100.29Z" fill="white"/>
<path d="M94.5304 24.635C94.5304 24.635 86.6004 26.015 85.7854 31.295C85.7854 31.295 87.5554 29.925 88.1054 30.115C88.6454 30.3 89.0304 30.465 88.7654 31.15C88.0604 32.975 85.7954 33.43 85.7954 33.43C85.7954 33.43 82.2054 34.055 80.3904 39.46C80.3904 39.46 83.3454 37.31 83.9354 38.03C84.8404 39.13 83.6004 40.35 82.4004 41.25C81.2004 42.15 77.1504 42.345 75.3154 47.19C75.3154 47.19 78.1654 44.895 78.6704 46.57C79.1754 48.245 75.4854 49.21 75.4854 49.21C75.4854 49.21 71.4254 50.37 70.8254 53.555C70.8254 53.555 72.7904 52.535 72.5854 53.795C72.3804 55.055 70.7204 54.785 69.5354 55.44C68.3504 56.09 67.2954 56.815 66.9354 58.6C66.9354 58.6 68.7404 57.4 68.7604 58.65C68.7804 59.905 65.1004 60.415 65.1004 60.415L52.9304 75.14L40.6904 88.21C41.6404 88.86 43.3354 90.305 44.1954 92.76L56.9404 81.67C56.9404 81.67 103.97 40.115 115.81 13.145C115.81 13.145 107.725 21.225 94.5304 24.64V24.635ZM89.7954 32.405C90.5654 31.82 91.7354 30.915 91.2854 29.87C90.6504 28.975 89.2904 29 88.2204 28.8C89.4004 28.48 91.1004 28.315 91.8954 29.545C92.3654 30.51 91.8354 31.495 91.0854 32.075C90.1054 32.845 88.9604 33.445 87.7404 33.67C88.4854 33.325 89.1554 32.88 89.7954 32.405ZM86.3254 38.41C86.7304 37.845 86.8604 37.08 86.4704 36.58C85.6454 35.87 84.3404 36.21 83.2554 36.26C84.3204 35.645 85.9454 35.07 87.0204 36.09C87.7004 36.865 87.4454 38.04 86.8404 38.765C86.0704 39.745 85.0954 40.6 83.9554 41.105C84.8854 40.325 85.6804 39.42 86.3254 38.415V38.41ZM79.9054 48.055C80.5654 47.355 81.5904 46.425 81.1054 45.42C80.4154 44.625 79.0854 44.87 78.0404 44.805C79.1304 44.295 80.8304 43.845 81.7354 45.03C82.2754 45.88 81.7754 47.03 81.1504 47.61C80.2854 48.475 79.2504 49.21 78.0904 49.59C78.7604 49.145 79.3504 48.615 79.9054 48.065V48.055ZM76.1754 51.74C76.6554 52.555 76.2054 53.475 75.6654 53.995C74.9154 54.73 74.0254 55.35 73.0204 55.65C73.8454 55.055 74.5704 54.36 75.1954 53.585C75.3854 53.335 75.5854 53.065 75.6054 52.845C75.9104 51.385 73.9654 51.69 72.9804 51.575C73.9104 51.095 75.3854 50.695 76.1754 51.735V51.74ZM69.7304 59.525C70.1754 58.99 70.8004 58.47 70.8904 57.77C70.9054 57.57 70.9204 57.415 70.7704 57.3C70.1704 56.995 69.4354 57.16 68.6704 57.135C70.8254 55.59 72.8754 57.14 70.7804 59.24C70.0804 59.905 69.2804 60.485 68.3704 60.815C68.8654 60.415 69.3004 59.97 69.7304 59.525ZM62.0154 73.635C59.5654 75.83 57.1604 78.085 54.9304 80.505C53.8354 81.725 52.7254 82.965 51.9604 84.415L51.8804 84.375C52.6304 82.89 53.7204 81.625 54.8004 80.38C58.0754 76.665 61.8054 73.395 65.3854 69.99C79.6304 56.33 91.4504 40.035 103.775 24.905C91.7254 42.595 77.9804 59.32 62.0204 73.63L62.0154 73.635Z" fill="white"/>
</svg>
