<svg width="128" height="128" viewBox="0 0 128 128" fill="none" xmlns="http://www.w3.org/2000/svg">
<path d="M25.5097 91.9948L11.5447 108.27C10.7197 109.23 10.8297 110.675 11.7897 111.5L15.9847 115.1L16.2697 119.27C16.3997 120.535 17.7997 122.06 19.0497 121.815C20.8547 121.46 22.2097 119.69 21.9547 117.975C21.6997 116.26 20.7597 115.895 20.6547 114.635C20.5497 113.375 21.4447 111.795 21.4447 111.795C21.4447 111.795 23.4597 109.79 26.3097 106.76C28.2997 104.645 32.5947 99.7048 33.6647 96.7448C33.9097 96.0598 34.2047 95.4498 34.5197 94.9098C32.8147 94.6648 28.7797 93.9197 25.5047 91.9897L25.5097 91.9948ZM19.6897 119.325C19.3547 119.72 18.7597 119.765 18.3697 119.425C17.9747 119.09 17.9297 118.495 18.2697 118.105C18.6047 117.71 19.1997 117.665 19.5897 118.005C19.9847 118.34 20.0297 118.935 19.6897 119.325Z" fill="white"/>
<path d="M27.9798 89.1147L25.8398 91.6097C29.1798 93.5497 33.3098 94.2497 34.8098 94.4497C35.5748 93.2747 36.4048 92.4797 36.9548 92.0297C35.2298 91.7797 31.2298 91.0297 27.9798 89.1147Z" fill="white"/>
<path d="M33.5145 82.6697L28.3145 88.7297C31.8645 90.7947 37.5845 91.5697 37.5845 91.5697C41.0695 91.8047 42.5845 91.4197 43.2095 91.1297C43.4295 91.0297 43.4645 90.7347 43.2845 90.5797L34.1445 82.6197C33.9595 82.4597 33.6745 82.4797 33.5145 82.6647V82.6697Z" fill="white"/>
<path d="M120.41 23.7548C120.41 23.7548 107.605 48.6298 77.98 65.5298L49.575 84.9348C49.335 82.0498 50.865 79.2898 52.51 77.0198C58.025 69.7098 66.51 65.7548 74.23 61.2598C89.37 51.6198 101.845 38.2998 112.675 24.0448L112.065 23.5248C108.565 28.2398 104.83 32.7848 100.94 37.1748C91.62 47.5748 81.23 56.9748 68.825 63.5898C62.74 66.9998 56.68 71.3198 52.44 76.9698C50.81 79.2598 49.3 82.0498 49.57 84.9398L43.34 89.1948L34.875 81.9348L99.9 6.15479L115.155 19.2448V19.2498L115.825 19.8198L116.03 19.9948L118.155 21.8198L120.415 23.7548H120.41Z" fill="white"/>
</svg>
