<svg width="128" height="128" viewBox="0 0 128 128" fill="none" xmlns="http://www.w3.org/2000/svg">
<path d="M48.2149 88.1604C48.2149 88.1604 48.3849 87.1254 46.2499 84.8704C44.6649 83.2004 43.9949 84.1104 43.9949 84.1104C43.9949 84.1104 42.5949 82.5704 41.7049 83.4154C40.9549 84.1304 42.0749 85.8204 42.0749 85.8204C42.0749 85.8204 42.1649 85.9704 42.4449 86.3104C42.4749 86.2704 42.5049 86.2454 42.5299 86.2254C42.8449 85.9704 43.1699 85.8754 43.4899 85.8954C43.2999 85.4904 43.2249 85.1404 43.2949 84.8604C43.3049 84.8254 43.3149 84.8054 43.3299 84.7754C43.2899 84.7354 43.2599 84.6804 43.2199 84.6404C42.8699 84.2854 42.4649 83.7604 41.9399 83.7304C41.7349 83.7404 41.6399 84.0004 41.6049 84.2154C41.6049 83.9854 41.6449 83.6854 41.9099 83.6054C42.5399 83.5154 43.0449 83.9854 43.5249 84.3104C43.5649 84.3454 43.6099 84.3754 43.6549 84.4054C43.6799 84.3954 43.7049 84.3854 43.7299 84.3804C44.2549 84.2904 44.7649 84.5204 45.2099 84.7654C46.5049 85.6754 47.4499 87.1654 47.8399 88.7004C48.8549 89.5254 50.1199 90.4904 50.1699 91.9054C50.1649 92.1054 50.0849 92.3154 49.9199 92.4254C50.6599 91.3854 48.5949 89.7004 47.6699 89.0354C47.4449 88.9154 47.1999 88.7904 46.9549 88.6904C47.1599 88.9704 47.3399 89.2304 47.4649 89.4404C47.7849 89.9754 47.8949 90.4554 47.7849 90.8754C47.7299 91.0854 47.6299 91.2404 47.5349 91.3454C48.2899 92.0704 49.9249 93.3754 50.6049 91.8104C51.2949 90.2254 48.2199 88.1504 48.2199 88.1504L48.2149 88.1604Z" fill="white"/>
<path d="M46.5595 88.2003C46.8495 88.2653 47.1095 88.3703 47.3645 88.4953C46.9645 87.4253 46.2145 86.5303 45.4995 85.6503C45.0795 85.2303 44.4595 84.8303 43.8495 84.8503C43.8495 84.8503 43.7945 84.8953 43.7745 85.0053C43.7495 85.1503 43.7745 85.4703 44.1495 86.0703C44.5745 86.2653 45.0045 86.5953 45.4145 86.9403C45.7045 87.1803 46.1445 87.6803 46.5545 88.2003H46.5595Z" fill="white"/>
<path d="M118.72 15.0801L45.9502 83.9801C46.1052 84.0951 46.2602 84.2201 46.4202 84.3651C47.2402 85.1101 47.7302 85.9001 48.0852 86.4801C48.1552 86.5901 48.2152 86.6951 48.2802 86.7901C48.5952 87.2751 48.6752 87.7201 48.6952 87.9301L49.3202 88.4701L114.82 26.3001C114.82 26.3001 120.265 20.4401 118.72 15.0801ZM112.5 24.9201C110.51 27.7951 104.1 33.5851 101.56 36.1301C91.3602 45.7701 66.4552 69.2551 55.8752 78.9201C70.3102 65.1401 94.2952 41.7201 108.685 28.4901C111.165 26.1151 113.555 23.4951 115.09 20.3901L115.16 20.4201C114.495 22.0351 113.54 23.5201 112.5 24.9201Z" fill="white"/>
<path d="M45.47 92.2749C45.47 92.2749 46.475 92.0399 47.045 91.3349C47.345 90.4649 45.485 88.4199 45.485 88.4199C45.485 88.4199 43.925 86.6649 42.75 86.6699C42.75 86.6699 41.87 87.3999 41.54 88.1399C42.12 88.2299 45.585 91.6449 45.465 92.2749H45.47Z" fill="white"/>
<path d="M27.2598 101.8C27.3998 102.2 27.5148 102.605 27.6148 103.005C28.3098 102.935 28.9598 103.09 29.3698 103.24C29.2448 102.32 29.0398 101.355 28.7248 100.405L27.2598 101.805V101.8Z" fill="white"/>
<path d="M29.5203 107.335C29.5403 106.955 29.5603 106.505 29.5553 106C29.2553 105.865 28.6703 105.665 28.0703 105.72C28.1703 106.84 28.1703 107.85 28.1353 108.64L29.5203 107.335Z" fill="white"/>
<path d="M32.9704 104.085C33.0104 103.63 33.0604 102.935 33.0554 102.1C32.7754 101.975 32.2454 101.79 31.6904 101.81C31.8604 103.035 31.9004 104.18 31.8804 105.11L32.9654 104.085H32.9704Z" fill="white"/>
<path d="M27.5999 109.145C27.6999 107.655 27.7199 104.865 26.8599 102.185L25.5449 103.44C26.3949 106.115 26.3899 108.84 26.2899 110.38L27.5999 109.145Z" fill="white"/>
<path d="M31.36 105.6C31.425 103.935 31.34 101.265 30.44 98.7646L29.125 100.02C30.015 102.53 30.115 105.15 30.05 106.835L31.36 105.6Z" fill="white"/>
<path d="M30.835 98.3848C30.925 98.6248 31.01 98.8598 31.09 99.0998C31.795 99.0198 32.46 99.1798 32.875 99.3298C32.77 98.5498 32.605 97.7348 32.365 96.9248L30.835 98.3848Z" fill="white"/>
<path d="M33.0505 101.555C33.0355 101.04 33.0055 100.48 32.9405 99.8998C32.6605 99.7798 31.9705 99.5348 31.2305 99.5948C31.3955 100.175 31.5205 100.75 31.6155 101.315C32.1705 101.285 32.6905 101.42 33.0455 101.555H33.0505Z" fill="white"/>
<path d="M29.5505 105.46C29.5355 104.945 29.5055 104.385 29.4405 103.805C29.1605 103.685 28.4705 103.44 27.7305 103.5C27.8605 104.09 27.9505 104.67 28.0155 105.23C28.6055 105.175 29.1705 105.32 29.5455 105.465L29.5505 105.46Z" fill="white"/>
<path d="M25.745 110.895C25.785 110.44 25.825 109.78 25.825 108.985C25.545 108.86 25.015 108.675 24.46 108.695C24.63 109.895 24.665 111.01 24.65 111.925L25.74 110.895H25.745Z" fill="white"/>
<path d="M16.0352 112.525C16.5352 112.885 17.0152 113.295 17.3502 113.625C17.5002 113.775 17.7102 114 17.9402 114.26C17.9402 113.6 17.8752 112.41 17.5702 111.065L16.0402 112.525H16.0352Z" fill="white"/>
<path d="M22.2853 114.15C22.3053 113.785 22.3203 113.36 22.3203 112.885C21.9953 112.74 21.3503 112.51 20.7053 112.615L20.6253 112.12C21.2703 112.02 21.9003 112.19 22.3103 112.345C22.2953 111.83 22.2653 111.27 22.2003 110.69C21.8953 110.56 21.1203 110.28 20.3203 110.4C20.7703 112.37 20.8153 114.27 20.7603 115.585L22.2803 114.15H22.2853Z" fill="white"/>
<path d="M19.4804 109.23L17.9854 110.655C18.5354 112.815 18.4304 114.645 18.4204 114.825C18.8254 115.31 19.2254 115.82 19.4604 116.175C19.5554 116.32 19.6354 116.46 19.7004 116.585L20.2354 116.085C20.3254 114.57 20.3254 111.84 19.4854 109.23H19.4804Z" fill="white"/>
<path d="M22.1349 110.125C22.0099 109.21 21.8099 108.25 21.4949 107.305L19.8799 108.845C19.9999 109.2 20.1099 109.555 20.1999 109.91C20.9599 109.785 21.6849 109.965 22.1299 110.125H22.1349Z" fill="white"/>
<path d="M23.6056 105.29C23.6956 105.52 23.7756 105.755 23.8506 105.99C24.5556 105.91 25.2206 106.07 25.6356 106.22C25.5306 105.445 25.3706 104.635 25.1306 103.83L23.6006 105.29H23.6056Z" fill="white"/>
<path d="M24.1305 112.415C24.1905 110.75 24.0955 108.125 23.2105 105.67L21.8955 106.925C22.7655 109.395 22.8755 111.965 22.8155 113.655L24.1255 112.42L24.1305 112.415Z" fill="white"/>
<path d="M25.8151 108.44C25.8001 107.925 25.7701 107.365 25.7051 106.785C25.4251 106.665 24.7351 106.42 23.9951 106.48C24.1601 107.06 24.2851 107.635 24.3801 108.2C24.9351 108.17 25.4551 108.305 25.8101 108.44H25.8151Z" fill="white"/>
<path d="M38.6999 98.6848C38.7299 96.9098 38.5649 94.3048 37.6049 91.9248L36.2949 93.1748C37.2399 95.5798 37.4199 98.1348 37.3899 99.9198L38.6999 98.6848Z" fill="white"/>
<path d="M19.0452 116.45C18.6052 115.77 17.4702 114.45 16.9952 113.98C16.5452 113.54 16.0852 113.165 15.6702 112.87L15.0202 113.49C14.3802 114.1 14.3552 115.115 14.9652 115.755L16.6052 117.485C17.1652 118.075 18.0952 118.1 18.6852 117.545L19.3152 116.95C19.2652 116.82 19.1802 116.66 19.0452 116.45Z" fill="white"/>
<path d="M42.2302 95.3597C42.3652 93.7597 42.3852 90.8648 41.2252 88.5098C41.2152 88.5048 41.2052 88.4997 41.1952 88.4897L39.9502 89.6797C40.8652 92.2547 40.9452 94.9498 40.8702 96.6348L42.2252 95.3597H42.2302Z" fill="white"/>
<path d="M45.1604 92.5946C45.1454 92.5246 45.0854 92.3296 44.8254 91.9646C44.7104 91.8046 44.5554 91.6096 44.3754 91.3946C44.0604 91.3146 43.3604 91.1896 42.6104 91.3696C42.8154 92.6596 42.8254 93.8946 42.7704 94.8496L45.1604 92.5996V92.5946Z" fill="white"/>
<path d="M42.71 89.625C42.475 89.41 42.235 89.22 42 89.04C42.23 89.645 42.405 90.26 42.525 90.875C43.015 90.765 43.475 90.76 43.85 90.8C43.415 90.32 42.96 89.85 42.71 89.625Z" fill="white"/>
<path d="M40.3855 95.6748C40.1055 95.5498 39.5805 95.3648 39.0205 95.3848C39.1655 96.4048 39.2155 97.3698 39.2155 98.1998L40.3405 97.1398C40.3655 96.7348 40.3855 96.2398 40.3855 95.6748Z" fill="white"/>
<path d="M34.4902 94.8948C34.6852 95.4548 34.8402 96.0198 34.9602 96.5798C35.6502 96.5148 36.2902 96.6698 36.6952 96.8148C36.5502 95.7548 36.3002 94.6348 35.9002 93.5498L34.4902 94.8948Z" fill="white"/>
<path d="M36.8648 100.41C36.8748 100.155 36.8798 99.875 36.8798 99.58C36.5698 99.445 35.9598 99.23 35.3398 99.305C35.4048 100.27 35.3998 101.14 35.3648 101.825L36.8648 100.41Z" fill="white"/>
<path d="M36.8755 99.0396C36.8605 98.5246 36.8305 97.9646 36.7655 97.3846C36.4855 97.2646 35.8005 97.0196 35.0605 97.0796C35.1705 97.6746 35.2505 98.2546 35.3005 98.8146C35.9055 98.7496 36.4855 98.8996 36.8705 99.0446L36.8755 99.0396Z" fill="white"/>
<path d="M40.3747 95.1348C40.3597 94.6198 40.3297 94.0598 40.2647 93.4798C39.9847 93.3598 39.2947 93.1148 38.5547 93.1748C38.7197 93.7548 38.8447 94.3298 38.9397 94.8948C39.4947 94.8648 40.0147 95.0048 40.3697 95.1398L40.3747 95.1348Z" fill="white"/>
<path d="M34.8305 102.33C34.9355 100.855 34.9705 98.0048 34.0855 95.2798L32.7705 96.5348C33.6405 99.2548 33.6205 102.035 33.5155 103.565L34.8255 102.33H34.8305Z" fill="white"/>
<path d="M37.9951 91.5496C38.1551 91.9246 38.2951 92.2996 38.4151 92.6796C39.1201 92.5996 39.7851 92.7596 40.2001 92.9096C40.0751 91.9846 39.8701 91.0146 39.5501 90.0596L37.9951 91.5446V91.5496Z" fill="white"/>
<path d="M85.005 13.0351C85.005 12.8501 84.84 12.6951 84.64 12.6951C84.49 12.6951 84.36 12.7801 84.305 12.9001C84.18 12.9351 84.075 13.0151 84.015 13.1201C77.245 13.8251 70.685 10.2851 70.615 10.2451L70.375 10.6851C70.435 10.7201 75.98 13.7151 82.19 13.7151C82.465 13.7151 82.74 13.7001 83.015 13.6901C76.905 15.4051 70.49 13.7101 70.42 13.6901L70.29 14.1701C70.335 14.1851 73.24 14.9501 77.02 14.9501C79.315 14.9501 81.925 14.6601 84.42 13.7501C84.43 13.7501 84.44 13.7551 84.45 13.7551C84.725 13.7551 84.945 13.5551 84.945 13.3101C84.945 13.2801 84.93 13.2501 84.925 13.2251C84.97 13.1701 85 13.1051 85 13.0301L85.005 13.0351Z" fill="white"/>
<path d="M89.6502 18.9001C89.1052 18.1301 88.4852 17.3351 87.7902 16.5601C87.8002 18.2101 87.6652 19.6951 87.4902 20.8901L89.6502 18.9001Z" fill="white"/>
<path d="M84.8945 13.2752C85.7445 13.8852 86.5295 14.5652 87.2495 15.2752C87.1795 14.0902 87.0245 12.8402 86.7395 11.5752L84.8945 13.2752Z" fill="white"/>
<path d="M85.0996 14.0449C86.1746 16.4049 86.7146 18.8949 86.9696 21.0399C87.1746 19.7049 87.3396 17.9599 87.2846 16.0149C86.6196 15.3249 85.8896 14.6549 85.0996 14.0449Z" fill="white"/>
<path d="M23.4795 79.9903L86.5445 21.7704C86.3195 19.3804 85.7445 16.4404 84.3995 13.7354L18.3545 74.7054C19.5695 75.3604 21.9845 76.9753 23.4795 79.9903Z" fill="white"/>
<path d="M95.2896 8.6251C93.0246 6.0101 91.8946 6.8101 91.8946 6.8101L90.4746 8.1201C91.3596 8.6301 92.4496 9.6451 93.0096 10.2501C93.5396 10.8251 94.7996 12.4101 95.2996 13.2151C95.3696 13.3251 95.4196 13.4251 95.4746 13.5251L96.8896 12.2151C96.8896 12.2151 97.5596 11.2351 95.2946 8.6201L95.2896 8.6251Z" fill="white"/>
<path d="M94.875 13.485C94.39 12.705 93.16 11.155 92.645 10.595C91.69 9.55998 90.69 8.80498 90.095 8.47998L87.165 11.185C87.545 12.78 87.725 14.35 87.78 15.815C88.63 16.72 89.38 17.655 90.025 18.565L95.1 13.88C95.045 13.765 94.975 13.64 94.88 13.485H94.875Z" fill="white"/>
<path d="M17.7597 75.2052C17.5997 75.1802 17.5047 75.1802 17.5047 75.1802L16.6347 75.9852C16.5097 76.1002 16.4697 76.2802 16.5347 76.4402C17.8947 79.6902 20.6197 81.4052 21.5597 81.9202C21.7497 82.0252 21.9897 81.9952 22.1497 81.8502L23.1897 80.8902C23.1897 80.8902 23.1947 80.8652 23.1897 80.8352C21.6397 77.3952 18.7597 75.7052 17.7647 75.2052H17.7597ZM21.5647 81.4452C21.3547 81.6402 20.1797 80.7052 18.9347 79.3602C17.6947 78.0152 16.8547 76.7702 17.0647 76.5752C17.2747 76.3802 18.4497 77.3152 19.6947 78.6602C20.9397 80.0052 21.7747 81.2502 21.5647 81.4452Z" fill="white"/>
</svg>
