<svg width="128" height="128" viewBox="0 0 128 128" fill="none" xmlns="http://www.w3.org/2000/svg">
<path d="M34.6787 87.9247C36.1637 88.5447 37.7737 89.1497 39.4387 89.6647C39.4337 86.8297 39.8937 83.8397 40.5237 81.0947C39.4737 82.3447 37.3337 84.8747 34.6837 87.9247H34.6787Z" fill="white"/>
<path d="M39.6536 92.715C39.5336 91.915 39.4686 91.09 39.4486 90.245C37.6436 89.69 35.8986 89.03 34.3086 88.355C33.7586 88.99 33.1836 89.64 32.5986 90.31C34.7536 91.215 37.1886 92.1 39.6536 92.715Z" fill="white"/>
<path d="M62.0888 77.94C57.2238 77.94 50.9538 75.855 46.7188 73.985C46.3638 73.83 45.9438 73.92 45.6938 74.215C42.8888 77.5 41.6788 79.77 41.3038 80.175C40.5588 83.215 39.9688 86.64 39.9888 89.835C42.9938 90.725 46.1338 91.29 48.9288 91.085C53.8038 86.96 60.1238 82.745 65.3088 78.585C65.5888 78.36 65.4188 77.905 65.0588 77.92C64.0288 77.965 62.7638 77.945 62.0938 77.945L62.0888 77.94Z" fill="white"/>
<path d="M39.999 90.4102C40.024 91.2452 40.094 92.0652 40.219 92.8502C42.179 93.3102 44.144 93.5852 45.994 93.5652C46.739 92.9352 47.489 92.3002 48.249 91.6552C48.059 91.6602 47.869 91.6652 47.674 91.6652C45.204 91.6652 42.554 91.1552 39.999 90.4102Z" fill="white"/>
<path d="M32.224 90.735C29.694 93.605 26.274 96.56 23.549 99.34C23.309 99.585 23.414 99.99 23.739 100.095C27.534 101.36 32.624 102.36 36.184 101.995C36.659 101.945 37.094 101.735 37.444 101.41C38.759 100.18 39.749 98.885 41.324 97.54C40.544 96.3 40.039 94.86 39.754 93.3C37.109 92.655 34.504 91.7 32.224 90.73V90.735Z" fill="white"/>
<path d="M40.3242 93.4399C40.5942 94.8249 41.0442 96.0999 41.7192 97.2049C42.9042 96.1949 44.1242 95.1599 45.3692 94.0999C43.7342 94.0649 42.0292 93.8199 40.3242 93.4399Z" fill="white"/>
<path d="M33.8195 103.1C30.2945 103.1 26.4295 102.08 22.9795 100.815C22.0245 101.8 21.0945 102.74 20.2145 103.595C11.8145 111.78 18.9895 114.675 18.9895 114.675C18.9895 114.675 21.2745 114.89 23.0695 113.265C23.1745 113.17 27.8845 109.06 34.8695 103.065C34.5245 103.085 34.1745 103.1 33.8195 103.1Z" fill="white"/>
<path d="M115.21 30.7151C116.54 30.5101 117.65 30.3201 117.65 30.3201L114.99 28.7951C114.63 26.3501 113.795 22.8451 111.9 20.3251C112.98 18.0301 114.71 14.3251 114.71 14.3251L109.9 18.3801C109.325 17.9901 108.695 17.6751 107.99 17.4651C105.575 16.7451 103.43 16.6001 101.65 16.7051C100.94 15.2951 100.19 13.3101 100.19 13.3101L98.6446 17.1651C97.0946 17.5651 96.2146 18.0551 96.2146 18.0551C96.2146 18.0551 92.7747 20.3701 87.7896 24.8751L85.0546 23.2601L86.1747 26.3701C83.3997 28.9751 80.2597 32.1801 77.0247 35.9701L73.7346 34.2801L75.5497 37.7301C73.7547 39.9151 71.9447 42.2701 70.1597 44.8001C69.5097 45.7251 68.8396 46.6551 68.1696 47.5801L64.0097 45.4401L66.4046 49.9851C59.8096 58.8451 52.6396 67.3451 47.6396 73.0701C53.3146 75.6101 61.6896 78.4301 67.0146 75.9801C75.3746 69.1151 83.2146 62.8751 88.7146 58.9251L93.2396 61.6801L91.3246 57.1051C91.7596 56.8101 92.1796 56.5351 92.5696 56.2901C96.7846 53.6101 100.405 50.5301 103.435 47.4801C105.1 48.3151 106.99 49.2301 106.99 49.2301L105.155 45.6801C111.93 38.3501 115.265 31.6651 115.265 31.6651C115.265 31.6651 115.255 31.3101 115.21 30.7201V30.7151ZM77.8096 58.9501C78.8096 58.6301 79.8346 58.4301 80.8646 58.2601C80.7196 57.9451 80.5797 57.6301 80.4547 57.3051C79.3647 54.4551 81.1847 57.6851 81.5947 58.6551C80.3396 58.8301 79.0846 58.9801 77.8096 58.9551V58.9501ZM85.1347 38.2501C84.4897 37.7951 83.8746 37.3051 83.2747 36.7951C83.1297 38.0451 82.9397 39.2951 82.6497 40.5201C82.6047 38.9501 82.7297 37.3751 82.8847 35.8151C83.9647 36.7301 85.0247 37.6801 85.9296 38.7701C85.6546 38.6101 85.3997 38.4251 85.1347 38.2501ZM93.2246 22.5101C94.2696 23.4651 95.2897 24.4551 96.1597 25.5751C95.8897 25.4051 95.6446 25.2101 95.3847 25.0251C94.7597 24.5451 94.1597 24.0301 93.5797 23.5001C93.3847 24.7451 93.1547 25.9851 92.8147 27.2001C92.8297 25.6301 93.0096 24.0601 93.2246 22.5051V22.5101ZM92.7597 51.4751C92.9897 51.2551 93.2396 51.0601 93.4746 50.8551C94.0896 50.3601 94.7297 49.9051 95.3847 49.4701C94.2247 48.9851 93.0746 48.4601 91.9746 47.8451C93.4996 48.2301 94.9746 48.7851 96.4346 49.3651C95.2596 50.1501 94.0496 50.9101 92.7546 51.4801L92.7597 51.4751ZM96.9247 38.0551C97.1897 37.0401 97.5697 36.0651 97.9797 35.1051C97.6347 35.0601 97.2946 35.0101 96.9496 34.9401C93.9596 34.3351 97.6596 34.5251 98.6946 34.7001C98.1696 35.8551 97.6246 36.9951 96.9196 38.0551H96.9247ZM104.435 21.8551C101.585 22.9401 104.815 21.1251 105.785 20.7201C105.96 21.9751 106.105 23.2301 106.08 24.5051C105.76 23.5051 105.56 22.4801 105.395 21.4501C105.08 21.5951 104.76 21.7351 104.435 21.8601V21.8551ZM107.11 37.4701C107.34 37.2501 107.59 37.0551 107.825 36.8501C108.44 36.3551 109.08 35.9001 109.735 35.4651C108.575 34.9801 107.425 34.4551 106.325 33.8401C107.85 34.2301 109.325 34.7801 110.785 35.3601C109.61 36.1451 108.4 36.9051 107.105 37.4751L107.11 37.4701Z" fill="white"/>
</svg>
