<svg width="128" height="128" viewBox="0 0 128 128" fill="none" xmlns="http://www.w3.org/2000/svg">
<path d="M92.1003 21.645C90.3303 30.46 80.5354 45.875 68.7904 59.16C56.4954 73.07 42.5654 84.99 38.7354 88.195C42.6354 90.145 43.7153 93.465 43.9953 95.5C61.9004 81.055 79.9754 66.845 91.8704 53.585C109.1 34.38 116.27 18.52 116.27 18.52C105.515 26.095 92.1003 21.65 92.1003 21.65V21.645ZM68.2104 71.905C61.2154 78.35 53.7204 84.7 45.7554 89.715C60.8604 78.1 75.7653 65.855 87.4503 50.685L87.5004 50.72C81.8004 58.405 75.2304 65.41 68.2104 71.905ZM91.1003 37.685C89.8853 39.585 88.5003 41.95 87.2403 43.8C86.2553 45.19 84.0904 48.425 83.0704 49.71C79.8804 54 75.9704 58.775 72.3754 62.76C63.8104 72.23 54.2754 81.495 43.8104 88.565C54.8754 79.36 65.4454 69.43 75.0654 58.71C76.8954 56.545 79.5103 53.54 81.1954 51.305C82.0204 50.235 83.3654 48.595 84.1254 47.495C85.0704 46.165 87.4503 42.97 88.2803 41.605C88.9304 40.605 90.2553 38.575 90.9053 37.575C91.8103 36.115 93.6353 32.83 94.5154 31.33L94.5954 31.37C93.7304 32.915 91.9553 36.235 91.1003 37.695V37.685Z" fill="white"/>
<path d="M27.8703 84.9197C28.3203 84.9897 29.4403 85.0897 30.3303 84.4797C30.6803 84.2397 30.9553 83.9147 31.1653 83.5097L31.1053 83.4697C31.4553 82.5947 31.3253 81.5647 30.6603 80.8097C29.7203 79.7447 28.0953 79.6447 27.0353 80.5847C25.9703 81.5247 25.8703 83.1497 26.8103 84.2097C27.1103 84.5497 27.4803 84.7847 27.8753 84.9247L27.8703 84.9197Z" fill="white"/>
<path d="M20.5206 105.555C21.2856 106.4 21.6856 107.41 21.9006 108.31C22.1356 108.15 22.3756 107.98 22.6356 107.8C22.1706 106.775 21.3406 105.57 19.8906 104.92C19.8756 104.93 19.8656 104.94 19.8506 104.95C20.0906 105.135 20.3156 105.33 20.5206 105.56V105.555Z" fill="white"/>
<path d="M15.6003 110.275C15.2653 109.69 14.6353 109.305 13.7403 109.13C13.7403 109.13 13.7403 109.14 13.7403 109.145C13.2603 109.435 11.2853 110.765 12.5503 112.195C13.1703 112.9 14.5353 112.585 15.8803 112C15.9453 111.42 15.9003 110.795 15.6003 110.275Z" fill="white"/>
<path d="M20.1401 105.895C19.7951 105.515 19.3901 105.2 18.9351 104.955C18.9201 104.945 18.9051 104.935 18.8851 104.93C17.5251 104.315 15.9401 104.465 14.8251 105.445C13.9201 106.245 13.5301 107.42 13.6501 108.595C14.8001 108.785 15.6051 109.26 16.0401 110.025C16.4251 110.7 16.4601 111.485 16.3701 112.18C17.6951 112.715 19.1951 112.545 20.2651 111.605C21.1051 110.865 21.5001 109.795 21.4601 108.705C21.2801 107.8 20.9101 106.745 20.1401 105.895Z" fill="white"/>
<path d="M31.6101 83.75C31.3651 84.23 31.0301 84.615 30.6101 84.9C30.2101 85.175 29.7751 85.325 29.3651 85.405C28.9401 86.25 29.0551 87.21 29.7601 88.005C30.6351 89 32.1051 89.135 33.1601 88.39C33.7001 87.98 34.0651 87.355 34.2401 86.515C34.2951 85.84 34.0901 85.15 33.6101 84.605C33.0851 84.01 32.3451 83.73 31.6101 83.75Z" fill="white"/>
<path d="M37.8756 88.9096C37.8756 88.9096 37.8706 88.9146 37.8656 88.9196C37.0456 88.5796 36.2556 88.4646 35.5806 88.5896C35.0806 88.7246 34.6656 88.9596 34.3406 89.2996C34.2806 89.3596 34.2306 89.4246 34.1806 89.4896C33.7806 90.0996 33.6806 90.9296 33.8456 91.8546C37.1606 93.3596 37.7956 95.9546 37.8756 97.4146C38.6456 97.8896 39.4256 98.1896 40.1406 98.2846C40.6706 98.3346 41.4206 98.3046 42.0156 97.8946C42.4456 97.5946 42.7406 97.1296 42.9006 96.5046C42.9106 96.4646 42.9206 96.4246 42.9306 96.3796C42.9756 96.1796 43.0056 95.9696 43.0206 95.7446C42.8106 93.8996 41.8456 90.6896 37.8706 88.9096H37.8756Z" fill="white"/>
<path d="M43.4005 98.1247L42.9805 97.6147C42.8005 97.8947 42.5755 98.1247 42.3055 98.3097C41.9155 98.5797 41.4805 98.7097 41.0605 98.7647L41.8055 99.7147C41.9455 99.3997 42.1405 99.0798 42.4105 98.7998C42.6855 98.5098 43.0205 98.2848 43.4005 98.1198V98.1247Z" fill="white"/>
<path d="M33.5303 88.7448L33.8403 89.0997C33.8853 89.0497 33.9253 88.9947 33.9753 88.9447C34.3053 88.5947 34.7153 88.3397 35.1903 88.1697L34.5253 87.3647C34.3003 87.9397 33.9653 88.3998 33.5303 88.7448Z" fill="white"/>
<path d="M34.0008 92.4849C33.6508 92.8349 33.2508 93.2299 32.8008 93.6699C34.9508 94.8249 35.8058 96.4699 36.1308 97.7999L37.2458 96.9749C37.2858 97.0049 37.3258 97.0299 37.3658 97.0599C37.2208 95.7549 36.5508 93.7799 34.0058 92.4849H34.0008Z" fill="white"/>
<path d="M47.475 102.32C47.225 102.82 46.885 103.225 46.455 103.525C46.03 103.815 45.57 103.97 45.135 104.045L45.155 104.07C44.88 104.91 45.035 105.865 45.66 106.575C46.6 107.64 48.225 107.74 49.285 106.8C50.35 105.86 50.45 104.235 49.51 103.175C48.975 102.57 48.225 102.29 47.48 102.32H47.475Z" fill="white"/>
<path d="M28.0852 103.79C28.0552 103.155 27.9152 102.465 27.5602 101.825C27.1702 101.12 26.5652 100.56 25.7602 100.15C24.3652 99.4695 22.6752 99.6295 21.4752 100.685C20.3552 101.675 19.9752 103.19 20.3402 104.58C21.7152 105.295 22.5502 106.485 23.0402 107.515C23.0602 107.5 23.0802 107.49 23.1002 107.475C24.3602 107.865 25.7652 107.63 26.8002 106.715C27.6602 105.955 28.0752 104.89 28.0702 103.805C28.0752 103.805 28.0802 103.795 28.0852 103.795V103.79Z" fill="white"/>
<path d="M44.77 103.495L44.82 103.575C45.255 103.53 45.74 103.4 46.165 103.105C46.44 102.915 46.675 102.665 46.86 102.37L46.8 102.255C47.36 101.32 47.29 100.1 46.53 99.2397C45.815 98.4297 44.71 98.1847 43.755 98.5247C43.37 98.6647 43.045 98.8747 42.78 99.1497C42.46 99.4897 42.26 99.8897 42.14 100.275C41.925 101.08 42.09 101.97 42.68 102.64C43.225 103.255 44 103.54 44.765 103.495H44.77Z" fill="white"/>
<path d="M32.4149 94.0445C32.4149 94.0445 32.3849 94.0745 32.3649 94.0945C31.2399 93.8945 30.0549 94.1645 29.1499 94.9645C28.2149 95.7895 27.8049 96.9795 27.8949 98.1545C28.7399 98.3395 29.4199 98.7195 29.9049 99.3045C30.4849 100.005 30.7249 100.89 30.7899 101.76C32.0449 102.14 33.4399 101.905 34.4749 100.995C35.2699 100.29 35.6849 99.3245 35.7349 98.3195C35.5249 97.0245 34.7749 95.2445 32.4149 94.0445Z" fill="white"/>
<path d="M29.5155 99.6246C29.0605 99.0746 28.3955 98.7346 27.5405 98.5996C27.0955 98.9946 26.6455 99.3996 26.1855 99.7996C26.9855 100.25 27.6005 100.84 28.0105 101.58C28.3455 102.18 28.5055 102.815 28.5705 103.41C28.7105 103.3 28.8505 103.19 28.9955 103.08L30.3055 102.11C30.2855 101.225 30.0905 100.305 29.5205 99.6196L29.5155 99.6246Z" fill="white"/>
</svg>
