<svg width="128" height="128" viewBox="0 0 128 128" fill="none" xmlns="http://www.w3.org/2000/svg">
<path d="M64.4095 79.1753C63.6996 78.8853 63.0995 78.5153 62.5945 78.0903C62.3445 78.4703 61.6445 79.4103 60.7045 79.7403C60.8895 80.9253 60.6045 82.1803 59.7795 83.1103C59.7448 83.1624 59.7334 83.1815 59.6845 83.2303C59.3045 83.7153 58.9395 84.1453 58.7595 84.7353C58.2845 85.9653 59.8795 87.0303 60.8745 86.3853C61.3395 86.0403 61.4045 85.2653 61.0495 84.7703C60.6445 84.1953 59.7895 84.1553 59.7095 85.0153C59.6545 84.0453 60.7245 84.0053 61.2445 84.6203C61.7145 85.1853 61.7295 86.1353 61.1295 86.6753C60.5045 87.2053 59.6145 87.0403 58.9745 86.6453C58.3045 86.2253 58.0345 85.3253 58.2795 84.5953C58.3595 84.3203 58.4795 84.0703 58.6245 83.8403C58.2245 83.9653 57.7995 83.9753 57.3845 83.7753C56.3145 83.1603 55.8345 81.3753 56.9395 80.5853C58.3345 79.5253 59.5845 80.9853 58.0945 82.0353C58.3895 81.7953 58.6695 81.4753 58.6995 81.0953C58.7245 80.7253 58.4345 80.3503 58.0645 80.3503C57.3295 80.3353 56.5995 80.9453 56.5595 81.6603C56.5295 82.3203 56.9445 83.1453 57.5395 83.4403C58.1495 83.7203 58.9195 83.2953 59.3895 82.8303C59.3895 82.8303 59.3945 82.8253 59.3995 82.8203C60.7945 81.3103 60.6895 79.0553 59.5545 77.3753C60.0545 77.9053 60.3995 78.5603 60.5845 79.2553C61.4045 78.9403 62.0345 78.0253 62.1995 77.7653C61.2395 76.8253 60.6745 75.7253 60.3645 74.8203C59.9495 74.8753 59.3145 75.1053 58.7545 75.9203C57.8445 77.2453 56.9345 76.8403 56.9345 76.8403C56.9345 76.8403 56.2395 77.6403 56.8345 78.3153C56.8345 78.3153 54.2745 79.6053 55.1195 86.4503C55.9645 93.2953 46.4895 102.54 41.3195 105.085C38.6795 106.385 35.9695 108.865 22.8295 110.995L19.8095 111.665C19.8095 111.665 19.3345 111.255 18.9445 112.27C18.9095 112.36 18.8595 112.445 18.8045 112.52C18.6645 112.795 18.3795 113.415 18.3645 114.02C18.3545 114.495 18.6045 114.995 18.9845 115.26V115.27L19.4645 115.605C19.4645 115.605 20.2845 115.37 20.4745 114.69C20.6645 114.01 24.7595 113.79 24.7595 113.79C24.7595 113.79 42.1595 111.34 49.5295 105.575C56.8995 99.8103 63.6695 88.1753 63.6695 88.1753C63.6695 88.1753 64.6195 86.0103 63.6745 84.7853C62.7145 84.4653 61.9345 83.8453 61.1745 83.2053C61.8045 83.5903 62.4545 83.9303 63.1495 84.1603C63.2145 84.1803 63.2845 84.2003 63.3495 84.2203C63.6195 84.0803 63.9895 83.7753 63.6845 83.2103C63.6845 83.2103 64.1145 83.1703 63.9645 82.8553C63.9645 82.8553 63.6345 82.6953 63.5545 82.6353C63.5545 82.6353 63.9545 82.8753 64.1095 82.7503C64.2645 82.6253 64.2845 82.5153 64.2845 82.5153C64.2845 82.5153 64.1295 82.3603 64.1995 82.2153C64.2695 82.0703 64.2895 81.9103 64.2895 81.9103L64.9245 81.8203C65.0746 81.8203 65.0945 81.5403 65.0495 81.3953L64.3945 79.2003L64.4095 79.1753ZM49.1595 103.11L48.8095 102.75C56.3345 95.4553 58.7195 88.4903 58.7395 88.4203L59.2145 88.5803C59.1895 88.6503 56.7795 95.7203 49.1595 103.11ZM63.7745 79.9403C63.1895 80.2553 62.5345 79.8303 62.3095 79.2753C62.6495 79.3353 63.0345 79.5203 63.3395 79.5403C63.3445 79.3553 63.3045 79.1753 63.2345 78.9703C63.5945 79.0603 63.8145 79.4403 63.7845 79.8103L63.7745 79.9353V79.9403Z" fill="white"/>
<path d="M16.4295 112.82C16.1745 112.79 15.7795 112.865 15.1545 113.155C13.2395 114.04 12.1445 116.035 12.1445 116.035C12.1445 116.035 12.1445 118.055 13.7495 117.545C14.8545 117.195 15.9595 116.29 16.5395 115.765C16.0095 114.49 16.2845 113.28 16.4295 112.815V112.82Z" fill="white"/>
<path d="M112.74 17.5451C112.57 17.4401 112.285 17.4401 111.915 17.5451C111.415 17.6901 111.05 17.8451 110.57 18.1201C110.555 18.1801 110.54 18.2401 110.525 18.3001L109.88 19.6501C111.13 18.5151 112.1 18.1951 112.595 18.1151L112.88 17.7301C112.865 17.6851 112.825 17.6051 112.735 17.5451H112.74Z" fill="white"/>
<path d="M115.044 12.3901C115.044 12.3901 111.784 14.1701 110.739 17.4601C111.074 17.2951 111.389 17.1751 111.774 17.0651C112.304 16.9151 112.719 16.9351 113.019 17.1351C113.094 17.1851 113.154 17.2401 113.199 17.3001L115.859 13.7051C115.859 13.7051 116.739 12.3301 115.039 12.3901H115.044Z" fill="white"/>
<path d="M112.924 18.5749V18.5849C112.924 18.5849 111.384 18.5299 109.194 21.0799L107.124 25.4049C107.124 25.4049 96.6892 51.0099 93.5892 54.0349C90.1242 57.4149 87.6692 61.7099 78.6442 61.0599C71.7392 60.5599 71.9292 62.0849 72.3992 62.8299C72.0042 62.4299 71.3242 62.0199 70.8992 63.3349C70.6042 64.2399 70.4892 64.6799 70.4492 64.8999C70.9892 65.1699 71.5592 65.5349 72.1042 66.0149C72.1492 65.9199 72.1992 65.8949 72.2492 65.8499C73.1192 65.4849 74.0642 65.7249 74.9642 65.7099C75.6742 65.7099 76.4342 65.8299 77.0992 65.5649C77.7042 65.2699 78.1542 64.5449 78.0542 63.8649C77.9592 63.1099 77.1292 62.7799 76.4442 62.7799C75.6042 62.8249 75.6092 63.9099 75.6842 64.5449C75.5742 63.8949 75.5492 62.7549 76.4392 62.6849C76.9492 62.6749 77.4842 62.7849 77.8642 63.1399C78.6792 63.9349 78.1342 65.3399 77.2192 65.8099C77.0892 65.8599 76.9592 65.8899 76.8292 65.9249C77.1492 66.5299 77.4492 67.1499 77.6392 67.8049C78.5392 68.1599 81.2592 69.0699 83.6042 68.2449C86.4592 67.2349 96.5192 62.5499 102.494 46.2849C108.469 30.0149 110.979 23.7749 110.979 23.7749C110.979 23.7749 111.339 22.1999 112.799 20.7099C113.984 19.4949 113.249 18.7849 112.939 18.5649L112.924 18.5749ZM81.4842 65.2549L81.3942 64.7649C81.4742 64.7499 89.4842 63.2399 96.2642 55.2649L96.6442 55.5899C89.7392 63.7049 81.5592 65.2399 81.4792 65.2549H81.4842Z" fill="white"/>
<path d="M76.8093 65.9399C75.4243 66.2999 73.8843 65.8399 72.5243 66.2449C72.5393 66.2399 72.5543 66.1949 72.5543 66.1649L72.4443 66.3349C72.9943 66.8899 73.4843 67.5849 73.8443 68.4349C73.8643 68.4249 73.8793 68.4149 73.8993 68.4049L74.9943 69.1499C75.0593 69.1949 75.1443 69.1449 75.1393 69.0649L75.0943 68.4449C75.0943 68.4449 75.5443 68.5799 75.6943 68.8049C75.8093 68.9799 75.9893 68.4949 76.0643 68.2649C76.0193 68.4149 75.9643 68.6599 76.0593 68.6599C76.1943 68.6599 76.8793 68.5249 77.0943 68.6449C77.2193 68.7149 77.2743 68.3749 77.2993 68.0799C77.2493 67.3549 77.0343 66.6249 76.8093 65.9399ZM74.6243 67.5749C74.6143 67.7449 74.4593 67.9699 74.2593 67.9099C74.3493 67.7499 74.2593 67.6899 74.2343 67.5999C74.0693 67.2549 73.9243 66.9749 73.9393 66.5199C74.3943 66.6949 74.6593 67.0999 74.6243 67.5749Z" fill="white"/>
<path d="M67.134 71.95C67.854 72 68.554 71.845 69.204 71.555C69.379 71.475 69.554 71.385 69.709 71.29C69.969 71.06 70.239 70.83 70.519 70.6C70.799 70.37 70.684 69.94 70.344 69.89C70.144 69.86 69.944 69.81 69.749 69.75C70.464 69.85 71.174 69.75 71.844 69.51C72.044 69.44 72.244 69.35 72.419 69.255C72.599 69.14 72.779 69.03 72.969 68.925C72.254 67.165 70.914 66.225 69.834 65.73L68.444 67.13C68.104 67.47 68.234 68.065 68.694 68.21C69.059 68.325 69.444 68.395 69.829 68.405C69.304 68.48 68.769 68.45 68.249 68.335C67.729 68.22 67.199 68.385 66.829 68.755L66.454 69.13C66.214 69.37 66.289 69.79 66.604 69.915C67.059 70.095 67.539 70.2 68.029 70.215C67.439 70.3 66.834 70.25 66.254 70.095C65.889 70 65.504 70.095 65.239 70.36L64.619 70.985C64.279 71.33 64.389 71.925 64.839 72.095C65.289 72.265 65.744 72.36 66.219 72.375C65.639 72.46 65.049 72.415 64.479 72.27C63.909 72.125 63.314 72.295 62.904 72.71L62.424 73.19C62.209 73.41 62.279 73.79 62.569 73.895C62.999 74.055 63.459 74.155 63.919 74.165C63.179 74.27 62.414 74.165 61.704 73.91L61.599 74.015C61.399 74.215 61.334 74.51 61.434 74.77C61.874 75.91 62.774 77.365 64.599 78.175C64.709 77.93 64.859 77.62 65.044 77.27C65.129 77.11 65.009 76.91 64.824 76.925C64.509 76.945 64.349 76.825 63.834 76.725C64.554 76.74 64.539 76.79 65.174 76.475C65.339 76.39 65.504 76.295 65.654 76.195C65.889 75.81 66.154 75.395 66.454 74.965C66.569 74.8 66.424 74.585 66.229 74.625C65.799 74.705 65.364 74.725 64.934 74.675C65.654 74.635 66.334 74.4 66.944 74.035C67.099 73.94 67.249 73.835 67.389 73.73C67.754 73.28 68.159 72.815 68.604 72.355C68.719 72.235 68.629 72.04 68.464 72.05C68.019 72.08 67.569 72.05 67.139 71.945L67.134 71.95Z" fill="white"/>
<path d="M20.3497 110.98L25.7247 105.79L105.18 23.7248C105.18 23.7248 107.345 20.6698 109.19 19.0198C110.48 17.8648 112.01 17.4848 112.265 17.4448C113.18 17.3048 112.905 18.4148 112.905 18.4148C112.905 18.4148 112.75 18.0548 112.32 18.1848C111.62 18.3948 110.705 18.9398 110.24 19.2998C109.49 19.8848 106.83 23.1248 106.83 23.1248L107.84 22.8048L107.275 23.9248L106.04 24.3648C106.04 24.3648 105.895 25.2948 105.115 25.3448L43.4147 88.9698L24.3497 108.56C24.3497 108.56 24.3297 109.745 23.3297 109.675L22.3097 110.53L20.3447 110.98H20.3497Z" fill="white"/>
<path d="M18.7694 115.35C18.7694 115.35 16.9794 117.225 16.7394 114.53C16.4994 111.84 18.5394 112.41 18.5394 112.41C18.5394 112.41 16.9244 114.45 18.7744 115.345L18.7694 115.35Z" fill="white"/>
</svg>
