<svg width="128" height="128" viewBox="0 0 128 128" fill="none" xmlns="http://www.w3.org/2000/svg">
<path d="M22.5795 115.875L22.5895 115.865L14.9495 108.635L14.9345 108.65L13.8945 107.665C13.4345 107.225 12.7045 107.245 12.2645 107.71L12.1995 107.78C11.7395 108.27 11.7595 109.035 12.2445 109.5L21.7895 118.535C22.2595 118.98 23.0045 118.96 23.4495 118.49L23.5795 118.355C24.0045 117.91 23.9845 117.2 23.5345 116.78L22.5795 115.88V115.875Z" fill="white"/>
<path d="M47.0997 89.6901L39.3397 82.4201C38.7847 81.9701 37.9647 82.0151 37.4697 82.5451L37.3297 82.6951C36.8497 83.2051 36.8447 83.9851 37.2847 84.5101L44.6397 91.4001L44.6497 91.3901L45.2347 91.9251C45.7697 92.4101 46.5947 92.3801 47.0897 91.8551L47.2447 91.6901C47.7447 91.1601 47.7147 90.2701 47.1847 89.7701L47.1047 89.6951L47.0997 89.6901Z" fill="white"/>
<path d="M22.9248 115.495L44.2998 91.7699L37.6548 85.5449L15.2998 108.28L22.9248 115.495Z" fill="white"/>
<path d="M65.2541 57.6099L40.2891 82.6299L46.9491 88.8649L70.1041 62.3399L65.2541 57.6099Z" fill="white"/>
<path d="M72.5992 59.6497L86.3242 45.1497C85.4492 44.5947 83.9042 43.3997 81.8592 40.9697L68.0742 55.2347L72.5992 59.6497Z" fill="white"/>
<path d="M72.8998 60.6449L72.2448 60.0249L72.2548 60.0149L66.8598 54.7549C66.3398 54.4549 65.6648 54.5299 65.2348 54.9849L65.1898 55.0349C64.6998 55.5499 64.7148 56.3499 65.1998 56.8599L65.5198 57.1699L65.6098 57.2549L70.4348 61.9599L70.4498 61.9449L71.2848 62.7349C71.7748 63.1999 72.6448 63.1499 73.1098 62.6599L73.1398 62.6299C73.6198 62.1249 73.6048 61.3349 73.1198 60.8449L72.9098 60.6399L72.8998 60.6449Z" fill="white"/>
<path d="M111.299 20.6699L103.964 13.7299C103.894 13.6599 103.889 13.5499 103.959 13.4799L104.319 13.0949C106.159 11.1499 109.229 11.0649 111.174 12.9049L111.734 13.4349C113.674 15.2699 113.754 18.3299 111.924 20.2649L111.549 20.6599C111.479 20.7299 111.369 20.7349 111.299 20.6649V20.6699Z" fill="white"/>
<path d="M98.5642 10.1899L90.3692 11.2049C91.0342 13.6749 86.2742 20.5199 86.2742 20.5199C89.6242 24.3649 86.4792 32.5499 86.4792 32.5499C86.4792 32.5499 83.4392 27.4049 81.1542 31.4349C78.8692 35.4649 82.5692 40.2399 82.5692 40.2399L82.5542 40.2549C84.7242 42.8499 86.2942 43.9799 87.0242 44.4199C90.9842 46.4499 92.9892 47.0349 95.8042 45.3749C99.8742 42.9749 94.7292 40.6799 94.7292 40.6799C99.5142 35.8849 106.749 39.7749 106.749 39.7749C108.514 37.2599 115.364 34.8199 115.364 34.8199L116.089 26.7949L98.5542 10.1999L98.5642 10.1899ZM90.4292 25.0349C91.0092 24.3549 91.5792 23.6599 92.1242 22.9499C93.7992 20.9299 94.8692 18.5499 95.9292 16.1699C97.9692 15.7599 100.024 15.3949 102.094 15.2099L102.119 15.3049C100.334 15.9949 98.4992 16.5349 96.6492 17.0299C95.4392 20.1549 93.3542 22.8199 91.0692 25.2349C91.3342 28.2049 90.6092 31.1649 89.3742 33.8449L89.2842 33.8049C90.3642 31.0449 90.8892 27.9649 90.4292 25.0299V25.0349ZM84.0642 37.5999C83.8542 38.3499 83.7092 39.1149 83.5492 39.8849L83.4492 39.8749C83.5242 37.9349 83.4992 34.6599 85.3442 33.4899C86.5292 32.9249 87.7592 33.9549 88.1092 35.0149L88.0292 35.0749C87.4442 34.7399 86.7592 34.2799 86.1292 34.3299C84.7742 34.6599 84.4342 36.3999 84.0592 37.5949L84.0642 37.5999ZM84.8592 41.1199C84.7992 41.1199 84.7392 41.0999 84.6892 41.0549C84.5892 40.9599 84.5842 40.8049 84.6742 40.6999L105.349 18.3399C105.444 18.2399 105.599 18.2349 105.704 18.3249C105.804 18.4199 105.809 18.5749 105.719 18.6799L85.0442 41.0399C84.9942 41.0949 84.9292 41.1199 84.8592 41.1199ZM85.9792 42.1799C85.9192 42.1799 85.8542 42.1599 85.8092 42.1099C85.7092 42.0149 85.7042 41.8549 85.7992 41.7549L106.734 19.6399C106.829 19.5399 106.989 19.5349 107.089 19.6299C107.189 19.7249 107.194 19.8849 107.099 19.9849L86.1642 42.0999C86.1142 42.1499 86.0492 42.1799 85.9842 42.1799H85.9792ZM93.5642 41.0899C92.5142 42.9849 89.2142 43.1549 87.2942 43.3349L87.2792 43.2349C88.0392 43.0349 88.7992 42.8449 89.5342 42.5949C90.7042 42.1549 92.4292 41.7199 92.6792 40.3499C92.6942 39.7199 92.1992 39.0599 91.8292 38.4949L91.8842 38.4099C92.9642 38.7049 94.0592 39.8749 93.5592 41.0899H93.5642ZM109.749 29.4599C107.434 30.6449 105.114 31.8449 103.189 33.6299C102.514 34.2149 101.844 34.8199 101.199 35.4349L101.054 35.4199C98.1392 35.1699 95.1492 35.8499 92.4992 37.0599L92.4542 36.9699C94.4342 35.9049 96.5992 35.1649 98.8392 34.8899C99.5442 34.8099 100.234 34.7649 100.964 34.7999C102.134 33.5899 103.319 32.4349 104.629 31.3649C105.939 30.3349 107.344 29.4899 108.844 28.7849C109.239 26.9249 109.684 25.0749 110.274 23.2649L110.374 23.2849C110.299 25.3549 110.044 27.4099 109.744 29.4599H109.749Z" fill="white"/>
</svg>
