<svg width="128" height="128" viewBox="0 0 128 128" fill="none" xmlns="http://www.w3.org/2000/svg">
<path d="M111.656 25.1893C106.356 31.2817 54.6978 82.4149 47.7216 89.3203C46.4267 86.079 45.0722 82.4134 44.8782 81.1154C52.6428 73.5915 112.546 15.4092 114.808 9.58955C114.808 9.58955 117.346 18.6528 111.656 25.1893Z" fill="white"/>
<path d="M24.3961 105.252C25.3342 104.137 27.2714 103.866 30.1375 104.425L24.2616 109.954C24.0663 109.456 23.1124 106.776 24.3961 105.252Z" fill="white"/>
<path d="M32.7044 98.9378C31.9614 100.051 29.9043 100.333 26.7182 99.7872C28.4653 98.1083 30.3061 96.3134 32.0676 94.5844C32.7259 95.8124 33.5066 97.7391 32.7044 98.9328L32.7044 98.9378Z" fill="white"/>
<path d="M36.8402 92.9479C36.4154 93.4375 36.2773 94.0741 36.2842 94.724C36.3 96.1939 37.0817 97.7406 37.1277 97.8351C37.1277 97.8351 37.1278 97.8401 37.1328 97.8451L30.5936 103.996C27.336 103.306 25.1091 103.61 24.0031 104.922C23.3959 105.643 23.2107 106.555 23.22 107.42C23.2354 108.855 23.7844 110.159 23.8253 110.244C23.8357 110.274 23.8559 110.294 23.8762 110.318L22.1238 111.967C21.7377 111.406 21.3214 110.816 20.8597 110.196C20.1442 109.228 19.3684 108.227 18.5928 107.245C19.7191 106.433 22.7589 103.6 26.2629 100.232C29.9204 100.913 32.2319 100.578 33.1375 99.2281C34.1168 97.7625 33.1827 95.5274 32.4585 94.2101C36.2735 90.4689 39.6476 87.1124 40.7707 85.9953C41.586 87.8866 42.6879 90.3799 43.39 91.9625L42.593 92.7161C39.6834 91.8373 37.7441 91.9082 36.8452 92.9529L36.8402 92.9479Z" fill="white"/>
<path d="M37.2283 93.2835C37.9494 92.4457 39.6489 92.3975 42.1568 93.1155L37.5234 97.4756C37.2572 96.9034 36.216 94.4645 37.2283 93.2835Z" fill="white"/>
<path d="M20.4427 110.5C20.9146 111.14 21.3461 111.745 21.7423 112.321L21.7424 112.326C21.7424 112.326 21.7475 112.336 21.7627 112.351C21.8287 112.45 21.8998 112.549 21.9659 112.648C22.1399 113.022 22.2022 113.701 21.187 114.617C21.187 114.617 19.7035 116.163 18.4272 117.442C17.1954 118.675 15.8717 118.804 14.6833 117.097C12.723 114.288 11.5324 112.381 14.0319 109.994C16.3878 107.743 17.1252 106.57 18.0542 107.395C18.8703 108.422 19.6917 109.483 20.4427 110.5ZM16.5552 110.292L14.9523 111.894C14.7495 112.096 14.672 112.327 14.6746 112.572C14.6791 112.987 14.9191 113.454 15.199 113.911L16.3997 115.829C16.6019 116.026 16.9096 116.283 17.2787 116.194C17.5231 116.136 17.7061 115.949 17.9188 115.737L19.7288 113.868C20.2681 113.327 19.8701 112.586 19.4874 111.87L18.4768 110.426C18.1511 109.899 17.7947 109.773 17.5495 109.756C17.1943 109.735 16.8512 109.918 16.5453 110.297L16.5552 110.292Z" fill="white"/>
<path d="M18.0496 110.701L18.0597 110.716L19.0551 112.14C19.448 112.876 19.6122 113.264 19.3698 113.507L17.5895 115.351C17.4164 115.528 17.2729 115.67 17.1681 115.691C17.0834 115.712 16.9576 115.643 16.7909 115.485L15.641 113.642C15.178 112.897 15.0887 112.498 15.3212 112.26L16.9388 110.638C17.1461 110.381 17.3498 110.259 17.5249 110.272C17.7501 110.284 17.9325 110.512 18.0496 110.701Z" fill="white"/>
<path d="M43.9212 78.5606C43.9212 78.5606 43.3799 80.7765 43.9659 81.7953C44.5681 84.3189 46.8128 89.8601 47.5983 91.7668C48.2284 93.6301 48.8043 96.4991 46.8285 97.3704C43.8275 98.6877 44.7207 95.2629 44.7207 95.2629C44.7207 95.2629 44.9591 93.7153 44.2167 92.5682C43.5865 91.1549 42.1312 87.8753 41.1517 85.6007C41.1517 85.6007 37.7853 77.5815 40.5923 76.8262C43.3994 76.076 43.9112 78.5607 43.9112 78.5607L43.9212 78.5606Z" fill="white"/>
</svg>
