<svg width="128" height="128" viewBox="0 0 128 128" fill="none" xmlns="http://www.w3.org/2000/svg">
<path d="M83.4391 87.3949C79.9541 86.9949 76.4241 85.3549 73.6841 83.7349C72.5841 84.9149 71.4191 86.1899 70.2041 87.5549C73.0641 89.2099 76.7541 90.8749 80.2741 91.0949C81.3241 89.9099 82.3791 88.6699 83.4391 87.3899V87.3949Z" fill="white"/>
<path d="M88.7041 80.5147C86.0541 78.9897 84.3391 77.1797 83.4891 76.1247C83.1091 75.6497 82.8141 75.2247 82.5791 74.8447C81.8491 75.5097 80.3341 76.9247 78.2891 78.9747C80.9041 80.4747 84.1841 81.9547 87.3891 82.3447C87.8341 81.7397 88.2741 81.1297 88.7091 80.5147H88.7041Z" fill="white"/>
<path d="M86.8794 83.0199C83.6144 82.5399 80.3444 81.0199 77.7544 79.5049C76.6844 80.5849 75.4895 81.8149 74.1895 83.1949C76.9795 84.8099 80.5545 86.4249 83.9945 86.7099C84.9645 85.5149 85.9294 84.2799 86.8794 83.0199Z" fill="white"/>
<path d="M82.7295 73.965C82.9695 74.375 83.2895 74.87 83.7445 75.43C84.5645 76.45 86.1995 78.255 88.7795 79.725C89.3445 79.975 91.4095 81.425 92.5195 79.35C93.3145 77.865 92.9595 76.85 92.9595 76.85C92.9595 76.85 92.2795 76.57 92.2995 76.565C91.9645 76.385 91.5995 76.175 91.1945 75.91C89.9195 75.065 87.5845 73.22 85.6745 70.125C85.6645 70.215 81.5095 69.69 82.7245 73.965H82.7295Z" fill="white"/>
<path d="M62.3038 97.0498C61.6238 97.9248 60.9438 98.8148 60.2588 99.7248C61.5088 102.545 63.4888 103.85 64.6888 104.41C65.3238 104.705 65.9088 104.87 66.4138 104.965C67.2988 104.19 69.1788 102.515 71.6088 100.16C68.3638 99.9298 65.0338 98.5448 62.3038 97.0498Z" fill="white"/>
<path d="M65.8741 105.56C65.4241 105.45 64.9241 105.285 64.3991 105.035C63.7741 104.74 62.9441 104.26 62.1091 103.5C61.2091 102.68 60.2991 101.525 59.6041 99.9351C59.0441 99.7851 57.9041 99.8201 56.4291 101.64C54.0591 104.565 57.3691 107.785 57.3691 107.785C57.3691 107.785 59.7941 110.12 61.4591 110.08C62.8691 110.045 66.6041 108.68 65.8741 105.56Z" fill="white"/>
<path d="M76.0195 95.725C72.5345 95.565 68.9245 94.035 66.0395 92.415C64.9645 93.71 63.8695 95.06 62.7695 96.465C65.6045 97.995 69.0595 99.39 72.3345 99.46C73.4745 98.345 74.7145 97.09 76.0245 95.725H76.0195Z" fill="white"/>
<path d="M90.2145 64.5249C88.7545 65.4799 86.7895 67.1399 86.1445 69.4049L86.1645 69.3949C88.0645 72.7699 90.5495 74.7249 91.8595 75.5949C92.4745 75.9999 93.0045 76.2799 93.4395 76.4799C94.5345 75.9349 96.4645 74.5999 98.2745 71.5649C98.1595 71.3999 98.0345 71.2299 97.9045 71.0549C96.6795 69.4199 94.2145 66.6949 90.2145 64.5249Z" fill="white"/>
<path d="M79.6637 91.7897C76.1187 91.4347 72.5087 89.7597 69.7187 88.1147C68.6787 89.2947 67.6087 90.5397 66.5137 91.8447C69.4937 93.4897 73.2237 95.0247 76.7037 95.0097C77.6637 93.9947 78.6587 92.9147 79.6637 91.7897Z" fill="white"/>
<path d="M30.6096 96.1247C30.5796 96.1247 30.5546 96.1297 30.5296 96.1347C30.5296 96.1347 30.9896 91.6997 26.1346 86.7197C21.2796 81.7397 12.2396 84.4097 12.2396 84.4097C12.2396 84.4097 10.6546 92.3547 16.4846 97.6647C19.7396 100.63 22.8896 101.365 25.0396 101.435C26.4996 101.485 27.9296 101.05 29.1296 100.215L29.9146 99.6697C30.5896 99.2047 30.7046 97.4347 30.6146 96.1197L30.6096 96.1247ZM18.6596 94.4747C20.4246 96.3847 22.8896 97.4947 25.3096 98.3747C24.6696 98.2247 24.0246 98.0697 23.3846 97.8997C21.4796 97.2847 19.6296 96.3597 18.1696 94.9597C16.0796 92.9697 14.9796 90.0147 15.4446 87.1097C21.5146 86.2097 26.1096 90.3097 27.4446 96.0297C25.5996 91.1597 21.6846 87.3947 16.2646 87.9447C16.0696 90.2997 17.0496 92.7347 18.6646 94.4697L18.6596 94.4747Z" fill="white"/>
<path d="M109.755 65.3849C107.545 64.9249 104.215 66.2699 104.215 66.2699C104.215 66.2699 107.845 63.2449 113.37 62.4699C113.37 62.4699 115.365 61.8199 112.85 61.4399C110.335 61.0599 104.71 64.3349 104.71 64.3349C104.71 64.3349 109.375 59.8249 114.65 58.6649C114.65 58.6649 116.405 57.4799 114.025 57.3399C111.645 57.1999 105.79 61.6199 105.79 61.6199C105.79 61.6199 109.885 57.4299 113.6 56.6749C113.6 56.6749 114.6 55.2599 111.95 55.7749C110.6 56.0349 110.08 56.3799 109.03 56.8549C112.56 52.8549 121.215 41.2149 115.64 28.4849C108.74 12.7299 92.0397 13.6749 92.0397 13.6749C92.0397 13.6749 76.2297 12.3299 60.5697 31.0999C44.9097 49.8649 47.5697 70.2799 47.5697 70.2799C47.5697 70.2799 48.7747 93.4949 31.2997 96.0499C31.3397 96.6249 31.3697 97.5549 31.2197 98.4199C32.4747 98.1299 40.8047 96.0249 44.4747 90.6249C48.4497 84.7749 49.8347 77.8349 50.0197 70.2049C50.2047 62.5749 51.9697 46.0549 63.1197 34.6649C71.3497 26.2549 88.2097 11.2349 105.255 23.8899C122.3 36.5499 99.2397 59.2449 99.2397 59.2449C99.2397 59.2449 103.5 52.1449 103.855 48.1699C103.855 48.1699 103.27 46.9549 102.515 48.5749C101.755 50.1949 103.12 49.5649 96.8447 59.6049C96.8447 59.6049 100.85 49.1749 99.6697 46.0999C98.1997 42.2549 97.8797 48.8099 97.8797 48.8099C97.8797 48.8099 96.7747 56.3199 94.6247 60.6899C94.6247 60.6899 96.5547 54.2899 95.8247 50.2849C95.0947 46.2799 93.8547 50.4799 93.8547 50.4799C93.8547 50.4799 94.0647 59.5049 91.5047 63.5799L93.1997 64.7149C94.7647 65.7649 96.2047 66.9899 97.4897 68.3699L99.0597 70.0599C99.0597 70.0599 100.515 70.0349 102.39 68.6749C104.265 67.3149 108.01 66.8699 108.01 66.8699L110.065 66.7549C110.065 66.7549 111.84 65.8299 109.75 65.3949L109.755 65.3849Z" fill="white"/>
</svg>
