<svg width="128" height="128" viewBox="0 0 128 128" fill="none" xmlns="http://www.w3.org/2000/svg">
<path d="M94.3494 17.58C94.2194 17.445 94.1244 17.27 94.0944 17.07C94.0144 16.56 94.3644 16.085 94.8694 16.005L100.169 15.175C100.679 15.095 101.154 15.445 101.234 15.95C101.314 16.46 100.964 16.935 100.459 17.015L95.1594 17.845C94.8494 17.895 94.5544 17.785 94.3494 17.575V17.58Z" fill="white"/>
<path d="M86.8507 22.6296C86.8207 22.5996 86.7907 22.5646 86.7657 22.5296C86.4607 22.1146 86.5457 21.5296 86.9607 21.2246L91.2757 18.0396C91.6907 17.7346 92.2807 17.8196 92.5807 18.2346C92.8857 18.6496 92.8007 19.2346 92.3857 19.5396L88.0707 22.7246C87.6907 23.0046 87.1707 22.9546 86.8507 22.6296Z" fill="white"/>
<path d="M106.424 44.4251C106.069 44.0651 106.069 43.4851 106.424 43.1201L110.164 39.2751C110.524 38.9051 111.114 38.9001 111.484 39.2551L111.499 39.2701C111.854 39.6301 111.854 40.2101 111.499 40.5751L107.759 44.4201C107.399 44.7901 106.809 44.7951 106.439 44.4401L106.424 44.4251Z" fill="white"/>
<path d="M103.914 17.4947C103.654 17.2297 103.569 16.8247 103.724 16.4697C103.929 15.9997 104.479 15.7847 104.954 15.9897L109.869 18.1347C110.334 18.3397 110.559 18.8897 110.349 19.3647C110.139 19.8397 109.594 20.0497 109.119 19.8447L104.204 17.6997C104.089 17.6497 103.994 17.5797 103.909 17.4997L103.914 17.4947Z" fill="white"/>
<path d="M106.964 17.3849C106.999 17.2199 107.029 17.0649 107.034 16.8999L105.039 16.0099C105.179 16.3149 105.209 16.6499 105.149 16.9849C105.074 17.3349 104.879 17.6299 104.604 17.8549L106.389 18.6499C106.664 18.2749 106.859 17.8499 106.964 17.3849ZM104.074 18.1249C103.824 18.1999 103.559 18.2099 103.294 18.1549L101.009 17.6499C100.849 17.6199 100.699 17.5599 100.569 17.4799C100.549 17.4849 100.534 17.4849 100.514 17.4949L98.3739 17.8149C98.3989 17.8699 98.4239 17.9199 98.4589 17.9649C98.5939 18.1699 98.7389 18.3549 98.9089 18.5299C99.3639 18.9949 99.9489 19.3249 100.609 19.4649L102.894 19.9699C103.784 20.1699 104.694 20.0099 105.469 19.5199C105.694 19.3749 105.899 19.1999 106.079 19.0099L104.069 18.1199L104.074 18.1249ZM106.509 14.8149C106.029 14.0449 105.264 13.5149 104.374 13.3149L102.089 12.8099C101.199 12.6099 100.284 12.7649 99.5139 13.2599C98.8589 13.6799 98.3739 14.2949 98.1289 15.0349L100.099 14.7399C100.144 14.7349 100.189 14.7299 100.239 14.7199C100.384 14.7099 100.524 14.7299 100.654 14.7699C100.964 14.5949 101.329 14.5549 101.684 14.6349L103.969 15.1399C104.199 15.1899 104.404 15.2899 104.579 15.4299C104.769 15.4299 104.974 15.4599 105.164 15.5499L107.039 16.3849C106.999 15.8349 106.814 15.2999 106.509 14.8149Z" fill="white"/>
<path d="M94.729 14.0099C93.829 13.8499 92.924 14.0449 92.169 14.5699L90.249 15.8999C89.504 16.4199 89.004 17.1999 88.844 18.0999C88.769 18.5149 88.769 18.9299 88.839 19.3349L90.939 17.7849C90.939 17.7849 90.954 17.7699 90.964 17.7699H90.969C91.064 17.6349 91.174 17.5199 91.314 17.4249L93.234 16.0949C93.504 15.9049 93.819 15.8099 94.139 15.8199C94.319 15.6699 94.549 15.5599 94.799 15.5249L96.774 15.2349C96.259 14.5749 95.534 14.1549 94.724 14.0049L94.729 14.0099ZM97.484 17.9549L95.379 18.2699C95.279 18.4049 95.154 18.5299 95.004 18.6349L93.079 19.9749C92.854 20.1299 92.594 20.2249 92.324 20.2449L90.444 21.6299C90.789 21.8399 91.184 21.9849 91.599 22.0649C92.494 22.2299 93.399 22.0249 94.149 21.5099L96.074 20.1699C96.849 19.6299 97.334 18.8199 97.479 17.9549H97.484Z" fill="white"/>
<path d="M113.434 27.7799C113.329 27.6749 113.249 27.5399 113.204 27.3849L111.719 22.2299C111.574 21.7349 111.864 21.2199 112.359 21.0749C112.854 20.9299 113.369 21.2149 113.514 21.7099L114.999 26.8649C115.144 27.3599 114.854 27.8749 114.359 28.0199C114.019 28.1199 113.664 28.0149 113.434 27.7749V27.7799Z" fill="white"/>
<path d="M111.72 37.2551C111.49 37.0201 111.39 36.6751 111.49 36.3401L113.005 31.1951C113.15 30.7001 113.67 30.4201 114.165 30.5651C114.66 30.7101 114.94 31.2301 114.795 31.7251L113.28 36.8701C113.135 37.3651 112.615 37.6451 112.12 37.5001C111.96 37.4551 111.825 37.3701 111.72 37.2601V37.2551Z" fill="white"/>
<path d="M76.6444 39.2452C80.1394 35.6452 82.6994 33.0252 83.4994 32.2452C87.0694 28.7452 83.6794 25.5702 83.6794 25.5702C83.6794 25.5702 80.5694 22.1152 76.9994 25.6152C76.1994 26.3952 73.5294 28.9052 69.8594 32.3252L76.6444 39.2502V39.2452Z" fill="white"/>
<path d="M97.1346 60.1652C100.63 56.5652 103.19 53.9452 103.99 53.1652C107.56 49.6652 104.205 46.4852 104.205 46.4852C104.205 46.4852 101.06 43.0302 97.4896 46.5302C96.6896 47.3102 94.0196 49.8202 90.3496 53.2402L97.1346 60.1652Z" fill="white"/>
<path d="M114.159 33.8899L114.804 31.7949L114.159 33.8899Z" fill="white"/>
<path d="M114.984 26.8498C114.794 26.7248 114.579 26.6498 114.334 26.6248C113.859 26.5798 113.414 26.7548 113.104 27.0598L112.569 25.1698C113.114 24.8698 113.734 24.7198 114.384 24.7598L114.984 26.8498Z" fill="white"/>
<path d="M111.924 33.2147C111.784 33.1147 111.654 33.0097 111.539 32.8897C111.474 32.8247 111.404 32.7497 111.344 32.6747C110.764 31.9747 110.489 31.0847 110.579 30.1747L110.794 27.8497C110.884 26.8497 111.404 25.9847 112.159 25.4297L112.749 27.5147C112.749 27.5147 112.754 27.5497 112.764 27.5697C112.704 27.7097 112.664 27.8647 112.649 28.0247L112.439 30.3547C112.409 30.6297 112.459 30.8947 112.574 31.1347L111.924 33.2197V33.2147Z" fill="white"/>
<path d="M116.154 33.1196C115.714 33.4846 115.204 33.7096 114.664 33.8246L115.264 31.8796C115.334 31.6846 115.329 31.4796 115.304 31.2796C115.419 31.0896 115.494 30.8746 115.514 30.6446L115.734 28.3146C115.764 27.9596 115.674 27.6146 115.479 27.3246C115.509 27.1396 115.494 26.9446 115.439 26.7496L114.889 24.8296C115.639 24.9846 116.319 25.3846 116.809 25.9896C117.394 26.6946 117.669 27.5746 117.579 28.4846L117.364 30.8246C117.284 31.7246 116.844 32.5446 116.149 33.1246L116.154 33.1196Z" fill="white"/>
<path d="M113.51 21.6997C113.51 21.7097 113.52 21.7147 113.52 21.7197L114.13 23.8497L113.52 21.7247C113.52 21.7147 113.51 21.7097 113.51 21.6997Z" fill="white"/>
<path d="M109.02 19.8151L107.125 18.9701C107.205 18.3551 107.455 17.7601 107.87 17.2651L109.72 18.0901C109.635 18.1351 109.545 18.1951 109.475 18.2651C109.03 18.6651 108.87 19.2751 109.025 19.8151H109.02Z" fill="white"/>
<path d="M111.91 24.5497C111.075 24.5097 110.26 24.1697 109.64 23.5397L109.535 23.4347L107.97 21.6897C107.405 21.0597 107.11 20.2647 107.1 19.4697L108.91 20.2797C109.035 20.3397 109.175 20.3747 109.31 20.3847C109.325 20.4097 109.335 20.4247 109.355 20.4447L110.915 22.1797C111.03 22.3147 111.17 22.4147 111.315 22.4947L111.905 24.5497H111.91Z" fill="white"/>
<path d="M114.519 23.5099L113.969 21.5899C113.899 21.3599 113.774 21.1549 113.599 20.9849C113.569 20.6749 113.449 20.3649 113.219 20.1049L111.654 18.3749L111.604 18.3199C111.339 18.0449 110.974 17.8799 110.589 17.8549C110.489 17.8449 110.389 17.8549 110.304 17.8699C110.234 17.8099 110.149 17.7649 110.054 17.7249L108.194 16.8949L108.219 16.8699C109.609 15.6099 111.784 15.7249 113.034 17.1249L114.599 18.8699C115.804 20.2099 115.739 22.2299 114.514 23.5099H114.519Z" fill="white"/>
<path d="M108.039 40.8L107.934 40.92C107.484 40.03 107.414 38.95 107.859 37.965L108.824 35.83C109.194 34.995 109.869 34.365 110.724 34.035C111.059 33.915 111.399 33.855 111.739 33.835L111.099 35.925C110.849 36.08 110.649 36.315 110.519 36.6L109.559 38.725C109.469 38.915 109.424 39.12 109.429 39.325L108.044 40.8H108.039Z" fill="white"/>
<path d="M112.174 42.5548C111.499 42.8098 110.784 42.8448 110.124 42.6598L111.629 41.0648L111.854 40.8148C111.989 40.6698 112.089 40.5048 112.154 40.3348C112.239 40.2348 112.309 40.1198 112.369 39.9948L113.334 37.8598C113.389 37.7398 113.404 37.6098 113.424 37.4848C113.544 37.3398 113.634 37.1748 113.684 36.9948L114.354 34.8398C114.679 35.1748 114.949 35.5648 115.114 36.0148C115.439 36.8698 115.414 37.7998 115.034 38.6248L114.074 40.7648C113.694 41.5898 113.024 42.2248 112.169 42.5498L112.174 42.5548Z" fill="white"/>
<path d="M84.3148 24.94C85.0748 25.705 85.6048 26.545 85.8598 27.415C85.8998 27.56 85.9348 27.695 85.9598 27.835L89.7598 24.11C89.7598 24.11 90.6502 23.0511 90.1252 21.6211L89.0687 22.3855C88.9687 22.4555 88.8569 22.5287 88.7598 22.61C88.6998 22.855 88.5648 23.09 88.3648 23.285C87.7798 23.86 86.8348 23.855 86.2598 23.27C85.6848 22.685 85.6948 21.735 86.2798 21.16C86.4748 20.97 86.7048 20.85 86.9498 20.79C87.1543 20.6245 87.3464 20.4841 87.5614 20.3291L88.369 19.705C86.884 18.98 85.4898 19.705 85.4898 19.705L81.7998 23.32C82.5598 23.55 83.3948 24.01 84.3148 24.935V24.94Z" fill="white"/>
<path d="M84.9646 27.6801C84.7496 26.9501 84.3396 26.3151 83.6496 25.6001C82.6346 24.5851 81.7846 24.2151 81.0046 24.1001L80.8096 24.2951L84.8946 28.8801L85.1196 28.6601C85.1046 28.3701 85.0646 28.0351 84.9596 27.6851L84.9646 27.6801Z" fill="white"/>
<path d="M104.794 45.87C105.584 46.645 106.084 47.465 106.344 48.345C106.374 48.445 106.394 48.54 106.414 48.64L109.439 45.675C109.439 45.675 110.364 44.625 109.709 43.14L109.554 43.305L108.639 44.265C108.569 44.345 108.474 44.42 108.384 44.47C108.324 44.565 108.259 44.65 108.179 44.735C107.619 45.28 106.724 45.27 106.179 44.715C105.634 44.16 105.644 43.265 106.199 42.715C106.294 42.625 106.399 42.55 106.509 42.49C106.539 42.445 106.564 42.4 106.604 42.36L107.324 41.6L107.739 41.155C106.334 40.52 105.159 41.28 105.159 41.28L102.169 44.21C102.959 44.425 103.829 44.89 104.799 45.865L104.794 45.87Z" fill="white"/>
<path d="M105.449 48.6098C105.234 47.8798 104.809 47.2448 104.134 46.5298C103.064 45.4498 102.169 45.1098 101.354 45.0098L100.709 45.6398L104.804 50.2198L105.599 49.4398C105.579 49.1848 105.539 48.9048 105.449 48.6048V48.6098Z" fill="white"/>
<path d="M27.0248 72.1348L24.5098 74.5048L33.5398 83.7248L35.9648 81.2548L27.0248 72.1348Z" fill="white"/>
<path d="M37.4101 79.7844L28.5301 70.7144L27.7051 71.4944L36.6201 80.5894L37.4101 79.7844Z" fill="white"/>
<path d="M18.3701 80.2945L27.6251 89.7395L28.4201 88.9345L19.1951 79.5195L18.3701 80.2945Z" fill="white"/>
<path d="M23.0098 75.9195L32.0948 85.1945L32.8848 84.3895L23.8298 75.1445L23.0098 75.9195Z" fill="white"/>
<path d="M19.875 78.8796L29.075 88.2696L31.44 85.8596L22.33 76.5596L19.875 78.8796Z" fill="white"/>
<path d="M29.2051 70.0744L38.0651 79.1195L40.6301 76.5045L31.8701 67.5645L29.2051 70.0744Z" fill="white"/>
<path d="M39.0244 60.9343L47.4044 69.4893C48.3144 68.5493 49.2944 67.5293 50.3344 66.4543L42.1194 58.0693C41.0244 59.0843 39.9844 60.0443 39.0244 60.9343Z" fill="white"/>
<path d="M42.8047 57.4345L50.9847 65.7795C51.2497 65.5045 51.5197 65.2245 51.7897 64.9445L43.6547 56.6445C43.3697 56.9095 43.0847 57.1745 42.8047 57.4345Z" fill="white"/>
<path d="M26.9747 90.4047L17.6947 80.9297L14.1947 84.2297C14.1947 84.2297 6.98472 90.3147 12.4347 95.3697C17.3747 100.92 23.6047 93.8347 23.6047 93.8347L26.9747 90.4047Z" fill="white"/>
<path d="M34.0645 65.5247L42.7145 74.3497C43.4045 73.6347 44.2895 72.7197 45.3245 71.6447L36.8245 62.9697C35.7295 63.9847 34.7945 64.8497 34.0645 65.5247Z" fill="white"/>
<path d="M37.5098 62.3345L45.9698 70.9695C46.2248 70.7045 46.4848 70.4344 46.7548 70.1544L38.3398 61.5645C38.0548 61.8295 37.7798 62.0845 37.5098 62.3345Z" fill="white"/>
<path d="M32.5498 66.9297L41.2798 75.8397C41.4498 75.6597 41.7148 75.3847 42.0648 75.0247L33.3798 66.1597C33.0098 66.4997 32.7298 66.7597 32.5498 66.9297Z" fill="white"/>
<path d="M57.9052 100.7L49.0202 91.6348L48.2002 92.4098L57.1102 101.505L57.9052 100.7Z" fill="white"/>
<path d="M47.5199 93.0498L45.0049 95.4198L54.0349 104.64L56.4599 102.17L47.5199 93.0498Z" fill="white"/>
<path d="M40.3652 99.795L49.5652 109.185L51.9352 106.775L42.8252 97.48L40.3652 99.795Z" fill="white"/>
<path d="M43.5 96.8401L52.585 106.11L53.38 105.305L44.325 96.0601L43.5 96.8401Z" fill="white"/>
<path d="M38.8652 101.21L48.1202 110.66L48.9152 109.85L39.6852 100.435L38.8652 101.21Z" fill="white"/>
<path d="M49.7002 90.995L58.5552 100.035L61.1252 97.425L52.3652 88.48L49.7002 90.995Z" fill="white"/>
<path d="M54.5596 86.4398L63.2096 95.2648C63.8996 94.5498 64.7846 93.6348 65.8196 92.5598L57.3196 83.8848C56.2246 84.8998 55.2896 85.7648 54.5596 86.4398Z" fill="white"/>
<path d="M58.0049 83.2549L66.4649 91.8899C66.7199 91.6249 66.9799 91.3549 67.2499 91.0749L58.8349 82.4849C58.5499 82.7499 58.2749 83.0049 58.0049 83.2549Z" fill="white"/>
<path d="M47.465 111.325L38.185 101.85L34.685 105.15C34.685 105.15 27.475 111.235 32.925 116.29C37.865 121.84 44.095 114.755 44.095 114.755L47.465 111.325Z" fill="white"/>
<path d="M63.2949 78.3549L71.4749 86.6999C71.7399 86.4249 72.0099 86.1449 72.2799 85.8649L64.1449 77.5649C63.8599 77.8299 63.5749 78.0949 63.2949 78.3549Z" fill="white"/>
<path d="M53.0449 87.8447L61.7749 96.7547C61.9449 96.5747 62.2099 96.2997 62.5599 95.9397L53.8749 87.0747C53.5049 87.4147 53.2249 87.6747 53.0449 87.8447Z" fill="white"/>
<path d="M59.5195 81.8499L67.8995 90.4049C68.8095 89.4649 69.7895 88.4449 70.8295 87.3699L62.6145 78.9849C61.5195 79.9999 60.4795 80.9599 59.5195 81.8499Z" fill="white"/>
<path d="M68.4949 33.5947C61.6098 40.0047 51.9498 48.9647 44.3398 56.0147L52.4348 64.2797C59.6398 56.8147 68.7948 47.3397 75.3448 40.5897L68.4949 33.5947Z" fill="white"/>
<path d="M88.9851 54.5098C82.1001 60.9198 72.4401 69.8798 64.8301 76.9298L72.9251 85.1948C80.1301 77.7298 89.2851 68.2548 95.8351 61.5048L88.9851 54.5098Z" fill="white"/>
</svg>
