<svg width="128" height="128" viewBox="0 0 128 128" fill="none" xmlns="http://www.w3.org/2000/svg">
<path d="M45.321 85.4493C44.981 86.5793 44.801 87.7443 44.921 88.8993C45.046 89.7393 45.246 90.6743 45.226 91.5593C46.276 90.9543 47.206 89.6343 47.206 89.6343C47.206 89.6343 47.586 89.0643 47.821 87.9743L45.321 85.4443V85.4493Z" fill="white"/>
<path d="M45.3398 85.4599L42.6998 82.7899C40.0348 82.4049 38.7148 83.1799 38.7148 83.1799C38.7148 83.1799 37.0298 84.2399 36.6548 85.4849C36.6548 85.4849 38.1248 85.4099 38.6498 85.3999C39.6198 85.3299 40.6598 85.5899 41.5848 85.7349C42.7048 85.8649 43.8348 85.7049 44.9348 85.3999C44.5498 85.6249 42.2448 86.5049 41.4948 86.4199C39.7798 86.0049 38.3148 85.9599 36.6198 85.9299C36.1498 85.9699 35.8248 86.1149 35.8248 86.1149C35.8248 86.1149 34.1398 87.1749 33.7648 88.4199C33.7648 88.4199 34.9848 88.4249 35.3348 88.4199C36.3048 88.3499 37.3448 88.6099 38.2698 88.7549C39.2798 88.8749 40.2998 88.7549 41.2998 88.5099C40.9848 88.6649 40.6748 88.7999 40.5448 88.8549C39.6898 89.0949 39.0698 89.5399 38.1748 89.4449C36.6198 89.0699 35.1848 88.9299 33.6698 88.8849C33.2948 88.9999 33.0998 89.1099 33.0998 89.1099C33.0998 89.1099 31.4848 90.1249 31.1298 91.3149C31.1298 91.3149 32.4348 91.2499 32.9148 91.2399C33.8848 91.1699 34.9248 91.4299 35.8498 91.5749C36.7798 91.6849 37.7248 91.5949 38.6498 91.3899C38.3398 91.6049 36.4248 92.3349 35.7598 92.2649C34.1298 91.8699 32.6248 91.7399 31.0198 91.7049C30.8048 91.7849 30.6948 91.8499 30.6948 91.8499C30.6948 91.8499 29.0798 92.8649 28.7248 94.0549C28.7248 94.0549 29.7948 94.1199 30.0098 94.1149C30.9798 94.0449 32.0198 94.3049 32.9448 94.4499C33.6998 94.5399 34.4598 94.4949 35.2098 94.3649C35.0398 94.5149 33.4398 95.1999 32.8548 95.1349C31.4598 94.7999 30.1598 94.6549 28.8148 94.5949C28.4548 94.7049 28.2698 94.8099 28.2698 94.8099C28.2698 94.8099 26.6898 95.7999 26.3448 96.9649C26.3448 96.9649 26.9548 97.0549 27.7198 97.1849C27.7348 97.1849 29.7748 97.2549 30.7098 97.3449C31.1848 97.3749 31.6548 97.3349 32.1248 97.2749C32.0098 97.5099 31.0448 98.0549 30.6598 98.0349C29.1748 97.7649 27.8098 97.6999 26.3898 97.7299C26.3648 97.7449 26.3498 97.7499 26.3498 97.7499C26.3498 97.7499 24.9698 98.7099 24.7048 99.7749C24.7048 99.7749 25.0898 99.8149 25.6198 99.8749C26.4898 99.7199 27.4448 99.7749 28.2898 99.7649C28.7748 99.7399 29.2498 99.6599 29.7198 99.5449C29.5098 99.7499 28.5648 100.445 28.3148 100.455C27.1148 100.37 26.0098 100.405 24.8948 100.515C24.5598 100.665 24.3898 100.8 24.3898 100.8C24.3898 100.8 23.2948 101.77 23.1748 102.715C23.1748 102.715 23.2648 102.715 23.4098 102.715C24.5098 102.335 25.6998 102.19 26.8448 102.26C26.9398 102.26 27.0348 102.24 27.1298 102.23C27.0698 102.28 27.0098 102.33 26.9498 102.385C26.7998 102.535 26.0998 102.92 25.8748 102.92C24.9898 102.91 24.1598 102.975 23.2848 103.07C23.1148 103.23 22.8398 103.515 22.6348 103.845L26.0398 107.38C26.0398 107.38 26.0498 107.355 26.0598 107.34C25.9898 106.6 25.8848 105.865 25.6998 105.075C25.6848 104.93 25.6998 104.79 25.6948 104.65C25.9148 104.62 26.1498 104.565 26.3748 104.485C26.3748 104.655 26.3698 104.825 26.3848 104.995C26.5398 105.695 26.6148 106.43 26.5998 107.16C27.3398 106.935 28.0148 106.18 28.0148 106.18C28.0148 106.18 28.1498 106.015 28.2798 105.68C28.2498 104.82 28.1498 103.92 28.1848 103.13C28.2198 102.34 28.5048 101.95 28.7298 101.87C28.6898 102.23 28.6698 102.59 28.6948 102.95C28.7448 103.22 28.7748 103.5 28.7998 103.78C28.9698 104.625 29.1198 105.7 29.1198 105.7C29.7298 105.4 30.2748 104.665 30.5298 104.285C30.6048 103.12 30.4398 101.68 30.4748 100.785C30.5098 99.8899 31.2248 99.0449 31.4648 98.9349C31.3998 99.1499 31.3098 99.5849 31.3098 99.5849L31.2448 99.8799C31.2448 99.8799 31.1698 100.475 31.1698 100.775C31.2648 101.685 31.2298 102.625 31.0448 103.54C31.0598 103.86 31.0648 104.07 31.0648 104.07C32.0448 103.695 33.0048 102.33 33.0048 102.33C33.0048 102.33 33.1548 102.09 33.3148 101.64C33.3098 100.68 33.2598 99.7599 33.0848 98.7299C33.0648 98.1549 33.7698 96.9199 33.9898 96.8449C33.8348 97.4499 33.7448 98.0649 33.7798 98.6899C33.9348 99.6649 33.9248 100.695 33.7248 101.68C33.7348 101.97 33.7398 102.165 33.7398 102.165C34.8298 101.75 35.8948 100.24 35.8948 100.24C35.8948 100.24 35.9998 100.075 36.1348 99.7599C36.0448 99.1499 35.9398 98.5299 35.7798 97.8949C35.6298 96.5899 36.7598 93.9949 36.9248 93.9399C36.5248 95.1949 36.3098 96.5099 36.4698 97.7999C36.4948 97.9399 36.5198 98.0849 36.5448 98.2299C36.5498 98.1949 36.5548 98.1649 36.5598 98.1299C36.5648 98.2199 36.5698 98.3149 36.5748 98.3999C36.6548 98.8249 36.7298 99.2649 36.7748 99.6999C37.8348 99.2049 38.8298 97.7949 38.8298 97.7949C38.8298 97.7949 38.9298 97.6399 39.0548 97.3449C38.9748 96.5799 38.8648 95.8099 38.6798 95.0049C38.5498 93.6899 39.9198 90.7049 40.1148 90.4399C39.5548 91.8749 39.2048 93.4099 39.3648 94.9199C39.4698 95.6399 39.6398 96.4299 39.6698 97.1999C40.6598 96.6399 41.5448 95.3899 41.5448 95.3899C41.5448 95.3899 41.7698 95.0399 41.9748 94.3799C41.8448 93.8399 41.6998 93.2949 41.5148 92.7399C41.2698 91.5149 41.9198 89.6299 42.4298 88.3149C42.0598 89.7199 41.8998 91.1899 42.1898 92.5899C42.3398 93.1949 42.5398 93.8499 42.6598 94.5049C43.6848 93.8849 44.5798 92.6149 44.5798 92.6149C44.5798 92.6149 44.7648 92.3349 44.9598 91.7899C44.8798 90.9899 44.7648 90.1849 44.5748 89.3449C44.4398 88.0049 44.7448 86.6699 45.3298 85.4749L45.3398 85.4599Z" fill="white"/>
<path d="M26.7347 110.685C26.1047 108.885 25.7997 108.045 25.6597 107.685L21.9297 103.915C21.5747 103.77 20.7397 103.46 18.9447 102.805C14.4097 101.155 13.5947 105.445 13.5947 105.445C15.0447 106.825 14.3647 108.655 14.3647 108.655C16.7347 110.04 16.0497 113.455 16.0497 113.455C16.0497 113.455 19.4697 112.81 20.8297 115.195C20.8297 115.195 22.6697 114.535 24.0397 116.005C24.0397 116.005 28.3347 115.235 26.7347 110.68V110.685ZM16.6647 107.425C17.1097 106.175 16.2247 105.345 16.2247 105.345C18.4597 105.03 20.4847 106.45 20.4847 106.45C18.3597 105.94 16.6647 107.43 16.6647 107.43V107.425ZM19.2247 111.65C19.2247 111.65 18.4047 111.49 17.6997 111.865C17.6997 111.865 17.9797 111.1 17.7547 110.37C17.7547 110.37 19.4547 108.695 21.0397 108.575C21.0397 108.575 21.1347 109.72 19.2297 111.65H19.2247ZM24.0547 113.265C24.0547 113.265 23.2297 112.37 21.9797 112.8C21.9797 112.8 23.4897 111.12 22.9997 108.99C22.9997 108.99 24.3947 111.03 24.0547 113.26V113.265Z" fill="white"/>
<path d="M65.5996 84.4099C65.5996 84.4099 62.4196 81.0299 59.6246 84.3149C56.8296 87.6049 60.9946 88.1349 60.9946 88.1349L61.7396 89.2199C61.7396 89.2199 58.8046 91.9549 56.3696 88.2299C53.9346 84.5049 54.5196 85.2249 54.5196 85.2249C53.6846 84.2699 52.6496 83.3499 52.6346 83.3349L52.2446 82.9949L52.5996 82.6199C52.5996 82.6199 53.6396 81.4949 53.5796 80.0799C53.5446 79.2149 53.1096 78.3999 52.2846 77.6499C49.6196 75.2249 47.7346 77.0199 47.6546 77.0949L47.3246 77.4199L46.9746 77.1199C46.0796 76.3449 45.1046 75.6649 44.5096 75.2649C44.1496 75.0449 43.3746 74.5499 41.7746 73.4749C38.0796 70.9999 40.8496 68.0999 40.8496 68.0999L41.9296 68.8549C41.9296 68.8549 42.4046 73.0199 45.7246 70.2649C49.0446 67.5049 45.7046 64.2949 45.7046 64.2949C45.7046 64.2949 43.2246 60.2799 37.4496 64.6649C31.6746 69.0499 36.2796 75.5999 36.2796 75.5999L41.7496 81.1299L48.7146 88.1699L54.1896 93.7049C54.1896 93.7049 60.6846 98.3849 65.1346 92.6599C69.5846 86.9349 65.5996 84.4099 65.5996 84.4099ZM50.6046 81.5549C49.9996 82.1549 49.0246 82.1449 48.4246 81.5449C47.8246 80.9449 47.8346 79.9649 48.4346 79.3699C49.0396 78.7699 50.0146 78.7799 50.6146 79.3799C51.2146 79.9849 51.2046 80.9599 50.6046 81.5549Z" fill="white"/>
<path d="M67.5697 53.6147C56.9797 63.9047 47.9897 72.3397 45.4697 74.6947C45.9947 75.0547 46.6597 75.5397 47.3247 76.0897C48.1547 75.5147 50.3197 74.4947 52.9647 76.9047C53.9997 77.8447 54.5447 78.8997 54.5847 80.0497C54.6347 81.3247 54.0347 82.3697 53.6497 82.9097C54.0297 83.2647 54.6497 83.8647 55.2147 84.4997C57.6397 81.9647 66.1547 73.1047 76.5197 62.6697C99.7897 39.2597 114.195 23.2547 116.85 13.8447C107.42 16.3997 91.2497 30.6247 67.5697 53.6147ZM81.3997 49.3747C76.6997 53.8247 67.2197 63.3347 62.4997 67.5197C74.5147 55.5097 87.1597 41.9947 99.7597 30.6797L99.8197 30.7397C93.9297 37.1997 87.7147 43.3297 81.3997 49.3697V49.3747Z" fill="white"/>
</svg>
