<svg width="128" height="128" viewBox="0 0 128 128" fill="none" xmlns="http://www.w3.org/2000/svg">
<path d="M19.4798 104.95C18.8148 104.79 18.1498 104.96 17.7198 105.125C16.7148 106.2 16.6848 107.875 17.6998 108.97C18.7598 110.12 20.5498 110.19 21.6998 109.13C21.9048 108.94 22.0648 108.715 22.1998 108.485C22.2798 106.64 20.5398 105.21 19.4848 104.955L19.4798 104.95Z" fill="white"/>
<path d="M44.1101 76.3351L40.7051 79.4801C45.4601 81.2651 46.6801 84.9751 46.9851 86.9851L50.9351 83.3351C50.2251 81.6001 48.3951 78.3801 44.1101 76.3301V76.3351Z" fill="white"/>
<path d="M40.2952 79.8601L40.2502 79.9001C39.0052 79.9551 37.5752 80.8751 35.2652 83.6301C32.0152 87.5051 29.0302 89.3901 29.0302 89.3901C29.0302 89.3901 13.3952 97.6101 17.7102 104.055C17.8152 104.215 17.9202 104.36 18.0252 104.505C18.4752 104.39 19.0302 104.325 19.5952 104.46C20.8352 104.76 22.8002 106.365 22.6952 108.5C24.4152 109.09 25.5402 108.545 25.5402 108.545C32.6552 105.82 34.7352 98.8201 38.6552 95.1151C42.5752 91.4051 44.7452 90.8601 46.2852 87.9751C46.3902 87.7801 46.4652 87.5801 46.5202 87.3751L46.5352 87.3901L46.5452 87.3801C46.3652 85.5701 45.3802 81.6251 40.2902 79.8501L40.2952 79.8601Z" fill="white"/>
<path d="M104.145 34.865C87.7412 18.5951 72.3998 18.23 72.3998 18.23C81.0998 22.67 85.3498 27.41 85.3498 27.41C101.515 45.045 98.1298 58.155 98.1298 58.155C98.1298 58.155 97.4798 67.685 85.1648 75.255C72.8498 82.825 52.2398 69.95 52.2398 69.95C51.5498 73.315 48.2298 76.03 47.0498 76.91C49.0548 78.355 50.3198 80 51.1048 81.38L53.3298 79.325C61.8098 85.805 66.6798 86.995 66.6798 86.995C94.2198 97.275 108.275 75.53 108.275 75.53C108.275 75.53 121.685 54.03 104.145 34.86V34.865ZM104.475 72.31C99.1948 81.295 88.5648 85.645 78.5498 86.405C85.1798 85.535 91.7948 83.31 97.1698 79.285C109.92 69.57 111.25 50.2 101.77 37.73C98.9998 34.02 95.6498 30.775 92.1798 27.715C97.4648 31.905 102.575 36.68 105.6 42.805C110.29 51.98 109.84 63.515 104.48 72.31H104.475Z" fill="white"/>
</svg>
