<svg width="128" height="128" viewBox="0 0 128 128" fill="none" xmlns="http://www.w3.org/2000/svg">
<g clip-path="url(#clip0_268_11777)">
<path d="M95.2958 30.9572C92.7342 24.3134 87.0879 28.3931 87.0879 28.3931C87.0879 28.3931 92.3362 30.7276 91.0069 33.7255C90.2695 35.3865 89.0372 35.3992 87.565 35.4732C87.042 35.5013 86.6465 35.9325 86.6286 36.4555C86.6159 36.8714 86.5393 37.3868 86.325 37.9481C85.9219 39.0197 85.0876 39.752 83.9471 40.9333C84.1614 42.1069 86.2638 44.5665 88.0728 45.1405C89.5194 43.7857 90.045 43.153 90.9686 42.7244C91.41 42.5228 92.0632 42.3799 92.6066 42.3365C93.0302 42.3008 93.3746 41.9921 93.4843 41.5813C93.7139 40.719 94.2803 39.4432 95.5127 38.8335C97.1073 38.0451 99.8246 39.1243 101.935 43.2449C104.453 38.5528 101.363 36.1672 99.72 35.3865C103.966 33.922 107.009 30.9649 111.097 26.0049C115.069 21.1853 116.526 18.8406 125.298 1.7512C113.408 12.4671 105.438 20.8103 95.2907 30.9572L95.2958 30.9572ZM98.8091 34.0521L98.7045 34.1771C97.8141 34.2103 96.9338 34.4629 96.1021 34.7793C93.6144 35.7003 91.6498 38.4354 92.2571 41.1246C90.6012 40.1117 89.0142 38.8207 88.1748 37.027L88.236 36.9913C88.7208 37.7261 89.2566 38.4303 89.9174 38.9891C90.4583 39.4534 91.0528 39.8489 91.6677 40.2189C91.5325 38.5222 92.3974 36.8714 93.5455 35.6722C94.6554 34.4654 96.2271 33.8378 97.7987 33.5316C97.9722 33.501 98.1534 33.4729 98.3371 33.4576C105.93 24.8389 114.067 14.9777 121.68 6.6244C115.034 14.5772 105.399 26.2524 98.804 34.0572L98.8091 34.0521Z" fill="white"/>
<path d="M9.28713 123.058L9.27437 123.071C9.10853 123.237 8.8687 123.282 8.6952 123.18C8.12113 122.841 7.54196 122.415 7.01382 121.887C6.48568 121.359 6.05704 120.772 5.72025 120.195C5.62075 120.024 5.66667 119.784 5.83251 119.619L5.84527 119.606C6.06724 119.384 6.40403 119.389 6.54436 119.616C6.86839 120.139 7.26641 120.67 7.75118 121.155C8.23595 121.639 8.75644 122.032 9.28203 122.359C9.5091 122.499 9.51166 122.833 9.28968 123.055L9.28713 123.058Z" fill="white"/>
<path d="M3.36026 120.81C3.95219 120.438 4.72272 120.249 5.31975 120.361C5.3325 120.4 5.34781 120.43 5.36822 120.466C5.75349 121.122 6.19999 121.706 6.69751 122.203C7.19504 122.701 7.76911 123.142 8.42227 123.53C8.45799 123.551 8.49371 123.566 8.53198 123.579C8.64935 124.201 8.44013 125.007 8.03701 125.61C7.89158 125.826 7.61092 125.918 7.36088 125.837C6.1362 125.428 5.39119 125.898 4.92173 126.138C4.74823 126.224 4.92173 126.138 4.74823 126.224C4.54157 125.936 3.72511 126.207 3.20718 125.689C2.68924 125.171 2.96224 124.357 2.67393 124.145L2.76068 123.972C2.99286 123.515 3.50059 122.543 3.12043 121.555C3.01327 121.28 3.11022 120.968 3.36026 120.81Z" fill="white"/>
<path d="M86.4159 44.8828L32.2519 99.0468C32.2519 99.0468 31.5043 98.8095 30.795 98.1002C30.0857 97.3909 29.8587 96.6535 29.8587 96.6535L84.0227 42.4895C84.0227 42.4895 84.3467 43.0636 85.0943 43.8112C85.8418 44.5587 86.4159 44.8828 86.4159 44.8828Z" fill="white"/>
<path d="M19.4754 105.645L18.5135 106.469C18.141 106.79 17.7761 107.125 17.4266 107.469C17.3169 107.706 17.2046 107.946 17.1 108.188C16.5234 109.536 16.0565 110.941 15.86 112.393C15.6916 113.618 15.7044 114.922 16.1866 116.072L18.9753 113.682C18.613 112.993 18.4191 112.238 18.3578 111.462C18.192 109.469 18.7176 107.505 19.4728 105.642L19.4754 105.645Z" fill="white"/>
<path d="M12.9317 115.327C12.7812 116.442 12.7812 117.616 13.1435 118.687L15.9067 116.317C15.6362 115.71 15.4857 115.059 15.4295 114.396C15.2535 112.286 15.8505 110.204 16.6823 108.244C16.5215 108.421 16.3634 108.594 16.2077 108.775L14.1436 111.186C13.5798 112.51 13.1256 113.898 12.9292 115.33L12.9317 115.327Z" fill="white"/>
<path d="M27.6317 98.6562L25.4451 100.531C25.0803 101.529 24.7945 102.555 24.6542 103.603C24.4832 104.861 24.5062 106.201 25.0241 107.372L27.55 104.422C27.3255 103.866 27.2005 103.272 27.152 102.672C27.0372 101.312 27.249 99.9625 27.6342 98.6536L27.6317 98.6562Z" fill="white"/>
<path d="M13.402 112.049L10.8455 115.034C10.4551 116.077 10.149 117.154 9.99843 118.259C9.8632 119.256 9.84789 120.308 10.1081 121.287L12.8484 118.94C12.6596 118.425 12.5447 117.881 12.4988 117.33C12.3483 115.531 12.7642 113.753 13.402 112.054L13.402 112.049Z" fill="white"/>
<path d="M24.2219 105.604C24.0918 104.045 24.3852 102.501 24.8827 101.014L22.7523 102.838C22.2726 104.027 21.895 105.262 21.7241 106.535C21.5378 107.905 21.5761 109.372 22.2445 110.612C22.3083 110.538 22.3747 110.467 22.441 110.39L24.773 107.67C24.4592 107.025 24.2857 106.321 24.227 105.604L24.2219 105.604Z" fill="white"/>
<path d="M9.56781 120.256C9.44279 118.748 9.71324 117.253 10.1776 115.809L7.04957 119.458C7.04957 119.458 7.27919 120.198 7.98593 120.904C8.69268 121.611 9.44279 121.851 9.44279 121.851L9.80509 121.54C9.68007 121.124 9.60098 120.693 9.56526 120.254L9.56781 120.256Z" fill="white"/>
<path d="M28.1677 98.197C27.9049 99.0058 27.6957 99.8325 27.5809 100.677C27.4252 101.818 27.4303 103.022 27.8207 104.111L31.5942 99.71C31.5942 99.71 30.8901 99.5161 30.1425 98.7686C29.3949 98.021 29.201 97.3168 29.201 97.3168L28.1702 98.1996L28.1677 98.197Z" fill="white"/>
<path d="M21.9528 110.842C21.5574 110.13 21.3584 109.339 21.292 108.533C21.1466 106.764 21.5446 105.014 22.1621 103.34L20.098 105.109C20.0776 105.16 20.052 105.206 20.0316 105.257C19.455 106.604 18.9881 108.01 18.7916 109.461C18.6105 110.796 18.6462 112.219 19.2611 113.436L20.1311 112.689C20.7868 112.125 21.4094 111.523 21.9911 110.885C21.9784 110.872 21.963 110.857 21.9503 110.839L21.9528 110.842Z" fill="white"/>
</g>
<defs>
<clipPath id="clip0_268_11777">
<rect width="128" height="128" fill="white"/>
</clipPath>
</defs>
</svg>
