<svg width="128" height="128" viewBox="0 0 128 128" fill="none" xmlns="http://www.w3.org/2000/svg">
<path d="M89.3644 31.085L89.4944 31.23L89.3594 31.09L89.3644 31.085Z" fill="white"/>
<path d="M107.934 33.8847C104.844 36.2997 102.084 39.1397 99.7944 42.3397C99.2744 42.2147 97.2894 41.6047 97.8444 39.5647L97.7918 39.4796L97.6512 39.3038L97.4994 39.1097L89.5044 31.2397L89.4944 31.2297L89.3644 31.0847L89.1094 30.7997C87.0794 31.3297 86.4794 29.3497 86.3594 28.8347C89.5444 26.5447 92.4194 23.8197 94.8394 20.7197C97.1044 21.1797 96.4594 23.4997 96.4594 23.4997L96.4794 23.5247C96.4794 23.5247 96.4694 23.5347 96.4644 23.5397L96.7177 23.8512L97.0868 24.2986L104.409 31.5597L105.119 32.2697C105.119 32.2697 105.139 32.2547 105.149 32.2447L105.159 32.2547C105.159 32.2547 107.484 31.6147 107.934 33.8847Z" fill="white"/>
<path d="M98.3841 25.5999C99.5741 24.0899 100.754 23.8349 101.699 24.0149C101.499 24.2149 101.519 24.5399 101.759 24.9899C101.944 25.3399 102.254 25.7399 102.629 26.1149C103.079 26.5649 103.849 27.1849 104.379 27.1849C104.494 27.1849 104.594 27.1499 104.684 27.0799C104.824 28.0099 104.534 29.1549 103.069 30.2999C102.321 29.768 98.4363 25.8294 98.3841 25.5999Z" fill="white"/>
<path d="M119.26 44.4252L121.7 41.9952L119.76 40.0502L120.215 39.6002L113.54 32.9052L113.135 33.3152L110.88 31.0552C106.616 35.3107 103.695 38.5819 97.7803 44.4852L99.7653 46.4752L99.3553 46.8802L106.025 53.5702L106.385 53.2102L108.37 55.2002L110.815 52.7602L110.86 52.8052C111.155 53.1052 111.64 53.1102 111.94 52.8102L119.345 45.4252C119.6 45.1752 119.6 44.7652 119.345 44.5102L119.265 44.4252H119.26ZM114.745 42.2852C114.745 42.2852 112.165 39.6902 111.21 38.7352L108.205 41.7302L106.84 43.1202L105.525 44.4352L104.41 44.4602C104.41 44.4602 109.875 39.0102 110.945 37.9402L111.215 37.6752L111.48 37.9402C112.06 38.5302 114.41 40.8852 114.41 40.8852L115.8 42.2702L114.745 42.2852Z" fill="white"/>
<path d="M104.57 26.4749C104.57 26.3949 104.35 25.8299 103.62 25.0949C102.94 24.4149 102.405 24.1749 102.24 24.1699C102.24 24.3349 102.48 24.8749 103.16 25.5549C103.89 26.2899 104.46 26.5049 104.575 26.4749H104.57Z" fill="white"/>
<path d="M96.9049 18.495L94.6499 16.23L95.0549 15.825L88.3849 9.13502L87.9349 9.59002L85.9949 7.64502L83.5549 10.075C83.2549 9.78002 82.7749 9.78002 82.4749 10.075L75.1499 17.375C74.8499 17.675 74.8499 18.16 75.1499 18.46L75.1949 18.505L72.7549 20.94L74.7349 22.925L74.3699 23.285L81.0449 29.98L81.4499 29.575L83.4299 31.56C87.8642 27.1432 92.4715 22.9109 96.9049 18.495ZM89.4299 18.37C89.4299 18.37 86.8499 15.775 85.8949 14.82L82.8899 17.82L81.5249 19.205L80.2099 20.52L79.0899 20.545C79.0899 20.545 84.5599 15.095 85.6299 14.025L85.8949 13.76L86.1599 14.03C86.7449 14.615 89.0949 16.97 89.0949 16.97L90.4799 18.36L89.4299 18.37Z" fill="white"/>
<path d="M94.3847 39.595H94.3897L89.1946 34.38H89.1897L88.1497 33.345C88.1497 33.345 86.8296 33.25 86.7646 34.725L87.8147 35.78L92.9847 40.965L94.0347 42.015C95.5097 41.955 95.4197 40.635 95.4197 40.635L94.3796 39.595H94.3847Z" fill="white"/>
<path d="M89.4897 31.9851C89.4897 31.9851 88.0647 31.8151 88.1197 33.3501L95.4147 40.6701C96.9547 40.7301 96.7847 39.3051 96.7847 39.3051L89.4897 31.9851Z" fill="white"/>
<path d="M92.6251 41.3153L87.4551 36.1303L87.4451 36.1403L86.7101 35.4053L86.3901 35.7353C86.0501 36.0853 86.0551 36.6453 86.4001 36.9903L86.4851 37.0753L84.8301 38.7253L90.0251 43.9353L91.6801 42.2853L91.8301 42.4403C92.1351 42.7503 92.6351 42.7553 92.9501 42.4503L93.3501 42.0653L92.6101 41.3253L92.6201 41.3153H92.6251Z" fill="white"/>
<path d="M34.7286 89.4017L20.542 103.549L25.0047 108.024L39.1913 93.8769L34.7286 89.4017Z" fill="white"/>
<path d="M62.72 61.4849L61.96 62.2399C63.475 63.7949 65.315 65.2399 67.305 65.8649L69.64 63.5399C69.605 63.5399 69.57 63.5399 69.535 63.5399C67.205 63.5399 64.775 62.5949 62.72 61.4849Z" fill="white"/>
<path d="M14.8596 107.09L13.0596 108.885C13.0596 108.885 11.1846 111.43 13.9096 114.64C17.1146 117.38 19.6596 115.51 19.6596 115.51L21.4596 113.715L14.8596 107.09Z" fill="white"/>
<path d="M65.7441 67.4251L66.8841 66.2851C64.8941 65.6001 63.0791 64.1601 61.5791 62.6201L60.7441 63.4501C62.1241 64.9951 63.8441 66.5401 65.7391 67.4201L65.7441 67.4251Z" fill="white"/>
<path d="M17.235 105.245L16.97 104.975C16.97 104.975 15.335 104.825 15.21 106.73L16.26 107.785L20.76 112.305L21.81 113.355C23.655 113.24 23.58 111.71 23.57 111.61L17.225 105.25L17.235 105.245Z" fill="white"/>
<path d="M60.3742 63.8252L38.9492 85.1902L43.4242 89.6802L65.3442 67.8252C63.4442 66.9052 61.7442 65.3602 60.3742 63.8252Z" fill="white"/>
<path d="M83.6443 38.9551C83.5193 38.8551 83.3393 38.8551 83.2243 38.9701L82.7843 39.4101C82.4493 39.7401 82.4493 40.2801 82.7843 40.6151L83.2193 41.0501L63.1143 61.0951C65.2793 62.2401 67.8343 63.1801 70.1943 62.9901L87.6943 45.5401L88.1943 46.0401C88.4943 46.3401 88.9743 46.3401 89.2743 46.0401L89.7043 45.6151C89.8593 45.4601 89.8643 45.2101 89.7243 45.0451L83.6543 38.9551H83.6443Z" fill="white"/>
<path d="M19.1148 102.84C19.1148 102.84 17.3448 102.545 17.3398 104.61L23.9448 111.23C26.0098 111.23 25.7198 109.46 25.7198 109.46L19.1148 102.84Z" fill="white"/>
<path d="M43.07 90.0298L38.595 85.5448L38.585 85.5548L37.17 84.1348L36.425 84.2048L33.74 86.8848L33.625 87.5848L35.09 89.0498L35.085 89.0548L39.545 93.5298H39.55L41.015 94.9948L41.715 94.8848L44.405 92.2048L44.47 91.4598L43.06 90.0448L43.07 90.0298Z" fill="white"/>
</svg>
