<svg width="128" height="128" viewBox="0 0 128 128" fill="none" xmlns="http://www.w3.org/2000/svg">
<path d="M83.4746 16.5301L81.4696 13.9601L82.6796 12.4101C82.9446 12.0751 82.8846 11.5851 82.5446 11.3251L73.8196 4.51514L74.0146 10.5551C67.1696 10.0451 69.5846 16.2301 69.5846 16.2301L63.9746 17.8101L72.5946 24.5401C72.8346 24.7251 73.1746 24.6851 73.3596 24.4451L74.4496 23.0451C76.0396 22.4101 77.4096 22.6101 78.4246 22.9951L83.4746 16.5251V16.5301ZM71.6096 17.4851C70.2396 17.8501 68.8596 18.1851 67.4646 18.4651C68.6796 17.9601 69.9096 17.5001 71.1496 17.0701C69.2896 13.4101 71.6096 11.3451 75.3596 11.6751C75.3646 10.3501 75.3996 9.03014 75.4846 7.70514C75.6846 9.21514 75.8196 10.7301 75.9196 12.2501C74.0046 12.1101 70.8146 12.4651 71.1746 15.0651C71.2396 15.8501 71.5796 16.6501 71.9046 17.4001L71.6096 17.4801V17.4851Z" fill="white"/>
<path d="M100.49 25.335L90.3599 17.43C90.0349 17.175 89.6349 17.04 89.2249 17.04L83.9499 17.055L79.0799 23.295C79.8299 23.69 80.2599 24.115 80.2599 24.115C85.0449 27.85 82.2449 31.74 82.2449 31.74L78.8799 35.815L84.5249 40.22L87.5549 36.225C87.5549 36.225 91.6199 32.68 94.0849 34.455C96.5499 36.23 95.5449 40.805 95.5449 40.805C105.235 42.025 117.37 53.16 117.37 53.16C116.34 45.06 107.995 33.78 104.265 29.08C103.16 27.685 101.89 26.435 100.49 25.34V25.335ZM85.9699 32.85C84.9349 32.38 84.7649 31.015 85.6549 30.305C86.0749 29.97 86.6749 29.9 87.1599 30.12C88.1949 30.59 88.3649 31.955 87.4749 32.665C87.0549 33 86.4549 33.07 85.9699 32.85ZM97.2249 34.705C95.8549 34 95.6299 32.175 96.7899 31.16C97.4299 30.595 98.3949 30.475 99.1549 30.87C100.525 31.575 100.75 33.4 99.5899 34.415C98.9499 34.98 97.9849 35.1 97.2249 34.705ZM101.305 37.5C100.27 37.03 100.1 35.665 100.99 34.955C101.41 34.62 102.01 34.55 102.495 34.77C103.53 35.24 103.7 36.605 102.81 37.315C102.39 37.65 101.79 37.72 101.305 37.5ZM104.01 39.66C103.61 39.35 103.54 38.77 103.85 38.37C104.16 37.97 104.74 37.9 105.14 38.21C105.54 38.52 105.61 39.1 105.3 39.5C104.99 39.9 104.41 39.97 104.01 39.66ZM113.48 47.08C107.09 37.17 101.875 27.285 91.7049 20.72C91.5399 20.595 90.5599 19.94 90.5599 19.94C95.8099 22.905 100.71 26.885 104.425 31.575C107.245 35.095 109.36 39.035 111.53 43.015C112.25 44.335 113.255 46.24 113.785 47.65L113.485 47.08H113.48Z" fill="white"/>
<path d="M22.825 103.99C22.585 103.805 22.24 103.845 22.05 104.08C20.56 105.915 19.48 107.255 18.995 107.88C16.495 111.12 18.355 114.065 19.575 115.445C20.025 115.955 20.555 116.4 21.135 116.76C23.885 118.465 25.825 117.865 27.41 116.81C28.01 116.415 28.845 115.61 29.27 115.03L31.77 111.66C31.95 111.42 31.905 111.08 31.665 110.895L22.82 103.995L22.825 103.99Z" fill="white"/>
<path d="M44.8554 93.1105L36.8604 86.8705C36.6254 86.6855 36.2804 86.7255 36.0904 86.9555C35.2954 87.9205 34.5054 88.8805 33.7204 89.8355C33.5204 90.0755 33.5654 90.4305 33.8104 90.6205L41.9504 96.9755C42.1954 97.1655 42.5504 97.1205 42.7354 96.8705L44.9554 93.8755C45.1354 93.6355 45.0904 93.2955 44.8504 93.1105H44.8554Z" fill="white"/>
<path d="M34.9649 106.445L26.3249 99.7002C26.0899 99.5152 25.7449 99.5552 25.5549 99.7902C24.7099 100.825 23.9199 101.79 23.1949 102.675C22.9999 102.915 23.0399 103.265 23.2849 103.46L32.0649 110.31C32.3099 110.5 32.6649 110.455 32.8499 110.205L35.0699 107.21C35.2499 106.97 35.2049 106.63 34.9649 106.445Z" fill="white"/>
<path d="M38.2599 102L29.8299 95.4205C29.5949 95.2355 29.2499 95.2755 29.0599 95.5105C28.2399 96.5055 27.4499 97.4705 26.6949 98.3955C26.4999 98.6355 26.5399 98.9905 26.7849 99.1805L35.3599 105.87C35.6049 106.06 35.9599 106.015 36.1449 105.765L38.3649 102.77C38.5449 102.53 38.4999 102.19 38.2599 102.005V102Z" fill="white"/>
<path d="M67.0747 64.5052C66.3797 64.1902 64.8547 63.4252 63.1047 62.0602C61.9097 61.1302 60.6147 59.9202 59.4047 58.3852L59.4447 58.3502C55.0297 58.3252 55.8647 62.6652 55.9147 62.9102C58.8097 66.6552 62.0947 68.2902 63.5597 68.8702C67.5097 68.7702 67.4047 65.9802 67.0697 64.5052H67.0747ZM57.5347 61.7752C57.3097 61.6002 57.3447 61.1702 57.6197 60.8202C57.8947 60.4702 58.2997 60.3302 58.5247 60.5052C58.7497 60.6802 58.7147 61.1102 58.4397 61.4602C58.1647 61.8102 57.7597 61.9502 57.5297 61.7752H57.5347ZM60.8847 64.7852C60.5397 64.5152 60.4797 64.0152 60.7497 63.6702C61.0197 63.3252 61.5197 63.2652 61.8647 63.5352C62.2097 63.8052 62.2697 64.3052 61.9997 64.6502C61.7297 64.9952 61.2297 65.0552 60.8847 64.7852ZM64.4597 67.1802C64.2347 67.0052 64.2747 66.5802 64.5497 66.2302C64.8247 65.8802 65.2297 65.7352 65.4497 65.9102C65.6697 66.0852 65.6347 66.5102 65.3597 66.8602C65.0847 67.2102 64.6797 67.3552 64.4597 67.1802Z" fill="white"/>
<path d="M63.0898 69.4402C62.1398 69.0502 60.6548 68.3152 59.0048 67.0302C57.8598 66.1352 56.6448 64.9602 55.4748 63.4702C54.0948 65.1402 49.6398 70.5252 44.2898 77.0202C44.0898 77.2602 44.1298 77.6202 44.3748 77.8102L51.8498 83.6452C52.0948 83.8352 52.4498 83.7902 52.6348 83.5402L63.0898 69.4452V69.4402Z" fill="white"/>
<path d="M60.2745 58.3354C62.6845 61.2454 65.4195 62.8904 66.8095 63.5954L83.5495 42.4354C83.8745 42.0254 83.8095 41.4254 83.3945 41.0954L78.1745 36.9354C77.7595 36.6054 77.1545 36.6754 76.8245 37.0954L60.2695 58.3354H60.2745Z" fill="white"/>
<path d="M48.1548 88.6656L40.3798 82.6006C40.1448 82.4156 39.8048 82.4506 39.6148 82.6856C38.8298 83.6406 38.0348 84.6006 37.2448 85.5656C37.0448 85.8056 37.0848 86.1606 37.3298 86.3556L45.2498 92.5406C45.4948 92.7306 45.8498 92.6856 46.0348 92.4356L48.2548 89.4406C48.4348 89.2006 48.3898 88.8606 48.1498 88.6756L48.1548 88.6656Z" fill="white"/>
<path d="M41.5598 97.5555L33.3448 91.1454C33.1098 90.9604 32.7648 91.0005 32.5748 91.2305C31.7698 92.2105 30.9798 93.1705 30.2048 94.1105C30.0048 94.3505 30.0498 94.7054 30.2948 94.8954L38.6548 101.42C38.8998 101.61 39.2548 101.565 39.4398 101.315L41.6598 98.3205C41.8398 98.0805 41.7948 97.7405 41.5548 97.5555H41.5598Z" fill="white"/>
<path d="M51.4504 84.2205L43.9004 78.3305C43.6654 78.1455 43.3253 78.1805 43.1353 78.4105C42.3553 79.3555 41.5654 80.3155 40.7654 81.2855C40.5654 81.5255 40.6053 81.8855 40.8503 82.0755L48.5503 88.0855C48.7954 88.2755 49.1503 88.2305 49.3353 87.9805L51.5554 84.9855C51.7354 84.7455 51.6904 84.4055 51.4504 84.2205Z" fill="white"/>
</svg>
