<svg width="128" height="128" viewBox="0 0 128 128" fill="none" xmlns="http://www.w3.org/2000/svg">
<path d="M101.675 29.7652L102.04 29.3752C102.07 29.4002 102.1 29.4252 102.13 29.4452C102.665 29.8402 103.415 29.7402 103.84 29.2302C115.405 15.4102 115.33 11.4702 115.33 11.4702C109.78 13.0352 98.71 23.4902 98.2 24.2752C97.69 25.0602 98.335 25.9752 98.335 25.9752L98 26.3352C95.435 23.6652 92.415 21.8402 92.415 21.8402L94.44 19.6652C94.66 19.4302 94.65 19.0552 94.41 18.8352L87.005 11.9402L87.555 18.3952L82.495 18.3552L82.835 23.0852L76.415 23.3152L83.82 30.2102C84.14 30.5102 84.645 30.4902 84.945 30.1702L87.65 27.2652C89.3 30.3102 91.245 32.4102 91.245 32.4102L89.845 33.9152C91.485 35.7902 93.36 37.5102 94.54 38.4702L95.87 37.0452C100.16 39.5352 104.05 42.0252 107.075 44.6802C111.785 48.8152 115.55 55.2302 115.55 55.2302C116.405 43.3302 101.69 29.7702 101.69 29.7702L101.675 29.7652ZM94.575 33.5402L94.475 30.7802L97.235 30.6802L97.335 33.4402L94.575 33.5402ZM108.04 42.8002C105.81 40.4402 103.43 38.2052 100.965 36.1002C100.965 36.1002 100.98 36.0852 100.995 36.0652C100.28 36.1152 99.56 36.1652 98.845 36.2002C98.075 36.2452 97.305 36.2902 96.53 36.3152C97.995 36.1102 99.46 35.9202 100.93 35.7502C100.585 34.6302 100.225 33.5102 99.9 32.3852C99.635 31.3902 99.165 30.0152 98.8 29.0002C96.495 28.4502 94.135 27.8002 91.87 27.1352C91.895 28.7502 91.895 30.3652 91.875 31.9802C91.74 30.3452 91.625 28.7102 91.535 27.0752L91.51 27.1002L84.11 19.8402L91.88 26.7052L91.83 26.7602C94.17 27.3002 96.57 27.9502 98.915 28.4752L111.78 15.0552L99.31 28.8402L99.84 30.4552C100.37 32.2002 100.81 33.9702 101.265 35.7352C101.29 35.7052 101.31 35.6802 101.31 35.6802C103.735 37.8752 106.055 40.1702 108.23 42.6102C110.36 45.0552 112.525 47.6002 113.78 50.6202C112.445 47.6402 110.22 45.1702 108.03 42.7952L108.04 42.8002Z" fill="white"/>
<path d="M33.0551 99.8603C33.3301 100.12 33.4051 100.51 33.3951 100.86C33.5501 101.115 33.7201 101.38 33.7401 101.445C33.9151 101.935 33.9651 101.975 33.9901 102.475C34.0051 102.85 33.9601 103.33 33.9601 103.655L93.7901 39.2703C92.5701 38.2703 90.7301 36.5803 89.0951 34.7153L28.9301 99.3203C28.9301 99.3203 28.0401 101.29 29.9301 103.18C30.6051 103.855 31.2601 104.14 31.8201 104.235C31.9401 103.895 32.0351 103.42 32.0701 103.22C32.1101 103.01 32.0701 102.185 31.9351 102.025C31.7151 101.98 31.5001 101.88 31.3251 101.715C30.8101 101.24 30.7851 100.435 31.2601 99.9253C31.7351 99.4153 32.5401 99.3853 33.0501 99.8603H33.0551ZM87.8901 39.0303C88.3251 38.5653 89.0501 38.5403 89.5151 38.9703C89.9801 39.4053 90.0051 40.1303 89.5751 40.5953C89.1451 41.0603 88.4151 41.0853 87.9501 40.6553C87.4851 40.2203 87.4601 39.4953 87.8901 39.0303ZM83.3301 44.0053C83.7651 43.5403 84.4901 43.5153 84.9551 43.9453C85.4201 44.3803 85.4451 45.1053 85.0151 45.5703C84.5851 46.0353 83.8551 46.0603 83.3901 45.6303C82.9251 45.1953 82.9001 44.4703 83.3301 44.0053ZM79.0351 48.5453C79.4701 48.0803 80.1951 48.0553 80.6601 48.4853C81.1251 48.9203 81.1501 49.6453 80.7201 50.1103C80.2901 50.5753 79.5601 50.6003 79.0951 50.1703C78.6301 49.7353 78.6051 49.0103 79.0351 48.5453ZM74.5101 53.4053C74.9451 52.9403 75.6701 52.9153 76.1351 53.3453C76.6001 53.7803 76.6251 54.5053 76.1951 54.9703C75.7601 55.4353 75.0351 55.4603 74.5701 55.0303C74.1051 54.6003 74.0801 53.8703 74.5101 53.4053ZM69.7851 58.4803C70.2201 58.0153 70.9451 57.9903 71.4101 58.4203C71.8751 58.8553 71.9001 59.5803 71.4701 60.0453C71.0401 60.5103 70.3101 60.5353 69.8451 60.1053C69.3801 59.6703 69.3551 58.9453 69.7851 58.4803ZM64.9201 63.7053C65.3551 63.2403 66.0801 63.2153 66.5451 63.6453C67.0101 64.0803 67.0351 64.8053 66.6051 65.2703C66.1701 65.7353 65.4451 65.7603 64.9801 65.3303C64.5151 64.8953 64.4901 64.1703 64.9201 63.7053ZM60.3401 68.6253C60.7751 68.1603 61.5001 68.1353 61.9651 68.5653C62.4301 69.0003 62.4551 69.7253 62.0251 70.1903C61.5951 70.6553 60.8651 70.6803 60.4001 70.2503C59.9351 69.8153 59.9101 69.0903 60.3401 68.6253ZM55.2101 74.1353C55.6451 73.6703 56.3701 73.6453 56.8351 74.0753C57.3001 74.5103 57.3251 75.2353 56.8951 75.7003C56.4601 76.1653 55.7351 76.1903 55.2701 75.7603C54.8051 75.3253 54.7801 74.6003 55.2101 74.1353Z" fill="white"/>
<path d="M32.8347 100.6C33.3147 101.09 35.3147 103.07 30.6397 109.985C26.0747 116.735 21.5697 117.36 21.5697 117.36C21.5697 117.36 17.5397 118.515 15.4497 114.745C13.3597 110.975 18.1047 107.905 18.1047 107.905C18.1047 107.905 20.1797 106.7 22.3547 106.44C24.8797 106.14 28.7247 102.07 28.7247 102.07C28.7247 102.07 28.8047 102.54 29.2747 102.975C29.2747 102.975 26.6797 106.605 23.5347 107.455C20.3897 108.305 19.2547 108.535 17.4497 110.41C16.5747 111.315 16.4797 112.375 16.6147 113.225C16.7997 114.39 17.5447 115.415 18.6447 115.83C19.2997 116.075 20.1647 116.19 21.2447 115.895C23.9597 115.155 25.2697 114.005 27.8347 111.315C30.3997 108.625 33.3847 103.37 31.9597 101.58C31.6747 101.225 31.3297 101.51 31.2597 100.835C31.1547 99.8055 32.1447 99.9005 32.8347 100.605V100.6Z" fill="white"/>
</svg>
